<svg id="Layer_1" enable-background="new 0 0 249.438 243.074" height="243.074" viewBox="0 0 249.438 243.074" width="249.438" xmlns="http://www.w3.org/2000/svg"><circle cx="123.215" cy="121" fill="#f0f0f0" r="121"/><g><path d="m123.171 128.636c23.717-32.694 66.432-42.159 95.408-21.141 28.977 21.02 33.24 64.563 9.523 97.258-14.571 20.088-36.315 31.404-57.639 32.272l-90.39.048c-21.673-.515-43.917-11.875-58.74-32.31-23.716-32.693-19.452-76.238 9.524-97.256 28.975-21.019 71.69-11.554 95.407 21.141" fill="#f0f0f0"/><path d="m80.004 243.074-.073-.002c-24.353-.578-48.074-13.582-63.455-34.784-12.331-17.001-18.053-37.285-16.111-57.115 1.968-20.103 11.547-37.335 26.97-48.522 15.422-11.188 34.776-14.943 54.496-10.573 16.294 3.61 31.22 12.429 42.885 25.188 26.436-28.853 68.26-35.753 97.385-14.628 31.608 22.929 36.479 70.318 10.857 105.639-15.075 20.782-38.347 33.771-62.251 34.744l-.241.005zm-14.067-140.764c-11.521 0-22.413 3.423-31.556 10.055-12.605 9.143-20.444 23.341-22.073 39.978-1.656 16.909 3.274 34.274 13.883 48.898 13.181 18.172 33.347 29.32 53.956 29.833l90.191-.048c20.225-.863 39.996-11.995 52.908-29.796 21.735-29.964 18.062-69.835-8.19-88.878-26.251-19.042-65.292-10.156-87.028 19.808l-3.3-2.395-3.318 2.407c-10.608-14.625-25.586-24.703-42.173-28.378-4.484-.994-8.937-1.484-13.3-1.484z" fill="#6e6e96"/></g><g><ellipse cx="125.969" cy="133.226" fill="#fff" rx="102.616" ry="103.825"/><path d="m125.969 243.05c-59.892 0-108.617-49.267-108.617-109.824s48.726-109.825 108.617-109.825 108.616 49.268 108.616 109.825-48.724 109.824-108.616 109.824zm0-207.649c-53.275 0-96.617 43.884-96.617 97.825 0 53.94 43.342 97.824 96.617 97.824 53.274 0 96.616-43.884 96.616-97.824.001-53.941-43.341-97.825-96.616-97.825z" fill="#6e6e96"/></g><g enable-background="new" opacity=".67"><path d="m58.093 174.599c1.084 1.777 2.229 3.512 3.443 5.195l9.872-6.308c-1.228-1.676-2.384-3.403-3.461-5.188zm.589-52.787-11.612-1.513c-.297 2.042-.497 4.115-.646 6.205l11.624 1.514c.126-2.095.33-4.167.634-6.206zm.579 24.152-11.431 2.553c.418 2.049.917 4.066 1.481 6.057l11.444-2.557c-.584-1.984-1.084-4.002-1.494-6.053zm33.536-87.452 4.496 10.813c1.866-.905 3.776-1.729 5.725-2.468l-4.496-10.806c-1.942.746-3.852 1.571-5.725 2.461zm-26.351 40.21-10.391-5.394c-.993 1.823-1.9 3.69-2.752 5.596l10.403 5.397c.833-1.911 1.747-3.782 2.74-5.599zm7.474-27.752c-1.563 1.376-3.074 2.795-4.53 4.285l7.935 8.636c1.441-1.5 2.945-2.934 4.512-4.303zm46.756-20.01.527 11.696c2.05-.192 4.126-.307 6.228-.315l-.529-11.701c-2.097.021-4.171.14-6.226.32zm66.798 117.57 10.408 5.4c1.063-1.779 2.056-3.609 2.981-5.478l-10.386-5.385c-.918 1.871-1.924 3.694-3.003 5.463zm9.761-28.676c-.229 2.086-.552 4.142-.956 6.164l11.622 1.515c.388-2.029.7-4.084.934-6.164zm-51.265-75.103c2.02.542 4.004 1.164 5.94 1.878l3.513-11.189c-1.946-.698-3.938-1.307-5.947-1.863zm29.552 1.321-7.117 9.301c1.692 1.214 3.327 2.499 4.901 3.855l7.116-9.308c-1.582-1.34-3.213-2.629-4.9-3.848zm21.325 55.574 11.461-2.557c-.334-2.065-.771-4.094-1.254-6.108l-11.424 2.55c.495 2.009.907 4.043 1.217 6.115zm-1.324-34.87-9.863 6.303c1.166 1.716 2.257 3.486 3.266 5.306l9.868-6.303c-1.027-1.812-2.117-3.584-3.271-5.306z" fill="#6e6e96"/></g><g enable-background="new" opacity=".15"><path d="m125.969 233.576c-59.891 0-108.616-49.268-108.616-109.826h12c0 53.941 43.342 97.826 96.616 97.826s96.616-43.885 96.616-97.826h12c.001 60.558-48.724 109.826-108.616 109.826z" fill="#6e6e96"/></g><path d="m140.094 121.874c-1.535 0-3.071-.586-4.242-1.757-2.344-2.343-2.344-6.142-.001-8.485l26.374-26.375c2.344-2.343 6.144-2.343 8.485 0 2.344 2.343 2.344 6.142.001 8.485l-26.374 26.375c-1.172 1.171-2.708 1.757-4.243 1.757z" fill="#ff5757"/><g><circle cx="125.424" cy="128.655" fill="#fff" r="17.234"/><path d="m125.424 151.889c-12.811 0-23.233-10.423-23.233-23.234s10.422-23.234 23.233-23.234c12.812 0 23.234 10.423 23.234 23.234s-10.423 23.234-23.234 23.234zm0-34.468c-6.194 0-11.233 5.04-11.233 11.234s5.039 11.234 11.233 11.234 11.234-5.04 11.234-11.234-5.04-11.234-11.234-11.234z" fill="#6e6e96"/></g><path d="m146.907 187.772h-40.606c-3.313 0-6-2.687-6-6s2.687-6 6-6h40.606c3.313 0 6 2.687 6 6s-2.687 6-6 6z" fill="#66c8d0"/></svg>