<?xml version="1.0" standalone="no"?><!DOCTYPE svg PUBLIC "-//W3C//DTD SVG 1.1//EN" "http://www.w3.org/Graphics/SVG/1.1/DTD/svg11.dtd"><svg t="1716010919465" class="icon" viewBox="0 0 1024 1024" version="1.1" xmlns="http://www.w3.org/2000/svg" p-id="4262" xmlns:xlink="http://www.w3.org/1999/xlink" width="32" height="32"><path d="M944.864131 353.643956l-849.575141 1.422019a16.25571 16.25571 0 0 0-16.036312 18.717834l11.518355 75.046041 0.296592 2.108651 6.256884 46.747861 4.424511 53.51261c8.085194 101.255884 16.446666 205.953054 51.989017 305.953498a16.280087 16.280087 0 0 0 8.918091 9.499088l326.544335 139.776349a16.18664 16.18664 0 0 0 12.936311-0.069069l299.834754-131.764288 42.835277-18.709708 40.105001-17.226746c4.798299-2.063959 8.398038-6.602231 9.54378-11.697122l6.959767-31.280357c28.330683-79.25928 33.844054-164.787634 39.150217-247.512578l4.066975-58.745639c1.67392-16.759511 3.8232-32.182323 5.90341-46.300941l10.441683-70.853116a16.25571 16.25571 0 0 0-16.113507-18.624387z" fill="#D5D5ED" p-id="4263"></path><path d="M944.892571 337.396372h-0.056881l-849.57514 1.422019a32.507356 32.507356 0 0 0-32.072624 37.431605l11.485851 74.814455 0.341284 2.445873c1.942072 13.826088 4.14417 29.476424 6.134997 45.776825 1.556095 17.637099 3.002492 35.729245 4.400133 53.224143 8.170515 102.312241 16.617309 208.090146 52.874732 310.089543a32.503293 32.503293 0 0 0 17.836183 18.998175l326.540272 139.780412a32.446412 32.446412 0 0 0 25.868558-0.134076l299.834754-131.764288c15.345617-6.748496 30.175245-13.261344 42.733705-18.681267 24.332778-10.482312 39.897792-17.145487 40.04812-17.198305a32.503293 32.503293 0 0 0 19.07537-23.398309c0.024377-0.105636 2.311797-11.339586 6.54535-29.51299 28.956371-81.278548 34.490057-167.81044 39.853101-251.518608 1.235125-19.181006 2.494628-39.016141 4.030408-58.233713 1.665794-16.592931 3.778508-31.641956 5.801838-45.443667v0.004063c6.277198-42.522433 10.449809-70.869368 10.449809-70.869368a32.564237 32.564237 0 0 0-7.569205-25.998571 32.511419 32.511419 0 0 0-24.580615-11.233951z m-849.57514 33.925312l849.571077-1.422019s-4.17261 28.346935-10.441683 70.865305c-2.100525 14.224254-4.310749 30.085861-6.029361 47.369487-8.125823 101.87751-8.125823 207.513212-42.725579 303.369487-4.680474 20.001714-7.183228 32.222952-7.183228 32.222952s-15.47563 6.618483-40.153755 17.24706c-12.335 5.33054-26.868035 11.709311-42.928725 18.758463a20589436.312908 20589436.312908 0 0 0-299.830691 131.772414L169.055214 851.712232C128.019807 736.276786 123.956895 614.389436 113.486772 495.959625c-2.169595-17.836182-4.538272-34.538812-6.650987-49.575648l-11.518354-75.062293z m-20.607088 79.994668l-0.036566-0.239712c0.016252 0.077195 0.024377 0.158454 0.036566 0.239712z m886.043835 40.056246l0.024377-0.219398-0.024377 0.219398z" fill="#6E6E96" p-id="4264"></path><path d="M499.658398 991.496707V370.651304l445.23011-0.751639-4.956752 33.596217-5.501183 37.325969c-1.958323 128.875557-14.147058 254.825819-56.405402 382.608453l-378.366773 168.066403z" fill="#EDEDF7" p-id="4265"></path><path d="M974.104906 233.767747L488.188798 404.072815 62.493168 278.187561a16.251647 16.251647 0 0 0-20.858989 15.841292l2.856227 180.295767a16.251647 16.251647 0 0 0 10.665143 15.004333l427.918044 156.66181a16.25571 16.25571 0 0 0 11.957149-0.308781l492.599597-209.938771a16.263835 16.263835 0 0 0 9.881001-15.118094l-1.779556-171.678332a16.251647 16.251647 0 0 0-6.919138-13.135393 16.231332 16.231332 0 0 0-14.70774-2.043645z" fill="#FF3F84" p-id="4266"></path><path d="M979.472012 216.601946c-3.624117 0-7.244171 0.601311-10.750464 1.82831l-480.963418 168.570204L67.100509 262.602231a32.503293 32.503293 0 0 0-41.717976 31.686648l2.856227 180.295768a32.495167 32.495167 0 0 0 21.326223 30.004602l427.918043 156.66181a32.426098 32.426098 0 0 0 23.918361-0.625688l492.60366-209.942834a32.478916 32.478916 0 0 0 19.753876-30.236188l-1.779555-171.682395a32.507356 32.507356 0 0 0-13.830151-26.274849 32.592677 32.592677 0 0 0-18.677205-5.887159z m-490.864734 204.543224l490.864734-172.039931 1.779555 171.682395-492.599597 209.942833L60.73799 474.068657l-2.856227-180.295767 430.725515 127.37228z" fill="#6E6E96" p-id="4267"></path><path d="M533.315558 117.121554L52.713739 278.362266a16.259772 16.259772 0 0 0 0.560682 30.995953l430.725516 127.37228a16.243521 16.243521 0 0 0 9.982573-0.247838l490.868797-172.039931a16.251647 16.251647 0 0 0-1.231062-31.04877L542.63994 116.816836a16.239458 16.239458 0 0 0-9.324382 0.304718z" fill="#FF87B2" p-id="4268"></path><path d="M538.479519 100.028885c-3.490041 0-6.984145 0.564745-10.331985 1.686108L47.541653 262.955705a32.511419 32.511419 0 0 0 1.121363 61.987843l430.725516 127.37228a32.511419 32.511419 0 0 0 19.969211-0.495675l490.868796-172.039931a32.511419 32.511419 0 0 0-2.429621-62.097542L546.796299 101.109619a32.474853 32.474853 0 0 0-8.31678-1.080734zM57.881763 293.77289L538.487645 132.532178l440.992493 116.573061-490.868797 172.039931-430.729578-127.37228z" fill="#6E6E96" p-id="4269"></path><path d="M979.155105 248.776143l-1.958324 172.007428-488.536685 209.946896-427.918043-156.66181-2.856227-180.295767 430.725515 127.368217z" fill="#EB598E" p-id="4270"></path><path d="M488.611341 421.141107l0.048755 209.58936-427.918043-156.66181-2.856227-180.295767z" fill="#EB598E" p-id="4271"></path><path d="M172.711835 340.1429l286.435271 79.226777 29.51299 195.109143 23.304861-193.077687 467.190148-172.62499z" fill="#FF85B0" p-id="4272"></path><path d="M208.229808 316.569887a16.263835 16.263835 0 0 0-6.988208 11.713374c-0.272215 2.571823-26.319542 261.143646 39.637766 587.415766a16.247584 16.247584 0 0 0 8.812456 11.392404l56.336333 27.444969a16.280087 16.280087 0 0 0 17.56803-2.157407 16.25571 16.25571 0 0 0 5.172086-16.926089c-130.541351-455.533654-12.525957-567.739085-11.319272-568.81982a16.426352 16.426352 0 0 0 5.070514-15.922551c-1.365138-5.793712-5.708391-10.457935-11.453348-12.022155l-89.384056-24.37747a16.239458 16.239458 0 0 0-13.452301 2.258979z" fill="#FFD147" p-id="4273"></path><path d="M217.407926 297.482328a32.523608 32.523608 0 0 0-32.328588 29.102636c-0.284404 2.681522-6.890698 66.871463-5.306163 172.283706a2306.185846 2306.185846 0 0 0 10.587948 187.52775c7.626085 78.479201 19.262264 156.710565 34.59163 232.520433a32.462664 32.462664 0 0 0 17.620848 22.768557l56.336333 27.453094a32.523608 32.523608 0 0 0 35.131997-4.318875 32.49923 32.49923 0 0 0 10.348235-33.85218c-29.309845-102.283801-48.299894-195.190401-56.433842-276.147979-6.484407-64.498722-6.126871-121.481058 1.06042-169.374661 6.309702-42.034884 16.796077-68.976051 24.483105-84.17134 7.670777-15.15466 14.082052-21.821898 14.882446-22.618229A32.511419 32.511419 0 0 0 315.344411 323.001476l-89.384056-24.37747a32.66581 32.66581 0 0 0-8.552429-1.141678z m-5.375232 169.171515C212.04082 380.975162 217.403863 329.985621 217.403863 329.985621l89.384056 24.37747s-55.990985 47.243537-55.946293 214.212954c0.024377 87.458236 15.422813 207.777302 62.300687 371.346061L256.814106 912.473075c-36.610897-181.071783-44.789538-339.935692-44.781412-445.819232z m116.394293-88.039232l0.040629-0.04063-0.040629 0.04063z m-0.674444 0.589122l0.491613-0.422543-0.491613 0.422543z" fill="#6E6E96" p-id="4274"></path><path d="M325.530131 225.958831c-153.090511 7.292926-226.422003 88.644606-260.985193 155.609516C27.466806 453.412814 26.471393 522.746401 26.447016 525.663572a16.251647 16.251647 0 0 0 21.204335 15.613769s33.53121-10.742338 49.628466-15.885984l74.127823 133.462585a16.251647 16.251647 0 0 0 30.459649-7.886112c0-140.402038 47.454808-242.616769 141.043978-303.808281 70.36963-46.008411 142.153153-50.721389 142.868225-50.762018a16.271961 16.271961 0 0 0 15.248107-14.797125 16.247584 16.247584 0 0 0-12.39188-17.234871L330.088717 226.385437a16.235395 16.235395 0 0 0-4.558586-0.426606z" fill="#FFD147" p-id="4275"></path><path d="M326.306147 209.690933c-0.51599 0-1.03198 0.012189-1.54797 0.036566-70.284309 3.347839-130.789189 22.057547-179.824469 55.609072-39.682458 27.152439-71.588503 63.751147-94.828358 108.780396C11.267978 449.366154 10.223809 522.457935 10.195369 525.533559a32.535796 32.535796 0 0 0 42.412735 31.231602l36.935929-11.831199 67.655605 121.802028a32.507356 32.507356 0 0 0 60.919297-15.780349c0-75.273564 14.390833-139.788538 42.778397-191.761304 22.199749-40.645368 53.155073-74.005936 92.000571-99.155358 34.924789-22.614166 69.943024-34.360044 93.166627-40.235014 24.336841-6.155311 40.43816-7.183228 40.596614-7.191354a32.503293 32.503293 0 0 0 5.761208-64.063991l-158.551064-37.963846a32.503293 32.503293 0 0 0-7.565141-0.893841zM42.698662 525.801711c0.004063-0.524116 2.506816-270.216128 283.603422-283.607485l158.551064 37.963847s-299.237506 16.653875-299.237506 370.797568l-80.595978-145.106889L42.698662 525.801711z" fill="#6E6E96" p-id="4276"></path><path d="M184.404895 45.297402c-70.259931 38.142615-110.145535 82.432414-118.551699 131.634274-9.568157 56.015363 26.116396 96.250377 27.639988 97.936486l0.272215 0.304718 0.288466 0.288467c77.902268 77.902268 366.080528 10.860163 398.681332 2.961862l19.144439-4.639845-8.19083-17.91744c-3.396594-7.42294-84.516688-182.254091-202.044533-221.489629-39.893729-13.322287-79.344602-9.645352-117.239378 10.921107z" fill="#FFD147" p-id="4277"></path><path d="M255.00611 10.31167h-0.016251c-26.681141 0.004063-53.041312 6.971956-78.337 20.70866-39.093336 21.22465-69.707375 44.752972-90.988906 69.934899-19.412592 22.971702-31.471314 47.645765-35.843007 73.335555-4.513895 26.538939-0.605374 54.077354 11.30302 79.641194 8.605247 18.465933 18.457808 29.789268 20.347062 31.873542l0.532241 0.589122 0.560682 0.560682c28.261613 28.269739 78.361377 42.010506 153.167706 42.010506 49.112476 0 107.943437-5.850593 174.859592-17.389262 49.563459-8.544303 84.541066-17.007348 86.003714-17.360821l38.260439-9.300005-16.377597-35.80644c-1.08886-2.376803-27.14025-58.895967-70.637782-116.06926-26.17734-34.404736-53.37447-62.036598-80.843816-82.11957-36.850609-26.94523-74.530051-40.608802-111.990097-40.608802z m-0.008126 32.503293h0.520053c133.117237 0.552556 233.398023 219.815709 233.398023 219.815709s-139.211605 33.831865-253.188466 33.831865c-55.970671 0-105.8551-8.154264-130.179752-32.487041 0 0-25.039724-27.61561-25.068164-67.842499-0.032503-38.382326 22.70355-88.246441 111.677252-136.546335 21.537495-11.69306 42.571188-16.767636 62.832929-16.771699h0.008125z" fill="#6E6E96" p-id="4278"></path><path d="M812.937326 313.912743l-108.219714 16.296338a16.251647 16.251647 0 0 0-12.798172 10.592011 16.38166 16.38166 0 0 0 3.177197 16.385723c1.153867 1.308258 114.431907 135.859703-29.935533 568.970147a16.235395 16.235395 0 0 0 5.249282 17.815867 16.251647 16.251647 0 0 0 18.535003 1.267629l60.943674-36.566205a16.211017 16.211017 0 0 0 7.301053-9.612849c64.783126-234.840356 74.330969-565.31759 74.416289-568.628863a16.263835 16.263835 0 0 0-18.669079-16.519798z" fill="#FFD147" p-id="4279"></path><path d="M815.346633 297.482328c-1.608913 0-3.221889 0.117824-4.830802 0.361599l-108.215652 16.296339c-11.762129 1.771429-21.350601 10.11665-25.429764 21.289657s-1.462648 23.971179 6.39096 32.901458l-0.499738-0.560682 0.065007 0.077196c0.077195 0.077195 6.699741 7.979558 14.435525 25.892936 7.236046 16.751385 16.901712 45.845895 21.899094 89.327175 5.671825 49.413131 4.233554 106.724563-4.274183 170.333508-10.681395 79.949975-32.592677 169.992223-65.132537 267.611802a32.503293 32.503293 0 0 0 47.556381 38.15074l60.943675-36.566205a32.523608 32.523608 0 0 0 14.61023-19.225698c15.150598-54.942754 28.525703-119.303338 39.743402-191.294069 8.914028-57.282991 16.50761-119.559301 22.589788-185.098129 10.303544-111.50661 12.578774-192.73234 12.65597-196.124871a32.523608 32.523608 0 0 0-10.957673-25.218492 32.5683 32.5683 0 0 0-21.549683-8.154264zM707.14317 346.28196l108.211589-16.296339s-8.824644 329.095843-73.831231 564.744719l-60.943674 36.566205c56.807631-170.439144 74.477233-295.609326 74.469107-385.383421-0.012189-147.764034-47.905791-199.631164-47.905791-199.631164z" fill="#6E6E96" p-id="4280"></path><path d="M679.01157 217.857385l-158.551064 37.963847a16.239458 16.239458 0 0 0-12.359378 17.547715 16.263835 16.263835 0 0 0 15.841293 14.504595c0.625688 0.012189 63.905537 1.669857 130.10662 36.704344 87.665445 46.394388 139.240045 126.92536 153.297719 239.358314a16.251647 16.251647 0 0 0 28.407878 8.641813l69.910521-80.547224 50.985478 38.240125a16.259772 16.259772 0 0 0 26.002635-13.139457c-0.032503-2.921233-1.015728-72.258884-38.097923-144.10335-34.571315-66.96491-107.90687-148.31659-260.985192-155.609516a16.690441 16.690441 0 0 0-4.558587 0.438794z" fill="#FFD147" p-id="4281"></path><path d="M682.790078 201.162881c-2.547446 0-5.090828 0.300655-7.565142 0.893841l-158.542938 37.963846c-15.898173 3.806948-26.433303 18.831595-24.686251 35.087305s15.357806 28.684156 31.706962 29.021378l-0.093447-0.004063c0.150328 0.004063 15.552826 0.410354 38.60985 5.054263 20.919932 4.213239 52.716279 12.899744 85.361773 30.358075 35.90395 19.20132 65.770414 45.069879 88.770557 76.890603 29.045755 40.190322 47.519815 90.497294 54.910251 149.531401a32.511419 32.511419 0 0 0 32.239204 28.476947 32.503293 32.503293 0 0 0 24.544049-11.201447l60.005142-69.118253 38.869876 29.155454a32.482979 32.482979 0 0 0 34.156898 3.018743 32.495167 32.495167 0 0 0 17.848371-29.281404c-0.024377-3.067498-1.068546-76.167405-39.905918-151.416591-23.243918-45.02925-55.137774-81.627958-94.828358-108.780397-49.027155-33.551524-109.540161-52.261233-179.82447-55.609071a29.927407 29.927407 0 0 0-1.576409-0.04063z m-158.547002 70.46714l158.538876-37.963846c281.372883 13.399483 283.611548 283.607485 283.611547 283.607484l-63.076703-47.316669-79.836214 91.972131c-35.733308-285.83396-299.237506-290.2991-299.237506-290.2991z" fill="#6E6E96" p-id="4282"></path><path d="M690.24552 24.40591c-122.931518 41.039471-207.866686 224.089892-211.425796 231.862242l-8.19083 17.905252 19.128188 4.647971c34.128458 8.296466 335.815899 78.68641 417.382914-2.88873l0.276278-0.280341 0.260026-0.296593c1.596724-1.751115 38.76424-43.554413 28.830421-101.979082-8.743386-51.383644-50.445111-97.672396-123.951308-137.574252-39.515879-21.460299-80.677237-25.295688-122.309893-11.396467z" fill="#FFD147" p-id="4283"></path><path d="M738.927328 0c-38.947071 0-78.154168 14.228317-116.532432 42.286784-28.688219 20.97275-57.104223 49.839737-84.455744 85.800569-45.516799 59.818248-72.766748 118.937676-73.896237 121.424177l-16.377597 35.80644 38.260439 9.300005c1.531718 0.369725 38.171055 9.230935 90.091003 18.189656 70.085226 12.087162 131.695218 18.214033 183.111365 18.214033 78.007904 0 130.187878-14.26082 159.5221-43.599105l0.564744-0.560682 0.540368-0.589122c1.946135-2.153343 12.13998-13.87078 21.078385-33.031472 12.355314-26.514561 16.406037-55.072767 11.737752-82.586805-4.538272-26.656763-17.068292-52.281547-37.240648-76.155216-22.195686-26.258598-54.146424-50.810773-94.97056-72.973956h-0.008126C794.012284 7.240109 766.624197 0 738.927328 0z m-245.330794 263.0329S599.053469 32.503293 738.919202 32.503293c21.244965 0 43.302512 5.326477 65.90449 17.588345 93.312892 50.656382 117.154057 102.946055 117.121554 143.201384-0.036566 42.185212-26.287038 71.149709-26.287038 71.149708-25.515085 25.519148-77.837261 34.07564-136.534146 34.07564-119.526798 0-265.527528-35.48547-265.527528-35.48547z" fill="#6E6E96" p-id="4284"></path><path d="M599.581647 285.472361s26.75021-85.239886 93.796378-137.789586c0 0-90.147884 67.692171-133.783554 129.147773l39.987176 8.641813z" fill="#8F2B00" p-id="4285"></path><path d="M702.324557 141.40964a588.407116 588.407116 0 0 1 31.528194-20.338936c30.971575-18.583758 57.254551-26.778651 79.385231-28.379438h0.008126c-29.155454-4.123855-64.632798-31.727277-59.229126-59.233189-43.440651-5.192401-83.899126 12.615341-119.380533 40.360965 31.174721-1.019791 66.656128 34.461617 67.631227 67.623101l0.056881-0.032503z" fill="#FFFF00" opacity=".63" p-id="4286"></path><path d="M105.023727 505.844689l80.595978 145.102826c0-261.415861 163.032456-338.924027 248.418607-361.599136-270.809313-10.795156-329.014585 216.49631-329.014585 216.49631zM628.976813 295.174594c77.825073 30.870003 173.929185 102.153788 194.503769 266.750464l79.828088-91.976194c0.008126 0.004063-61.577489-169.045565-274.331857-174.77427z" fill="#D64000" opacity=".17" p-id="4287"></path><path d="M254.55919 96.750115c13.277595-21.923471 44.492945-35.509848 69.731753-34.624133-24.901585-13.704201-51.76962-21.326223-79.994668-18.827533-8.247711 13.050072-18.465933 25.588218-30.118364 35.741434-33.604342-8.83277-67.444333-1.625165-96.823247 35.201067 2.348363-2.722151 20.806171-22.122554 63.816153-15.520323-1.336698 0.44692-2.673396 0.885715-4.026346 1.25544 5.740894 0.040629 11.835262 0.621625 18.20997 1.694234 42.636195 11.022679 105.152216 45.86621 193.447413 134.161406 0.004063-0.004063-61.853767-95.567808-134.242664-139.081592z" fill="#FFFF00" opacity=".63" p-id="4288"></path><path d="M499.658398 683.458934s0.897903 232.825152 38.089797 291.115746l-38.089797 16.917964-35.322954-13.387294c0 0.004063 46.321256-189.096034 35.322954-294.646416z" fill="#FFFFFF" p-id="4289"></path><path d="M915.9362 158.58763c3.230015 23.552699 3.811011 44.200416 2.222412 62.406323-7.268549 26.644575-22.496342 43.444714-22.496342 43.444714-77.463473 77.471599-336.063737 12.391881-336.063736 12.391881s63.251409-89.164659 174.254217-155.759844c136.49758-81.900173 182.083448 37.516926 182.083449 37.516926z" fill="#E3AA00" p-id="4290"></path><path d="M756.141884 318.658223c-95.831897 0-196.283325-25.003158-200.512815-26.067641l-23.028583-5.793712 13.740767-19.3679c2.661207-3.75413 66.522052-92.719707 179.150026-160.294053 34.2991-20.578647 66.566744-31.012205 95.896904-31.012204 79.559936 0 108.540685 73.542764 109.73518 76.675268l0.662255 1.742989 0.2519 1.844562c3.274707 23.865543 4.050723 46.077481 2.311797 66.022314l-0.12595 1.454523-0.385977 1.40983c-8.203019 30.053357-25.409449 49.279055-26.13671 50.083512l-0.552556 0.576934c-28.346935 28.350997-79.153645 42.725579-151.006238 42.725578z m-167.745433-52.033709c35.517974 7.390436 103.624562 19.530416 167.745433 19.530416 61.69125 0 105.814471-11.355838 127.66481-32.844578 1.560158-1.840499 12.513768-15.25217 18.287166-35.209192 1.316383-16.601057 0.650066-35.168563-1.978638-55.239347-4.014157-9.121237-26.502373-54.235808-78.727039-54.235807-23.357679 0-49.998191 8.877462-79.17396 26.384548-75.915504 45.537114-129.14371 102.275675-153.817772 131.61396z" fill="#6E6E96" p-id="4291"></path><path d="M86.212446 163.036519c-3.08375 22.455713-3.624117 42.144583-2.124903 59.505404 6.939453 25.405387 21.460299 41.425447 21.460299 41.425447 73.87186 73.875922 320.433716 11.81901 320.433716 11.81901S365.679824 190.765891 259.840975 127.262582C129.6856 49.169357 86.212446 163.036519 86.212446 163.036519z" fill="#E3AA00" p-id="4292"></path><path d="M238.591947 316.423622h-0.008126c-68.724151 0-117.349077-13.785459-144.529956-40.966338l-0.548493-0.580996c-0.698821-0.771953-17.222682-19.233824-25.096605-48.056119l-0.385977-1.417957-0.12595-1.466711c-1.653605-19.132251-0.906029-40.36909 2.214287-63.113269l0.251901-1.844562 0.662254-1.738926c1.149804-3.006555 28.96856-73.595582 105.343173-73.595582 28.107223 0 59.001603 9.986637 91.829929 29.683633 107.524957 64.514974 168.493009 149.47452 171.036392 153.058007l13.736704 19.3679-23.02452 5.793712c-4.034471 1.015728-99.890746 24.877208-191.355013 24.877208zM117.41967 252.855306c20.704598 20.326747 62.576965 31.065022 121.164151 31.065023 60.317986 0 124.353537-11.282706 158.522624-18.344046-23.885858-28.22911-74.339094-81.607643-145.626942-124.377915-27.700932-16.621372-52.972242-25.051913-75.106985-25.051913-49.079973 0-70.385881 42.246155-74.339094 51.176435-2.478376 18.961609-3.11219 36.54589-1.877065 52.322177 5.423987 18.669079 15.625958 31.268168 17.263311 33.210239z" fill="#6E6E96" p-id="4293"></path><path d="M581.907981 261.314288c0 40.312209-41.027282 49.153105-91.630846 49.153106s-91.630846-8.840896-91.630846-49.153106 41.027282-96.839499 91.630846-96.839499c50.607627 0 91.630846 56.52729 91.630846 96.839499z" fill="#FFD147" p-id="4294"></path><path d="M490.277135 326.71904c-26.681141 0-107.882493 0-107.882493-65.404752 0-50.908283 49.782856-113.091146 107.882493-113.091145s107.882493 62.182863 107.882493 113.091145c0 65.404752-81.201352 65.404752-107.882493 65.404752z m0-145.992604c-29.768954 0-75.3792 36.103033-75.3792 80.587852 0 10.677332 0 32.901459 75.3792 32.901459s75.3792-22.224127 75.3792-32.901459c0-44.48482-45.614309-80.587853-75.3792-80.587852z" fill="#6E6E96" p-id="4295"></path><path d="M505.248255 210.489811a23.361742 32.503293 66.747 1 0-59.726137 25.664078 23.361742 32.503293 66.747 1 0 59.726137-25.664078Z" fill="#FFFFFF" p-id="4296"></path><path d="M296.155279 152.696408c-77.50004-55.706582-173.124728-89.489692-208.939294 6.009047-7.833294 20.891492-18.803155 48.161755 4.091352 83.017473 0 0-0.101573-34.254408 42.575251-54.052976 57.417067-26.640512 172.523417-30.414957 282.282976 79.340539 0.004063-0.004063-52.679712-65.916679-120.010285-114.314083z" fill="#6E6E96" opacity=".25" p-id="4297"></path><path d="M573.278357 271.073402c109.763621-109.755495 224.865908-105.98105 282.287038-79.340538 42.680887 19.798568 42.575251 54.052977 42.575252 54.052976 22.89857-34.851656 11.932772-62.125982 4.091352-83.017474-35.80644-95.498738-131.439255-61.715628-208.939295-6.009046-67.330572 48.397404-120.01841 114.310019-120.014347 114.314082z" fill="#6E6E96" opacity=".25" p-id="4298"></path></svg>