<?xml version="1.0" standalone="no"?><!DOCTYPE svg PUBLIC "-//W3C//DTD SVG 1.1//EN" "http://www.w3.org/Graphics/SVG/1.1/DTD/svg11.dtd"><svg t="1716009876334" class="icon" viewBox="0 0 1110 1024" version="1.1" xmlns="http://www.w3.org/2000/svg" p-id="3882" xmlns:xlink="http://www.w3.org/1999/xlink" width="34.6875" height="32"><path d="M568.755509 50.432728c-40.186233 15.500088-46.115856 19.772775-45.320526 32.639439l0.335805 5.430334 172.493716 222.453664 13.918266-10.560209c129.148257-97.887389 232.488071-53.401958 294.236571-26.824697 31.349238 13.489672 56.092823 24.147088 73.028923 7.210988 10.365795-10.361376 15.557529-23.060137 15.557529-37.318628 0-12.482255-3.981066-26.157504-11.969709-40.51762-5.346382-9.610232-9.795808-15.928683-13.807804-20.082071l0.083951 0.03093C888.120074-41.114117 658.959131 15.637062 568.755509 50.432728z" fill="#C9C9DB" p-id="3883"></path><path d="M740.798538 0h-0.044185c-121.049151 0.008837-212.662274 48.815558-216.506367 50.89667l-36.647016 19.821379 25.530077 32.926642 158.438475 204.333406 21.420875 27.628864 27.863044-21.115999c27.041203-20.497409 54.48449-35.626344 81.574297-44.958209 22.923164-7.895855 46.36771-11.899013 69.701794-11.899014 40.742963 0.004418 75.710951 11.894595 101.625438 22.251553 8.364215 3.344802 16.123097 6.685186 23.630123 9.915108 22.565266 9.716276 40.398321 17.386787 57.683482 17.386786 17.351439 0 28.547911-7.55563 34.888455-13.896174 12.897594-12.897594 20.02463-29.338822 20.61229-47.538612 0.406502-12.561788-2.32413-25.777513-8.112361-39.284859-7.621908-17.766778-18.646059-31.442027-21.668311-35.025428-49.381126-61.602689-106.706709-107.32088-170.434696-135.882047C857.711976 11.960872 800.660339 0 740.798538 0z m0.008837 35.347978h0.565567c94.516075 0.128136 207.846112 32.643858 306.179769 151.267255 0.278365 0.349061 0.58766 0.70696 0.861607 1.05602l0.985325 1.184158a0.883699 0.883699 0 0 0 0.061859 0.070696l0.967651 1.188575 2.107623 2.58924c0.331387 0.406502 0.658356 0.830677 0.998581 1.241598 0 0 21.708077 24.805444 21.739006 49.306011 0.013255 8.770717-2.757142 17.506086-10.299517 25.044042-2.46994 2.46994-5.779394 3.543635-9.87976 3.543635-13.96687 0-37.19491-12.385048-68.195087-24.778933-30.986921-12.385048-69.74598-24.770096-114.739537-24.774514-50.406217-0.004418-108.64643 15.535436-172.630689 64.032863L541.095716 81.985217S627.291761 35.356815 740.776445 35.347978h0.03093z m339.517331 135.55066c-0.070696-0.070696-0.110462-0.132555-0.159066-0.185577l0.159066 0.185577z" fill="#6E6E96" p-id="3884"></path><path d="M1075.190412 245.319387c1.268109-25.154505-21.668311-51.378286-21.668311-51.378286-217.337044-271.675724-512.448477-111.955884-512.448477-111.955884l95.399774 123.02422 0.004419 0.004418s288.801819-188.550534 438.712595 40.305532z" fill="#D5D5E8" p-id="3885"></path><path d="M559.361784 73.364729c16.896334 15.667991 37.552808 30.765997 62.33616 44.865421 0 0 270.495985-130.659383 445.543591 115.565797a328.568295 328.568295 0 0 1 7.948877 11.519022c1.268109-25.150087-21.668311-51.378286-21.668311-51.378286-185.108525-231.396703-426.614749-149.844498-494.160317-120.571954z" fill="#FFFFFF" opacity=".68" p-id="3886"></path><path d="M874.431569 595.259953c161.730256 210.3514 127.805034 299.547605 56.2784 354.522548-71.513378 54.974943-153.560454 54.952851-315.277455-155.407386-161.725837-210.3514-234.834293-425.461522-163.329751-480.44972 71.526634-54.974943 260.60297 70.983159 422.328806 281.334558z" fill="#FFBF00" p-id="3887"></path><path d="M851.857467 998.35946c-70.475032 0-147.714783-59.587854-250.436007-193.212049-79.365048-103.224933-140.393333-211.036267-171.848615-303.568437-33.474535-98.475049-29.299055-170.090053 11.757621-201.664634 14.28942-10.984384 32.157823-16.556109 53.114756-16.556109 97.189266 0 255.526116 121.013803 393.997402 301.120589 76.965804 100.109893 115.972298 180.380733 119.250823 245.412176 2.708539 53.773112-18.950935 97.569257-66.211181 133.90256-30.66879 23.58152-59.146005 34.565904-89.624799 34.565904z m-357.412245-679.648833c-12.981545 0-23.599194 3.106204-31.570163 9.230241-54.617045 42.002235 0.357898 239.464879 166.56851 455.661951 92.806117 120.722183 165.556675 179.408664 222.413898 179.408663 22.278063 0 43.911026-8.655836 68.080206-27.235617 38.409997-29.528817 54.586115-61.6292 52.447563-104.099796-2.858768-56.80862-40.535294-132.731658-111.96914-225.639401-65.163998-84.760033-135.912976-157.457569-204.598516-210.240937-64.677963-49.708094-121.985873-77.085104-161.372358-77.085104z" fill="#6E6E96" p-id="3888"></path><path d="M849.241716 610.229822c125.436719 169.533322 101.002429 230.4644 47.644657 262.604549-53.379866 32.135731-115.499519 23.342921-240.914146-146.190401-125.427882-169.533322-183.827161-333.030977-130.469388-365.175545 53.371029-32.148986 198.310995 79.232493 323.738877 248.761397z" fill="#FFFF8C" opacity=".54" p-id="3889"></path><path d="M732.534125 378.029702a82.312186 190.220726 53.983 1 0-307.717238 223.709186 82.312186 190.220726 53.983 1 0 307.717238-223.709186Z" fill="#FFBF00" p-id="3890"></path><path d="M567.173687 500.902944a57.493487 55.92492 90 1 0 111.84984 0 57.493487 55.92492 90 1 0-111.84984 0Z" fill="#FFE79E" p-id="3891"></path><path d="M471.031605 637.734968c-34.66753 0-52.07199-13.927103-60.568761-25.614029-33.51872-46.111438 13.498509-133.434199 109.357808-203.127157 57.701156-41.949213 119.895924-66.988837 166.378515-66.988837 34.671948 0 52.07199 13.927103 60.568761 25.614029 17.329346 23.842211 13.807804 59.079727-9.919527 99.226193-21.115998 35.732387-56.433047 72.631258-99.438281 103.896545-57.696737 41.949213-119.891505 66.993256-166.378515 66.993256z m215.17198-260.382045c-38.701618 0-94.489564 23.077811-145.593903 60.232955-86.469992 62.861961-117.425984 131.914236-101.554742 153.75045 6.641001 9.128615 21.05414 11.050662 31.976665 11.050662 38.701618 0 94.489564-23.08223 145.593904-60.237374 39.187652-28.49047 71.080366-61.620363 89.79712-93.287733 15.64148-26.466799 20.037885-49.062994 11.757621-60.45388-6.641001-9.137452-21.05414-11.05508-31.976665-11.05508z" fill="#6E6E96" p-id="3892"></path><path d="M392.400027 58.050217L200.955377 205.23478c-57.272562 44.034744-70.934555 128.538504-30.452283 188.373795l75.366308 111.381479c34.159402 50.503424 96.747416 102.084961 142.350727 100.989174 38.675107-0.932303 110.811493-33.828015 164.231125-74.893529l127.986192-98.391097c57.714411-44.388224 68.579496-127.46481 24.204529-185.192477L577.592504 82.254745c-44.383805-57.727667-127.460391-68.588333-185.192477-24.204528z" fill="#B2B2B2" p-id="3893"></path><path d="M472.706215 13.145029h-0.026511c-16.123097 0-32.038524 2.567147-47.277921 7.635164a148.611737 148.611737 0 0 0-43.765215 23.258969l-191.453487 147.188982c-15.888916 12.208308-29.078131 27.31515-39.223001 44.905188a159.644725 159.644725 0 0 0-19.344181 54.546349 159.817047 159.817047 0 0 0 1.170902 57.86464 152.349786 152.349786 0 0 0 23.08223 54.970525l75.375145 111.381479c19.05256 28.176757 44.432409 54.678904 71.438264 74.606327 21.115998 15.579621 52.862901 34.163821 84.097259 34.16382 0.645101 0 1.303457-0.008837 1.93972-0.02651l-0.070696 0.004418c48.532774-1.170902 126.174608-41.339461 174.574828-78.543208l127.977355-98.399934a148.125703 148.125703 0 0 0 38.949053-44.883095 150.16263 150.16263 0 0 0 18.120258-54.435887 149.694269 149.694269 0 0 0-3.517124-57.268143 148.099192 148.099192 0 0 0-26.108901-53.388703L591.59914 71.482449v-0.004419a149.734036 149.734036 0 0 0-53.715671-43.548709 151.806311 151.806311 0 0 0-65.177254-14.784292z m-0.008837 35.347979h0.198833c33.315469 0.05744 66.281878 14.510345 88.67924 42.01549l0.658356 0.817422 0.008837 0.008837 0.623008 0.782074 0.70696 0.910211 127.045052 165.251798a113.665843 113.665843 0 0 1 23.577102 69.445522c0.022092 34.411257-15.323349 68.491126-44.542871 90.963603l-127.977356 98.391098c-49.875997 38.348138-119.122687 70.408754-153.878586 71.235013a39.563225 39.563225 0 0 1-1.020673 0.013255c-34.857525 0-91.361268-41.631081-126.25856-93.234711L185.141575 383.706722c-13.631064-20.148348-20.196951-43.57522-20.254391-66.944652-0.079533-37.062355 16.26007-73.992155 46.849327-97.511816L403.167905 72.065691a113.70119 113.70119 0 0 1 69.502962-23.572683h0.026511z" fill="#8C8C8C" p-id="3894"></path><path d="M392.400027 58.050217L200.955377 205.23478c-57.272562 44.034744-70.934555 128.538504-30.452283 188.373795l75.366308 111.381479c34.159402 50.503424 96.747416 102.084961 142.350727 100.989174 38.675107-0.932303 110.811493-33.828015 164.231125-74.893529l127.986192-98.391097c57.714411-44.388224 68.579496-127.46481 24.204529-185.192477L577.592504 82.254745c-44.383805-57.727667-127.460391-68.588333-185.192477-24.204528z" fill="#D5D5E8" p-id="3895"></path><path d="M434.552491 174.981329s-84.707011 82.957286-14.011055 204.465962 33.13873 136.973416 33.13873 136.973416l207.669372-145.810411s86.160697-50.812719-15.46474-192.204631c0 0 132.554918 148.019659 66.277459 229.761858s-265.109837 187.786134-265.109837 187.786135H384.124182s16.534017-48.086506 16.534017-77.323703c0-29.237196-114.589308-195.169443 33.894292-343.648626z" fill="#C9C9DB" p-id="3896"></path><path d="M472.706215 13.145029h-0.026511c-16.123097 0-32.038524 2.567147-47.277921 7.635164a148.611737 148.611737 0 0 0-43.765215 23.258969l-191.453487 147.188982c-15.888916 12.208308-29.078131 27.31515-39.223001 44.905188a159.644725 159.644725 0 0 0-19.344181 54.546349 159.817047 159.817047 0 0 0 1.170902 57.86464 152.349786 152.349786 0 0 0 23.08223 54.970525l75.375145 111.381479c19.05256 28.176757 44.432409 54.678904 71.438264 74.606327 21.115998 15.579621 52.862901 34.163821 84.097259 34.16382 0.645101 0 1.303457-0.008837 1.93972-0.02651l-0.070696 0.004418c48.532774-1.170902 126.174608-41.339461 174.574828-78.543208l127.977355-98.399934a148.125703 148.125703 0 0 0 38.949053-44.883095 150.16263 150.16263 0 0 0 18.120258-54.435887 149.694269 149.694269 0 0 0-3.517124-57.268143 148.099192 148.099192 0 0 0-26.108901-53.388703L591.59914 71.482449v-0.004419a149.734036 149.734036 0 0 0-53.715671-43.548709 151.806311 151.806311 0 0 0-65.177254-14.784292z m-0.008837 35.347979h0.198833c33.315469 0.05744 66.281878 14.510345 88.67924 42.01549l0.658356 0.817422 0.008837 0.008837 0.623008 0.782074 0.70696 0.910211 127.045052 165.251798a113.665843 113.665843 0 0 1 23.577102 69.445522c0.022092 34.411257-15.323349 68.491126-44.542871 90.963603l-127.977356 98.391098c-49.875997 38.348138-119.122687 70.408754-153.878586 71.235013a39.563225 39.563225 0 0 1-1.020673 0.013255c-34.857525 0-91.361268-41.631081-126.25856-93.234711L185.141575 383.706722c-13.631064-20.148348-20.196951-43.57522-20.254391-66.944652-0.079533-37.062355 16.26007-73.992155 46.849327-97.511816L403.167905 72.065691a113.70119 113.70119 0 0 1 69.502962-23.572683h0.026511z" fill="#6E6E96" p-id="3897"></path><path d="M275.6324 282.27128l278.0958-200.290481c-39.907867-39.934378-104.656527-45.214483-150.555876-9.923945L211.727674 219.250254C161.851676 257.598391 149.886386 331.599384 185.141575 383.706722l75.370727 111.38148c35.25519 52.111757 92.527752 94.056552 127.292488 93.225874 12.367374-0.291621-9.300937-4.608493 9.371633-11.691344 28.468378-44.308691-42.103861-184.397147-91.029881-233.336423-53.764275-53.759856-30.514142-61.015029-30.514142-61.015029z" fill="#EEEEFA" p-id="3898"></path><path d="M400.552155 460.478112S320.749675 321.67102 180.948421 296.251406c0 0 61.638037 6.371473 295.849323-158.858233-0.008837 0-194.948518 134.216273-76.245589 323.084939z" fill="#FFFFFF" p-id="3899"></path><path d="M848.02663 797.688988a17.673989 17.673989 0 0 1-16.993541-12.853409c-27.642119-97.388099-127.438299-192.70834-128.441297-193.662735a17.673989 17.673989 0 1 1 24.301735-25.662633c4.391986 4.153387 107.88203 103.043775 138.144317 209.679789a17.660734 17.660734 0 0 1-17.011214 22.498988z" fill="#FFFFFF" opacity=".69" p-id="3900"></path><path d="M284.115914 655.236636s34.185913-51.42689 88.179951-51.42689c0 0 91.299409-34.751481-32.612929-219.373972C230.192574 221.326947 148.795017 323.345631 148.795017 323.345631s7.122618 10.20231-59.495066 60.652712" fill="#FFFFFF" p-id="3901"></path><path d="M284.09824 672.884114a17.585619 17.585619 0 0 1-9.800227-2.982486 17.64306 17.64306 0 0 1-4.900113-24.447545c1.572985-2.363896 38.361393-56.667228 98.514815-59.216701 3.773397-2.377152 12.212726-9.080012 16.463321-23.55059 14.20105-48.395801-31.097384-126.280652-59.366929-168.39335-36.267026-54.033803-73.386821-83.332859-107.347392-84.724686-25.715654-1.08695-44.54729 14.280583-51.784788 21.345761-4.665933 15.712176-25.481474 36.558646-65.910724 67.178832a17.678408 17.678408 0 0 1-21.341342-28.181175c39.532295-29.935319 50.012971-43.588476 52.522678-47.578379a17.629804 17.629804 0 0 1 3.826418-10.007896c1.312294-1.643681 32.679206-40.142048 84.137025-38.07861 46.332362 1.908791 91.834047 35.66611 135.250202 100.339655 57.153262 85.157698 78.463675 152.442575 63.33474 199.994442-10.856248 34.128473-36.25377 44.657752-39.112538 45.749121a17.691663 17.691663 0 0 1-6.287521 1.157646c-43.592894 0-73.201244 43.151044-73.492866 43.584057a17.713756 17.713756 0 0 1-14.704759 7.811904zM132.786801 330.834984z" fill="#6E6E96" p-id="3902"></path><path d="M104.119591 371.418881a18.403041 18.403041 0 0 0-1.449267 1.06044L41.482973 422.31997a17.673989 17.673989 0 0 0-3.150388 24.071973l172.670455 238.320488a17.678408 17.678408 0 0 0 24.005696 4.40966l54.586115-35.794246c21.34576-14.041984 35.705877-36.43051 41.542711-64.761915 8.982805-43.539872-3.58782-96.79602-33.60709-142.421423C246.377529 368.414303 159.620335 334.895583 104.119591 371.418881z" fill="#FFFFFF" p-id="3903"></path><path d="M156.120885 338.72642c-22.55201 0-43.893352 6.199152-61.713151 17.930262a35.188912 35.188912 0 0 0-2.894116 2.11646L30.317431 408.61821a35.347978 35.347978 0 0 0-6.300777 48.148365l172.670455 238.316069a35.334723 35.334723 0 0 0 48.006973 8.819321l54.577278-35.789828 0.053022-0.026511c17.187954-11.32019 30.49205-26.9926 39.563225-46.628402 8.134453-17.585619 12.424814-37.535134 12.773875-59.282978 0.645101-41.5162-13.343862-86.191626-39.373229-125.75927v-0.004418c-19.061397-28.96325-43.424991-53.357773-70.457358-70.536891-27.960251-17.757941-57.599531-27.147247-85.71001-27.147247zM52.644097 436.026149l61.191769-49.84065c12.491092-8.218405 26.935159-12.111101 42.285019-12.111101 42.916864 0 92.85472 30.447865 126.634132 81.777548 22.384107 34.031266 33.545231 70.947811 33.576161 103.450277 0.026511 34.062196-12.159705 63.2773-36.439347 79.259004l-54.577278 35.798665-172.670456-238.333743z" fill="#6E6E96" p-id="3904"></path><path d="M218.757503 505.772128c-14.832895 0-43.959629 35.339141-65.477711 80.129448l72.043598 88.44506 54.577278-35.794246c47.436987-31.207846 48.727188-113.003068 2.858768-182.700444-0.008837-0.004418-23.479895 49.920182-64.001933 49.920182z" fill="#D5D5E8" p-id="3905"></path><path d="M47.96049 417.455204c-14.771036 9.716276-24.5801 24.606611-28.397682 43.062675a96.773927 96.773927 0 0 0-1.90879 19.538595c0 46.261667 28.901391 97.759252 47.786048 126.475066 31.579 47.989299 72.719628 80.27084 112.874931 88.555523 22.821538 4.7057 43.999396 1.197413 61.249209-10.158126 46.606309-30.673208 41.622244-101.29405-12.999219-184.291103-32.467118-49.345778-76.926038-83.986796-118.945946-92.655888-22.543173-4.648259-43.173137-1.374153-59.658551 9.473258z" fill="#D5D5E8" p-id="3906"></path><path d="M228.230761 498.313705c-32.467118-49.345778-76.926038-83.986796-118.945947-92.655888-22.55201-4.648259-43.173137-1.374153-59.667387 9.473258-14.771036 9.716276-24.5801 24.606611-28.397682 43.062674a96.773927 96.773927 0 0 0-1.908791 19.538595c0 46.25283 28.901391 97.759252 47.786048 126.479485 31.579 47.98488 72.719628 80.266422 112.874932 88.551104 22.821538 4.7057 43.999396 1.197413 61.249209-10.158125 46.615146-30.682045 41.631081-101.29405-12.990382-184.291103z m2.991323 180.650261c-13.383628 9.137452-29.811601 11.969709-47.512102 8.183057-31.150406-6.671931-63.056375-32.648276-87.556942-71.27478-14.651737-23.108741-37.071192-64.563082-37.071192-101.788922 0-5.3508 0.459524-10.61323 1.480197-15.725431 2.955975-14.854988 10.569045-26.837952 22.02179-34.658693 12.795968-8.730951 28.795347-11.364375 46.288178-7.626326 32.590836 6.976807 67.086044 34.857525 92.26706 74.570978 42.36897 66.790005 46.235156 123.638391 10.083011 148.320117z" fill="#FFFFFF" p-id="3907"></path><path d="M88.182071 388.257774c-18.575363 0-35.374489 4.855929-49.946693 14.43965-17.855148 11.744366-46.283759 40.54855-36.085867 101.484045 5.624747 33.620346 22.4062 72.374985 48.528355 112.070765 19.154186 29.113479 42.360133 53.552187 67.108137 70.665027 26.365173 18.235138 53.95427 27.880718 79.789224 27.880718 18.81838 0 36.69562-5.227082 51.705255-15.098005 16.101004-10.586719 27.951414-25.887976 34.278702-44.246832 5.465681-15.853568 6.888437-33.925222 4.228502-53.715672-4.44059-33.054778-20.506246-71.371987-46.456081-110.807074v0.004418c-19.573943-29.736487-43.729868-55.027965-69.878534-73.134967-27.907229-19.326507-56.702576-29.542073-83.271-29.542073zM35.367773 479.672065c0.008837-20.656475 6.901693-37.323047 22.300156-47.445824 8.885598-5.845672 19.255811-8.620488 30.509724-8.620488 38.882776 0 88.308087 33.090126 123.625135 86.757194 26.687724 40.552968 41.887354 79.497603 41.940376 110.047093 0.035348 21.584359-7.493771 38.966728-23.890815 49.761116-9.513025 6.274266-20.484153 9.287681-32.277122 9.287682-37.247932 0-82.780547-30.054618-117.368544-82.612644C52.378988 554.521409 35.354518 512.161275 35.367773 479.672065z" fill="#6E6E96" p-id="3908"></path><path d="M251.37485 552.762847c1.930883 31.331564-8.483515 56.243052-31.512723 71.398497-17.249813 11.355538-38.427671 14.868243-61.249209 10.158125-40.155303-8.284682-81.287094-40.561805-112.874932-88.551104-10.55579-16.052401-24.226621-39.218582-34.252191-64.607267 2.858768 44.202647 29.63928 91.741259 47.507683 118.897344 31.579 47.989299 72.719628 80.27084 112.874932 88.555522 22.821538 4.7057 43.999396 1.197413 61.249209-10.162544 35.140309-23.121996 40.937377-68.963906 18.257231-125.688573z" fill="#6E6E96" opacity=".2" p-id="3909"></path><path d="M297.521635 446.13567l54.267984-49.222059s104.722804 140.768905 36.421673 209.065617l-53.83939 3.225503c0.008837 0 30.125314-140.561235-36.850267-163.069061z" fill="#6E6E96" opacity=".2" p-id="3910"></path></svg>