<?xml version="1.0" standalone="no"?><!DOCTYPE svg PUBLIC "-//W3C//DTD SVG 1.1//EN" "http://www.w3.org/Graphics/SVG/1.1/DTD/svg11.dtd"><svg t="1716009858009" class="icon" viewBox="0 0 1078 1024" version="1.1" xmlns="http://www.w3.org/2000/svg" p-id="3694" xmlns:xlink="http://www.w3.org/1999/xlink" width="33.6875" height="32"><path d="M331.013478 38.093045L213.45668 88.883772a17.401171 17.401171 0 0 0-10.493736 15.970997v189.982705a17.383783 17.383783 0 0 0 25.956131 15.123326s76.89031-43.565959 90.709525-51.408005c3.594996 1.882265 99.238403 51.673174 99.238404 51.673174a17.392477 17.392477 0 0 0 25.412751-14.971179l4.890412-186.896313a17.375089 17.375089 0 0 0-8.733188-15.536294L346.562813 38.971146a17.383783 17.383783 0 0 0-15.549335-0.878101zM301.901402 238.76945c0 2.190904 0.478174 3.938411 1.043288 5.612019a17.322924 17.322924 0 0 1-1.043288-5.612019z m1.93443 7.746412c0.721607 1.360621 1.504073 2.682119 2.529972 3.729754a16.692605 16.692605 0 0 1-2.529972-3.729754z m6.698777 7.276932a17.27076 17.27076 0 0 1-4.077517-3.41242c1.538849 1.543197 3.342868 2.773407 5.203398 3.894941-0.369498-0.199963-0.769425-0.273863-1.125881-0.482521z" fill="#E05757" p-id="3695"></path><path d="M337.907872 19.279089a34.732789 34.732789 0 0 0-13.788787 2.851653L206.55794 72.925816a34.780606 34.780606 0 0 0-20.983126 31.9333v189.987053a34.754524 34.754524 0 0 0 17.27076 30.037994 34.70236 34.70236 0 0 0 34.645849 0.217351L319.985057 278.344833l90.861672 47.308754a34.8632 34.8632 0 0 0 33.706889-0.882447 34.802342 34.802342 0 0 0 17.118614-29.064259l4.894759-186.883271a34.771912 34.771912 0 0 0-17.46203-31.072588L355.217755 23.89129a34.815383 34.815383 0 0 0-17.309883-4.612201zM220.351074 104.850422l117.561145-50.803768 93.891553 53.859732-4.894758 186.887618-107.623829-56.020207L220.351074 294.837474V104.850422z" fill="#6E6E96" p-id="3696"></path><path d="M220.351074 294.82878V104.846075l117.556798-50.790727 46.304589 147.925167z" fill="#943939" p-id="3697"></path><path d="M220.351074 104.846075L319.289532 157.406044l112.509893-49.499658-93.891553-53.851038z" fill="#FF7878" p-id="3698"></path><path d="M319.289532 157.406044v81.363406l107.615135 56.033248 4.894758-186.896312z" fill="#C44C4C" p-id="3699"></path><path d="M103.959281 414.354784c-18.396641 15.271125-33.459109 47.317448-33.459109 71.226126v291.494607c0 23.908678 18.387947 50.147366 40.862105 58.302399L564.896864 1000.03481c22.474158 8.155033 57.719897 4.920841 78.337872-7.189991l313.699248-184.370687c20.609281-12.106485 37.475767-41.575018 37.475766-65.483696V465.13247c0-23.908678-11.05885-59.606509-24.56508-79.333342l-203.132478-296.485c-13.50623-19.722486-42.731329-28.594779-64.935971-19.718139L390.420024 194.12108c-22.191601 8.87664-55.420316 28.633903-73.816958 43.896334L103.959281 414.354784z" fill="#EDD1B0" p-id="3700"></path><path d="M593.991552 1021.922118c-12.91938 0-25.030213-1.912694-35.02404-5.542466L105.428577 851.718411c-29.338122-10.641535-52.316535-43.431201-52.316535-74.647241v-291.494607c0-28.946889 17.457682-66.109669 39.744918-84.606292l212.643785-176.33737c19.935491-16.540458 54.403111-37.032369 78.459588-46.652352l311.351851-124.525091c7.785535-3.112475 16.214431-4.690448 25.060642-4.690448 24.44771 0 47.704334 11.776111 60.680226 30.729172l203.132478 296.485c15.48413 22.613263 27.61235 61.775678 27.61235 89.161982v277.853619c0 29.959747-20.231089 65.305468-46.056809 80.480958l-313.699248 184.366339c-15.240696 8.95054-36.40205 14.080038-58.050271 14.080038z m126.381274-938.385196c-4.403544 0-8.489754 0.743343-12.149956 2.203946L396.875367 210.265959c-20.500605 8.20285-52.181777 27.038542-69.174327 41.13162L115.061601 427.739297c-14.471271 12.010851-27.168953 39.040698-27.168952 57.841613v291.494607c0 16.666522 13.74097 36.275986 29.407674 41.957557l453.538934 164.661241c6.142357 2.230028 14.366942 3.455891 23.152295 3.455891 15.184184 0.004347 30.681355-3.56022 40.440443-9.298302l313.699248-184.36634c15.392842-9.046174 28.894725-32.641867 28.894725-50.495128V465.13247c0-20.283253-10.054686-52.76428-21.526505-69.509049l-203.132478-296.480652c-6.394485-9.337426-19.24866-15.605846-31.994159-15.605847z" fill="#6E6E96" p-id="3701"></path><path d="M604.220119 614.183518c-23.460934 13.649682-34.376332 45.891621-24.247746 71.647788 0 0 33.254798 84.575863 119.221711 43.831128 85.953872-40.749082 278.675208-162.900693 278.675208-162.900693 22.947984-14.549518 41.735858-49.186672 41.735858-76.981597V423.074931c0-27.799272-19.200842-39.371073-42.661776-25.712697l-372.723255 216.821284z" fill="#6E6E96" opacity=".18" p-id="3702"></path><path d="M427.552375 935.863918v-220.012006c0-28.129647-21.413482-59.567385-47.57827-69.874199l-101.516249-40.383931c-26.173482-10.306814-47.582617 4.27748-47.582617 32.398432v224.563349" fill="#C2A07C" p-id="3703"></path><path d="M444.940504 935.863918h-34.776259v-220.012006c0-20.930961-17.088184-46.026379-36.56289-53.698891l-101.568413-40.405667c-7.085663-2.795142-13.280184-2.799489-17.392476 0.004347-4.112293 2.803836-6.377097 8.568001-6.377097 16.236166v224.563349h-34.776259v-224.563349c0-19.24866 7.868129-35.641319 21.578669-44.983091 13.714887-9.333079 31.850707-10.654576 49.764827-3.594996l101.568413 40.405666c32.802707 12.923727 58.541486 50.721174 58.541485 86.032119v220.016353z" fill="#6E6E96" p-id="3704"></path><path d="M725.40669 16.492641c-24.921537 0-62.558144 7.337791-85.64958 16.709993L354.804787 148.794573c-22.826267 9.259179-55.34207 29.081647-74.043004 45.135238L53.529357 389.085485c-20.761427 17.835874-37.036716 53.2468-37.036716 80.615716v2.751671c0 17.427253 6.85527 30.698743 18.805262 36.380315 11.954339 5.694612 26.560368 2.656037 40.105722-8.324567L301.166754 317.246427c4.968658-4.025352 11.063198-5.803288 17.170778-4.990394 6.116275 0.804201 11.545718 4.08621 15.305901 9.272221l248.198164 342.341844c18.074961 24.91719 54.694362 33.063529 81.624227 18.153208l371.049647-205.505958c13.758358-7.620348 23.191418-19.970267 26.569063-34.754524 3.36895-14.797298 0.226046-30.007565-8.863599-42.835658L810.112963 57.120006c-16.136184-22.774103-50.62554-40.609977-78.524793-40.609977h-6.177133v-0.017388z" fill="#E05757" p-id="3705"></path><path d="M731.575129 0h-6.177134c-26.729902 0-67.087751 7.872476-91.852795 17.922815l-284.947975 115.591939c-24.217318 9.824293-58.741449 30.86393-78.585653 47.904297L42.783493 376.574725c-11.854357 10.18075-22.717591 25.217135-30.577026 42.344443C4.338338 436.050823 0 454.08666 0 469.705548v2.751672c0 13.94528 3.338521 25.886578 9.898193 35.489172 8.7897 12.849828 22.695856 20.218048 38.127821 20.218048 8.889681 0 22.665427-2.582137 37.767018-14.840769l225.767476-183.257846c1.23021-0.99547 2.543014-1.504073 3.903635-1.504073 1.325845 0 3.225498 0.452091 4.812165 2.642996l248.198164 342.350539c14.762522 20.370194 39.118945 32.515803 65.140281 32.515802 13.367125 0 26.451692-3.329827 37.810488-9.615635l371.062688-205.519c17.657646-9.776476 30.294469-26.360405 34.667584-45.522123 4.364421-19.148678 0.182575-39.575383-11.493554-56.050636l-242.107971-341.80716c-9.328732-13.167161-23.800003-25.247564-40.709959-33.989447C765.929726 4.820859 747.720007 0 731.575129 0zM32.989629 469.705548c0-22.678468 14.080038-53.3207 31.285592-68.10061l227.223733-195.155674c17.209901-14.775563 48.473759-33.841647 69.49166-42.366178l284.95667-115.60498c21.017902-8.528878 56.776591-15.492824 79.442017-15.492824h6.177133c22.687162 0 51.964426 15.13202 65.075076 33.650378l242.107971 341.811507c4.812165 6.790065 7.129133 14.349554 7.137827 21.735162 0.008694 12.723764-6.803106 24.943272-19.366029 31.902871l-371.053994 205.514652c-6.724859 3.712366-14.271307 5.485955-21.830797 5.485955-14.788604 0-29.63372-6.746594-38.445155-18.900897L346.99317 311.847412c-7.742065-10.676312-19.544258-16.266595-31.52468-16.266595-8.615818 0-17.331618 2.899471-24.699838 8.87664l-225.763129 183.249152c-6.237992 5.055599-12.054321 7.472549-16.988203 7.472549-9.011398 0-15.036385-8.059398-15.036385-22.721938l0.008694-2.751672z" fill="#6E6E96" p-id="3706"></path><path d="M581.554692 249.532703l80.4201 39.510177 97.795189-37.897428-83.819479-39.505831z" fill="#FF7878" p-id="3707"></path><path d="M661.974792 289.04288l15.379801 156.462738 152.037459-79.611551-69.622071-114.748615z" fill="#C44C4C" p-id="3708"></path><path d="M581.554692 249.532703l-5.777206 122.29941 101.577107 73.673505-15.379801-156.462738z" fill="#943939" p-id="3709"></path><path d="M679.897607 282.100669l-2.543014 163.404949-15.379801-156.462738-80.4201-39.510177z" fill="#FF7878" p-id="3710"></path><path d="M660.544619 643.730297S464.66299 355.069956 429.617215 297.328324c-35.050122-57.724244 0-78.337871 0-78.337871l354.117956-165.730612c-14.797298-11.897828-35.293556-20.270212-52.151348-20.270212h-6.177133c-22.678468 0-58.424116 6.97264-79.442018 15.492824L360.999308 164.083086c-21.013555 8.524531-52.281759 27.590615-69.49166 42.370525L64.279569 401.600591c-17.205554 14.775563-31.285592 45.422142-31.285593 68.104957v2.751672c0 22.682815 14.401718 29.542432 32.020241 15.249389L290.772999 304.444416c17.609828-14.29739 42.900863-10.967563 56.224518 7.389955l248.193816 342.346192c13.310613 18.366212 40.449137 24.386852 60.280299 13.414942l6.78137-3.751489c0.052164-11.954339-1.708384-20.113719-1.708383-20.113719z" fill="#FF7D7D" p-id="3711"></path><path d="M605.754622 1024a17.38813 17.38813 0 0 1-17.38813-17.38813v-144.325823a17.38813 17.38813 0 0 1 34.77626 0v144.325823a17.38813 17.38813 0 0 1-17.38813 17.38813z" fill="#6E6E96" p-id="3712"></path><path d="M268.663992 688.143928c0-28.1253 21.417829-42.709594 47.57827-32.394086l101.511901 40.379584c6.85527 2.699507 13.362778 6.881352 19.279089 12.045627-7.137827-21.43087-24.19993-41.357667-44.013703-49.16059l-101.516248-40.383931c-26.173482-10.306814-47.582617 4.27748-47.582617 32.398433v224.563348l24.743308 8.67233v-196.120715z" fill="#6E6E96" opacity=".44" p-id="3713"></path><path d="M378.552625 842.554866a17.38813 17.38813 0 0 1-17.38813-17.388129v-57.724244a17.38813 17.38813 0 0 1 34.77626 0v57.724244a17.38813 17.38813 0 0 1-17.38813 17.388129z" fill="#6E6E96" p-id="3714"></path><path d="M80.820027 570.682764l280.383592-221.698654-36.949776-36.949775-257.409525 194.273226z" fill="#6E6E96" opacity=".15" p-id="3715"></path></svg>