<?xml version="1.0" encoding="utf-8"?>
<!-- Generator: Adobe Illustrator 23.0.6, SVG Export Plug-In . SVG Version: 6.00 Build 0)  -->
<svg version="1.1" id="Layer_6" xmlns="http://www.w3.org/2000/svg" xmlns:xlink="http://www.w3.org/1999/xlink" x="0px" y="0px"
	 viewBox="0 0 1125 2436" style="enable-background:new 0 0 1125 2436;" xml:space="preserve">
<style type="text/css">
	.st0{fill:none;stroke:#F0F0F0;stroke-width:4;stroke-linecap:round;stroke-linejoin:round;stroke-miterlimit:10;}
	.st1{fill:none;stroke:#F0F0F0;stroke-width:3.5;stroke-linecap:round;stroke-linejoin:round;stroke-miterlimit:10;}
</style>
<g>
	<g>
		<path class="st0" d="M816.04,1602.81c6.9-5.03,15.52-8.95,26.31-10.62c16.23-2.51,54.99,9.05,65.06,32.71
			c10.07,23.67-4.74,46.27-46.36,56.78c-41.62,10.51-55.27,2.24-58.4,1.07"/>
		<path class="st0" d="M796.22,1625.24c1.44-2.76,1.25-4.47,4.31-8.27"/>
		<path class="st0" d="M800.53,1616.97c-0.87-8.16-1.95-23.43,1.59-25.31c3.55-1.88,12.7,9.51,13.6,10.92"/>
		<path class="st0" d="M885.74,1602.8c-2.04-7.95-6.42-22.89-10.4-23.41c-3.98-0.52-9.3,13.29-9.65,14.92"/>
		<path class="st0" d="M837.43,1615.98c2.46,3.58-1.76,11.44-12.48,16.36c-11.37,5.21-17.14,1.9-18.86-0.96
			C800.59,1622.22,831.19,1606.9,837.43,1615.98z"/>
		<path class="st0" d="M857.72,1608.63c-1.29,4.1,4.61,10.57,15.63,12.52c11.68,2.06,16.05-2.63,16.85-5.83
			C892.77,1605.06,860.98,1598.25,857.72,1608.63z"/>
		<path class="st0" d="M858.03,1619.45c1.17,2.85-5.89,6.13-8.44-1.04c1.7,6.54-7.89,7.93-7.69,4.13"/>
		<circle class="st0" cx="821.85" cy="1621.04" r="0.37"/>
		<circle class="st0" cx="872.29" cy="1608.82" r="0.37"/>
		<path class="st0" d="M855.18,1592.47c-18.8-13.88-17.15-74.83-59.08-101.79c-41.93-26.97-79.62-7.88-84.49-4.35"/>
		<path class="st0" d="M822.89,1687.36c6.02,7.73,38.87,35.5,39.09,44.48s-13.2,9.68-23.57,4.05s-65.64-48.94-84.31-71.89
			c-39.81-48.95-65.55-92.67-69.65-158.24s-10.6-70.12-8.43-77.85c2.16-7.74,12.23-8.43,15.99-4.73
			c7.56,7.43,19.85,30.86,25.95,59.45"/>
		<path class="st0" d="M871.91,1678.46c13.59,7.32,45.09,21.16,53.33,21.02c7.79-0.13,9.66-7.8,3.66-14.65
			c-5.99-6.85-27.3-18.64-31-20.57"/>
		<path class="st0" d="M771.67,1479.82c-0.62-7.25,5.58-52.37,16.72-60.32c11.14-7.96,15.23,2.1,15.21,8.85s-2.78,58.75,2.25,69.87"
			/>
		<path class="st0" d="M731.72,1478.14c-4.49-13.77-17.12-95.67,4.15-100.22c21.26-4.55,12.3,35.8,13.44,54.81
			c0.72,12.02,1.33,26.11,4.66,43.01"/>
		<path class="st0" d="M846.91,1731.23c1.56,0.58,6.57,5.29,3.11,7.92"/>
		<path class="st0" d="M854.91,1728.86c1.3,1.05,4.85,3.23,4.59,7.75"/>
		<path class="st0" d="M920.65,1691.73c2.3,0.5,4.88,4.07,4.51,7.01"/>
		<path class="st0" d="M925.44,1687.46c3.87,1.08,5.91,6.11,6.15,8.34"/>
		<path class="st0" d="M686.06,1430.58c2.97-0.32,7.8,2.78,8.06,5.13c0.24,2.22-4.05,4.19-6.51,2.21c-1.16,3.13-5.69,2.87-5.93,0.64
			C681.39,1435.88,683.1,1430.9,686.06,1430.58z"/>
		<path class="st0" d="M795.22,1426.17c2.26,1.31,3.84,6.4,2.65,8.44c-1.12,1.94-5.26,1.26-5.83-1.66
			c-2.63,1.93-5.64-0.68-4.52-2.62C788.88,1428,792.97,1424.86,795.22,1426.17z"/>
		<polyline class="st0" points="810.55,1605.48 805.8,1601.66 805.78,1609.47 		"/>
		<polyline class="st1" points="872.45,1592.71 875.41,1588.05 877.87,1594.72 		"/>
	</g>
	<g>
		<path class="st0" d="M924.02,2329.22c3.58-0.89,6.63-1.42,8.97-1.42c10.34,0,55.16-2.59,64.64-3.45s17.24-12.93,6.89-18.96
			c-10.34-6.03-31.03-3.45-36.2-11.2c-5.17-7.76-7.76-37.06-39.64-47.4"/>
		<path class="st0" d="M855.37,2348.53c6.99-1.11,13.98-2.54,20.75-4.36c8.24-2.22,16.72-5.02,24.66-7.68"/>
		<path class="st0" d="M885.6,2114.06c-11.2-0.86-36.2-0.86-49.12,1.72c-1.72-6.03-10.34-19.82-12.93-19.82
			c-2.59,0-9.48,23.27-9.48,29.3c-6.89,6.89-12.07,18.1-12.93,37.06c-0.63,13.78-1.72,31.89-6.89,41.37
			c-5.17,9.48-28.44,62.91-41.37,74.98c-12.93,12.07-17.44,32.86-19.82,54.3c-0.86,7.76-11.2,23.27-18.96,31.89
			c-7.76,8.62-7.76,17.24-3.45,20.68c4.31,3.45,12.93,0.86,21.55-6.89c8.62-7.76,36.2-25.85,40.51-27.58
			c4.03,0,29.08,2.24,58.46,0.17"/>
		<path class="st0" d="M885.6,2114.06c4.4-8.27,8.62-20.68,11.2-21.55c2.59-0.86,9.48,16.38,10.34,26.72
			c7.76,6.03,14.65,14.65,15.51,41.37c1.03,31.88,5.17,61.19,6.03,79.29c0.86,18.1-2.59,62.91-4.31,74.12
			c-1.72,11.2,0,18.96,1.72,25.85c1.32,5.29-12.93,13.79-22.41,2.59c-8.7-10.28-4.31-52.57-6.03-57.74"/>
		<polyline class="st0" points="821.82,2118.37 824.41,2108.89 828.72,2115.79 		"/>
		<polyline class="st0" points="893.35,2112.34 896.8,2105.44 899.39,2114.92 		"/>
		<path class="st0" d="M815.79,2279.53c0,9.48,6.33,47.08,8.62,57.74c2.59,12.07,9.48,18.96,18.1,18.96
			c8.62,0,15.51-6.89,12.07-11.2s-9.48-49.12-7.76-56.88"/>
		<path class="st0" d="M858.83,2347.96c15.57,10.87,56.94,32.41,71.59,42.75c10.01,7.06,29.3,2.59,22.41-10.34
			c-8.35-15.66-57.95-35.65-67.22-38.78"/>
		<path class="st0" d="M715.82,2376.06c-1.72,1.72-2.22,7.75,3.63,10.34"/>
		<path class="st0" d="M840.78,2346.76c1.72,1.72,2.27,7.29-2.75,8.82"/>
		<path class="st0" d="M848.54,2345.9c0.86,0.86,3.45,3.45,1.72,7.76"/>
		<path class="st0" d="M912.31,2337.28c0.86,1.72,1.86,6.35-5.1,8.34"/>
		<path class="st0" d="M920.07,2337.28c1.72,1.72,2.59,7.76,0,9.48"/>
		<path class="st0" d="M1002.81,2311.42c3.45,1.72,5.01,5.39,3.37,8.73"/>
		<ellipse class="st0" cx="832.6" cy="2142.93" rx="16.81" ry="13.36"/>
		<ellipse class="st0" cx="890.34" cy="2142.07" rx="16.81" ry="13.36"/>
		<circle class="st0" cx="890.7" cy="2141.95" r="0.37"/>
		<circle class="st0" cx="833.2" cy="2143" r="0.37"/>
		<path class="st0" d="M853.71,2157.15c-1.72,5.17,8.62,1.72,8.62-3.45c0,4.31,9.48,8.62,8.62,2.59"/>
	</g>
	<g>
		<path class="st0" d="M877.51,1973.28c3.08-1.63,6.32-3.1,9.67-4.39c5.96-2.29,38.98-15.13,65.57,2.29"/>
		<path class="st0" d="M975.22,2020.24c-4.59,15.59-31.18,38.52-89.88,19.26c-48.05-15.77-41.13-43.45-16.63-60.83"/>
		<path class="st0" d="M965.59,1983.1c0-7.34-0.92-26.6-5.5-31.18c-4.59-4.59-13.71,13.1-14.65,15.26"/>
		<path class="st0" d="M907.29,1963.31c-1.31-7.72-3.15-17.81-5.9-18.73s-15.59,19.26-17.43,24.76"/>
		<path class="st0" d="M909.65,1986.77c-4.59,6.42,33.93,18.34,38.52,11.01C952.75,1990.44,917.22,1976.16,909.65,1986.77z"/>
		<path class="st0" d="M893.14,1983.1c-4.68,4.68-28.43-0.92-23.85-7.34C873.18,1970.33,898.64,1977.6,893.14,1983.1z"/>
		<path class="st0" d="M896.81,1988.6c-0.92-0.92-0.92-3.67,0-3.67s4.59,0.92,4.59,2.75C901.39,1988.6,897.73,1989.52,896.81,1988.6
			z"/>
		<path class="st0" d="M896.81,1988.6c-0.92,0.92-25.68,13.76-25.68,13.76c-3.67-2.75-4.59-3.67-6.42-2.75s-1.83,6.42,0,8.25"/>
		<path class="st0" d="M912.46,1962.61c16.45-15.28,21.03-52.88,44.88-76.73c23.85-23.85,49.52-27.51,59.61-27.51
			c0.92-16.51,4.59-30.27-10.09-72.45s1.28-77.2,10.09-93.55c6.42-11.92,15.59-17.43,22.01-14.67c6.42,2.75,11.01,11.01,6.42,21.09
			s-17.43,38.52-15.59,57.78s22.01,62.36,12.84,104.55c15.59,6.42,37.6,22.93,39.44,49.52c1.83,26.6-7.34,42.19-10.09,56.86
			s-6.19,44.33-18.34,58.7c-10.09,11.92-21.69,11.02-21.09-7.34c0.92-28.43-7.34-77.04,20.18-88.04"/>
		<path class="st0" d="M1032.08,1987.62c-7.79,18.41-34.39,49.59-40.81,57.85c-6.42,8.25-25.68,48.61-43.1,45.86
			c-17.43-2.75,10.12-42.61,13.32-53.86"/>
		<path class="st0" d="M881.31,2038.1c-17.52,3.69-65.93,10.51-74.38-6.4c-5.5-11.01,38.01-11.92,45.6-13.76"/>
		<path class="st0" d="M812.43,2037.21c-2.81-3.24,2.75-4.59,8.25-6.42"/>
		<path class="st0" d="M956.42,2080.31c-1.83,2.75-0.92,8.25-0.92,8.25"/>
		<path class="st0" d="M948.17,2079.4c0,0-4.59,7.34-3.67,9.17"/>
		<path class="st0" d="M1045.38,2020.7c-2.75,3.67-1.83,9.17,0,11.01"/>
		<path class="st0" d="M1036.21,2021.62c-1.83,4.59-1.62,8.63-1.62,8.63"/>
		<line class="st0" x1="922" y1="1985" x2="917.51" y2="1994.53"/>
		<line class="st0" x1="879" y1="1975" x2="874.88" y2="1982.66"/>
	</g>
	<g>
		<path class="st0" d="M121.33,1431.99c-10.96,2.42-25.65,8.59-36.45,27.11c-16.24,27.84,5.92,57.83,44.56,58.09
			c29.96,0.2,54.58-17.95,56.51-39.94C187.88,1455.26,165.17,1422.28,121.33,1431.99z"/>
		<polyline class="st0" points="127.83,1456.05 130.55,1457.37 133.65,1455.85 		"/>
		<circle class="st0" cx="159.55" cy="1468.45" r="15.82"/>
		<circle class="st0" cx="105.57" cy="1467.14" r="15.82"/>
		<path class="st0" d="M130.43,1458.33c0,0-2.25,17.11,0.1,21.29"/>
		<circle class="st0" cx="104.91" cy="1467.88" r="0.41"/>
		<circle class="st0" cx="159.26" cy="1468.48" r="0.41"/>
		<path class="st0" d="M79.79,1527.08c8.33,6.18,103.08,2.94,108.96-4.99c5.88-7.93,7.23-76.08,4.87-88.32
			c-0.57-2.98,9.68-7.43,8.08-17.31s-33.66-25.38-73.76-21.95c-40.53,3.46-62.7,22.79-63.77,30.91c-1.13,8.55,6.93,13.48,7.63,15.51
			S71.86,1521.2,79.79,1527.08z"/>
		<path class="st0" d="M72.14,1533.8c10.22,14.48,120.56,6.36,125.79-5.08c6.96-15.26,6.74-76.09,5.9-91.67
			c-0.2-3.61,11.36-9.95,7.06-24.21c-4.03-13.36-37.37-33.01-85.12-28.94c-48.26,4.12-70.86,27.57-72.61,37.17
			c-2.86,15.62,9.96,23.91,10.05,26.46C63.39,1453.36,61.79,1519.14,72.14,1533.8z"/>
		<path class="st0" d="M101.21,1540.85c-5.96,23.07-3.23,84.19-3.7,93.96c-0.55,11.53-9.53,20.98-7.43,27.06
			c2.38,6.9,16.36,7.96,23.06,1.1s12.19-26.44,11.46-42.97"/>
		<path class="st0" d="M147.71,1619.53c0.06,9.57,0.17,16.96,0.02,19.85c-0.59,11.53-9.29,21.02-7.29,27.08
			c2.26,6.89,15.73,7.87,22.22,0.99c6.49-6.88,13.95-33.94,13.33-50.46"/>
		<path class="st0" d="M203.97,1481.97c25.58,17.99,29.42,73.6,31.34,89.89s8.63,50.81-2.88,64.23
			c-11.25,13.12-20.13,16.3-28.76,24.93c-8.63,8.63-17.26,26.84-25.88,24.93c-8.63-1.92-6.71-14.38,6.71-32.59
			c-3.83-20.13,0.96-67.11,32.6-65.19"/>
		<path class="st0" d="M169.52,1653.91c6.28-0.65,11.44-1.55,14.65-2.5"/>
		<path class="st0" d="M119.31,1652.39c7.34,1.58,14.92,2.03,22.89,2.35"/>
		<path class="st0" d="M97.26,1592.96c-11.5,7.67-9.43,38.99-12.46,45.06c-2.88,5.75-26.84,23.97-19.17,31.64
			c6.1,6.1,17.26-0.96,23.97-7.67"/>
		<path class="st0" d="M86.89,1624.61c-24.14,3.82-70.16,2.86-81.66,7.65s-9.59,21.09,0.96,23.01c10.55,1.92,48.45-1.89,68.07-5.75"
			/>
		<path class="st0" d="M152.86,1661.98c-2.88,1.92-3.83,8.49-0.96,10"/>
		<path class="st0" d="M145.19,1660.06c-1.92,0.96-4.31,5.47-3.6,8.49"/>
		<path class="st0" d="M103.01,1657.19c-1.92,0.96-2.88,6.71,0,9.59"/>
		<path class="st0" d="M96.3,1656.23c-2.88,1.92-3.83,4.79-2.88,8.63"/>
		<path class="st0" d="M178.75,1676.36c-1.92,1.92-2.88,8.63,0,9.59"/>
		<path class="st0" d="M72.33,1662.94c-3.83,1.92-6.2,6.39-4.06,8.47"/>
	</g>
	<g>
		<path class="st0" d="M383.97,1495.39c10.34-7.76,39.64-45.68,42.23-50.85c2.59-5.17,9.48-26.72,13.79-29.3
			c4.31-2.59,6.89,12.93,7.76,15.51c4.31-1.72,27.58,0.86,43.09,7.76c5.17-2.59,9.48-12.07,12.07-11.2c2.59,0.86,0,19.82,0,23.27
			c0,3.45,8.62,18.1,9.48,25.85c0.86,7.76-6.25,26.02-26.72,41.37c-3.45,2.59-2.66,12.93,17.24,12.93
			c19.82,0,44.82-27.58,42.23-37.92c-2.59-10.34-18.1-16.37-8.62-25.85c9.48-9.48,26.56,5.8,31.03,20.68
			c5.17,17.24-7.5,41.39-29.3,57.74c-20.68,15.51-33.95,17.91-36.2,22.41c-1.72,3.45,7.76,53.43,11.2,60.33s15.51,12.07,15.51,18.96
			c0,6.56-18.1,12.93-30.16,2.59c-12.07-10.34-24.13-56.02-27.58-60.33c-3.45-4.31-75.84-2.59-79.29-1.72
			c-3.45,0.86-16.79,51.04-20.68,59.47c-5.17,11.2-18.96,8.62-21.55,0.86c-3.55-10.66,4.31-53.43,6.89-68.08
			c2.59-14.65-1.72-45.68,8.62-67.22c-13.79-14.65-29.3-30.16-26.72-54.3c2.59-24.13,30.16-40.51,38.78-40.51
			s16.37,6.03,12.93,12.07c-3.45,6.03-17.24,10.34-24.13,19.82S354.66,1470.4,383.97,1495.39z"/>
		
			<ellipse transform="matrix(0.0346 -0.9994 0.9994 0.0346 -1043.8615 1855.9187)" class="st0" cx="438.74" cy="1468.29" rx="9.91" ry="16.81"/>
		
			<ellipse transform="matrix(0.0346 -0.9994 0.9994 0.0346 -998.221 1909.8956)" class="st0" cx="489.5" cy="1471.65" rx="9.91" ry="16.81"/>
		<polyline class="st0" points="462.28,1472.34 464.24,1474.74 466.65,1472.78 		"/>
		<circle class="st0" cx="489.9" cy="1471.57" r="0.37"/>
		<circle class="st0" cx="439.3" cy="1468.31" r="0.37"/>
	</g>
	<g>
		<path class="st0" d="M466.36,2064.78c3.06,1.44,6.07,2.85,9.01,4.25c20.54,9.77,77.32,52.29,145.7,33.38"/>
		<path class="st0" d="M386.12,1953.48c-5.67,12.07-6.35,42.14,8.49,65.19c6.56,10.19,18.22,19.31,35.62,28.52"/>
		<path class="st0" d="M455,1924.55c-16.63-0.35-35.93,5.38-50.02,12.88"/>
		<path class="st0" d="M497.59,1966.23c-0.68-5.03-3.04-26.44-21.05-36.45"/>
		<path class="st0" d="M639.64,2123.92c-27.1,28.47-28.31,34.46-29.47,45c-1.32,12-28.17,15.66-27.27-10.33s25.41-52.23,42-55.23"/>
		<path class="st0" d="M496.37,1958.99c9.01,4.7,27.77,1.4,70.61,6.66s74.23,18.72,91.64,48.87c13.26,10.7,31.18,50.79,0.4,88.88"/>
		<path class="st0" d="M561.38,2060.27c-2.28,15.83,18.39,37.4,40.95,40.25s27.44,0.7,31.63,9.74c4.19,9.04,12,33.84,22.94,38.26
			s13.29-5.5,10.36-16.19s-14.7-48.25-13.61-56.53c1.09-8.28,5.28-15.5,2.45-25.46"/>
		<path class="st0" d="M601.45,2118.42c-17.62,9-53.53,27.51-63.17,21.85c-11.24-6.6-1.65-19.59,26.84-34.62"/>
		<path class="st0" d="M447.15,2030c-10.42,10.29-34.31,35.71-43.05,42.07c-8.74,6.36-10.46,15.46-5.41,19.95
			c5.04,4.49,24.57-4.08,41.92-12.36c17.35-8.27,51.89-31.45,58.88-39.79"/>
		<path class="st0" d="M409.79,2035.08c-15.85,5.85-64.9,22.76-71.68,8.28c-5.21-11.12,45.59-26.47,51.71-31.58"/>
		<path class="st0" d="M476.54,1929.78c-1.43-9.27-5.39-22.03-8.68-24.54c-3.3-2.51-11.9,15.3-12.86,19.31"/>
		<path class="st0" d="M404.99,1937.45c-6.03-6.43-17.11-11.71-20.21-12.77c-3.1-1.06-0.67,22.26,1.05,29.42"/>
		
			<ellipse transform="matrix(0.9732 -0.23 0.23 0.9732 -437.3275 159.6115)" class="st0" cx="466.06" cy="1955.91" rx="17.21" ry="4.53"/>
		
			<ellipse transform="matrix(0.9732 -0.23 0.23 0.9732 -441.9751 146.9192)" class="st0" cx="409.28" cy="1969.5" rx="17.21" ry="4.53"/>
		<polyline class="st0" points="398.23,1942.06 391.64,1937.05 392.92,1946.48 		"/>
		<polyline class="st0" points="461.72,1925.29 465.91,1918.07 468.55,1926.58 		"/>
		<path class="st0" d="M433.11,1975.74c0.49,3.63,8.18,0.36,6.47-6.79c1.71,7.16,10.52,6.7,8.48,2.54"/>
		<polyline class="st0" points="436.28,1966.44 439.48,1968.23 441.26,1965.03 		"/>
		<path class="st0" d="M408.05,2082.55c-1.79,0.24-5.53,6.22-3.26,9.56"/>
		<path class="st0" d="M401.3,2079.82c-1.67,1.14-4.81,3.35-5.38,6.64"/>
		<path class="st0" d="M350.23,2039.38c-2.56,1.26-5.65,5.33-5.41,7.12"/>
		<path class="st0" d="M345.27,2036.41c-1.79,0.24-6.72,2.74-7.47,4.66"/>
		<path class="st0" d="M659.55,2135.82c1.38,3.46,5.03,8.19,8.76,6.44"/>
		<path class="st0" d="M654.92,2141.92c1.26,2.56,2.99,6.73,6.64,7.68"/>
		<path class="st0" d="M546.93,2132c-1.67,1.14-6.91,5.44-4.84,9.29"/>
		<path class="st0" d="M540.83,2127.37c-2.56,1.26-5.77,6.09-6.69,8.57"/>
		<line class="st0" x1="471.57" y1="1950.23" x2="474.13" y2="1958.27"/>
		<line class="st0" x1="414.31" y1="1963.9" x2="417.31" y2="1971.88"/>
	</g>
	<g>
		<path class="st0" d="M507.82,2232.33c0.32,4.01,12.34,3.06,11.71-4.96c2.4,4.85,13.42,3.98,11.87-2.95"/>
		<path class="st0" d="M535.8,2220.32c3.02-3.02,11.06-8.04,21.11-6.03"/>
		<path class="st0" d="M502.62,2232.39c-5.03-1.01-14.07,2.01-17.09,6.03"/>
		<path class="st0" d="M483.52,2285.67c2.01,1.01,4.02,6.03,3.02,14.07c-1.01,8.04,5.12,12.37,12.06,10.05
			c12.06-4.02,16.08-35.18,2.01-43.23c-14.1-8.06-25.13,3.02-37.19,15.08s-6.61,22.87,1.01,26.14c7.04,3.02,18.09-3.02,21.11-6.03"
			/>
		<path class="st0" d="M569.97,2281.65c-2.01,3.02-3.02,13.07-9.05,18.09c-4.94,4.12-18.99,6.97-17.09-12.06
			c2.01-20.11,17.09-36.19,29.15-32.17c12.06,4.02,16.08,19.1,12.06,32.17"/>
		<path class="st0" d="M560.93,2299.74c-2.01,7.04,5.03,15.08,10.05,16.08"/>
		<path class="st0" d="M476.28,2269.81c-2.82-5.26-7.84-30.39,8.24-42.45s19.1-16.08,27.14-19.1c8.04-3.02,25.13-6.03,36.19-5.03
			c11.06,1.01,21.11,10.05,28.15,15.08c7.04,5.03,10.05,17.09,11.06,29.15c1.01,12.06,21.11,31.16,7.04,76.4
			s-40.21,85.45-122.64,85.45c-76.43,0-114.6-62.33-120.63-111.58c-5.53-45.18,11.06-92.48,49.26-116.61
			c12.06-8.04,28.63,8.59,15.08,20.11c-20.11,17.09-31.81,40.51-36.19,65.34c-3.02,17.09-2.61,41.97,1.01,44.23
			c8.04,5.03,3.02-29.15,10.05-43.23s20.11-47.25,27.14-46.24c7.04,1.01,7.67,18.01-2.01,42.22c-2.01,5.03,12.92-6.83,24.13-6.03
			c14.07,1.01,21.11,13.07,20.11,27.14"/>
		<path class="st0" d="M473.86,2261.15c-1.4-7.65-12.46-18.71-21.51-17.7c-9.05,1.01,4.02-22.12-2.01-29.15
			c-6.03-7.04-21.03,23-23.08,45.68"/>
		<path class="st0" d="M559.47,2206.97c8.5-3.73,18.55-8.76,20.56-7.75c2.01,1.01-4.02,18.09-4.02,18.09"/>
		<path class="st0" d="M482.58,2228.98c-10.12-2.62-17.16-2.62-19.17-1.61s6.03,13.07,10.05,16.08"/>
		<path class="st0" d="M556.91,2290.69c-3.02,3.02-3.02,11.06-1.01,11.06"/>
		<path class="st0" d="M547.86,2288.68c-1.01,2.01-3.02,8.04-2.01,11.06"/>
		<path class="st0" d="M487.54,2306.2c2.01,0.58,5.02-3.44,6.03-6.46"/>
		<path class="st0" d="M496.59,2309.79c2.01-1.01,4.02-7.04,4.02-9.05"/>
		<path class="st0" d="M413.41,2223.22c1.75,1.12,3.76,3.13,3.76,6.15"/>
		<path class="st0" d="M445.32,2216.3c2.01,2.01,2.01,4.02,1.01,7.04"/>
	</g>
	<g>
		<path class="st0" d="M690.4,1824.76c12.09-7.35,21.84-9.96,27.25-10.41c2.63-12,0.39-17.26,2.94-19.28s16.28,10.44,19.12,22.9
			c9.38,3.76,34.43,10.75,47.77,40.48c12.38,7.14,19.27,13.82,20.47,17.35c1.2,3.53-17.79,4.19-20.41,5.31
			c-0.23,8.18-15.61,52.76-75.75,59.75c-53.88,6.27-70.15-15.06-72.09-27.59"/>
		<path class="st0" d="M688.6,1923.73c5.11-14.93-29.02-32.96-43.42-31.77c-18.01,1.49-13.45,23.78,16.41,34"/>
		<path class="st0" d="M665.68,1865.79c-8.63-5.63-26.78-4.04-27.54,6.81c-0.83,11.86,36.45,24.19,48.46,15.94
			c14.69-10.09-4.93-37.67-9.87-42.7"/>
		<path class="st0" d="M648.75,1825.48c-5.33,1.35-22.11,15.54-0.87,37.76"/>
		<path class="st0" d="M713.18,1815.05c-4.31-8.14-18.42-14.23-24.49-21.88c-6.07-7.66-40.26-48.35-72.6-55.65
			c-32.34-7.3-65.65-15.43-84.1-30.22c-18.45-14.8-30.23-14.73-35.19-8.88c-3.74,4.41-2.49,13.81,10.11,23.64
			c12.6,9.84,21.82,22.68,29.17,34.76c7.35,12.09,21.89,23.58,43.95,27.19"/>
		<path class="st0" d="M533.42,1752.52c-9.7-2.84-32.42-25.44-42.85-30.93c-10.43-5.48-18.16-0.31-16.29,11.32
			c1.87,11.63,26.99,30.41,33.29,40.77c6.3,10.36,20.6,43.34,38.97,65.69c18.14,22.07,45.97,42.5,89.36,67.44"/>
		<path class="st0" d="M597.66,1733.22c-3.69-11.1,8.78-24.83,27.01-23.61c18.23,1.21,43.89,15.41,58.6,6.94
			c14.71-8.47,0.69-24.54,14.73-30.23s27.53,14.95,19.41,37.38c-8.12,22.43-34.16,25.49-53.67,19.85
			c-19.51-5.64-39.12-16.37-43.31-4.86"/>
		<path class="st0" d="M643.67,1864.77c0.4,2.8,4.23,5.2,7.9,5.81"/>
		<path class="st0" d="M638.53,1870.5c0.58,2.93,5.31,5.26,8.16,6.83"/>
		<path class="st0" d="M635.26,1903.66c2.7-0.22,7.35,1.21,10.2,2.78"/>
		<path class="st0" d="M636.41,1895.84c3.51-1.63,10.11,1.45,12.06,3.1"/>
		<path class="st0" d="M503.44,1694.9c0.58,2.92,5.53,7.95,5.53,7.95"/>
		<path class="st0" d="M495.59,1700.46c0.69,2.53,4.59,5.83,6.54,7.48"/>
		<path class="st0" d="M481.76,1719.45c-1.1,2.96,2.88,7.17,4.83,8.82"/>
		<path class="st0" d="M474.58,1725.63c0.15,1.8,5.17,7.73,5.17,7.73"/>
		<path class="st0" d="M705.65,1833.44c-2.49,2.92-0.25,8.18,7.67,16.61c5.71,6.07,12.43,8.07,15.96,6.88
			c3.53-1.19,1.91-10.12-7.82-18.41C715.63,1833.55,708.14,1830.53,705.65,1833.44z"/>
		<path class="st0" d="M776.08,1886.62c-2.27,3.09-7.9,2.13-17.93-3.64c-7.22-4.15-10.72-10.23-10.38-13.94
			c0.34-3.71,9.41-4.19,19.72,3.36C773.67,1876.93,778.34,1883.53,776.08,1886.62z"/>
		<polyline class="st0" points="738.13,1858.25 738.39,1862.85 742.76,1861.73 		"/>
		<line class="st0" x1="738.85" y1="1862.46" x2="727.81" y2="1871.54"/>
		<circle class="st0" cx="719.55" cy="1846.67" r="0.32"/>
		<circle class="st0" cx="762" cy="1877.63" r="0.32"/>
	</g>
	<g>
		<path class="st0" d="M167.4,1834.51c8.62-10.34,29.42-15.43,37.92-9.48c8.62,6.03,3.45,45.68-13.79,49.12
			c-17.24,3.45-11.2-22.41-8.62-28.44"/>
		<path class="st0" d="M190.66,1810.38c-9.48-6.89-23.27-2.59-32.75,12.07c-9.48,14.65-15.51,35.34-3.45,44.82
			c12.07,9.48,25.29-5.6,25.29-5.6"/>
		<path class="st0" d="M277.71,1870.7c-7.76,12.93-31.89,22.41-38.78,9.48c-6.89-12.93,24.13-38.78,38.78-34.47
			c14.65,4.31,14.65,21.55,10.34,31.03"/>
		<path class="st0" d="M176.88,1806.93c-6.03-8.62-5.17-27.58,21.55-55.16c1.72-14.65,0-24.99,1.72-27.58
			c1.72-2.59,16.37,11.2,19.82,15.51c6.89-3.45,42.23-9.48,52.57-5.17c0,0-2.59-17.24,0-18.1c2.59-0.86,21.55,12.07,24.13,31.03
			c11.2,11.2,18.96,35.34,14.65,59.47c-4.31,24.13-9.48,37.06-9.48,37.06c1.72,8.62,7.76,36.2-17.24,56.88
			c-24.99,20.68-32.75-4.91-30.16-14.52"/>
		<path class="st0" d="M157.92,1822.44c-19.82,0-63.78,11.2-70.67,51.71c-6.89,40.51,12.07,70.67,31.89,78.43"/>
		<path class="st0" d="M196.7,1927.58c-5.17-11.2-30.16-18.96-55.16,5.17c-0.86-12.07-6.89-41.37-21.55-34.47
			c-12.6,5.93-1.72,19.82-0.86,37.06c0.86,17.24-0.86,27.58,7.76,31.89c8.62,4.31,11.26-0.19,20.68,2.59
			c14.65,4.31,75.63,16.58,116.67-61.09"/>
		<path class="st0" d="M126.04,1829.15c-4.32-10.16-16.37-13.41-25.01-12.74c-11.2,0.86-25.85,16.37-27.58,35.34
			c-9.48-7.76-28.44-18.1-34.47-9.48c-5.59,7.99,16.37,20.68,25.85,33.61c6.65,9.06,16.37,15.51,20.96,10.47"/>
		<path class="st0" d="M92.18,1923.42c-17.86,5.03-48.02-4.45-71.29-14.79c-23.38-10.39-40.51-14.65-45.68-5.17
			s6.29,30.35,47.4,42.23c38.78,11.2,75.66,5.04,87.38,1.66"/>
		<path class="st0" d="M192.37,1779.35c-0.26,6.09,7.31,10.66,20.23,11.21c12.92,0.55,20.88-4.29,20.24-9.49
			c-0.64-5.2-8.14-11.56-21.02-12.97C198.94,1766.69,192.62,1773.32,192.37,1779.35z"/>
		<line class="st0" x1="211.57" y1="1774.13" x2="211.24" y2="1781.88"/>
		<path class="st0" d="M295.8,1774.85c0.57,6.07-6.75,11.03-19.62,12.24c-12.87,1.22-21.08-3.2-20.71-8.43
			c0.37-5.23,7.53-11.97,20.31-14.04C288.58,1762.55,295.23,1768.84,295.8,1774.85z"/>
		<line class="st0" x1="276.36" y1="1770.63" x2="277.09" y2="1778.35"/>
		<path class="st0" d="M236.34,1789.69c0,4.31,9.48,3.45,9.48-2.59c1.72,6.03,8.62,6.03,9.48,2.59"/>
		<path class="st0" d="M180.65,1868.59c3.12,2.98,10.01-3.05,10.01-7.36"/>
		<path class="st0" d="M191.53,1874.15c4.31-1.72,5.17-6.89,6.03-10.34"/>
		<path class="st0" d="M250.13,1885.35c-1.72-1.72,1.72-9.48,5.17-10.34"/>
		<path class="st0" d="M239.79,1880.18c0-2.59,3.45-7.76,7.76-8.62"/>
		<path class="st0" d="M128.51,1898.46c-4.21,0.69-4.21,5.86-3.35,9.31"/>
		<path class="st0" d="M118.27,1899.14c-2.59,3.45-0.86,7.76,0,10.34"/>
		<path class="st0" d="M47.6,1843.99c-2.59-1.72-8.55,0.37-8.58,4.49"/>
		<polyline class="st0" points="211.35,1743.15 206.18,1737.12 206.18,1745.74 		"/>
		<polyline class="st0" points="279.43,1737.12 279.43,1729.36 285.47,1740.57 		"/>
	</g>
	<g>
		<path class="st0" d="M762.17,2075.12c1.45,4.55,11.45,12.94,19.11,5.48c7.65-7.46-8.23-45.8-15.42-47.17s-24.69,21.18-26.26,33.83
			C738.05,2079.91,753.06,2087.67,762.17,2075.12z"/>
		<path class="st0" d="M721.13,2146.07c-8.01-0.92-28.68,6.25-28.41,12.53c0.27,6.28,15.56,1.02,20.85-2.98
			c-0.47,8.83-5.12,17.84,3.62,16.21C723.89,2170.58,721.13,2146.07,721.13,2146.07z"/>
		<path class="st0" d="M721.13,2146.07c0,0,51.69-21.73,39.93-69.56"/>
		<path class="st0" d="M737.95,2087.47c5.45,9.84,19.92,14.68,44.23,4.42"/>
		<path class="st0" d="M739.48,2103.76c4.63,10.29,24.84,11.95,33.03,7.41"/>
		<path class="st0" d="M735.09,2119.05c2.36,6.19,16.74,8.94,22.65,9.95"/>
		<path class="st0" d="M727.7,2132.79c1.99,7.47,14.64,9.03,14.64,9.03"/>
		<circle class="st0" cx="769.29" cy="2059.92" r="0.47"/>
	</g>
	<g>
		<path class="st0" d="M996,2195c-13,0-22.63-13.92,15-39c12-8,36.47-1.12,41,17c4,16-3,22-12,22S1006,2195,996,2195z"/>
		<path class="st0" d="M1041,2157c2-5,10-10,16-7s4.58,14.75-7.21,17.37"/>
		<path class="st0" d="M1009.94,2156.71C1007,2150,1001,2146,995,2149s-2.21,11.49,5.39,14.74"/>
		<path class="st0" d="M1012.88,2154.92C1026,2146,1053,2127,1076,2136s21,35,17,44s-23,14-52,15"/>
		<path class="st0" d="M1095.48,2170.67C1101,2176,1104,2170,1116,2175s13,19,23,22"/>
		<circle class="st0" cx="1033" cy="2175" r="1"/>
		<circle class="st0" cx="1000" cy="2172" r="1"/>
	</g>
	<g>
		<path class="st0" d="M435.83,1296.26l34.64-9.48c0,0,18.53,11.71,21.46,14.63c2.93,2.93-87.8,27.31-87.8,27.31l-25.36-14.63
			l-16.58,20.49l-154.13-5.85l19.51-19.51"/>
		<path class="st0" d="M250.41,1235.01c-14.14,17.89-15.17,35.35-18.94,40.06c-3.9,4.88-21.46,18.54-1.95,33.17
			c26.34,1.95,148.28,3.9,148.28,3.9l4.99-1.37"/>
		<path class="st0" d="M329.99,1215.81c-17.39-3.68-36.75-2.9-52.59,2"/>
		<path class="st0" d="M370.97,1262.39c-0.71-9.88-2.43-24.36-14.79-34.94"/>
		<ellipse class="st0" cx="260.24" cy="1267.02" rx="19.02" ry="9.02"/>
		<line class="st0" x1="259.76" y1="1260.26" x2="259.76" y2="1273.79"/>
		<ellipse class="st0" cx="326.58" cy="1267.02" rx="19.02" ry="9.02"/>
		<line class="st0" x1="327.07" y1="1260.26" x2="327.07" y2="1273.79"/>
		<polyline class="st0" points="289.02,1271.17 291.95,1274.09 294.87,1271.17 		"/>
		<path class="st0" d="M291.95,1274.09c-2.93,4.88-3.9,18.53,0,27.31"/>
		<path class="st0" d="M356.33,1227.27c0,0,0.98-22.44-3.9-25.36c-4.88-2.93-22.44,12.68-22.44,12.68"/>
		<path class="st0" d="M277.32,1217.51c-2.93-7.8-20.23-13.3-21.46-12.68c-3.9,1.95-6.93,22.06-5.85,29.27"/>
		<polyline class="st0" points="338.77,1218.49 346.58,1213.61 347.55,1222.39 		"/>
		<polyline class="st0" points="267.56,1222.39 260.73,1217.51 259.76,1227.27 		"/>
		<path class="st0" d="M358.2,1229.31c13.74-0.09,54.89-5.19,82.03,10.64c23.41,13.66,31.22,37.07,30.24,46.83"/>
		<path class="st0" d="M371.94,1276.04c-12.68,8.78-14.44,35.5,12.29,34.33c26.73-1.17,51.23-8.53,51.6-14.12
			c0.5-7.53-10.23-16.31-43.4-10.46"/>
		<path class="st0" d="M421.69,1295.56c2.93,0.98,10.73-1.95,11.71-3.9"/>
		<polyline class="st0" points="225.15,1329.37 229.51,1353.11 379.75,1359.94 470.47,1334.58 473.67,1308.78 		"/>
		<line class="st0" x1="378.77" y1="1314.09" x2="378.77" y2="1359.94"/>
	</g>
	<g>
		<path class="st0" d="M67.8,2141.81c-2.66,12.41,1.73,28.36,10.64,28.36c11.52,0,16.84-35.45,9.75-48.75s-29.25,0.89-37.23,8.86"/>
		<path class="st0" d="M35.01,2170.17c2.66,4.43,15.69,15.36,33.1-11.82"/>
		<path class="st0" d="M165.29,2141.81c-7.98,11.52-10.64,29.25,0,30.13c10.64,0.89,27.48-29.25,20.39-42.54
			c-7.09-13.29-30.13-4.43-41.66,15.07"/>
		<path class="st0" d="M136.05,2171.94c0.89,7.09,17.76,12.32,27.05-0.49"/>
		<path class="st0" d="M104.14,2084.2c0,5.32,15.95,7.98,19.5,0c-0.89,6.2,5.32,12.41,12.41,9.75"/>
		<path class="st0" d="M161.97,2126.72c3.32-7.07-0.22-23.91-10.86-34.54c-10.64-10.64-15.95-14.18-30.13-19.5s-31.91-3.55-45.2,0
			c-13.29,3.55-29.25,25.7-31.91,34.57c-11.52,15.07-51.41,85.09,23.93,166.63c-4.43,7.98,1.77,20.39,29.25,35.45
			c1.77,23.93,4.43,47.86,13.29,49.63c8.86,1.77,12.41-52.29,13.29-57.61c17.73-6.2,63.81-34.57,71.79-81.54
			c12.41-4.43,42.5-29.43,39-43.43c-3.55-14.18-36.34,15.07-41.66,17.73c6.2-18.61,1.75-41.23-13.31-33.47"/>
		<path class="st0" d="M182.54,2252.78c7.57,4.25,28.85,13.12,43.03,29.07c12.08,13.59,24.82,48.75,8.86,55.84
			s-16.84-26.59-25.7-38.11c-8.54-11.11-26.15-24.57-39.22-30.01"/>
		<path class="st0" d="M87.8,2070.24c-0.51-1.99-11.14-13.51-12.91-14.4c-1.77-0.89-4.6,14.93-4.96,19.43"/>
		<path class="st0" d="M149.34,2089.52c8.86-1.77,15.95-4.43,17.73-3.55c1.77,0.89-4.72,19.52-6.79,20.4"/>
		<path class="st0" d="M71.34,2164.85c2.3,0.51,4.43-5.32,5.32-8.86"/>
		<path class="st0" d="M78.44,2170.17c3.55-0.89,4.43-8.86,4.43-10.64"/>
		<path class="st0" d="M159.09,2164.85c0.89,0.89,3.55-0.89,6.2-4.43"/>
		<path class="st0" d="M163.52,2171.06c2.66-0.89,6.2-5.32,7.09-7.09"/>
		<path class="st0" d="M234.09,2175.36c-2.32-1.65-7.64,3.67-7.64,3.67"/>
		<path class="st0" d="M109.46,2347.44c-0.89,0.89,1.81,7.41,4.45,9.02"/>
	</g>
	<path class="st0" d="M348.96,2129.34c22.59,22.75,0.3,34.72-33.09,46.68s-59.43,41.42-36.94,65.59
		c22.5,24.17,46.29,7.31,38.66-5.95c-7.63-13.26-57.2-13.71-65.74,40.3c-8.53,54,42.65,90.46,52.74,123.96
		c10.46,34.71-16.34,64.82-45.51,45.18"/>
	<g>
		<path class="st0" d="M1065.58,1629.11c5.86-4.28,32.86,14.7,44.73,37.96s15.89,41.62,15.89,41.62
			c11.89,4.73,21.67,16.79,19.04,21.34c-2.62,4.54-18.61-11.29-18.61-11.29c3.49,6.3,7.62,23.63,3.05,24.04
			c-8.83,0.78-11.79-21.25-13.19-25.62C1070.7,1701.4,1053.77,1644.93,1065.58,1629.11z"/>
		<path class="st0" d="M1070.8,1675.62c4.62,4.24,29.52-7.74,30.08-21.84"/>
		<line class="st0" x1="1066.64" y1="1628.64" x2="1076.67" y2="1643.54"/>
		<circle class="st0" cx="1069.76" cy="1651.49" r="0.9"/>
		<path class="st0" d="M1082.33,1681.57c2.88,1.49,7.61-1.13,7.43-5.15"/>
		<path class="st0" d="M1096.85,1672.49c2.88,1.49,7.61-1.13,7.43-5.15"/>
		<path class="st0" d="M1094.57,1685.07c2.88,1.49,7.61-1.13,7.43-5.15"/>
		<path class="st0" d="M1094.3,1697.57c2.88,1.49,7.61-1.13,7.43-5.15"/>
		<path class="st0" d="M1106.02,1689.01c2.88,1.49,7.61-1.13,7.43-5.15"/>
		<path class="st0" d="M1106.97,1701.86c2.88,1.49,7.61-1.13,7.43-5.15"/>
	</g>
	<path class="st0" d="M289.29,1655.24c0.31-9.55,11.57-16.53,17.41-11.92c8.33,6.57,0.1,36.66-4.97,43.98
		c-5.07,7.32-34.38-16.18-33.68-29.72C268.5,1648.58,285.05,1646.36,289.29,1655.24z"/>
	<g>
		<path class="st0" d="M879.8,1451.25c-7.7-3.71-26.94-2.39-29.19,7.66c-2.25,10.05,37.83,24.78,43.64,17.56
			C898.68,1470.97,892.91,1457.57,879.8,1451.25z"/>
		
			<ellipse transform="matrix(0.1648 -0.9863 0.9863 0.1648 -682.6296 2056.6416)" class="st0" cx="873.09" cy="1431.4" rx="9.5" ry="7.5"/>
		
			<ellipse transform="matrix(0.665 -0.7469 0.7469 0.665 -776.2265 1152.3479)" class="st0" cx="896.34" cy="1441.38" rx="9.5" ry="7.5"/>
		
			<ellipse transform="matrix(0.8949 -0.4462 0.4462 0.8949 -555.689 558.7935)" class="st0" cx="908.76" cy="1459.41" rx="8.87" ry="7"/>
		
			<ellipse transform="matrix(0.9268 -0.3756 0.3756 0.9268 -477.995 424.6765)" class="st0" cx="850.21" cy="1438.3" rx="7" ry="8.87"/>
		<path class="st0" d="M841.19,1452.52c-2.99-2.66-13.46-19.63,2.07-30.01c4.16-2.78,10.76-0.46,15.76,3.42
			c0.21-12.65,23.11-22.21,29.4,0.8c12.8-9.28,33.45,4.34,22.15,18.39c19.35-3.79,24.22,27.6-6.18,29.63
			c-2.71,10.71-5.57,20.15-9.29,26.41c-5.2,8.77-65.91-11.52-63.21-22.23C836.09,1462.33,839.28,1456.17,841.19,1452.52z"/>
	</g>
	<g>
		<g>
			<circle class="st0" cx="305.05" cy="2106.29" r="51"/>
			<path class="st0" d="M261.15,2129.68c16.68,9.16,66.06-0.22,94.12-32.26"/>
			<path class="st0" d="M265.95,2139.06c17.74,9.29,59.57,6.8,90.07-31.27"/>
			<path class="st0" d="M286.37,2153.54c14.01,3.97,47.57-6.64,65.46-26.91"/>
			<path class="st0" d="M301.47,2129.16c10.42-9.22,18.14-65.14,3.48-73.87"/>
			<path class="st0" d="M315.44,2125c11.35-15.83,20.19-53.81,7.22-66.59"/>
			<path class="st0" d="M331.87,2116.78c8.69-10.84,14.03-36.17,9.2-46.61"/>
			<path class="st0" d="M267.57,2071.7c1.78,12.48,26.02,32.2,40.56,35.32"/>
			<path class="st0" d="M258.52,2086.29c0.9,8.2,27.49,31.73,47.73,31.34"/>
			<line class="st0" x1="297.28" y1="2073.25" x2="288.61" y2="1971.42"/>
			<line class="st0" x1="284.81" y1="2081.99" x2="218.27" y2="2009.01"/>
		</g>
		<line class="st0" x1="282.78" y1="1971.33" x2="294.97" y2="1970.65"/>
		<line class="st0" x1="214.46" y1="2011.36" x2="221.43" y2="2003.91"/>
	</g>
	<path class="st0" d="M19.1,739.89c4.09-13.09,22.33-18.42,28.64-9.82c9,12.28-13.91,50.74-23.73,58.92
		c-9.82,8.18-41.34-35.56-35.19-54.01C-7.08,722.71,16.65,725.98,19.1,739.89z"/>
	<g>
		<g>
			<path class="st0" d="M651.86,1274.98c-16.43,3.29-75.58,38.34-81.06,21.91c-5.48-16.43,29.58-31.77,39.44-38.34
				c-36.15-69.01-16.43-85.44-5.48-86.54c-4.38-18.62-1.1-46.01,9.86-62.44c10.95-16.43,62.44-61.34,86.54-73.39
				c24.1-12.05,60.25-17.53,62.44-14.24c0.61,0.91-7.67,12.05-12.05,15.34c1.1,2.19,30.67,35.05,33.96,41.63
				c0,0,14.24-6.57,17.53-2.19c3.29,4.38-23,60.25-51.49,77.78c0,0,2.19,26.29,1.1,35.05c6.57-1.1,19.72,0,21.91,10.95
				s-5.48,50.39-8.76,62.44c8.76,5.48,35.05,21.91,29.58,30.67c-5.48,8.76-37.36,0.73-67.98-22.64"/>
			<path class="st0" d="M697.25,1270.01c-4.79,0.45-9.77,0.89-14.65,1.34"/>
			<path class="st0" d="M678.15,1219.12c0,7.67,3.29,47.1,4.38,53.68c1.1,6.57-10.95,16.43-23,13.15
				c-11.67-3.18-4.38-15.34-5.48-21.91c-1.1-6.57-4.38-36.15-5.48-41.63"/>
			<path class="st0" d="M695,1217.62c0.94,7.61,2.51,47.15,2.22,53.81s12.88,14.97,24.44,10.23c11.2-4.59,2.47-15.76,2.75-22.41
				c0.28-6.66-0.08-36.41,0.34-41.98"/>
			<circle class="st0" cx="711.56" cy="1063.02" r="16.98"/>
			<circle class="st0" cx="753.19" cy="1106.84" r="16.98"/>
			<polyline class="st0" points="731.83,1082.19 730.73,1086.57 735.11,1085.47 			"/>
			<circle class="st0" cx="753.74" cy="1106.29" r="1.1"/>
			<circle class="st0" cx="712.11" cy="1063.57" r="1.1"/>
			<path class="st0" d="M659.53,1273.89c-1.1,2.19-3.4,9.13-1.15,11.68"/>
			<path class="st0" d="M668.29,1276.08c-1.1,2.19-2.19,6.57,0,9.86"/>
			<path class="st0" d="M711.01,1272.79c2.19,3.29,1.1,7.67,0,8.76"/>
			<path class="st0" d="M720.87,1271.7c1.1,1.1,2.19,4.38,1.1,8.76"/>
			<path class="st0" d="M782.22,1288.13c2.19,1.1,2.19,6.57,1.1,7.67"/>
			<path class="st0" d="M788.79,1285.94c2.19,0,5.48,3.29,5.48,3.29"/>
			<path class="st0" d="M586.13,1290.32c-4.38,2.19-2.19,9.86-2.19,9.86"/>
			<path class="st0" d="M577.37,1288.13c-2.19,2.19-5.48,5.48-5.48,8.76"/>
			<path class="st0" d="M783.12,1273.89c19.91,7.67,29.76,14.24,26.48,27.39c-3.29,13.15-25.19,18.62-39.44,20.81
				c-14.24,2.19-9.86,23,7.67,21.91s52.58-18.62,54.77-40.53c2.19-21.91-27.39-42.72-62.44-47.1"/>
		</g>
		<polyline class="st0" points="740.59,1030.7 747.16,1029.61 743.88,1033.99 		"/>
		<polyline class="st0" points="786.6,1086.57 793.17,1084.38 789.88,1089.86 		"/>
	</g>
	<g>
		<path class="st0" d="M65.16,586.07"/>
		<path class="st0" d="M224.6,607.62c14.87,14.1,23.81,32.22,23.81,51.97c0,44.98-46.34,81.44-103.5,81.44s-103.5-36.46-103.5-81.44
			c0-19.68,8.87-37.73,23.63-51.81"/>
		<path class="st0" d="M224.6,607.62c-14.76-19.17-2.2-28.34-6.73-29.47c-4.52-1.13-119.9,0-147.05,0c-3.39,0,6.79,18.1-7.87,31.71"
			/>
		<path class="st0" d="M204.3,640.36c-7.92-5.66-27.15-36.2-18.66-62.72c8.48-26.52,32.24-48.14,49.2-41.35
			c16.97,6.79-13.57,20.36-22.62,37.33c-9.05,16.97-0.9,36.77,2.26,40.72c4.52,5.66,32.8,33.93,18.1,67.87
			c-13.88,32.04-55.43,46.38-88.23,46.38c-22.62,0-65.61-10.18-82.57-41.85c-16.97-31.67-1.13-54.3,4.52-62.21
			s13.57-21.49,13.57-29.41s-2.26-27.15-1.13-30.54c0,0-14.7-14.7-15.84-18.1s21.49-2.26,21.49-2.26s33.93-19.23,75.79-11.31
			c12.44-5.66,21.49-7.92,23.75-6.79c0,3.39-7.92,20.36-7.92,20.36c3.39,2.26,14.7,15.84,12.44,24.89"/>
		<path class="st0" d="M84.79,565.97c-1.42,7.99,32.02,7.3,32.3-0.73C117.36,557.2,86.73,555,84.79,565.97z"/>
		<polyline class="st0" points="78.74,555.52 74.21,551 81,551 		"/>
		<polyline class="st0" points="165.84,537.43 172.62,535.16 170.36,540.82 		"/>
		<path class="st0" d="M143.09,563.22c-0.36,8.46,32.67,4.63,31.89-3.76C174.2,551.06,143.58,551.61,143.09,563.22z"/>
		<line class="st0" x1="157.92" y1="556.66" x2="160.18" y2="564.66"/>
		<line class="st0" x1="102.49" y1="560.05" x2="101.36" y2="570.23"/>
		<polyline class="st0" points="127.38,562.31 130.77,564.57 133.03,561.18 		"/>
		<path class="st0" d="M91.18,621.13c6.79-10.18,23.96-16.84,32.8-11.31c9.05,5.66,25.15,39.7,9.05,48.64
			c-10.18,5.66-20.36-19.23-20.36-26.02"/>
		<path class="st0" d="M233.88,678.9c0.95-13.65-10.36-34.02-44.29-43.06c-7.92-3.39-15.84-16.97-23.75-22.62
			c-7.92-5.66-23.75-4.52-19.23,6.79c4.52,11.31,20.36,20.36,19.23,21.49c-15.84,7.92-28.28,29.41-5.66,48.64"/>
		<path class="st0" d="M127.38,658.46c3.39-2.26,1.13-7.92,1.13-7.92"/>
		<path class="st0" d="M135.3,647.15c1.13,2.26,1.62,7.95,1.62,7.95"/>
		<path class="st0" d="M152.62,610.05c-2.62,4.29,0.77,8.81,0.77,8.81"/>
	</g>
	<g>
		<circle class="st0" cx="313.88" cy="465.04" r="23.72"/>
		<circle class="st0" cx="385.8" cy="439.62" r="23.72"/>
		<path class="st0" d="M347.62,471.93c2.28,0.66,9.2-2.78,7-8.85c1.67,6.11,9.82,5.09,11.33,1.57"/>
		<path class="st0" d="M438.16,437.27c11.55,32.69-16.58,72.44-62.83,88.79c-46.25,16.34-93.11,3.09-104.66-29.6
			c-5.14-14.53-2.43-30.46,6.23-45.11c-3.57-11.56-2.98-32.74,0.39-36.64c3.12-3.59,12.13,3.61,18.81,14.21
			c10.26-8.75,22.94-16.14,37.39-21.25c14.32-5.06,28.69-7.28,42.06-6.97c-3.96-9.45-4.7-21.42,1.14-20.13
			c3.81,0.84,15.12,6.49,28.27,25.51C420.9,412.04,433.02,422.73,438.16,437.27z"/>
		<line class="st0" x1="382.58" y1="429.3" x2="387.85" y2="444.21"/>
		<line class="st0" x1="308.92" y1="455.34" x2="314.19" y2="470.24"/>
	</g>
	<g>
		<path class="st0" d="M153.95,1058.86c-3.19,34.64-8.27,56.78-10.95,62.14c-3,6,19,26,18,53c-0.85,23.01-13.49,51.07-12,60
			c1,6,8,12,4,19c-2.48,4.34-17,4-22-4c-3.39-5.43-1-30-4-38s-5-12-7-14"/>
		<path class="st0" d="M69,964c2-13,24-47,31-54c2-10,8-27,12-29c2.53-1.26,9,15,11,20c6,0,35,9,42,16c11-7,18-10,20-10
			c3,0-4,25-7,29s2.94,30.24,1,38c-6,24-14.24,26.02-19.99,46.99"/>
		<path class="st0" d="M37.26,1037.12C41.98,991.13,53.37,964.79,66,964c16-1,27,17,30,28s13,23,31,27s59,0,68,4s16,13,4,18
			s-76,17-95,14s-41-22-46-28"/>
		<path class="st0" d="M105,1137c9,9,24,41,13,62s-13,23-13,29c0,14,10,17,10,28c0,6-15,10-24,2c-11.63-10.34-16-62-20-73
			s-37-36-36-107c0.11-8.13,0.4-15.88,0.84-23.24"/>
		<path class="st0" d="M94.24,1052.21c-24.76,0.93-46.74,4.54-57.24,2.79c-12-2-27.85-18,27.08-22"/>
		<path class="st0" d="M177.45,1046.66c-0.47,5.44-2.15,9.69-5.45,11.34c-8.47,4.23-23.9-0.49-42.44-3.64"/>
		<path class="st0" d="M166,1006c3.26,2.93,5.39,7.99,7.71,14.99"/>
		<path class="st0" d="M53.94,1159.1C37,1179,28,1203,24,1224s-18,30-36,34c-18.24,4.05-23.66-17.27-5-21c30-6,13-47,60-101"/>
		<polyline class="st0" points="108,904 111,895 115,901 		"/>
		<polyline class="st0" points="169,923 176,919 173,928 		"/>
		
			<ellipse transform="matrix(0.3281 -0.9446 0.9446 0.3281 -819.3067 737.0699)" class="st0" cx="108.5" cy="944.5" rx="17.5" ry="14.5"/>
		<line class="st0" x1="109.5" y1="940.09" x2="107.21" y2="946.7"/>
		
			<ellipse transform="matrix(0.3281 -0.9446 0.9446 0.3281 -801.8984 791.5456)" class="st0" cx="155.5" cy="959.5" rx="17.5" ry="14.5"/>
		<line class="st0" x1="156.5" y1="955.09" x2="154.21" y2="961.7"/>
		<polyline class="st0" points="130,949 131,952 134,951 		"/>
		<line class="st0" x1="131" y1="952" x2="123" y2="975"/>
		<path class="st0" d="M204.75,1031.36C203,1029,195,1031,195,1031"/>
		<path class="st0" d="M196.78,1023.87C196,1023,191,1025,191,1025"/>
		<path class="st0" d="M37,1047c-3,0-6,3-7,4"/>
		<path class="st0" d="M35,1042c-3,0-8,2-8,2"/>
		<path class="st0" d="M101,1254c3,2,2,7,2,7"/>
		<path class="st0" d="M108,1252c2,1,4,6,3,8"/>
		<path class="st0" d="M141,1246c1,1,2,6,0,8"/>
		<path class="st0" d="M149,1246c1,1,2,5,1,8"/>
	</g>
	<g>
		<path class="st0" d="M924,288c-2-11-12-35-23-43c-6-14-10-29-14-30s-13,19-14,21c-7-2-36-1-41,1c-6-8-13-19-16-20s-13,25-14,33
			c-10,11-20,43-22,50s-25,46-3,97c2,20,13,32,42,30s40.59-6.95,40-14c-1-12-26-15-49-13"/>
		<path class="st0" d="M901,395c-23,1-41,4-42,18s27,12,42,11s42.29-7.14,44-14c4-1,33.82,3.08,69-12c7-3,85,11,87-5s-64-34-70-51
			s-13-116-130-97"/>
		<path class="st0" d="M771.57,381.66c-13.57,2.34-43.02,23.21,6.71,22.78"/>
		<path class="st0" d="M1025.17,318.95C1046,323,1106,316,1125,312s34.04-3.84,37,8c3,12-34.64,34.43-118.32,34.22"/>
		<path class="st0" d="M868,276c0,11,39,8,39-1C907,265,868,264,868,276z"/>
		<path class="st0" d="M799,277c0,11,39,8,39-1C838,266,799,265,799,277z"/>
		<line class="st0" x1="895.5" y1="268.25" x2="896" y2="281"/>
		<line class="st0" x1="828.18" y1="269.21" x2="828.18" y2="282.63"/>
		<polyline class="st0" points="881,238 886,230 889,240 		"/>
		<polyline class="st0" points="822,240 818,232 815,243 		"/>
		<path class="st0" d="M860.52,407.48C862,409,872,408,872,408"/>
		<path class="st0" d="M861,416c5,2,10,0,10,0"/>
		<path class="st0" d="M846,409c3,1,10,0,10,0"/>
		<path class="st0" d="M847,416c2,1,10,2,12,0"/>
		<path class="st0" d="M1091,388c1,1,7,3,9,3"/>
		<path class="st0" d="M1088,396c2,1,5,1,10,1"/>
		<path class="st0" d="M750.95,394.59C753,395,760,393,760,393"/>
		<path class="st0" d="M754,400c1,0,9-1,9-1"/>
	</g>
	<g>
		<path class="st0" d="M767,882c-20-6-34-33-21-70c-7-20-9.74-27.14-9-29c2-5,21,4,27,9c8-2,50-5,55-3c-1-13-3.44-17.81-3-20
			c1-5,21.9,4.69,31,32c3,9,4,37,14,54s10,29,8,43s-13,62-27,70s-61,13-76,12s-20-15-2-23s53-14,58-19"/>
		<path class="st0" d="M803,842c0,9,34,5,33-3C835.13,832.05,803,836,803,842z"/>
		<line class="st0" x1="826" y1="836" x2="828" y2="845"/>
		<path class="st0" d="M749,848c0,9,34,5,33-3C781.13,838.05,749,842,749,848z"/>
		<line class="st0" x1="772" y1="842" x2="774" y2="851"/>
		<polyline class="st0" points="788,843 791,845 794,842 		"/>
		<line class="st0" x1="791" y1="845" x2="797" y2="859"/>
		<path class="st0" d="M741.05,836c-9.05-6-18.05-2-29.05,9c-10.51,10.51-23.54,36.66-14,44c13,10,31-20,45.17-33.32"/>
		<path class="st0" d="M709.94,847.23C682,847,638,857,609,889s-38,50-48,62s-22,30-18,36s13,8,24-2s27-31,32-34s59-14,65-31"/>
		<path class="st0" d="M753.69,973.86C743,979,702,988,657,983c-39.08-4.34-66-4-69-4"/>
		<path class="st0" d="M562,988.84c0.28,21.78,0,43.96,0,53.16c0,14,24,19,26,0s4-54-3.81-75.41"/>
		<path class="st0" d="M600.79,898.3c-21.36,5.35-39.4,23.26-39.92,52.67"/>
		<path class="st0" d="M545.37,973.86C533,972,526,965,529,958s15.27-7.9,31.13-5.95"/>
		<path class="st0" d="M543,985c2,1,5-2,5-2"/>
		<path class="st0" d="M549.91,991.74C553,991,555,986,555,986"/>
		<path class="st0" d="M529,960c2,2,5,4,5,4"/>
		<path class="st0" d="M532.66,953.99C535,957,538,958,538,958"/>
		<path class="st0" d="M766,972c-3,0-5,3-5,5"/>
		<path class="st0" d="M760,964c-2,1-7,3-7,7"/>
		<path class="st0" d="M709,881c-1,1-4,7-3,9"/>
		<path class="st0" d="M700,877c-1,2-3.33,8.85-2.66,11.42"/>
		<path class="st0" d="M826,782c0,0,4,5,5,9"/>
		<path class="st0" d="M749,794c1,0,6,3,7,5"/>
	</g>
	<g>
		<path class="st0" d="M913,484c10-4,32-5,36,2c3.33,5.82-1,19-26,21s-42-8-39-25s28-33,63-32"/>
		<path class="st0" d="M948,573c-10,8-19,34-11,45c9.3,12.79,45-1,43-12s-20-9-28-6"/>
		<path class="st0" d="M963.79,597.68C972,595,978,587,978,584"/>
		<path class="st0" d="M964,560c1,13,19,31,37,39c0,0-20,7-18,24s20,21,28,20"/>
		<path class="st0" d="M1020,630c7,4,39,11,56,1"/>
		<path class="st0" d="M1054,637c1,5-10,12-25,18s-33,19-44,18s-8-16,20-30"/>
		<path class="st0" d="M989,663c-4,2-4,7,0,9"/>
		<path class="st0" d="M938,487c2,1,9,1,10-1"/>
		<path class="st0" d="M937,497c2,1,8.77,1,10.39,0"/>
		<path class="st0" d="M966,605c2,1,8.39-1.9,10.7-4.45"/>
		<path class="st0" d="M970,612c2,0,7.34-1,9.67-3"/>
		<path class="st0" d="M884,479c-9,4-23,21-25,25c-5,4-25,24-22,30s20,1,20,1c1,6,12,33,22,40c-9,3-15,9-13,12c1.24,1.86,16,5,37,0
			c10,0,32.01-3.2,38.5-6.1"/>
		<path class="st0" d="M890,534c9-2-5-31-14-27S878.12,536.64,890,534z"/>
		<path class="st0" d="M902,530c2-5,9,6,2,8c7-3,12,8,6,7"/>
		<line class="st0" x1="884" y1="520" x2="888" y2="518"/>
		<polyline class="st0" points="853,521 848,527 855,526 		"/>
		<polyline class="st0" points="883,580 878,583 887,583 		"/>
		<path class="st0" d="M912,575c9-2-5-31-14-27S900.12,577.64,912,575z"/>
		<line class="st0" x1="906" y1="561" x2="910" y2="559"/>
		<path class="st0" d="M933.92,450.29C982,433,1022,428,1072,454s61,85,62,110s-1,64-27,104s-39.42,65.95-41,81c-2,19-30,19-30-2
			s5-45,40-90"/>
		<path class="st0" d="M1100,514c-19-10-53-5-56,20s28,57,35,65c0,10-11,65,6,67s24-46,22-65"/>
		<path class="st0" d="M1083,651c-4,2-4,10-4,10"/>
		<path class="st0" d="M1092,652c1,1,3,7,2,9"/>
	</g>
	<g>
		<path class="st0" d="M388.49,1040.53c-1.19,7.14-19.05,20.24-39.28,20.24"/>
		<path class="st0" d="M346.83,1058.39c2.38,5.95,17.86,33.33,7.14,39.28s-40.47-14.28-32.14-53.57s86.9-61.9,121.42-59.52
			c34.52,2.38,83.33,32.14,85.71,67.85c2.38,35.71-13.09,53.57-5.95,83.33c7.14,29.76,8.33,52.38,1.19,70.23
			c-7.14,17.86-32.14,13.09-23.81-9.52c8.33-22.62,2.38-52.38-2.38-66.66s-2.38-25,1.19-32.14"/>
		<path class="st0" d="M434.92,1033.39c-17.86,2.38-48.81,51.19-38.09,88.09c-7.14,4.76-50,10.71-47.62,26.19
			c1.72,11.16,40.47,4.76,60.71,0c20.24-4.76,28.57-4.76,34.52-13.09c5.95-8.33,11.9-14.28,20.24-15.48
			c8.33-1.19,21.82-3.57,31.74-14.28"/>
		<path class="st0" d="M356.35,1096.48c8.33,8.33,27.14,17.2,39.17,19.31"/>
		<path class="st0" d="M478.09,1116.17c-0.31,6.5-5.07,17.21-33.64,18.4"/>
		<path class="st0" d="M384.92,1113.15c-17.12,1.01-47.74,13.29-27.44,22.72"/>
		<path class="st0" d="M320.64,1069.1c-10.71-2.38-29.76,9.52-17.86,25s52.44,22.37,42.89,4.04"/>
		<path class="st0" d="M421.65,985.59c0.17-4.58-5.78-16.48-6.97-18.86c-1.19-2.38,2.38-14.28,0-21.43
			c-2.38-7.14-19.05,8.33-21.43,10.71c-5.95-2.38-46.43,5.95-51.19,8.33c-5.95-3.57-20.24-5.95-25-5.95
			c-4.76,0,4.76,21.43,7.14,26.19c-4.76,8.33-10.99,29.57-1.92,57.64"/>
		<polyline class="st0" points="331.35,976.25 328.97,970.3 336.11,971.49 		"/>
		<polyline class="st0" points="368.25,986.96 371.83,989.34 374.21,985.77 		"/>
		<line class="st0" x1="384.92" y1="982.2" x2="406.35" y2="978.63"/>
		<line class="st0" x1="359.92" y1="986.96" x2="336.11" y2="991.72"/>
		<path class="st0" d="M350.4,1088.15c1.19,2.38,3.39,4.02,7.05,4.39"/>
		<path class="st0" d="M343.26,1091.72c0,0,4.31,6.68,7.51,6.91"/>
		<path class="st0" d="M339.68,1101.24c2.38,2.38,3.57,2.38,5.95,2.38"/>
		<path class="st0" d="M361.11,1144.1c-1.19,0-8.33,3.57-7.14,5.95"/>
		<path class="st0" d="M352.78,1131c1.19-3.57,7.14-4.76,7.14-4.76"/>
		<polyline class="st0" points="401,960 406,955 406,962 		"/>
	</g>
	<g>
		<path class="st0" d="M278.93,291.82c3.27-9.8,37.02-30.49,46.82-41.38s1.09-23.95-13.07-16.33c-14.16,7.62-28.31,8.71-46.82,18.51
			c-18.51,9.8-23.95,25.04-39.2,46.82c-18.51,11.98-30.49,27.22-32.67,39.2c-4.36,3.27-19.6,18.51-18.51,21.78
			c0.77,2.31,14.16,4.36,26.13,0c3.27,6.53,27.22,33.75,37.02,39.2c-2.18,4.36-3.27,21.78,0,21.78s16.33-6.53,26.13-17.42
			c16.33-3.27,41.46-32.73,50.09-39.2c13.07-9.8,38.11-19.6,51.18-43.55s17.42-54.44,7.62-60.98c-9.8-6.53-14.16,14.16-19.6,23.95
			c-5.44,9.8-18.51,28.31-31.58,33.75"/>
		<path class="st0" d="M291.1,241.67c-26.89-10.71-66.32-14.49-123.23,0.06"/>
		<path class="st0" d="M344.29,298.82c-0.01-5.56-6.32-24.93-26.21-41.37"/>
		<path class="st0" d="M214.67,377.09c-23.94,0.75-68.58,0.75-145.89-71.11c-6.53,4.36-17.42-2.18-31.58-23.95
			s-19.6-42.47-9.8-44.64c9.8-2.18,32.67,37.02,34.84,39.2c2.18-17.42,34.84-63.15,82.75-23.95"/>
		<path class="st0" d="M224.49,231.93c-5.44-14.16-16.33-39.2-66.42-14.16c-6.53,3.27-4.36-5.44,0-15.24
			c4.36-9.8,11.98-26.13,4.36-30.49c-7.62-4.36-28.31,16.33-41.38,65.33"/>
		<path class="st0" d="M109.07,340.82c-17.64,8.28-45.73,33.75-53.35,53.35c-10.63,27.32,1.09,43.55-16.33,46.82
			s-33.75-68.6,50.09-114.33"/>
		<polyline class="st0" points="194,348.44 189.64,353.88 197.27,352.8 		"/>
		<polyline class="st0" points="245.18,402.88 244.09,410.5 250.62,405.06 		"/>
		<path class="st0" d="M259.33,359.33c-5.44,4.36,17.42,28.31,23.95,21.78C289.82,374.57,268.37,352.1,259.33,359.33z"/>
		<line class="st0" x1="268.04" y1="373.48" x2="276.79" y2="364.71"/>
		<path class="st0" d="M222.31,325.57c-5.44,4.36,17.42,28.31,23.95,21.78C252.8,340.82,231.35,318.34,222.31,325.57z"/>
		<line class="st0" x1="231.02" y1="339.73" x2="239.77" y2="330.96"/>
		<polyline class="st0" points="252.8,350.62 256.06,350.62 256.06,353.88 		"/>
		<line class="st0" x1="266.95" y1="340.82" x2="256.06" y2="350.62"/>
		<path class="st0" d="M22.44,245.69c3.88,0.4,7.14,2.58,8.23,4.76"/>
		<path class="st0" d="M155.22,173.13c2.84,1.1,3.93,7.63,2.84,9.81"/>
	</g>
	<g>
		<path class="st0" d="M360,84c3-16,12-47,17-50s12,14,12,14c4-2,41-3,52-1c4-10,6-16,8-16s10,11,15,26s38,66,7,92"/>
		<path class="st0" d="M476,149c-7,0-38,1-39,14s29,11,39,7s17.3-20.98,2.15-28.99"/>
		<path class="st0" d="M416.33,45.93C366,3,290-7,259,71s5,119,116,103c23,13,64,1,62-11c-1.68-10.06-27-10-36-10"/>
		<path class="st0" d="M383,84c0,0,15-4,25,0"/>
		<path class="st0" d="M435,82c0,0,12-5,22-1"/>
		<polyline class="st0" points="418,82 422,85 425,81 		"/>
		<path class="st0" d="M424,108c0,0,1-17-2-24"/>
		<path class="st0" d="M427,161c1,0,7.08,0.82,7.54-2.09"/>
		<path class="st0" d="M427,168c2,1,6,0,8-1"/>
		<path class="st0" d="M438.21,159.35C438,159,442,162,447,160"/>
		<path class="st0" d="M438,166c1,1,7,2,9,1"/>
	</g>
	<g>
		<path class="st0" d="M623.78,264.22c0,0-15.82-1.05-23.2,5.27c-14.76-23.2-55.89-79.09-70.65-75.93
			c-14.76,3.16-2.11,18.98,6.33,41.13c8.44,22.14,10.55,64.33,14.76,84.36c4.22,20.04,32.69,54.83,72.76,61.16
			s107.56-13.71,114.94-52.73s-18.98-84.36-33.74-95.96s-9.49-21.09-14.76-37.96c-5.27-16.87-11.6-21.09-11.6-28.47
			s-3.16-18.98-7.38-21.09c-4.22-2.11-13.71,14.76-13.71,14.76s-56.94,2.11-70.65,30.58c-13.71,28.47,6.33,53.78,22.14,63.27"/>
		<path class="st0" d="M605.11,171.77c0,0-11.91-13-15.07-11.94c-3.16,1.05-2.33,18.28-1.17,26.01"/>
		<path class="st0" d="M640.65,243.13c-12.65,1.05-37.44,8.07-40.87,25.12"/>
		<path class="st0" d="M631.16,197.79c1.28,5.12,35.85,1.05,34.8-5.27C664.91,186.19,629.05,189.35,631.16,197.79z"/>
		<path class="st0" d="M616.4,199.9c1.48,5.17-26.36,11.6-28.47,4.22C585.82,196.74,614.29,192.52,616.4,199.9z"/>
		<path class="st0" d="M547.52,295.86c-15.49-11.6-32.36-9.49-35.52-2.11c-3.16,7.38,29.91,19.13,42.37,34.88"/>
		<path class="st0" d="M569.94,350.75c-43.17-2.17-91.68,10.49-108.55,25.25c-16.87,14.76-2.34,29.04,16.87,20.04
			c33.74-15.82,71.65-24.52,123.88-22.28"/>
		<line class="st0" x1="655.42" y1="190.41" x2="656.47" y2="196.74"/>
		<line class="st0" x1="605.85" y1="196.74" x2="607.76" y2="205.7"/>
		<path class="st0" d="M524.66,202.01c1.05,0,6.33,4.22,6.33,4.22"/>
		<path class="st0" d="M528.87,194.63c2.11,1.05,6.33,5.27,6.33,5.27"/>
		<path class="st0" d="M513.06,295.86c2.11-2.11,9.49-2.11,10.55-1.05"/>
	</g>
	<g>
		<path class="st0" d="M621.94,560.63c-18.26,0-42.33-25.16-39.74-46.17c2.15-17.44,19.34-30.78,31.15-40.01
			c8.31-6.5,34.37-21.55,61.23-4.1c9.67-7.18,19.34-13.34,21.48-13.34c4.3,0,2.15,22.57,0,28.73c6.45,6.16,16.11,21.55,22.56,36.94
			c6.45,15.39,23.63,22.57,33.3,44.12c9.67,21.55,29,131.33-49.41,143.64"/>
		<path class="st0" d="M615.04,473.18c-0.63-1.82-13.52-14.13-15.66-14.13s-2.15,20.52,0,25.65"/>
		<path class="st0" d="M636.98,507.28c0,6.16,35.45,6.16,35.45-1.03C672.42,499.07,636.98,497.01,636.98,507.28z"/>
		<path class="st0" d="M618.71,506.25c0,4.1-26.85,6.16-27.93-1.03C589.71,498.04,618.71,497.98,618.71,506.25z"/>
		<path class="st0" d="M618.71,514.46c0,2.05,8.59,3.08,8.59-3.08c1.07,4.1,4.3,7.18,7.52,3.08"/>
		<line class="st0" x1="663.83" y1="505.22" x2="663.83" y2="510.97"/>
		<line class="st0" x1="610.12" y1="505.22" x2="610.12" y2="509.63"/>
		<path class="st0" d="M668.13,534.98c-12.89,6.16-40.82,6.16-67.67,64.64c-26.85,58.48-29,120.04,63.38,113.89
			c13.96,4.1,20.41,13.34,66.6,17.44c46.19,4.1,103.12,2.05,117.09-6.16s5.37-17.44-10.74-18.47s-53.71,7.18-96.68,4.1
			c-13.97-1-20.67-4.7-20.67-4.7"/>
		<path class="st0" d="M688.54,583.2c4.3-7.18,32.5-15.3,40.82-3.08c13.96,20.52-20.56,66.24-39.74,68.74
			c-23.63,3.08-50.49-42.07-45.12-62.59C648.18,572.2,677.79,565.76,688.54,583.2z"/>
	</g>
	<g>
		<path class="st0" d="M979,40c-38,14-31,62-16,84c-52-9-63.32,10.28-61,18c3,10,33.76,2.79,59,10c28,8,39,7,51,9s25-6,23-2
			c-12,14-36.11,26.99-76,22c-32-4-50.05-19.03-57-6c-8,15,16.17,35.47,76,31c67-5,91-38,106-67s39-104-27-148S902-25,878-6
			c-10.71,8.48-30.35,6.67-42,21c-14.45,17.77-20.81,50.99-23,55c-6,11-9,30-7,32s14,0,20-3c2-1,24,16,51,22c5,6,17,14,20,13
			c0.95-0.32-2-13,0-16s6-14,6-14"/>
		<path class="st0" d="M908,47c-1,9-14,31-11,45s15,20,34,18s23-13,15-19s-29-4-29-4"/>
		<path class="st0" d="M899.8,112.21C903,118,935,125,955,112"/>
		<path class="st0" d="M939,97c2,1,8,1,9-1"/>
		<path class="st0" d="M938,104c1,1,4,1,6,1"/>
		<path class="st0" d="M913,138c-3,1-6.09,4.76-3.55,8.88"/>
		<polyline class="st0" points="861,89 864,88 864,91 		"/>
		<path class="st0" d="M870,95c1,2,14,7,19,7"/>
		<path class="st0" d="M833,81c1,2,15,8,21,7"/>
		<line class="st0" x1="817" y1="85" x2="815" y2="93"/>
		<line class="st0" x1="888" y1="118" x2="891" y2="124"/>
	</g>
	<g>
		<path class="st0" d="M1039.02,1266.67c5.16,12.58,14.67,28.79,3.17,34.86c-11.5,6.07-43.73-28.15-35.86-51.96
			c7.87-23.81,38.2-21.04,49.25-10.51c7.7,7.33,17.84,30.51,24.63,49.97c12.41,14.94,32.24,34.22,37.13,88
			c4.9,53.78,3.73,96.06,15.05,132.18c6.97,10.41,13.95,20.82,2.63,28.88c-11.32,8.06-34.04-9.95-58.77-83.01
			c-3.62,15.39-24.8,69.54-41,68c-16.21-1.54-1-33.05-1-33.05"/>
		<path class="st0" d="M1039.6,1482.51c-5.34,7.52-22.81,25.17-39.83,14.67c-17.02-10.5-9.06-44.36-0.73-63.19
			c-6.79-19.46-9.33-36.3-10.78-52.24"/>
		<path class="st0" d="M991.41,1372.43c-1.36,7.15-10.56,17.12-16.38,18.56c-12.77,3.17-22.27-13.03-40.83-7.33
			c-5.81,1.79-35.4,19.29-43.18,10.96c-7.79-8.33,15.75-25.53,29.06-33.77c13.31-8.24,30.96-12.86,32.77-15.03
			c1.81-2.17,0.54-16.12,7.15-20.73"/>
		<path class="st0" d="M1027.3,1231.66c-13.27-7.9-41.61-21.38-77.64,1.98c-36.03,23.36-40.43,101.95,6.14,97.78"/>
		<path class="st0" d="M937.35,1263.88c0.45,4.98,11.77-3.08,7.97-11.77c6.43,4.44,20.28-8.88,12.22-9.15"/>
		<path class="st0" d="M977.7,1221.8c3.1-10.08,10.7-14.78,11.7-14.88c1-0.09,7.61,6.34,11.23,13.04"/>
		<path class="st0" d="M922.86,1279.3c0.01,1.96-14.11,12.29-15.74,16.45s15.85,8.6,15.85,8.6"/>
		<path class="st0" d="M1036.85,1286.95c0.45,4.98,7.73,9.96,10.25,8.92"/>
		<path class="st0" d="M1030.15,1290.58c0.18,1.99,2.48,8.33,4.86,10.87"/>
		<path class="st0" d="M900.16,1384.75c-2.9,1.27-6.34,9.17-2.99,12.1"/>
		<path class="st0" d="M1041.95,1508.4c-2.72,3.26-3.27,11.18-1.9,13.65"/>
		<path class="st0" d="M1032.81,1507.23c-2.81,2.26-4.5,6.85-4.74,9.18"/>
		<path class="st0" d="M1123.71,1524.05c3.26,2.72,3.57,10.98,0.61,14.63"/>
		<path class="st0" d="M1133.49,1521.16c2.08,0.81,5.7,7.51,5.25,13.58"/>
		<path class="st0" d="M1010.45,1500.56c-19.73,18.53-52.41,45.61-90.8,54.13c-19.91,4.42-23.36-13.94-4.08-22.72
			c19.28-8.78,57.61-27,74.47-52.3"/>
	</g>
	<g>
		<path class="st0" d="M1035.97,862.66c41.26,21.84,58.03,47.36,63.03,67.34c6,24,1,86-23,117c0,7,2,22-3,35s-11,27-3,31s35,8,34,19
			s-58,0-62-7s-8-50-11-52s-38-8-45-27c-18,15-59,22-78,23s-50-2-72-18c-20.62-15-0.07-27.5,12-19c27,19,85,22,126,5"/>
		<path class="st0" d="M924.87,897.96c-0.12-12.6,3.09-23.76,4.13-28.96c1.93-9.68,16.04-40.88,73.1-21.16"/>
		<path class="st0" d="M957.68,945.6c-7.19-2.62-14.02-6.66-19.68-12.6c-3.57-3.74-6.25-7.77-8.22-11.94"/>
		<path class="st0" d="M1008,945c-5.27,2.64-15.37,4.89-26.81,4.71"/>
		<path class="st0" d="M931.34,1066.92c-15.93,15.39-36.82,28.86-33.34,34.08c6,9,30.78-3.19,42-8c14-6,26-17,35-20
			s26.85-5.85,30.92-8.93"/>
		<path class="st0" d="M990.32,949.34C999,956,1003,980,995,994c-7.06,12.35-31.25,31.72-45.77,50.53"/>
		<path class="st0" d="M1008,903c-5-4-4-28-4-41s-9.65-41.09-8-51c2-12,20-24,31-21s-2.23,16.84-5,21c-6,9,17,50,17,66"/>
		<path class="st0" d="M966.85,841.43C959,839,935,828,927,820s-17-14-24-9s3.85,31.7,31.93,45.35"/>
		<path class="st0" d="M957.86,945.66C957,952,959,970,962,971s18.66-19.55,19.83-21.28"/>
		<path class="st0" d="M924.87,897.96C915,902,907,918,906,920s20.57,2.12,23.78,1.06"/>
		<path class="st0" d="M964,910c2,6,11,11,21,13"/>
		<path class="st0" d="M931,886c0,3,9,11,15,12"/>
		<path class="st0" d="M952,895c1-5,8,0,6,6c4-4,8-4,10,0"/>
		<path class="st0" d="M965,958c0,0,6-7,7-9"/>
		<path class="st0" d="M917,915c0,0,8,0,11-1"/>
		<path class="st0" d="M1030.92,792.83C1028,792,1023,797,1023,798"/>
		<path class="st0" d="M1023,790c-3,1-6,4-6,5"/>
		<path class="st0" d="M907,810c0,2,3,5,3,5"/>
		<path class="st0" d="M901.22,813.79C901,817,906,821,906,821"/>
		<path class="st0" d="M1093,1129c1,1,4,3,3,7"/>
		<path class="st0" d="M911,1091c-1.58,1.58-3,5-2,6s7,1,9-1s-2-4-3-4C915,1091,913,1089,911,1091z"/>
	</g>
	<g>
		<path class="st0" d="M372.1,636.01c-10.22,8.18-37.82,3.07-49.07-21.47c-8.57-18.7-16.36-22.49-23.51-21.47
			s-22.49-3.07-10.22-16.36c12.27-13.29,29.65-8.18,38.85,0c8.71,7.74,12.27,25.56,26.58,27.6c14.31,2.04,31.69-17.38,36.8-20.44
			c5.11-3.07,17.38-43.96,53.16-53.16c26.58-18.4,30.67-19.42,32.71-17.38s-1.02,16.36-4.09,19.42c4.09,0,25.56,10.22,30.67,15.33
			c5.11-7.16,12.27-17.38,15.33-16.36c3.07,1.02,4.09,26.58,0,33.73c2.04,8.18,7.16,25.56-20.44,66.45"/>
		<path class="st0" d="M479.44,667.7c-6.13,14.31-17.38,24.53-30.67,18.4s18.4-64.4,41.91-56.22c23.51,8.18,19.42,52.13-12.27,72.58
			c-5.11,19.42-9.2,36.8-25.56,60.31c6.13,15.33,8.97,29.43,7.16,43.96c-2.04,16.36-2.04,33.73,3.07,36.8
			c5.11,3.07,39.87,6.13,39.87,17.38c0,7.23-52.13,4.09-61.33,0s-31.69-61.33-44.98-65.42c-22.49,3.07-48.81-5.71-55.2-2.04
			c-3.98,2.28-11.98,6.06-22.49,27.6c-5.62,11.51-13.29,17.38-19.42,19.42s-62.85,10.11-65.42-1.02
			c-3.07-13.29,40.89-16.36,42.93-26.58c1.17-5.84,3.07-44.98,18.4-68.49c15.33-23.51,47.74-36.96,56.22-53.16
			c11.24-21.47,13.79-51.59,13.79-51.59"/>
		<path class="st0" d="M254.54,824.11c-19.17,1.69-35.81,1.74-46,2.04c-33.73,1.02-29.65-21.47-8.18-24.53
			c25.48-3.64,77.69-6.13,77.69-6.13"/>
		<path class="st0" d="M372.63,795.39c-8.57,8.05-27.58,14.14-50.04,18.69"/>
		<path class="st0" d="M486.59,562.41c-2.04,6.13,22.49,19.42,27.6,11.24C519.19,565.66,490.64,550.26,486.59,562.41z"/>
		<path class="st0" d="M475.35,553.21c-3.07,7.16-37.82-4.09-32.71-13.29C447.75,530.72,479.17,544.3,475.35,553.21z"/>
		<path class="st0" d="M464.1,562.41c-1.02,4.09,8.18,6.13,11.24,2.04c-1.02,4.09,2.04,9.2,6.13,8.18"/>
		<line class="st0" x1="499.88" y1="572.63" x2="502.95" y2="567.52"/>
		<line class="st0" x1="452.86" y1="550.14" x2="455.92" y2="544.01"/>
		<path class="st0" d="M295.43,584.9c-2.04,0-3.07,6.13-1.02,7.16"/>
		<path class="st0" d="M462.06,676.9c-1.02,1.02-3.07,8.18-2.04,10.22"/>
		<path class="st0" d="M452.86,674.86c-1.02,1.02-4.09,7.16-3.07,11.24"/>
		<path class="st0" d="M492.72,857.84c2.04,0,4.09,2.04,4.09,5.11"/>
		<path class="st0" d="M250.45,834.33c-2.04,0-7.64,3.82-6.88,9.57"/>
	</g>
	<g>
		<ellipse class="st0" cx="681.5" cy="2213" rx="60.5" ry="12"/>
		<ellipse class="st0" cx="680.66" cy="2237.31" rx="39.34" ry="7.8"/>
		<path class="st0" d="M716,2267.51c-1,4.49-15.67,7.8-35,7.8s-35-3.49-35-7.8"/>
		<line class="st0" x1="621" y1="2213" x2="646.3" y2="2268.53"/>
		<line class="st0" x1="742" y1="2213" x2="716" y2="2268"/>
		<path class="st0" d="M709.5,2260.99c0,3.15-12.87,5.7-28.75,5.7s-28.75-2.55-28.75-5.7"/>
		<line class="st0" x1="641" y1="2237" x2="652" y2="2261"/>
		<line class="st0" x1="720" y1="2237" x2="709.26" y2="2261.72"/>
	</g>
	<g>
		<path class="st0" d="M829,1822c0,16.03,8,61,9,66s58,2,63,2s47-25,49-27s-5-66-6-68s-33-24-37-27l-2-14l-58,14l2,14
			C849,1782,829,1818,829,1822z"/>
		<path class="st0" d="M901,1887c0,0-7-71-8-73s-44-32-44-32l58-14"/>
		<line class="st0" x1="893" y1="1814" x2="944.34" y2="1796.55"/>
		<path class="st0" d="M840,1860c0,0-3-18-2-18s8,8,9,8s5-9,5-10s4,17,4,18"/>
		<line class="st0" x1="861" y1="1841" x2="864" y2="1857"/>
		<polyline class="st0" points="869,1838 872,1857 880,1856 		"/>
		<line class="st0" x1="881" y1="1837" x2="885" y2="1856"/>
		<polyline class="st0" points="890,1840 884,1848 893,1855 		"/>
	</g>
	<path class="st0" d="M574.88,748.53c2.35,4.71,25.9,7.85,28.25,3.14c2.35-4.71,10.99-21.19,10.2-22.76
		c-0.78-1.57-14.13,3.14-14.13,3.14c-0.78-3.92-4.71-18.05-6.28-18.05c-1.57,0-10.2,17.27-10.2,17.27
		c-1.57-1.57-10.99-7.85-11.77-7.85C570.17,723.42,572.35,743.47,574.88,748.53z"/>
	<g>
		<ellipse class="st0" cx="858" cy="631" rx="43" ry="9"/>
		<path class="st0" d="M910,657c0,4.97-23.28,11-52,11s-52-6.03-52-11"/>
		<line class="st0" x1="901" y1="631" x2="910" y2="657"/>
		<line class="st0" x1="815" y1="631" x2="806.12" y2="656.4"/>
		<path class="st0" d="M806.81,654.43c-7.19,2.43-9.21,6.7-7.81,10.36c2,5.21,26.42,11,59,11s56.73-6.99,58-11.79c1-3.79,0-8-6-10"
			/>
	</g>
	<g>
		
			<ellipse transform="matrix(0.9918 -0.1279 0.1279 0.9918 -166.7585 18.5748)" class="st0" cx="61.3" cy="1308.21" rx="69.5" ry="12"/>
		<path class="st0" d="M130.36,1300.31c1.28,9.92,1.62,12.57,2.05,15.87c0.85,6.57-29.33,15.88-67.4,20.79s-69.62,3.56-70.46-3.02
			c-0.42-3.29-1.02-7.93-2.17-16.86"/>
		<path class="st0" d="M19.05,1321.37c11.61-3.17,26.52-6.1,42.9-8.21c16.36-2.11,34.47-3.09,46.5-2.97"/>
		<line class="st0" x1="64.52" y1="1337.03" x2="65.79" y2="1346.95"/>
		<path class="st0" d="M65.92,1347.94c6.43-4.86,14.62-3.9,15.64,4.03c1.02,7.93-8.86,17.28-12.83,17.79
			c-4.09,0.53-16.03-7.01-16.92-13.95C50.92,1348.87,59.33,1343.75,65.92,1347.94z"/>
	</g>
	<g>
		<path class="st0" d="M532.53,834.11c0-15.09,5.8-47.58,9.28-54.55c0-19.73,0-23.21,3.48-25.53s17.41,12.77,19.73,16.25
			c3.48-1.16,39.46-3.48,53.39,0c5.8-6.96,13.93-15.09,17.41-13.93s1.16,24.37,1.16,26.69s6.96,32.5,5.8,51.07"/>
		<path class="st0" d="M641.55,811.11c15.07,3.17,24.45,7.62,24.45,12.56c0,9.61-35.59,17.41-79.5,17.41s-79.5-7.79-79.5-17.41
			c0-5.18,10.34-9.84,26.75-13.02"/>
		<ellipse class="st0" cx="617.26" cy="812.06" rx="17.41" ry="6.96"/>
		<line class="st0" x1="625.43" y1="805.91" x2="625.38" y2="816.7"/>
		<ellipse class="st0" cx="561.3" cy="811.99" rx="17.41" ry="6.96"/>
		<line class="st0" x1="569.48" y1="805.84" x2="569.42" y2="816.63"/>
		<polyline class="st0" points="587.08,808.58 589.4,810.9 591.72,808.58 		"/>
		<line class="st0" x1="589.4" y1="812.06" x2="589.4" y2="829.47"/>
	</g>
	<g>
		<path class="st0" d="M770.66,1367.87l-175.33-36.03c4.58,4.36,1.58,28.59-1.82,54.17c-3.41,25.58-7.92,36.03,27.5,57.99
			s-9,56-1,98"/>
		<path class="st0" d="M850.61,1386.2L850.61,1386.2c0.53-2.43-1.01-4.83-3.43-5.36l-73.26-16.04c-2.43-0.53-4.83,1.01-5.36,3.43
			l0,0c-0.53,2.43,1.01,4.83,3.43,5.36l73.26,16.04C847.68,1390.17,850.07,1388.63,850.61,1386.2z"/>
		<circle class="st0" cx="630.65" cy="1557.81" r="17.5"/>
		<path class="st0" d="M638.41,1573.5c-0.2,10.29,5.42,20.89,19.16,33.98c13.74,13.09,14.37,20.68,14.94,26.03
			c0.58,5.35,8.37-5.57,2.69-18.41c-10.59-23.94-3.1-35.71-31.49-44.42"/>
	</g>
	<g>
		<path class="st0" d="M114,90l-95-9c0,12,3,62,4,65s82,16,92,14s85-41,87-43s-2-60-2-62s-41-10-46-11S78,74,73,77S111,88,114,90
			l84-34"/>
		<line class="st0" x1="116" y1="157" x2="114" y2="92"/>
		<path class="st0" d="M19,81c0,0,74-29,79-31s40.58-1.17,40.58-1.17"/>
		<path class="st0" d="M39,102c10.05-0.01,44.94,3.53,52,4c15,1,15,26-1,25s-48.02-3.89-53-5C28,124,24.04,102.01,39,102z"/>
		<line class="st0" x1="79" y1="82" x2="70" y2="85"/>
		<ellipse transform="matrix(0.0467 -0.9989 0.9989 0.0467 -39.7009 194.3996)" class="st0" cx="82" cy="118" rx="6" ry="11"/>
		<ellipse transform="matrix(0.0467 -0.9989 0.9989 0.0467 -69.1618 159.529)" class="st0" cx="49" cy="116" rx="6" ry="11"/>
		<line class="st0" x1="82" y1="118" x2="82" y2="123"/>
		<line class="st0" x1="49" y1="116" x2="49" y2="121"/>
	</g>
	<g>
		<ellipse class="st0" cx="417.98" cy="1786.89" rx="58.74" ry="9.55"/>
		<ellipse class="st0" cx="417.5" cy="1812.2" rx="50.62" ry="7.16"/>
		<path class="st0" d="M476.7,1805.04c9.6,9,15.3,20.26,15.3,32.47c0,29.54-33.35,53.49-74.5,53.49s-74.5-23.95-74.5-53.49
			c0-12.61,6.07-24.19,16.24-33.34"/>
		<path class="st0" d="M359.24,1786.89c0.96,4.78,4.86,11.43-0.92,18.13"/>
		<path class="st0" d="M476.19,1787.02c-0.96,4.78-4.86,11.43,0.92,18.13"/>
		<path class="st0" d="M469.21,1812.41c8.3,7.13,13.24,16.05,13.24,25.72c0,23.4-28.86,42.37-64.47,42.37s-64.47-18.97-64.47-42.37
			c0-9.98,5.26-19.16,14.05-26.4"/>
		<g>
			<path class="st0" d="M447.11,1837.51c0-1.91-13.37-10.51-27.7-10.51c-14.33,0-18.15,9.55-18.15,9.55
				c-3.82-6.69-22.92-15.28-4.78,2.87c-5.73,6.69-8.6,20.06,5.73,5.73c2.87,5.73,11.46,5.73,15.28,5.73
				C429.92,1850.88,447.11,1842.29,447.11,1837.51z"/>
			<path class="st0" d="M431.11,1828.74c-5.97,3.04-4.02,16.8,1.69,19"/>
			<line class="st0" x1="436.6" y1="1835.6" x2="436.6" y2="1838.47"/>
		</g>
	</g>
	<g>
		<path class="st0" d="M328.29,884.19c3-5,18-17,28-3c7.91,11.07-19,44-22,44s-29-19-31-32S318.29,872.19,328.29,884.19z"/>
		<path class="st0" d="M341.29,875.19c5-1,18.7-4.03,23.7-3.9c3.83,0.1,7.73,1.87,11.08,6.56c7.91,11.07-19.25,42.8-22,44
			c-0.78,0.34-10.78,3.34-19.78,3.34"/>
		<path class="st0" d="M314.29,878.19c5-2,17.44-2.91,23-2"/>
	</g>
	<g>
		<path class="st0" d="M139.48,460.6c-1.87-10.33,2.84-17.84,6.59-18.78c3.76-0.94,11.27-0.93,15.96,9.41
			c4.69,2.82,21.6,2.84,23.46,13.17c1.87,10.33-9.41,19.71-24.43,17.82c-6.58,7.51-16.92,13.13-26.3,7.49
			C125.37,484.06,131.96,467.16,139.48,460.6z"/>
		<path class="st0" d="M116.98,423.01c-6.58,5.63,5.61,24.42,15,20.67S128.15,413.45,116.98,423.01z"/>
		<path class="st0" d="M153.59,433.38c7.51,0.01,11.33-25.34-0.91-25.36C142.35,408.01,143.1,433.37,153.59,433.38z"/>
		<path class="st0" d="M123.51,462.46c-1,4.96-22.54,3.73-22.53-6.6S125.4,453.07,123.51,462.46z"/>
		<path class="st0" d="M170.49,444.66c4.69,2.82,19.73-12.19,9.41-17.83C172.08,422.56,161.31,439.14,170.49,444.66z"/>
	</g>
	<g>
		<path class="st0" d="M1086.85,836.24c4.51-8.79,12.32-11.72,15.67-10.27c3.34,1.45,8.96,5.75,6.55,16.16
			c1.89,4.79,14.52,14.47,10.01,23.27s-18.31,9.36-28.46-0.65c-9.21,1.85-20.16,0.14-23.95-9.45
			C1062.88,845.71,1077.48,836.85,1086.85,836.24z"/>
		<path class="st0" d="M1091.53,795.27c-8.14,0.44-9.77,21.47-0.61,24.04C1100.09,821.88,1105.35,794.51,1091.53,795.27z"/>
		<path class="st0" d="M1112.97,823.96c5.61,4.3,22.97-12.47,13.82-19.48C1119.08,798.57,1105.13,817.95,1112.97,823.96z"/>
		<path class="st0" d="M1073.85,828.5c-3.58,3.14-18.99-10.1-13.07-17.82C1066.69,802.97,1080.63,822.56,1073.85,828.5z"/>
		<path class="st0" d="M1119.15,842.06c1.89,4.79,21.73,2.17,17.23-7.95C1132.98,826.44,1115.44,832.69,1119.15,842.06z"/>
	</g>
	<path class="st0" d="M636.26,439.62c3,6,33,10,36,4s14-27,13-29s-18,4-18,4c-1-5-6-23-8-23s-13,22-13,22c-2-2-14-10-15-10
		S633.04,433.17,636.26,439.62z"/>
	<path class="st0" d="M455.33,1405.64c3,6,33,10,36,4s14-27,13-29s-18,4-18,4c-1-5-6-23-8-23s-13,22-13,22c-2-2-14-10-15-10
		S452.1,1399.19,455.33,1405.64z"/>
	<g>
		<path class="st0" d="M425.36,926.83c0,2.36,2.02,3.33,4.55,3.22c4.21-0.18,9.83-1.93,9.83,0.88c0,0.31-1.54,2.13-3.16,3.75
			c-1.12,1.12-2.24,2.24-4.49,4.49c-2,2-3.79,4.01-4.04,6.14c-0.38,3.24,1.45,5.46,5.41,5.82c4.23,0.39,10.62,0.92,14.33,0.39
			c3.04-0.44,4.49-2.24,4.52-4.41c0.03-2.11-2.19-2.7-4.87-2.86c-4.17-0.25-7.5,0.49-7.5-1.7c0-1.92,4.4-5.02,7.85-8.97
			c1.66-1.9,1.96-4.2,1.82-6.22c-0.18-2.57-2.58-5.16-6.02-5.08c-3.66,0.09-9.27,0.09-12.96,0.33
			C427.42,922.8,425.36,924.64,425.36,926.83z"/>
		<path class="st0" d="M460.09,913.82c0,2.54,2.18,3.59,4.91,3.48c4.54-0.19,10.6-2.08,10.6,0.95c0,0.33-1.66,2.3-3.41,4.05
			c-1.21,1.21-2.42,2.42-4.84,4.84c-2.16,2.16-4.09,4.33-4.35,6.62c-0.41,3.49,1.57,5.89,5.84,6.28c4.57,0.42,11.46,0.99,15.46,0.42
			c3.28-0.47,4.84-2.42,4.87-4.75c0.03-2.27-2.37-2.92-5.25-3.09c-4.5-0.27-8.09,0.52-8.09-1.84c0-2.07,4.75-5.42,8.47-9.68
			c1.79-2.05,2.11-4.53,1.96-6.71c-0.19-2.78-2.78-5.57-6.49-5.48c-3.94,0.09-10,0.09-13.98,0.36
			C462.33,909.47,460.09,911.46,460.09,913.82z"/>
		<path class="st0" d="M493.81,903.13c0,2.82,2.41,3.98,5.43,3.85c5.03-0.21,11.74-2.31,11.74,1.05c0,0.37-1.84,2.55-3.77,4.48
			c-1.34,1.34-2.68,2.68-5.36,5.36c-2.39,2.39-4.52,4.79-4.82,7.33c-0.45,3.87,1.73,6.52,6.46,6.95c5.06,0.46,12.68,1.1,17.12,0.46
			c3.63-0.52,5.36-2.68,5.39-5.26c0.03-2.52-2.62-3.23-5.81-3.42c-4.98-0.3-8.96,0.58-8.96-2.03c0-2.29,5.25-6,9.38-10.72
			c1.99-2.27,2.34-5.02,2.17-7.43c-0.21-3.07-3.08-6.17-7.19-6.07c-4.37,0.1-11.07,0.1-15.47,0.4
			C496.28,898.32,493.81,900.51,493.81,903.13z"/>
	</g>
	<g>
		<path class="st0" d="M103.16,2024.71c0,2.1,1.8,2.97,4.05,2.87c3.75-0.16,8.76-1.72,8.76,0.78c0,0.28-1.37,1.9-2.81,3.34
			c-1,1-2,2-4,4c-1.78,1.78-3.38,3.58-3.6,5.47c-0.34,2.89,1.29,4.86,4.82,5.19c3.77,0.34,9.47,0.82,12.77,0.34
			c2.71-0.39,4-2,4.03-3.93c0.02-1.88-1.96-2.41-4.34-2.55c-3.72-0.22-6.69,0.43-6.69-1.52c0-1.71,3.92-4.47,7-8
			c1.48-1.7,1.75-3.74,1.62-5.55c-0.16-2.29-2.3-4.6-5.36-4.53c-3.26,0.08-8.26,0.08-11.55,0.3
			C105.01,2021.12,103.16,2022.75,103.16,2024.71z"/>
		<path class="st0" d="M134.13,2013.11c0,2.27,1.94,3.2,4.37,3.1c4.05-0.17,9.45-1.86,9.45,0.84c0,0.3-1.48,2.05-3.04,3.61
			c-1.08,1.08-2.16,2.16-4.32,4.32c-1.92,1.92-3.64,3.86-3.88,5.9c-0.36,3.11,1.4,5.25,5.2,5.6c4.07,0.37,10.21,0.89,13.78,0.37
			c2.92-0.42,4.32-2.16,4.34-4.24c0.03-2.03-2.11-2.6-4.68-2.75c-4.01-0.24-7.21,0.47-7.21-1.64c0-1.84,4.23-4.83,7.55-8.63
			c1.6-1.83,1.88-4.04,1.75-5.98c-0.17-2.48-2.48-4.97-5.79-4.89c-3.52,0.08-8.91,0.08-12.46,0.32
			C136.12,2009.23,134.13,2011,134.13,2013.11z"/>
		<path class="st0" d="M164.18,2003.58c0,2.51,2.15,3.55,4.84,3.43c4.48-0.19,10.46-2.06,10.46,0.93c0,0.33-1.64,2.27-3.36,3.99
			c-1.19,1.19-2.39,2.39-4.78,4.78c-2.13,2.13-4.03,4.27-4.3,6.53c-0.4,3.45,1.54,5.81,5.76,6.19c4.51,0.41,11.31,0.98,15.26,0.41
			c3.23-0.47,4.78-2.39,4.81-4.69c0.03-2.24-2.34-2.88-5.18-3.05c-4.44-0.27-7.99,0.52-7.99-1.81c0-2.04,4.68-5.34,8.36-9.56
			c1.77-2.03,2.08-4.47,1.94-6.63c-0.19-2.74-2.74-5.5-6.41-5.41c-3.89,0.09-9.86,0.09-13.79,0.35
			C166.38,1999.29,164.18,2001.25,164.18,2003.58z"/>
	</g>
	<g>
		<path class="st0" d="M847.12,1001.13c1.37,0.34,68,0,72-2s0-25-17-27s-20,9-20,9s2-15-11-14s-7,16-5,18
			C862.12,986.13,843.12,1000.13,847.12,1001.13z"/>
		<path class="st0" d="M919.12,999.13c9,0,14,6,9,14s0,16,7,19"/>
	</g>
	<g>
		<path class="st0" d="M479.86,434.93c1.01,0.99,58.49,34.68,62.95,35c4.46,0.32,12.75-21.5-0.85-31.89
			c-13.6-10.39-21.79-2.46-21.79-2.46s9.37-11.88-2.32-17.65c-11.69-5.77-14.18,10.19-13.48,12.93
			C500.41,429.68,476.93,432.03,479.86,434.93z"/>
		<path class="st0" d="M542.81,469.94c7.74,4.59,8.98,12.3,0.6,16.63s-8.16,13.76-3.67,19.91"/>
	</g>
	<path class="st0" d="M857.71,1192.81c4.97-15.91,27.13-22.38,34.8-11.93c10.94,14.91-16.9,61.64-28.83,71.58
		c-11.93,9.94-50.22-43.2-42.75-65.62C825.89,1171.94,854.72,1175.91,857.71,1192.81z"/>
	<path class="st0" d="M939.1,1156.11c3.45-11.05,18.85-15.55,24.17-8.29c7.6,10.36-11.74,42.81-20.03,49.72
		c-8.29,6.91-34.88-30-29.69-45.58C917,1141.61,937.03,1144.37,939.1,1156.11z"/>
	<path class="st0" d="M994.92,1127.05c2.28-7.29,12.43-10.25,15.94-5.47c5.01,6.83-7.74,28.24-13.21,32.79
		c-5.47,4.55-23.01-19.79-19.58-30.06C980.34,1117.48,993.55,1119.3,994.92,1127.05z"/>
	<g>
		<path class="st0" d="M0,1804.6c4.36-5.77,10.36-6.9,12.59-5.43c2.23,1.47,5.73,5.27,2.69,12.47c0.76,3.69,8.65,12.26,4.29,18.03
			s-14.38,4.44-20.44-4.05c-6.87,0.17-14.55-2.43-16.08-9.82C-18.47,1808.42-6.84,1803.86,0,1804.6z"/>
		<path class="st0" d="M8.52,1775.65c-5.92-0.7-9.74,14.25-3.46,17.26S18.57,1776.84,8.52,1775.65z"/>
		<path class="st0" d="M20.37,1799.03c3.51,3.81,18.13-6.1,12.41-12.31C27.97,1781.49,15.47,1793.71,20.37,1799.03z"/>
		<path class="st0" d="M-8.4,1797.39c-2.98,1.81-12.42-9.67-7.19-14.49C-10.35,1778.08-2.77,1793.95-8.4,1797.39z"/>
		<path class="st0" d="M22.55,1812.85c0.76,3.69,15.39,4.3,13.42-3.57C34.49,1803.33,21.06,1805.63,22.55,1812.85z"/>
	</g>
	<g>
		<path class="st0" d="M456.5,245.57c0.29-6.92,4.41-11.08,6.96-11.14s7.39,1.03,8.91,8.37c2.61,2.5,13.5,4.95,13.21,11.88
			s-8.91,11.33-18.32,7.94c-5.32,3.88-12.8,6.01-18.02,1.02S450.7,248.71,456.5,245.57z"/>
		<path class="st0" d="M447.44,218.11c-5.05,2.67,0.08,16.54,6.67,15.49C460.71,232.54,456.02,213.57,447.44,218.11z"/>
		<path class="st0" d="M469.52,230.08c4.84,1.09,10.96-14.68,3.08-16.46C465.95,212.12,462.76,228.55,469.52,230.08z"/>
		<path class="st0" d="M445.94,244.46c-1.36,3.05-15.06-0.86-13.56-7.51C433.89,230.3,448.52,238.68,445.94,244.46z"/>
		<path class="st0" d="M478.77,239.79c2.61,2.5,14.47-4.99,8.64-10.12C483,225.79,473.66,234.91,478.77,239.79z"/>
	</g>
	<g>
		<g>
			<circle class="st0" cx="772.67" cy="497.05" r="40.81"/>
			<path class="st0" d="M737.54,515.77c13.35,7.33,52.86-0.18,75.32-25.81"/>
			<path class="st0" d="M741.38,523.27c14.2,7.44,47.67,5.45,72.08-25.02"/>
			<path class="st0" d="M757.72,534.86c11.21,3.18,38.07-5.32,52.38-21.54"/>
			<path class="st0" d="M769.8,515.35c8.34-7.38,14.52-52.13,2.79-59.11"/>
			<path class="st0" d="M780.98,512.03c9.08-12.67,16.16-43.06,5.78-53.29"/>
			<path class="st0" d="M794.13,505.45c6.95-8.68,11.23-28.95,7.36-37.3"/>
			<path class="st0" d="M742.67,469.37c1.42,9.98,20.83,25.77,32.46,28.27"/>
			<path class="st0" d="M735.44,481.05c0.72,6.56,22,25.4,38.2,25.08"/>
		</g>
	</g>
	<path class="st0" d="M799,528.13C773,546,767,616,821,611c27.77-2.57,63.33-11.38,92,5c21,12,57.13,51.94,25,83c-30,29-25-46,28-14
		s12,80-32,83"/>
	<path class="st0" d="M877.12,769.35l-6.16-5.05l-6.31,5.52c-1.89,1.09-4.2-0.46-3.91-2.62l2.36-8.52l-6.67-3.19
		c-1.62-1.46-0.86-4.14,1.28-4.53l7.64-0.14l2.17-7.58c0.89-1.99,3.67-2.09,4.71-0.18l3.23,7.2l7.14-0.25
		c2.16,0.23,3.13,2.84,1.63,4.42l-5.96,4.26l2.56,7.75C881.27,768.57,879.09,770.29,877.12,769.35z"/>
	<path class="st0" d="M1044.68,2262.03l-8.62-7.06l-8.84,7.73c-2.64,1.52-5.88-0.65-5.48-3.67l3.31-11.93l-9.34-4.47
		c-2.26-2.04-1.2-5.79,1.79-6.34l10.69-0.2l3.04-10.61c1.24-2.78,5.13-2.93,6.59-0.25l4.53,10.08l9.99-0.36
		c3.03,0.32,4.37,3.98,2.28,6.19l-8.34,5.96l3.58,10.85C1050.49,2260.93,1047.43,2263.34,1044.68,2262.03z"/>
	<path class="st0" d="M705.9,1979.05c-0.65-11.04,11.59-20.26,18.8-15.57c10.29,6.69,3.97,42.23-1.11,51.2s-41.31-15.04-41.93-30.71
		C681.25,1973.55,700.08,1969.25,705.9,1979.05z"/>
	<path class="st0" d="M638.79,1040.47c0,0,5.49,13.07,10.54,12.29c5.06-0.78,4.51-14.93,4.51-14.93s13.08-1.51,13.04-5.13
		c-0.04-3.62-8.33-8.84-11.25-10.11c0,0,3.66-12.44,0-15.15s-12.67,8.89-12.67,8.89s-13.22-5.88-15.77-3.14
		c-2.56,2.74,4.62,13.93,4.62,13.93s-10.47,10.24-8.48,13.96C625.31,1044.8,634.04,1042.31,638.79,1040.47z"/>
	<path class="st0" d="M114.48,836.09c0,0,12.29,7.06,15.83,3.38c3.55-3.69-5.47-14.61-5.47-14.61s9.49-9.13,7.26-11.99
		c-2.23-2.85-11.98-1.98-15.08-1.22c0,0-4.63-12.11-9.19-12.05c-4.55,0.06-4.68,14.75-4.68,14.75s-14.08,3.34-14.44,7.07
		c-0.37,3.73,12.12,8.28,12.12,8.28s-2.12,14.49,1.72,16.24C106.39,847.7,111.82,840.43,114.48,836.09z"/>
	<circle class="st0" cx="1030.5" cy="233.5" r="9.5"/>
	<g>
		<path class="st0" d="M626.25,2411.94c1.06,0.94,60.39,31.25,64.87,31.31s11.49-22.2-2.69-31.79c-14.18-9.59-21.9-1.2-21.9-1.2
			s8.67-12.4-3.34-17.49c-12.01-5.09-13.57,10.99-12.71,13.69C646.47,2405.51,623.16,2409.21,626.25,2411.94z"/>
		<path class="st0" d="M691.12,2443.25c7.99,4.14,9.68,11.76,1.56,16.57c-8.12,4.81-7.35,14.21-2.51,20.09"/>
	</g>
	<circle class="st0" cx="289" cy="671" r="8"/>
	<circle class="st0" cx="227.7" cy="896.5" r="7.64"/>
	<circle class="st0" cx="265.5" cy="1395.5" r="9.5"/>
	<circle class="st0" cx="873" cy="1337" r="10"/>
	<circle class="st0" cx="62.5" cy="2435.5" r="7.5"/>
	<path class="st0" d="M1104.02,243.5c0,0,5.49,13.07,10.54,12.29c5.06-0.78,4.51-14.93,4.51-14.93s13.08-1.51,13.04-5.13
		c-0.04-3.62-8.33-8.84-11.25-10.11c0,0,3.66-12.44,0-15.15c-3.66-2.71-12.67,8.89-12.67,8.89s-13.22-5.88-15.77-3.14
		c-2.56,2.74,4.62,13.93,4.62,13.93s-10.47,10.24-8.48,13.96C1090.54,247.83,1099.27,245.34,1104.02,243.5z"/>
	<g>
		
			<ellipse transform="matrix(0.3763 -0.9265 0.9265 0.3763 332.4942 661.3608)" class="st0" cx="657.46" cy="83.73" rx="41.01" ry="18.43"/>
		<path class="st0" d="M674.42,46.55C694.21,59.36,758.19,110,755,117.87c-4.51,11.1-101.68,5.45-112.96,3.85"/>
		
			<ellipse transform="matrix(0.3763 -0.9265 0.9265 0.3763 331.7793 660.4591)" class="st0" cx="656.44" cy="83.81" rx="10.14" ry="3.69"/>
		<path class="st0" d="M751.22,110.39c17.35-3.92,46.08-1.2,47.77,4.46c1.68,5.66-13.93,12.25-24.01,10.14
			c14.51,5.89,19.87,15.07,17.53,18.06c-4.13,5.28-30.12-7.45-44.14-21.51"/>
		<path class="st0" d="M629.16,30.95c9.43,3.83,10.17,23.95,1.65,44.93c-8.52,20.98-23.08,34.89-32.51,31.06"/>
		<path class="st0" d="M629.16,30.95c-27.35-6.13-82.52,7.26-89.06,13.56s32.39,54.93,58.2,62.43"/>
		<path class="st0" d="M540.76,51.78c3.73,6.45,27.47,14.11,27.47,14.11"/>
		<circle class="st0" cx="598.82" cy="57.92" r="2.3"/>
	</g>
	<path class="st0" d="M1013,1600c0-2-14-11-29-11s-19,10-19,10c-4-7-24-16-5,3c-6,7-9,21,6,6c3,6,12,6,16,6
		C995,1614,1013,1605,1013,1600z"/>
	<path class="st0" d="M996.25,1590.81c-6.25,3.19-4.21,17.59,1.77,19.89"/>
	<line class="st0" x1="1002" y1="1598" x2="1002" y2="1601"/>
	<path class="st0" d="M206,2388c0-2-14-11-29-11s-19,10-19,10c-4-7-24-16-5,3c-6,7-9,21,6,6c3,6,12,6,16,6
		C188,2402,206,2393,206,2388z"/>
	<path class="st0" d="M189.25,2378.81c-6.25,3.19-4.21,17.59,1.77,19.89"/>
	<line class="st0" x1="195" y1="2386" x2="195" y2="2389"/>
	<g>
		<path class="st0" d="M979.44,2476.1c-38,14-31,62-16,84c-52-9-63.32,10.28-61,18c3,10,33.76,2.79,59,10c28,8,39,7,51,9s25-6,23-2
			c-12,14-36.11,26.99-76,22c-32-4-50.05-19.03-57-6c-8,15,16.17,35.47,76,31c67-5,91-38,106-67s39-104-27-148s-155-16-179,3
			c-10.71,8.48-30.35,6.67-42,21c-14.45,17.77-20.81,50.99-23,55c-6,11-9,30-7,32s14,0,20-3c2-1,24,16,51,22c5,6,17,14,20,13
			c0.95-0.32-2-13,0-16s6-14,6-14"/>
		<path class="st0" d="M908.44,2483.1c-1,9-14,31-11,45s15,20,34,18s23-13,15-19s-29-4-29-4"/>
		<path class="st0" d="M900.23,2548.3c3.2,5.79,35.2,12.79,55.2-0.21"/>
		<path class="st0" d="M939.44,2533.1c2,1,8,1,9-1"/>
		<path class="st0" d="M938.44,2540.1c1,1,4,1,6,1"/>
		<path class="st0" d="M913.44,2574.1c-3,1-6.09,4.76-3.55,8.88"/>
		<polyline class="st0" points="861.44,2525.1 864.44,2524.1 864.44,2527.1 		"/>
		<path class="st0" d="M870.44,2531.1c1,2,14,7,19,7"/>
		<path class="st0" d="M833.44,2517.1c1,2,15,8,21,7"/>
		<line class="st0" x1="817.44" y1="2521.1" x2="815.44" y2="2529.1"/>
		<line class="st0" x1="888.44" y1="2554.1" x2="891.44" y2="2560.1"/>
	</g>
	<path class="st0" d="M349-307.16c22.59,22.75,0.3,34.72-33.09,46.68c-33.39,11.96-59.43,41.42-36.94,65.59
		c22.5,24.17,46.29,7.31,38.66-5.95c-7.63-13.26-57.2-13.71-65.74,40.3s42.65,90.46,52.74,123.96C315.1-1.87,288.3,28.24,259.13,8.6
		"/>
	<g>
		<path class="st0" d="M626.3-24.56c1.06,0.94,60.39,31.25,64.87,31.31c4.47,0.06,11.49-22.2-2.69-31.79s-21.9-1.2-21.9-1.2
			s8.67-12.4-3.34-17.49s-13.57,10.99-12.71,13.69C646.51-30.99,623.2-27.29,626.3-24.56z"/>
		<path class="st0" d="M691.16,6.75c7.99,4.14,9.68,11.76,1.56,16.57c-8.12,4.81-7.35,14.21-2.51,20.09"/>
	</g>
	<circle class="st0" cx="62.54" cy="-1" r="7.5"/>
	<g>
		<g>
			<circle class="st0" cx="227.03" cy="1121.16" r="51"/>
			<path class="st0" d="M183.14,1144.54c16.68,9.16,66.06-0.22,94.12-32.26"/>
			<path class="st0" d="M187.94,1153.93c17.74,9.29,59.57,6.8,90.07-31.27"/>
			<path class="st0" d="M208.35,1168.4c14.01,3.97,47.57-6.64,65.46-26.91"/>
			<path class="st0" d="M223.45,1144.02c10.42-9.22,18.14-65.14,3.48-73.87"/>
			<path class="st0" d="M237.42,1139.87c11.35-15.83,20.19-53.81,7.22-66.59"/>
			<path class="st0" d="M253.85,1131.65c8.69-10.84,14.03-36.17,9.2-46.61"/>
			<path class="st0" d="M189.55,1086.56c1.78,12.48,26.02,32.2,40.56,35.32"/>
			<path class="st0" d="M180.51,1101.16c0.9,8.2,27.49,31.73,47.73,31.34"/>
		</g>
	</g>
	<path class="st0" d="M200,1165c23,13-9,51-23,102s-6,101,73,153s108-17,76-23s-77,44-62,87s64,75,21,118"/>
	<g>
		<path class="st0" d="M531.11,1273.37c-1.95,0.45-7.58,16.11-4.22,30.73c3.36,14.62,14.01,16.27,14.01,16.27
			c-5.92,5.47-10.21,26.98,4.04,4.2c8.17,4.28,22.48,4.06,4.5-7.19c5.17-4.27,3.16-13.04,2.26-16.94
			C548.79,1287.77,535.98,1272.24,531.11,1273.37z"/>
		<path class="st0" d="M525.91,1291.75c4.51,5.38,18.09,0.16,18.98-6.19"/>
		<line class="st0" x1="531.63" y1="1284.53" x2="534.55" y2="1283.86"/>
	</g>
	<path class="st0" d="M215.34,178.33l-8.62-7.06l-8.84,7.73c-2.64,1.52-5.88-0.65-5.48-3.67l3.31-11.93l-9.34-4.47
		c-2.26-2.04-1.2-5.79,1.79-6.34l10.69-0.2l3.04-10.61c1.24-2.78,5.13-2.93,6.59-0.25l4.53,10.08l9.99-0.36
		c3.03,0.32,4.37,3.98,2.28,6.19l-8.34,5.96l3.58,10.85C221.15,177.23,218.09,179.64,215.34,178.33z"/>
	<circle class="st0" cx="765" cy="1770" r="10"/>
	<circle class="st0" cx="399" cy="345" r="10"/>
	<g>
		<path class="st0" d="M362.12,1709.39c1.32,0.39,65.99,2.65,69.95,0.86c3.96-1.79,0.97-24.26-15.45-26.86
			c-16.42-2.6-19.76,7.96-19.76,7.96s2.53-14.48-10.13-14.01s-7.42,15.25-5.55,17.27C377.26,1695.42,358.28,1708.27,362.12,1709.39z
			"/>
		<path class="st0" d="M432.07,1710.25c8.73,0.35,13.35,6.37,8.19,13.94c-5.16,7.57-0.62,15.53,6.05,18.71"/>
	</g>
	<path class="st0" d="M595.4,1642.62l-7.79-1.62l-3.04,7.82c-1.17,1.84-3.94,1.53-4.68-0.51l-1.85-8.65l-7.39,0.26
		c-2.11-0.55-2.67-3.27-0.96-4.61l6.71-3.66l-1.58-7.72c-0.13-2.17,2.28-3.55,4.09-2.34l6.2,4.89l6.21-3.53
		c2.03-0.8,4.09,1.07,3.49,3.17l-3.31,6.53l5.85,5.69C598.71,1640,597.57,1642.54,595.4,1642.62z"/>
	<circle class="st0" cx="752.5" cy="202.28" r="7.93"/>
	<circle class="st0" cx="116" cy="1719" r="9"/>
	<g>
		<path class="st0" d="M-12.74,2337.33c-7.7-3.71-26.94-2.39-29.19,7.66c-2.25,10.05,37.83,24.78,43.64,17.56
			C6.15,2357.05,0.38,2343.66-12.74,2337.33z"/>
		
			<ellipse transform="matrix(0.1648 -0.9863 0.9863 0.1648 -2302.0281 1916.3597)" class="st0" cx="-19.44" cy="2317.48" rx="9.5" ry="7.5"/>
		
			<ellipse transform="matrix(0.665 -0.7469 0.7469 0.665 -1737.0355 782.6055)" class="st0" cx="3.8" cy="2327.47" rx="9.5" ry="7.5"/>
		
			<ellipse transform="matrix(0.8949 -0.4462 0.4462 0.8949 -1044.8077 253.6521)" class="st0" cx="16.23" cy="2345.49" rx="8.87" ry="7"/>
		
			<ellipse transform="matrix(0.9268 -0.3756 0.3756 0.9268 -876.1806 154.3083)" class="st0" cx="-42.32" cy="2324.38" rx="7" ry="8.87"/>
		<path class="st0" d="M-51.34,2338.6c-2.99-2.66-13.46-19.63,2.07-30.01c4.16-2.78,10.76-0.46,15.76,3.42
			c0.21-12.65,23.11-22.21,29.4,0.8c12.8-9.28,33.45,4.34,22.15,18.39c19.35-3.79,24.22,27.6-6.18,29.63
			c-2.71,10.71-5.57,20.15-9.29,26.41c-5.2,8.77-65.91-11.52-63.21-22.23C-56.44,2348.42-53.26,2342.25-51.34,2338.6z"/>
	</g>
	<g>
		<path class="st0" d="M1112.09,2337.35c-7.7-3.71-26.94-2.39-29.19,7.66c-2.25,10.05,37.83,24.78,43.64,17.56
			C1130.98,2357.07,1125.21,2343.67,1112.09,2337.35z"/>
		
			<ellipse transform="matrix(0.1648 -0.9863 0.9863 0.1648 -1362.5996 3025.822)" class="st0" cx="1105.39" cy="2317.5" rx="9.5" ry="7.5"/>
		
			<ellipse transform="matrix(0.665 -0.7469 0.7469 0.665 -1360.1995 1622.7103)" class="st0" cx="1128.63" cy="2327.48" rx="9.5" ry="7.5"/>
		
			<ellipse transform="matrix(0.8949 -0.4462 0.4462 0.8949 -926.6444 755.5305)" class="st0" cx="1141.06" cy="2345.51" rx="8.87" ry="7"/>
		
			<ellipse transform="matrix(0.9268 -0.3756 0.3756 0.9268 -793.8204 576.817)" class="st0" cx="1082.51" cy="2324.4" rx="7" ry="8.87"/>
		<path class="st0" d="M1073.49,2338.61c-2.99-2.66-13.46-19.63,2.07-30.01c4.16-2.78,10.76-0.46,15.76,3.42
			c0.21-12.65,23.11-22.21,29.4,0.8c12.8-9.28,33.45,4.34,22.15,18.39c19.35-3.79,24.22,27.6-6.18,29.63
			c-2.71,10.71-5.57,20.15-9.29,26.41c-5.2,8.77-65.91-11.52-63.21-22.23C1068.39,2348.43,1071.57,2342.27,1073.49,2338.61z"/>
	</g>
	<path class="st0" d="M545.63,649.1c0,0,8.75,4.86,11.21,2.22c2.47-2.64-4.01-10.25-4.01-10.25s6.6-6.55,5-8.54
		c-1.6-1.99-8.48-1.27-10.65-0.7c0,0-3.4-8.5-6.61-8.41c-3.21,0.09-3.15,10.46-3.15,10.46s-9.9,2.51-10.12,5.14
		c-0.22,2.64,8.64,5.71,8.64,5.71s-1.34,10.25,1.39,11.45C540.04,657.38,543.8,652.19,545.63,649.1z"/>
	<g>
		<path class="st0" d="M1245.02,1430.78c-10.96,2.42-25.65,8.59-36.45,27.11c-16.24,27.84,5.92,57.83,44.56,58.09
			c29.96,0.2,54.58-17.95,56.51-39.94C1311.57,1454.06,1288.86,1421.08,1245.02,1430.78z"/>
		<polyline class="st0" points="1251.52,1454.85 1254.24,1456.17 1257.34,1454.65 		"/>
		<circle class="st0" cx="1283.24" cy="1467.25" r="15.82"/>
		<circle class="st0" cx="1229.27" cy="1465.94" r="15.82"/>
		<path class="st0" d="M1254.12,1457.12c0,0-2.25,17.11,0.1,21.29"/>
		<circle class="st0" cx="1228.6" cy="1466.68" r="0.41"/>
		<circle class="st0" cx="1282.95" cy="1467.28" r="0.41"/>
		<path class="st0" d="M1203.48,1525.88c8.33,6.18,103.08,2.94,108.96-4.99c5.88-7.93,7.23-76.08,4.87-88.32
			c-0.57-2.98,9.68-7.43,8.08-17.31c-1.6-9.88-33.66-25.38-73.76-21.95c-40.53,3.46-62.7,22.79-63.77,30.91
			c-1.13,8.55,6.93,13.48,7.63,15.51S1195.55,1520,1203.48,1525.88z"/>
		<path class="st0" d="M1195.83,1532.6c10.22,14.48,120.56,6.36,125.79-5.08c6.96-15.26,6.74-76.09,5.9-91.67
			c-0.2-3.61,11.36-9.95,7.06-24.21c-4.03-13.36-37.37-33.01-85.12-28.94c-48.26,4.12-70.86,27.57-72.61,37.17
			c-2.86,15.62,9.96,23.91,10.05,26.46C1187.08,1452.16,1185.48,1517.94,1195.83,1532.6z"/>
		<path class="st0" d="M1224.9,1539.65c-5.96,23.07-3.23,84.19-3.7,93.96c-0.55,11.53-9.53,20.98-7.43,27.06
			c2.38,6.9,16.36,7.96,23.06,1.1c6.7-6.85,12.19-26.44,11.46-42.97"/>
		<path class="st0" d="M1271.4,1618.33c0.06,9.57,0.17,16.96,0.02,19.85c-0.59,11.53-9.29,21.02-7.29,27.08
			c2.26,6.89,15.73,7.87,22.22,0.99c6.49-6.88,13.95-33.94,13.33-50.46"/>
		<path class="st0" d="M1327.67,1480.77c25.58,17.99,29.42,73.59,31.34,89.89s8.63,50.81-2.88,64.23
			c-11.25,13.12-20.13,16.3-28.76,24.93c-8.63,8.63-17.26,26.84-25.88,24.93c-8.63-1.92-6.71-14.38,6.71-32.59
			c-3.83-20.13,0.96-67.11,32.59-65.19"/>
		<path class="st0" d="M1293.21,1652.71c6.28-0.65,11.44-1.55,14.65-2.5"/>
		<path class="st0" d="M1243,1651.19c7.34,1.58,14.92,2.03,22.89,2.35"/>
		<path class="st0" d="M1220.95,1591.75c-11.5,7.67-9.43,38.99-12.46,45.06c-2.88,5.75-26.84,23.97-19.17,31.64
			c6.1,6.1,17.26-0.96,23.97-7.67"/>
		<path class="st0" d="M1210.58,1623.41c-24.14,3.82-70.16,2.86-81.66,7.65c-11.5,4.79-9.59,21.09,0.96,23.01
			c10.55,1.92,48.45-1.89,68.07-5.75"/>
		<path class="st0" d="M1276.55,1660.78c-2.88,1.92-3.83,8.49-0.96,10"/>
		<path class="st0" d="M1268.89,1658.86c-1.92,0.96-4.31,5.47-3.6,8.49"/>
		<path class="st0" d="M1226.7,1655.99c-1.92,0.96-2.88,6.71,0,9.59"/>
		<path class="st0" d="M1219.99,1655.03c-2.88,1.92-3.83,4.79-2.88,8.63"/>
		<path class="st0" d="M1302.44,1675.16c-1.92,1.92-2.88,8.63,0,9.59"/>
		<path class="st0" d="M1196.03,1661.74c-3.83,1.92-6.2,6.39-4.06,8.47"/>
	</g>
	<g>
		<path class="st0" d="M1291.09,1833.3c8.62-10.34,29.42-15.43,37.92-9.48c8.62,6.03,3.45,45.68-13.79,49.12
			c-17.24,3.45-11.2-22.41-8.62-28.44"/>
		<path class="st0" d="M1314.36,1809.17c-9.48-6.89-23.27-2.59-32.75,12.07c-9.48,14.65-15.51,35.34-3.45,44.82s25.29-5.6,25.29-5.6
			"/>
		<path class="st0" d="M1401.4,1869.5c-7.76,12.93-31.89,22.41-38.78,9.48s24.13-38.78,38.78-34.47s14.65,21.55,10.34,31.03"/>
		<path class="st0" d="M1300.57,1805.73c-6.03-8.62-5.17-27.58,21.55-55.16c1.72-14.65,0-24.99,1.72-27.58
			c1.72-2.59,16.37,11.2,19.82,15.51c6.89-3.45,42.23-9.48,52.57-5.17c0,0-2.59-17.24,0-18.1c2.59-0.86,21.55,12.07,24.13,31.03
			c11.2,11.2,18.96,35.34,14.65,59.47c-4.31,24.13-9.48,37.06-9.48,37.06c1.72,8.62,7.76,36.2-17.24,56.88
			c-24.99,20.68-32.75-4.91-30.16-14.52"/>
		<path class="st0" d="M1281.61,1821.24c-19.82,0-63.78,11.2-70.67,51.71s12.07,70.67,31.89,78.43"/>
		<path class="st0" d="M1320.39,1926.38c-5.17-11.2-30.16-18.96-55.16,5.17c-0.86-12.07-6.89-41.37-21.55-34.47
			c-12.6,5.93-1.72,19.82-0.86,37.06c0.86,17.24-0.86,27.58,7.76,31.89s11.26-0.19,20.68,2.59c14.65,4.31,75.63,16.58,116.67-61.09"
			/>
		<path class="st0" d="M1249.73,1827.95c-4.32-10.16-16.37-13.41-25.01-12.74c-11.2,0.86-25.85,16.37-27.58,35.34
			c-9.48-7.76-28.44-18.1-34.47-9.48c-5.59,7.99,16.37,20.68,25.85,33.61c6.65,9.06,16.37,15.51,20.96,10.47"/>
		<path class="st0" d="M1215.87,1922.22c-17.86,5.03-48.02-4.45-71.29-14.79c-23.38-10.39-40.51-14.65-45.68-5.17
			s6.29,30.35,47.4,42.23c38.78,11.2,75.66,5.04,87.38,1.66"/>
		<path class="st0" d="M1316.06,1778.15c-0.26,6.09,7.31,10.66,20.23,11.21c12.92,0.55,20.88-4.29,20.24-9.49
			c-0.64-5.2-8.14-11.56-21.02-12.97C1322.63,1765.49,1316.32,1772.12,1316.06,1778.15z"/>
		<line class="st0" x1="1335.26" y1="1772.92" x2="1334.93" y2="1780.67"/>
		<path class="st0" d="M1419.49,1773.65c0.57,6.07-6.75,11.03-19.62,12.24s-21.08-3.2-20.71-8.43c0.37-5.23,7.53-11.97,20.31-14.04
			C1412.27,1761.35,1418.93,1767.64,1419.49,1773.65z"/>
		<line class="st0" x1="1400.05" y1="1769.43" x2="1400.78" y2="1777.15"/>
		<path class="st0" d="M1360.03,1788.49c0,4.31,9.48,3.45,9.48-2.59c1.72,6.03,8.62,6.03,9.48,2.59"/>
		<path class="st0" d="M1304.34,1867.38c3.12,2.98,10.01-3.05,10.01-7.36"/>
		<path class="st0" d="M1315.22,1872.95c4.31-1.72,5.17-6.89,6.03-10.34"/>
		<path class="st0" d="M1373.82,1884.15c-1.72-1.72,1.72-9.48,5.17-10.34"/>
		<path class="st0" d="M1363.48,1878.98c0-2.59,3.45-7.76,7.76-8.62"/>
		<path class="st0" d="M1252.2,1897.25c-4.21,0.69-4.21,5.86-3.35,9.31"/>
		<path class="st0" d="M1241.96,1897.94c-2.59,3.45-0.86,7.76,0,10.34"/>
		<path class="st0" d="M1171.29,1842.78c-2.59-1.72-8.55,0.37-8.58,4.49"/>
		<polyline class="st0" points="1335.04,1741.95 1329.87,1735.92 1329.87,1744.54 		"/>
		<polyline class="st0" points="1403.12,1735.92 1403.12,1728.16 1409.16,1739.36 		"/>
	</g>
	<path class="st0" d="M1142.8,738.69c4.09-13.09,22.33-18.42,28.64-9.82c9,12.28-13.91,50.74-23.73,58.92
		c-9.82,8.18-41.34-35.56-35.19-54.01C1116.61,721.5,1140.34,724.78,1142.8,738.69z"/>
	<g>
		<path class="st0" d="M1277.64,1057.65c-3.19,34.64-8.27,56.78-10.95,62.14c-3,6,19,26,18,53c-0.85,23.01-13.49,51.07-12,60
			c1,6,8,12,4,19c-2.48,4.34-17,4-22-4c-3.39-5.43-1-30-4-38s-5-12-7-14"/>
		<path class="st0" d="M1192.69,962.8c2-13,24-47,31-54c2-10,8-27,12-29c2.53-1.26,9,15,11,20c6,0,35,9,42,16c11-7,18-10,20-10
			c3,0-4,25-7,29s2.94,30.24,1,38c-6,24-14.24,26.02-19.99,46.99"/>
		<path class="st0" d="M1160.95,1035.92c4.73-45.99,16.11-72.33,28.74-73.12c16-1,27,17,30,28s13,23,31,27s59,0,68,4s16,13,4,18
			s-76,17-95,14s-41-22-46-28"/>
		<path class="st0" d="M1228.69,1135.8c9,9,24,41,13,62s-13,23-13,29c0,14,10,17,10,28c0,6-15,10-24,2c-11.63-10.34-16-62-20-73
			s-37-36-36-107c0.11-8.13,0.4-15.88,0.84-23.24"/>
		<path class="st0" d="M1217.94,1051.01c-24.76,0.93-46.74,4.54-57.24,2.79c-12-2-27.85-18,27.08-22"/>
		<path class="st0" d="M1301.14,1045.45c-0.47,5.44-2.15,9.69-5.45,11.34c-8.47,4.23-23.9-0.49-42.44-3.64"/>
		<path class="st0" d="M1289.69,1004.8c3.26,2.93,5.39,7.99,7.7,14.99"/>
		<path class="st0" d="M1177.63,1157.9c-16.94,19.9-25.94,43.9-29.94,64.9s-18,30-36,34c-18.24,4.05-23.66-17.27-5-21
			c30-6,13-47,60-101"/>
		<polyline class="st0" points="1231.69,902.8 1234.69,893.8 1238.69,899.8 		"/>
		<polyline class="st0" points="1292.69,921.8 1299.69,917.8 1296.69,926.8 		"/>
		
			<ellipse transform="matrix(0.3281 -0.9446 0.9446 0.3281 -63.201 1797.7363)" class="st0" cx="1232.19" cy="943.3" rx="17.5" ry="14.5"/>
		<line class="st0" x1="1233.2" y1="938.88" x2="1230.9" y2="945.5"/>
		
			<ellipse transform="matrix(0.3281 -0.9446 0.9446 0.3281 -45.7928 1852.2119)" class="st0" cx="1279.19" cy="958.3" rx="17.5" ry="14.5"/>
		<line class="st0" x1="1280.2" y1="953.88" x2="1277.9" y2="960.5"/>
		<polyline class="st0" points="1253.69,947.8 1254.69,950.8 1257.69,949.8 		"/>
		<line class="st0" x1="1254.69" y1="950.8" x2="1246.69" y2="973.8"/>
		<path class="st0" d="M1328.45,1030.16c-1.75-2.36-9.75-0.36-9.75-0.36"/>
		<path class="st0" d="M1320.47,1022.67c-0.78-0.87-5.78,1.13-5.78,1.13"/>
		<path class="st0" d="M1160.69,1045.8c-3,0-6,3-7,4"/>
		<path class="st0" d="M1158.69,1040.8c-3,0-8,2-8,2"/>
		<path class="st0" d="M1224.69,1252.8c3,2,2,7,2,7"/>
		<path class="st0" d="M1231.69,1250.8c2,1,4,6,3,8"/>
		<path class="st0" d="M1264.69,1244.8c1,1,2,6,0,8"/>
		<path class="st0" d="M1272.69,1244.8c1,1,2,5,1,8"/>
	</g>
	<g>
		
			<ellipse transform="matrix(0.9918 -0.1279 0.1279 0.9918 -157.3824 162.2354)" class="st0" cx="1185" cy="1307" rx="69.5" ry="12"/>
		<path class="st0" d="M1254.05,1299.11c1.28,9.92,1.62,12.57,2.05,15.87c0.85,6.57-29.33,15.88-67.4,20.79
			c-38.07,4.91-69.62,3.56-70.46-3.02c-0.42-3.29-1.02-7.93-2.17-16.86"/>
		<path class="st0" d="M1142.74,1320.17c11.61-3.17,26.52-6.1,42.9-8.21c16.36-2.11,34.47-3.09,46.5-2.97"/>
		<line class="st0" x1="1188.21" y1="1335.83" x2="1189.49" y2="1345.75"/>
		<path class="st0" d="M1189.61,1346.74c6.43-4.86,14.62-3.9,15.64,4.03s-8.86,17.28-12.83,17.79c-4.09,0.53-16.03-7.01-16.92-13.95
			S1183.02,1342.55,1189.61,1346.74z"/>
	</g>
	<g>
		<path class="st0" d="M1123.69,1803.4c4.36-5.77,10.36-6.9,12.59-5.43c2.23,1.47,5.73,5.27,2.69,12.47
			c0.76,3.69,8.65,12.26,4.29,18.03s-14.38,4.44-20.44-4.05c-6.88,0.17-14.55-2.43-16.08-9.82S1116.85,1802.66,1123.69,1803.4z"/>
		<path class="st0" d="M1132.21,1774.45c-5.92-0.7-9.74,14.25-3.46,17.26S1142.27,1775.64,1132.21,1774.45z"/>
		<path class="st0" d="M1144.07,1797.83c3.51,3.81,18.13-6.1,12.41-12.31C1151.66,1780.28,1139.17,1792.51,1144.07,1797.83z"/>
		<path class="st0" d="M1115.29,1796.18c-2.98,1.81-12.42-9.67-7.19-14.49C1113.34,1776.87,1120.92,1792.75,1115.29,1796.18z"/>
		<path class="st0" d="M1146.24,1811.65c0.76,3.69,15.39,4.3,13.42-3.57C1158.18,1802.13,1144.75,1804.43,1146.24,1811.65z"/>
	</g>
	<g>
		<path class="st0" d="M-128.56,2194.41c-13,0-22.63-13.92,15-39c12-8,36.47-1.12,41,17c4,16-3,22-12,22
			S-118.56,2194.41-128.56,2194.41z"/>
		<path class="st0" d="M-83.56,2156.41c2-5,10-10,16-7s4.58,14.75-7.21,17.37"/>
		<path class="st0" d="M-114.63,2156.12c-2.94-6.71-8.94-10.71-14.94-7.71s-2.21,11.49,5.39,14.74"/>
		<path class="st0" d="M-111.69,2154.33c13.12-8.92,40.12-27.92,63.12-18.92s21,35,17,44s-23,14-52,15"/>
		<path class="st0" d="M-29.08,2170.08c5.52,5.33,8.52-0.67,20.52,4.33s13,19,23,22"/>
		<circle class="st0" cx="-91.56" cy="2174.41" r="1"/>
		<circle class="st0" cx="-124.56" cy="2171.41" r="1"/>
	</g>
	<g>
		<path class="st0" d="M-58.98,1628.52c5.86-4.28,32.86,14.7,44.73,37.96s15.89,41.62,15.89,41.62
			c11.89,4.73,21.67,16.79,19.04,21.34c-2.62,4.54-18.61-11.29-18.61-11.29c3.49,6.3,7.62,23.63,3.05,24.04
			c-8.83,0.78-11.79-21.25-13.18-25.62C-53.87,1700.81-70.79,1644.34-58.98,1628.52z"/>
		<path class="st0" d="M-53.76,1675.03c4.62,4.24,29.52-7.74,30.08-21.84"/>
		<line class="st0" x1="-57.93" y1="1628.05" x2="-47.89" y2="1642.95"/>
		<circle class="st0" cx="-54.8" cy="1650.9" r="0.9"/>
		<path class="st0" d="M-42.23,1680.98c2.88,1.49,7.61-1.13,7.43-5.15"/>
		<path class="st0" d="M-27.71,1671.89c2.88,1.49,7.61-1.13,7.43-5.15"/>
		<path class="st0" d="M-29.99,1684.48c2.88,1.49,7.61-1.13,7.43-5.15"/>
		<path class="st0" d="M-30.26,1696.98c2.88,1.49,7.61-1.13,7.43-5.15"/>
		<path class="st0" d="M-18.55,1688.42c2.88,1.49,7.61-1.13,7.43-5.15"/>
		<path class="st0" d="M-17.59,1701.27c2.88,1.49,7.61-1.13,7.43-5.15"/>
	</g>
	<g>
		<path class="st0" d="M-200.56,287.41c-2-11-12-35-23-43c-6-14-10-29-14-30s-13,19-14,21c-7-2-36-1-41,1c-6-8-13-19-16-20
			s-13,25-14,33c-10,11-20,43-22,50s-25,46-3,97c2,20,13,32,42,30s40.59-6.95,40-14c-1-12-26-15-49-13"/>
		<path class="st0" d="M-223.56,394.41c-23,1-41,4-42,18s27,12,42,11s42.29-7.14,44-14c4-1,33.82,3.08,69-12c7-3,85,11,87-5
			s-64-34-70-51s-13-116-130-97"/>
		<path class="st0" d="M-353,381.07c-13.57,2.34-43.02,23.21,6.71,22.78"/>
		<path class="st0" d="M-99.4,318.36c20.83,4.05,80.83-2.95,99.83-6.95s34.04-3.84,37,8c3,12-34.64,34.43-118.32,34.22"/>
		<path class="st0" d="M-256.56,275.41c0,11,39,8,39-1C-217.56,264.41-256.56,263.41-256.56,275.41z"/>
		<path class="st0" d="M-325.56,276.41c0,11,39,8,39-1C-286.56,265.41-325.56,264.41-325.56,276.41z"/>
		<line class="st0" x1="-229.06" y1="267.66" x2="-228.56" y2="280.41"/>
		<line class="st0" x1="-296.39" y1="268.62" x2="-296.39" y2="282.03"/>
		<polyline class="st0" points="-243.56,237.41 -238.56,229.41 -235.56,239.41 		"/>
		<polyline class="st0" points="-302.56,239.41 -306.56,231.41 -309.56,242.41 		"/>
		<path class="st0" d="M-264.04,406.89c1.48,1.52,11.48,0.52,11.48,0.52"/>
		<path class="st0" d="M-263.56,415.41c5,2,10,0,10,0"/>
		<path class="st0" d="M-278.56,408.41c3,1,10,0,10,0"/>
		<path class="st0" d="M-277.56,415.41c2,1,10,2,12,0"/>
		<path class="st0" d="M-33.56,387.41c1,1,7,3,9,3"/>
		<path class="st0" d="M-36.56,395.41c2,1,5,1,10,1"/>
		<path class="st0" d="M-373.62,394c2.05,0.41,9.05-1.59,9.05-1.59"/>
		<path class="st0" d="M-370.56,399.41c1,0,9-1,9-1"/>
	</g>
	<g>
		<path class="st0" d="M-211.56,483.41c10-4,32-5,36,2c3.33,5.82-1,19-26,21s-42-8-39-25s28-33,63-32"/>
		<path class="st0" d="M-176.56,572.41c-10,8-19,34-11,45c9.3,12.79,45-1,43-12s-20-9-28-6"/>
		<path class="st0" d="M-160.77,597.09c8.21-2.68,14.21-10.68,14.21-13.68"/>
		<path class="st0" d="M-160.56,559.41c1,13,19,31,37,39c0,0-20,7-18,24s20,21,28,20"/>
		<path class="st0" d="M-104.56,629.41c7,4,39,11,56,1"/>
		<path class="st0" d="M-70.56,636.41c1,5-10,12-25,18s-33,19-44,18s-8-16,20-30"/>
		<path class="st0" d="M-135.56,662.41c-4,2-4,7,0,9"/>
		<path class="st0" d="M-186.56,486.41c2,1,9,1,10-1"/>
		<path class="st0" d="M-187.56,496.41c2,1,8.77,1,10.39,0"/>
		<path class="st0" d="M-158.56,604.41c2,1,8.39-1.9,10.7-4.45"/>
		<path class="st0" d="M-154.56,611.41c2,0,7.34-1,9.67-3"/>
		<path class="st0" d="M-240.56,478.41c-9,4-23,21-25,25c-5,4-25,24-22,30s20,1,20,1c1,6,12,33,22,40c-9,3-15,9-13,12
			c1.24,1.86,16,5,37,0c10,0,32.01-3.2,38.5-6.1"/>
		<path class="st0" d="M-234.56,533.41c9-2-5-31-14-27C-257.56,510.41-246.44,536.05-234.56,533.41z"/>
		<path class="st0" d="M-222.56,529.41c2-5,9,6,2,8c7-3,12,8,6,7"/>
		<line class="st0" x1="-240.56" y1="519.41" x2="-236.56" y2="517.41"/>
		<polyline class="st0" points="-271.56,520.41 -276.56,526.41 -269.56,525.41 		"/>
		<polyline class="st0" points="-241.56,579.41 -246.56,582.41 -237.56,582.41 		"/>
		<path class="st0" d="M-212.56,574.41c9-2-5-31-14-27S-224.44,577.05-212.56,574.41z"/>
		<line class="st0" x1="-218.56" y1="560.41" x2="-214.56" y2="558.41"/>
		<path class="st0" d="M-190.64,449.7c48.08-17.29,88.08-22.29,138.08,3.71s61,85,62,110s-1,64-27,104s-39.42,65.95-41,81
			c-2,19-30,19-30-2s5-45,40-90"/>
		<path class="st0" d="M-24.56,513.41c-19-10-53-5-56,20c-3,25,28,57,35,65c0,10-11,65,6,67s24-46,22-65"/>
		<path class="st0" d="M-41.56,650.41c-4,2-4,10-4,10"/>
		<path class="st0" d="M-32.56,651.41c1,1,3,7,2,9"/>
	</g>
	<g>
		<path class="st0" d="M-75.09,1267.47c4.3,12.9,12.69,29.71,0.81,34.99c-11.88,5.28-41.73-31.04-32.27-54.26
			c9.46-23.23,39.53-18.41,49.85-7.16c7.18,7.84,15.74,31.64,21.2,51.52c11.37,15.74,29.85,36.32,31.11,90.3
			c1.26,53.99-2.77,96.09,6.09,132.89c6.25,10.86,12.51,21.72,0.67,28.99c-11.83,7.28-33.29-12.23-53.03-86.79
			c-4.65,15.11-29.43,67.7-45.5,65.08s1.23-33.04,1.23-33.04"/>
		<path class="st0" d="M-89.09,1482.86c-5.84,7.14-24.46,23.57-40.73,11.95c-16.27-11.63-6.04-44.87,3.53-63.1
			c-5.46-19.88-6.86-36.85-7.23-52.85"/>
		<path class="st0" d="M-129.73,1369.77c-1.84,7.04-11.69,16.36-17.6,17.41c-12.95,2.3-21.34-14.51-40.24-10.07
			c-5.92,1.39-36.62,16.86-43.83,8.02c-7.21-8.83,17.44-24.41,31.27-31.74s31.76-10.74,33.71-12.79c1.95-2.05,1.63-16.04,8.53-20.2"
			/>
		<path class="st0" d="M-84.42,1231.75c-12.71-8.77-40.07-24.14-77.6-3.26c-37.52,20.88-47.22,98.99-0.48,97.97"/>
		<path class="st0" d="M-176.34,1257.82c0.12,5,11.95-2.28,8.74-11.21c6.11,4.86,20.83-7.49,12.81-8.3"/>
		<path class="st0" d="M-133.24,1218.56c3.77-9.84,11.68-14.03,12.68-14.05s7.16,6.84,10.32,13.76"/>
		<path class="st0" d="M-191.84,1272.23c-0.12,1.96-14.91,11.3-16.82,15.35s15.23,9.65,15.23,9.65"/>
		<path class="st0" d="M-78.62,1287.56c0.12,5,7.04,10.46,9.62,9.59"/>
		<path class="st0" d="M-85.55,1290.72c0.05,2,1.91,8.48,4.12,11.17"/>
		<path class="st0" d="M-221.61,1375.91c-2.98,1.07-6.94,8.72-3.8,11.87"/>
		<path class="st0" d="M-88.48,1508.85c-2.93,3.07-4.01,10.93-2.82,13.49"/>
		<path class="st0" d="M-97.53,1507.06c-2.95,2.07-4.95,6.53-5.35,8.84"/>
		<path class="st0" d="M-7.97,1529.98c3.07,2.93,2.82,11.19-0.38,14.64"/>
		<path class="st0" d="M1.98,1527.75c2.02,0.95,5.18,7.88,4.32,13.9"/>
		<path class="st0" d="M-119.39,1498.9c-20.94,17.16-55.37,41.97-94.25,47.87c-20.16,3.06-22.37-15.48-2.53-22.95
			c19.83-7.46,59.3-23.05,77.83-47.16"/>
	</g>
	<g>
		<path class="st0" d="M-37.71,835.65c4.51-8.79,12.32-11.72,15.67-10.27s8.96,5.75,6.55,16.16c1.89,4.79,14.52,14.47,10.01,23.27
			s-18.31,9.36-28.46-0.65c-9.21,1.85-20.16,0.14-23.95-9.45S-47.09,836.26-37.71,835.65z"/>
		<path class="st0" d="M-33.04,794.68c-8.14,0.44-9.77,21.47-0.61,24.04C-24.47,821.29-19.22,793.92-33.04,794.68z"/>
		<path class="st0" d="M-11.59,823.37c5.61,4.3,22.97-12.47,13.82-19.48C-5.49,797.98-19.43,817.36-11.59,823.37z"/>
		<path class="st0" d="M-50.71,827.91c-3.58,3.14-18.99-10.1-13.07-17.82C-57.87,802.37-43.93,821.97-50.71,827.91z"/>
		<path class="st0" d="M-5.41,841.47c1.89,4.79,21.73,2.17,17.23-7.95C8.42,825.85-9.12,832.1-5.41,841.47z"/>
	</g>
	<path class="st0" d="M-20.54,242.9c0,0,5.49,13.07,10.54,12.29c5.06-0.78,4.51-14.93,4.51-14.93s13.08-1.51,13.04-5.13
		c-0.04-3.62-8.33-8.84-11.25-10.11c0,0,3.66-12.44,0-15.15s-12.67,8.89-12.67,8.89s-13.22-5.88-15.77-3.14
		c-2.56,2.74,4.62,13.93,4.62,13.93S-37.99,239.8-36,243.51C-34.02,247.23-25.29,244.74-20.54,242.9z"/>
</g>
</svg>
