<?xml version="1.0" standalone="no"?><!DOCTYPE svg PUBLIC "-//W3C//DTD SVG 1.1//EN" "http://www.w3.org/Graphics/SVG/1.1/DTD/svg11.dtd"><svg t="1719134823875" class="icon" viewBox="0 0 1024 1024" version="1.1" xmlns="http://www.w3.org/2000/svg" p-id="16860" xmlns:xlink="http://www.w3.org/1999/xlink" width="32" height="32"><path d="M157.696 691.2v164.352c0 6.144 5.12 10.752 10.752 10.752H332.8v64H149.504c-30.72 0-55.808-25.088-55.808-55.808V691.2h64z m772.608 0v183.296c0 30.72-25.088 55.808-55.808 55.808H691.2v-64h163.84c6.144 0 10.752-5.12 10.752-10.752V691.2h64.512zM512 302.592c120.832 0 230.4 69.632 328.704 209.408-98.304 139.264-207.872 209.408-328.704 209.408S281.6 651.776 183.296 512C281.6 372.736 391.168 302.592 512 302.592z m0 59.904c-87.04 0-168.96 45.056-246.784 140.288l-7.68 9.216 7.68 9.216c74.24 90.624 152.064 135.68 234.496 139.776l12.288 0.512c87.04 0 168.96-45.056 246.784-140.288l7.68-9.216-7.68-9.216c-74.24-90.624-152.064-135.68-234.496-139.776l-12.288-0.512z m0 45.056c59.904 0 107.52 49.664 104.448 110.08-2.56 52.736-46.08 96.256-98.816 98.816-60.416 3.072-110.08-44.544-110.08-104.448 0-57.856 46.592-104.448 104.448-104.448z m0 59.392c-24.576 0-45.056 19.968-45.056 45.056 0 24.576 19.968 45.056 45.056 45.056 24.576 0 45.056-19.968 45.056-45.056 0-24.576-20.48-45.056-45.056-45.056zM332.8 93.696v64H168.448c-6.144 0-10.752 5.12-10.752 10.752V332.8H93.696V149.504c0-30.72 25.088-55.808 55.808-55.808H332.8z m597.504 55.808V332.8h-64.512V168.448c0-6.144-5.12-10.752-10.752-10.752h-163.84V93.696h183.296c30.72 0 55.808 25.088 55.808 55.808z" fill="#2c2c2c" p-id="16861"></path></svg>