<?xml version="1.0" standalone="no"?><!DOCTYPE svg PUBLIC "-//W3C//DTD SVG 1.1//EN" "http://www.w3.org/Graphics/SVG/1.1/DTD/svg11.dtd"><svg t="1716047067317" class="icon" viewBox="0 0 1178 1024" version="1.1" xmlns="http://www.w3.org/2000/svg" p-id="59116" xmlns:xlink="http://www.w3.org/1999/xlink" width="36.8125" height="32"><path d="M1131.543379 836.968037c0 77.150685-63.123288 140.273973-140.273973 140.273972H187.031963c-77.150685 0-140.273973-63.123288-140.273972-140.273972V187.031963c0-77.150685 63.123288-140.273973 140.273972-140.273972h804.237443c77.150685 0 140.273973 63.123288 140.273973 140.273972v649.936074z" fill="#7FCAFF" p-id="59117"></path><path d="M1108.164384 836.968037c0 64.45589-52.439087 116.894977-116.894978 116.894977H187.031963c-64.45589 0-116.894977-52.439087-116.894977-116.894977V187.031963c0-64.45589 52.439087-116.894977 116.894977-116.894977h804.237443c64.45589 0 116.894977 52.439087 116.894978 116.894977v649.936074z m46.75799-649.936074c0-90.238247-73.414721-163.652968-163.652968-163.652968H187.031963C96.793717 23.378995 23.378995 96.793717 23.378995 187.031963v649.936074c0 90.238247 73.414721 163.652968 163.652968 163.652968h804.237443c90.238247 0 163.652968-73.414721 163.652968-163.652968V187.031963z" fill="#6E6E96" p-id="59118"></path><path d="M224.438356 397.442922h112.219178a23.378995 23.378995 0 0 0 0-46.75799H224.438356a23.378995 23.378995 0 0 0 0 46.75799z" fill="#FFFFFF" opacity=".52" p-id="59119"></path><path d="M70.136986 762.155251l314.447489-314.447488L465.242009 528.365297l219.762557-219.762557 423.159818 423.159817v150.602813s-0.850995 92.77253-92.77253 92.77253H175.342466s-114.613187-40.085626-114.613187-100.81958V813.589041L70.136986 762.155251z" fill="#6E6E96" opacity=".15" p-id="59120"></path><path d="M706.045662 271.196347h252.493151a23.378995 23.378995 0 1 0 0-46.757991h-252.493151a23.378995 23.378995 0 1 0 0 46.757991z" fill="#FFFFFF" p-id="59121"></path><path d="M1128.887525 864.008183l-11.006831-8.687635-436.859909-436.83653-221.015671 221.015671L797.75211 977.242009H991.269406c67.897279 0 124.918648-48.908858 137.618119-113.233826z" fill="#CCB527" p-id="59122"></path><path d="M1143.359123 845.650995l-11.006831-8.687634c0.720073 0.570447 1.412091 1.178301 2.048 1.832913l-436.850557-436.841206a23.369644 23.369644 0 0 0-33.057899 0l-221.020347 221.015672a23.369644 23.369644 0 0 0 0 33.057899l337.751671 337.74232a23.37432 23.37432 0 0 0 16.52895 6.850046H991.269406c77.922192 0 145.440731-55.548493 160.552914-132.081973a23.388347 23.388347 0 0 0-8.463197-22.888037zM991.269406 953.863014h-193.517296c6.20011 0 12.147726 2.454795 16.528949 6.850045l-337.746995-337.742319a23.369644 23.369644 0 0 1 0 33.057899l221.020347-221.010995a23.369644 23.369644 0 0 1-33.0579 0l436.850557 436.831854c0.649936 0.654612 1.327927 1.25779 2.048 1.832913l11.011507 8.682959a23.378995 23.378995 0 0 1-8.45852-22.888037C1095.156311 914.170155 1046.920767 953.863014 991.269406 953.863014z" fill="#6E6E96" p-id="59123"></path><path d="M377.785863 557.271087L60.729279 874.327671l-6.775233 6.770557C72.563726 936.796347 125.283361 977.242009 187.031963 977.242009h610.720147l-419.966247-419.970922z" fill="#FFE95F" p-id="59124"></path><path d="M361.252237 540.737461L44.195653 857.78937l-6.775233 6.775233a23.364968 23.364968 0 0 0-5.639014 23.935415C54.18316 955.565005 116.577023 1000.621005 187.031963 1000.621005h610.720147a23.378995 23.378995 0 0 0 16.528949-39.907946l-419.966246-419.970922a23.369644 23.369644 0 0 0-33.062576-0.004676zM797.75211 953.863014H187.031963c-50.311598 0-94.881315-32.220932-110.905278-80.171251a23.364968 23.364968 0 0 1-5.639014 23.935415l6.775233-6.775233 317.056585-317.051908a23.378995 23.378995 0 0 1-33.062576 0l419.970923 419.970922a23.364968 23.364968 0 0 1-5.068567-25.473754 23.364968 23.364968 0 0 1 21.592841-14.434191z" fill="#6E6E96" p-id="59125"></path><path d="M681.020785 451.546594l336.035653 499.412748s77.454612-19.806685 84.276603-79.109844l-420.312256-420.302904z" fill="#6E6E96" opacity=".15" p-id="59126"></path><path d="M377.785863 590.328986L572.785388 953.863014h168.529827z" fill="#6E6E96" opacity=".15" p-id="59127"></path></svg>