<?xml version="1.0" standalone="no"?><!DOCTYPE svg PUBLIC "-//W3C//DTD SVG 1.1//EN" "http://www.w3.org/Graphics/SVG/1.1/DTD/svg11.dtd"><svg t="1716011561030" class="icon" viewBox="0 0 1054 1024" version="1.1" xmlns="http://www.w3.org/2000/svg" p-id="20796" xmlns:xlink="http://www.w3.org/1999/xlink" width="32.9375" height="32"><path d="M552.907335 622.441863l7.954088 1.880893s53.275252 47.540618 67.177142 103.181616c15.201796 60.777926-40.280371 211.642271-217.460501 240.273643-60.803004 9.834981-10.934259-108.594408-18.499628-173.65241l160.828899-171.683742z" fill="#C8C8E6" p-id="20797"></path><path d="M403.894624 985.073872c-15.118201 0-24.163207-6.817193-29.086967-12.535107-17.329295-20.129736-11.732593-57.392318-5.249781-100.540006 4.087808-27.197714 8.313547-55.323336 5.918543-75.942104a16.71069 16.71069 0 0 1 4.40547-13.35852l160.828899-171.683743a16.70651 16.70651 0 0 1 16.050288-4.840164l7.954088 1.880893a16.702331 16.702331 0 0 1 7.281146 3.795224c2.332307 2.081522 57.287824 51.653504 72.268093 111.599657 9.542398 38.161231-4.292616 93.175264-35.256297 140.147435-42.361892 64.268027-111.883881 107.131491-195.759173 120.68646-3.239316 0.52247-6.390857 0.789975-9.354309 0.789975z m5.46713-184.937768c1.295726 23.377411-2.779542 50.508249-6.737778 76.836572-3.903898 25.977224-9.801543 65.237732-2.474419 73.751909 0.192269 0.225707 0.785795 0.915368 3.745067 0.915368 1.182873 0 2.532936-0.121213 4.016752-0.35946 95.520111-15.435863 146.897751-66.207437 173.175917-106.078191 29.463145-44.702559 36.585461-90.245251 30.733794-113.639381-9.717948-38.909409-41.52594-74.295277-55.457088-88.355998l-147.002245 156.929181z" fill="#6E6E96" p-id="20798"></path><path d="M107.921466 758.463872C52.42676 812.713009 2.432622 965.362113 27.586432 991.025854c37.204065 37.952243 167.345149-20.865374 222.835675-75.12705 55.486346-54.244957 74.663096-132.235144 33.626189-174.074566-63.080975-64.368342-116.535957-41.613715-176.12683 16.639634z" fill="#FFC800" opacity=".81" p-id="20799"></path><path d="M64.242949 1019.820238s0.00418 0 0 0c-21.128699 0-37.47993-5.751353-48.593918-17.095229-7.899751-8.058582-11.648998-20.627128-11.460909-38.412017 0.610245-56.936724 44.067235-170.902127 92.042549-217.803241 42.612678-41.651333 77.116617-60.226197 111.875521-60.226197 30.223862 0 58.972268 14.340765 87.879505 43.837349 17.830867 18.181967 27.0974 42.671195 26.804817 70.821895-0.447235 42.75897-23.134985 90.203453-60.681791 126.910127-44.481032 43.498788-136.686591 91.967313-197.865774 91.967313z m143.867423-300.102764c-25.33772 0-52.631569 15.636491-88.50229 50.700519-22.900918 22.386808-47.879179 67.327613-65.191755 117.292493-19.565468 56.456051-18.286461 86.696633-14.700224 91.829381 5.534005 5.62178 16.413927 6.846451 24.531025 6.846451 50.788293 0 135.503719-44.318021 174.492543-82.441635 31.339859-30.637659 50.261643-69.271203 50.621103-103.357165 0.204808-19.3523-5.596702-35.18524-17.2457-47.059945-22.299033-22.750447-43.235463-33.810098-64.004702-33.810099z" fill="#6E6E96" opacity=".81" p-id="20800"></path><path d="M385.269603 452.229397l6.909147-8.861096s-58.562652-139.87157-191.43312-33.701425c-47.202057 37.709817-217.247333 207.709115-101.317441 204.09362 115.921531-3.607135 145.752496 6.064835 145.752496 6.064836l140.088918-167.595935z" fill="#C8C8E6" p-id="20801"></path><path d="M245.180685 636.544381c-1.646826 0-3.306192-0.242426-4.93212-0.743997-0.861031-0.242426-22.913458-6.131711-92.318413-6.131712-14.821438 0-30.96786 0.267505-47.979493 0.798335-37.178987 1.195412-50.182228-14.223732-54.696371-27.10158-22.633414-64.589869 143.357492-205.406066 145.058655-206.760308 36.083889-28.832001 70.926389-43.45281 103.553615-43.452811 77.76448 0 112.301857 80.339214 113.735516 83.75826a16.70651 16.70651 0 0 1-2.240353 16.739948l-6.909147 8.861097a9.040826 9.040826 0 0 1-0.35528 0.438875l-140.088918 167.595934a16.71905 16.71905 0 0 1-12.827691 5.997959z m-97.250533-40.313808c49.835308 0 77.170954 2.930013 90.842957 5.187085l133.706421-159.980407c-9.659431-17.199722-35.703531-54.851022-78.617152-54.851023-24.852867 0-52.673366 12.158929-82.684061 36.138226-78.073783 62.374595-140.782758 151.290681-134.375182 169.581322 0.806694 2.307229 7.118135 4.790008 19.059717 4.790008 0.990604 0 1.997926-0.016719 3.042867-0.050158 17.358553-0.53501 33.851896-0.815054 49.024433-0.815053z" fill="#6E6E96" p-id="20802"></path><path d="M901.257096 574.370415c175.721393-179.265831 143.74203-400.860117 88.656941-480.137671-42.508184-61.179183-107.745916-68.752912-107.745916-68.752912C278.468313-40.054663 245.180685 619.783534 245.180685 619.783534s127.177632 28.050386 146.90611 174.308633c0 0 353.215005-60.644173 509.170301-219.721752z" fill="#FF9FB0" p-id="20803"></path><path d="M396.345973 555.523866s246.605984-533.049284 510.896543-509.943557c0 0-444.981689-149.497563-607.992424 380.370922l97.095881 129.572635z" fill="#FFFFFF" opacity=".31" p-id="20804"></path><path d="M156.2437 785.937451c-28.426564 27.778701-54.044328 105.986236-41.158121 119.127409 19.055537 19.448435 85.731107-10.675113 114.157672-38.474713 28.430744-27.79124 38.249006-67.74141 17.23316-89.187771-32.317923-32.974146-59.703727-21.316788-90.232711 8.535075z" fill="#FFFFFF" opacity=".81" p-id="20805"></path><path d="M731.997616 290.472591m-215.257765 0a215.257766 215.257766 0 1 0 430.515531 0 215.257766 215.257766 0 1 0-430.515531 0Z" fill="#FF9FB0" p-id="20806"></path><path d="M755.838981 322.347459m-190.37146 0a190.37146 190.37146 0 1 0 380.74292 0 190.37146 190.37146 0 1 0-380.74292 0Z" fill="#F28C8C" p-id="20807"></path><path d="M405.311564 741.43134c26.353402 29.392089 0 0 7.669864 56.844769 0 0 347.789673-89.948488 503.744969-249.017707 152.406678-155.474623 133.330242-340.358055 80.93692-420.128821 10.303114 284.282363-279.467276 476.162717-592.351753 612.301759z" fill="#F28C8C" p-id="20808"></path><path d="M580.598261 286.050402a155.583297 152.511172 90 1 0 305.022344 0 155.583297 152.511172 90 1 0-305.022344 0Z" fill="#BED3EB" p-id="20809"></path><path d="M733.109433 458.352749c-93.313196 0-169.226042-77.296347-169.226042-172.302347s75.912845-172.302347 169.226042-172.302347 169.230222 77.296347 169.230222 172.302347-75.917025 172.302347-169.230222 172.302347z m0-311.166594c-74.872085 0-135.787942 62.295179-135.787942 138.864247s60.915858 138.864248 135.787942 138.864248c74.876264 0 135.792122-62.295179 135.792122-138.864248s-60.915858-138.864248-135.792122-138.864247z" fill="#6E6E96" p-id="20810"></path><path d="M654.642753 719.918103c-68.723654-300.324291-352.053031-352.048851-352.053031-352.048851l-0.008359 0.00418c-52.840557 131.9551-58.830156 250.635275-58.830157 250.635274s127.821315 28.188318 147.650108 175.190563c0.00418 0.00418 127.3908-21.876877 263.241439-73.781166z" fill="#C8C8E6" p-id="20811"></path><path d="M391.401314 810.422499a16.71905 16.71905 0 0 1-16.568578-14.482877c-17.956259-133.108715-129.973893-160.030565-134.734642-161.113123a16.777566 16.777566 0 0 1-13.049219-17.153745c0.250786-4.965558 6.741957-122.997869 60.00885-256.010449 0.840132-2.098241 2.098241-4.008392 3.69909-5.609242a16.88624 16.88624 0 0 1 14.833976-4.626997c3.026148 0.551729 74.976579 14.110878 156.218622 65.739304 75.110331 47.728707 172.360864 138.354317 209.130234 299.028564a16.71905 16.71905 0 0 1-10.332373 19.348121c-135.82974 51.89593-264.608221 74.880444-269.20596 74.880444z m-129.923735-203.876273c34.286591 12.296861 120.728258 54.052688 143.583199 167.541598 36.794449-7.343843 130.237218-27.883195 229.836777-64.614948-29.170562-112.861945-93.008074-201.426932-189.911686-263.38355-56.113311-35.874901-108.3896-52.405861-132.093033-58.633707-37.066133 97.802261-48.351492 186.822842-51.415257 219.090607z" fill="#6E6E96" p-id="20812"></path><path d="M823.969109 311.810278a16.71905 16.71905 0 0 1-16.71905-16.71905c0-14.549753-4.321874-28.547777-12.501669-40.480999a16.72323 16.72323 0 0 1 27.586432-18.905066 104.598555 104.598555 0 0 1 18.357516 59.386065 16.727409 16.727409 0 0 1-16.723229 16.71905zM638.772195 299.27517a16.71905 16.71905 0 0 1-16.71905-16.719049c0-57.977485 47.164439-105.141924 105.133565-105.141925 16.484983 0 32.276126 3.711629 46.926193 11.030394a16.71905 16.71905 0 0 1-14.946831 29.91038 70.90967 70.90967 0 0 0-31.975183-7.502674c-39.532193 0-71.695465 32.167452-71.695465 71.703825a16.727409 16.727409 0 0 1-16.723229 16.719049z" fill="#FFFFFF" opacity=".83" p-id="20813"></path><path d="M307.057888 383.054329l-0.00418 0.008359c-47.469562 126.968644-52.853096 241.159753-52.853096 241.159754s19.908208-16.610376 58.06108 26.608367c13.54661-44.86557 71.239871-148.435904 127.261227-208.448932-70.320323-47.14772-132.465031-59.327548-132.465031-59.327548z" fill="#FFFFFF" opacity=".63" p-id="20814"></path><path d="M352.525344 701.125891c82.713319-26.20711 144.293759-96.573411 207.286959-159.746341 0-0.00836 76.786416 102.249529 85.267153 175.119507 0 0-116.009307 49.655578-250.739769 72.886698 0 0.00418-2.980171-61.973338-41.814343-88.259864z" fill="#6E6E96" opacity=".31" p-id="20815"></path><path d="M392.086795 810.811217a16.731589 16.731589 0 0 1-16.568578-14.478697c-17.855945-132.373076-129.254974-159.152814-133.990644-160.231193a16.777566 16.777566 0 0 1-13.049219-17.153745c0.317662-6.252925 8.572693-154.881097 82.383118-305.937712C379.710519 172.122617 520.493277 4.183942 800.257317 4.183942c26.972007 0 55.135246 1.571591 83.712282 4.677154 3.093024 0.35946 73.392449 9.224736 119.674958 75.83343 27.022164 38.892689 53.074623 115.394881 45.158153 213.456288-6.006319 74.366333-34.407804 184.682803-135.604033 287.922936-66.583616 67.91696-174.1916 126.358398-319.839601 173.715107-107.708298 35.01805-194.789469 50.157149-198.442581 50.784113a16.576938 16.576938 0 0 1-2.8297 0.238247zM262.902878 607.821054c34.157019 12.267603 120.080395 53.826981 142.839201 166.659668 30.340896-6.052296 99.148145-21.066003 177.727679-46.641969 138.270721-45.003502 244.03125-102.119956 305.845757-165.171673 167.779844-171.165452 139.365819-383.338553 86.863823-458.896118-37.408874-53.83952-95.428156-61.618058-96.009143-61.689114-27.197714-2.950912-54.144643-4.459807-79.917058-4.459806-116.092902 0-216.448998 30.395232-298.284567 90.345565-65.597192 48.054729-119.787812 115.24859-161.062966 199.717409-58.683865 120.109653-74.324536 241.285146-78.002726 280.136038z" fill="#6E6E96" p-id="20816"></path><path d="M392.788995 814.811249s-13.709621 142.061766 82.291163 82.291163c96.000784-59.774783 148.15168-122.763803 148.15168-165.113155 0 0-0.743998 220.45321-232.566162 232.561982 0.00418 0-28.84872-118.772129 2.123319-149.73999z" fill="#6E6E96" opacity=".15" p-id="20817"></path></svg>