<svg xmlns="http://www.w3.org/2000/svg" width="36.813" height="32" class="icon" viewBox="0 0 1178 1024"><path fill="#7FCAFF" d="M1131.543 836.968c0 77.15-63.123 140.274-140.274 140.274H187.032c-77.15 0-140.274-63.123-140.274-140.274V187.032c0-77.15 63.123-140.274 140.274-140.274h804.237c77.151 0 140.274 63.123 140.274 140.274z"/><path fill="#6E6E96" d="M1108.164 836.968c0 64.456-52.439 116.895-116.895 116.895H187.032c-64.456 0-116.895-52.44-116.895-116.895V187.032c0-64.456 52.44-116.895 116.895-116.895h804.237c64.456 0 116.895 52.44 116.895 116.895zm46.758-649.936c0-90.238-73.414-163.653-163.653-163.653H187.032c-90.238 0-163.653 73.415-163.653 163.653v649.936c0 90.238 73.415 163.653 163.653 163.653h804.237c90.239 0 163.653-73.415 163.653-163.653z"/><path fill="#FFF" d="M224.438 397.443h112.22a23.379 23.379 0 0 0 0-46.758h-112.22a23.379 23.379 0 0 0 0 46.758" opacity=".52"/><path fill="#6E6E96" d="m70.137 762.155 314.447-314.447 80.658 80.657 219.763-219.762 423.16 423.16v150.602s-.852 92.773-92.773 92.773h-840.05S60.73 935.052 60.73 874.318V813.59z" opacity=".15"/><path fill="#FFF" d="M706.046 271.196h252.493a23.379 23.379 0 1 0 0-46.758H706.046a23.379 23.379 0 1 0 0 46.758"/><path fill="#CCB527" d="m1128.888 864.008-11.007-8.687-436.86-436.837L460.005 639.5l337.747 337.742H991.27c67.898 0 124.92-48.909 137.619-113.234"/><path fill="#6E6E96" d="m1143.36 845.651-11.008-8.688a21 21 0 0 1 2.048 1.833l-436.85-436.84a23.37 23.37 0 0 0-33.058 0L443.472 622.97a23.37 23.37 0 0 0 0 33.058L781.222 993.77a23.37 23.37 0 0 0 16.53 6.85h193.516c77.923 0 145.441-55.548 160.553-132.082a23.39 23.39 0 0 0-8.463-22.888M991.27 953.863H797.751c6.2 0 12.148 2.455 16.53 6.85L476.533 622.971a23.37 23.37 0 0 1 0 33.058l221.02-221.011a23.37 23.37 0 0 1-33.057 0l436.85 436.831c.65.655 1.328 1.258 2.048 1.833l11.012 8.683a23.38 23.38 0 0 1-8.459-22.888c-10.792 54.693-59.027 94.386-114.679 94.386"/><path fill="#FFE95F" d="M377.786 557.271 60.729 874.328l-6.775 6.77c18.61 55.698 71.33 96.144 133.078 96.144h610.72z"/><path fill="#6E6E96" d="M361.252 540.737 44.196 857.79l-6.776 6.776a23.37 23.37 0 0 0-5.639 23.935c22.402 67.065 84.796 112.121 155.251 112.121h610.72a23.379 23.379 0 0 0 16.53-39.908l-419.967-419.97a23.37 23.37 0 0 0-33.063-.006m436.5 413.126h-610.72c-50.312 0-94.881-32.22-110.905-80.171a23.37 23.37 0 0 1-5.64 23.935l6.776-6.775L394.319 573.8a23.38 23.38 0 0 1-33.062 0l419.97 419.971a23.365 23.365 0 0 1-5.068-25.474 23.365 23.365 0 0 1 21.593-14.434"/><path fill="#6E6E96" d="m681.02 451.547 336.036 499.412s77.455-19.806 84.277-79.11zM377.786 590.329l195 363.534h168.53z" opacity=".15"/></svg>