<svg xmlns="http://www.w3.org/2000/svg" width="32.938" height="32" class="icon" viewBox="0 0 1054 1024"><path fill="#C8C8E6" d="m552.907 622.442 7.954 1.88s53.276 47.541 67.178 103.182c15.201 60.778-40.28 211.643-217.46 240.274-60.804 9.835-10.935-108.594-18.5-173.652z"/><path fill="#6E6E96" d="M403.895 985.074c-15.119 0-24.164-6.817-29.087-12.535-17.33-20.13-11.733-57.393-5.25-100.54 4.088-27.198 8.313-55.324 5.918-75.942a16.71 16.71 0 0 1 4.406-13.359L540.71 611.014a16.71 16.71 0 0 1 16.05-4.84l7.954 1.881a16.7 16.7 0 0 1 7.281 3.795c2.333 2.082 57.288 51.654 72.268 111.6 9.543 38.161-4.292 93.175-35.256 140.147-42.362 64.268-111.884 107.132-195.76 120.687-3.238.522-6.39.79-9.353.79m5.467-184.938c1.295 23.378-2.78 50.508-6.738 76.837-3.904 25.977-9.802 65.237-2.474 73.752.192.225.785.915 3.745.915 1.182 0 2.533-.121 4.016-.36 95.52-15.435 146.898-66.207 173.176-106.078 29.463-44.702 36.586-90.245 30.734-113.64-9.718-38.908-41.526-74.294-55.457-88.355z"/><path fill="#FFC800" d="M107.921 758.464C52.427 812.713 2.433 965.362 27.586 991.026c37.204 37.952 167.346-20.866 222.836-75.127 55.486-54.245 74.663-132.235 33.626-174.075-63.08-64.368-116.536-41.613-176.127 16.64" opacity=".81"/><path fill="#6E6E96" d="M64.243 1019.82s.004 0 0 0c-21.129 0-37.48-5.751-48.594-17.095-7.9-8.059-11.649-20.627-11.46-38.412.61-56.937 44.066-170.902 92.042-217.803 42.612-41.652 77.116-60.226 111.875-60.226 30.224 0 58.972 14.34 87.88 43.837 17.83 18.182 27.097 42.671 26.805 70.822-.448 42.759-23.135 90.203-60.682 126.91-44.481 43.499-136.687 91.967-197.866 91.967M208.11 719.717c-25.337 0-52.631 15.637-88.502 50.701-22.9 22.387-47.88 67.328-65.192 117.292-19.565 56.457-18.286 86.697-14.7 91.83 5.534 5.622 16.414 6.846 24.531 6.846 50.788 0 135.504-44.318 174.493-82.441 31.34-30.638 50.261-69.272 50.62-103.357.206-19.353-5.596-35.186-17.245-47.06-22.299-22.75-43.235-33.81-64.005-33.81" opacity=".81"/><path fill="#C8C8E6" d="m385.27 452.23 6.909-8.862s-58.563-139.871-191.433-33.701C153.544 447.377-16.502 617.376 99.428 613.76c115.922-3.607 145.753 6.065 145.753 6.065z"/><path fill="#6E6E96" d="M245.18 636.544a16.7 16.7 0 0 1-4.931-.744c-.861-.242-22.914-6.131-92.319-6.131-14.821 0-30.968.267-47.98.798-37.178 1.195-50.182-14.224-54.696-27.102-22.633-64.59 143.358-205.406 145.059-206.76 36.084-28.832 70.926-43.453 103.554-43.453 77.764 0 112.301 80.34 113.735 83.759a16.71 16.71 0 0 1-2.24 16.74l-6.91 8.86a9 9 0 0 1-.355.44L258.008 630.545a16.72 16.72 0 0 1-12.827 5.998m-97.25-40.313c49.835 0 77.171 2.93 90.843 5.187l133.707-159.98c-9.66-17.2-35.704-54.852-78.618-54.852-24.852 0-52.673 12.16-82.684 36.138C133.105 485.1 70.396 574.015 76.803 592.306c.807 2.307 7.118 4.79 19.06 4.79.99 0 1.998-.017 3.043-.05 17.358-.535 33.852-.815 49.024-.815"/><path fill="#FF9FB0" d="M901.257 574.37C1076.978 395.105 1045 173.51 989.914 94.233 947.406 33.053 882.168 25.48 882.168 25.48c-603.7-65.535-636.987 594.304-636.987 594.304s127.177 28.05 146.906 174.308c0 0 353.215-60.644 509.17-219.722"/><path fill="#FFF" d="M396.346 555.524S642.952 22.474 907.243 45.58c0 0-444.982-149.497-607.993 380.371z" opacity=".31"/><path fill="#FFF" d="M156.244 785.937c-28.427 27.78-54.045 105.987-41.158 119.128 19.055 19.448 85.73-10.675 114.157-38.475 28.431-27.791 38.25-67.741 17.233-89.188-32.318-32.974-59.703-21.316-90.232 8.535" opacity=".81"/><path fill="#FF9FB0" d="M516.74 290.473a215.258 215.258 0 1 0 430.515 0 215.258 215.258 0 1 0-430.515 0"/><path fill="#F28C8C" d="M565.468 322.347a190.371 190.371 0 1 0 380.742 0 190.371 190.371 0 1 0-380.742 0"/><path fill="#F28C8C" d="M405.312 741.431c26.353 29.392 0 0 7.67 56.845 0 0 347.79-89.948 503.744-249.018 152.407-155.474 133.33-340.358 80.937-420.128 10.303 284.282-279.467 476.162-592.351 612.301"/><path fill="#BED3EB" d="M580.598 286.05a155.583 152.511 90 1 0 305.023 0 155.583 152.511 90 1 0-305.023 0"/><path fill="#6E6E96" d="M733.11 458.353c-93.314 0-169.227-77.297-169.227-172.303s75.913-172.302 169.226-172.302 169.23 77.296 169.23 172.302-75.916 172.303-169.23 172.303m0-311.167c-74.873 0-135.789 62.295-135.789 138.864s60.916 138.865 135.788 138.865c74.877 0 135.793-62.296 135.793-138.865s-60.916-138.864-135.793-138.864"/><path fill="#C8C8E6" d="M654.643 719.918C585.919 419.594 302.59 367.87 302.59 367.87l-.009.004c-52.84 131.956-58.83 250.636-58.83 250.636s127.822 28.188 147.65 175.19c.004.004 127.391-21.877 263.242-73.78"/><path fill="#6E6E96" d="M391.401 810.422a16.72 16.72 0 0 1-16.568-14.482c-17.957-133.11-129.974-160.03-134.735-161.114a16.78 16.78 0 0 1-13.05-17.153c.252-4.966 6.743-122.998 60.01-256.01a16.7 16.7 0 0 1 3.699-5.61 16.89 16.89 0 0 1 14.834-4.627c3.026.552 74.976 14.11 156.218 65.74 75.11 47.728 172.361 138.354 209.13 299.028a16.72 16.72 0 0 1-10.332 19.348c-135.83 51.896-264.608 74.88-269.206 74.88M261.478 606.546c34.286 12.297 120.728 54.053 143.583 167.542 36.794-7.344 130.237-27.883 229.837-64.615-29.171-112.862-93.009-201.427-189.912-263.384-56.113-35.875-108.39-52.406-132.093-58.633-37.066 97.802-48.352 186.822-51.415 219.09"/><path fill="#FFF" d="M823.97 311.81a16.72 16.72 0 0 1-16.72-16.719c0-14.55-4.322-28.548-12.502-40.48a16.723 16.723 0 0 1 27.587-18.906 104.6 104.6 0 0 1 18.357 59.386 16.727 16.727 0 0 1-16.723 16.72m-185.198-12.535a16.72 16.72 0 0 1-16.719-16.719c0-57.977 47.165-105.142 105.134-105.142 16.485 0 32.276 3.712 46.926 11.03a16.72 16.72 0 0 1-14.947 29.911 70.9 70.9 0 0 0-31.975-7.503c-39.532 0-71.696 32.168-71.696 71.704a16.727 16.727 0 0 1-16.723 16.72" opacity=".83"/><path fill="#FFF" d="m307.058 383.054-.004.009c-47.47 126.968-52.853 241.16-52.853 241.16s19.908-16.61 58.06 26.608c13.547-44.866 71.24-148.436 127.262-208.45-70.32-47.147-132.465-59.327-132.465-59.327" opacity=".63"/><path fill="#6E6E96" d="M352.525 701.126c82.714-26.207 144.294-96.574 207.287-159.746 0-.009 76.787 102.25 85.267 175.12 0 0-116.009 49.655-250.74 72.886 0 .004-2.98-61.974-41.814-88.26" opacity=".31"/><path fill="#6E6E96" d="M392.087 810.811a16.73 16.73 0 0 1-16.569-14.478C357.662 663.959 246.263 637.18 241.528 636.1a16.78 16.78 0 0 1-13.05-17.153c.318-6.253 8.573-154.882 82.383-305.938C379.711 172.123 520.493 4.184 800.257 4.184c26.972 0 55.136 1.572 83.713 4.677 3.093.36 73.392 9.225 119.675 75.834 27.022 38.892 53.074 115.394 45.158 213.456-6.007 74.366-34.408 184.683-135.604 287.923-66.584 67.917-174.192 126.358-319.84 173.715-107.708 35.018-194.79 50.157-198.443 50.784a16.6 16.6 0 0 1-2.83.238m-129.184-202.99c34.157 12.268 120.08 53.827 142.84 166.66 30.34-6.053 99.147-21.066 177.727-46.642 138.27-45.004 244.031-102.12 305.846-165.172 167.78-171.165 139.365-383.338 86.863-458.896-37.409-53.84-95.428-61.618-96.009-61.69-27.198-2.95-54.144-4.459-79.917-4.459-116.093 0-216.449 30.395-298.284 90.346-65.598 48.054-119.788 115.248-161.063 199.717-58.684 120.11-74.325 241.285-78.003 280.136"/><path fill="#6E6E96" d="M392.789 814.811s-13.71 142.062 82.291 82.291c96-59.774 148.152-122.763 148.152-165.113 0 0-.744 220.453-232.566 232.562.004 0-28.849-118.772 2.123-149.74" opacity=".15"/></svg>