<?xml version="1.0" standalone="no"?><!DOCTYPE svg PUBLIC "-//W3C//DTD SVG 1.1//EN" "http://www.w3.org/Graphics/SVG/1.1/DTD/svg11.dtd"><svg t="1716047150730" class="icon" viewBox="0 0 1024 1024" version="1.1" xmlns="http://www.w3.org/2000/svg" p-id="59470" xmlns:xlink="http://www.w3.org/1999/xlink" width="32" height="32"><path d="M860.962462 49.2655H53.45482v522.175667h119.484337v217.68738l217.682888-217.68738h470.340417z" fill="#00CCC6" p-id="59471"></path><path d="M860.962462 26.80266H53.45482a22.46284 22.46284 0 0 0-22.46284 22.46284v522.166682a22.46284 22.46284 0 0 0 22.46284 22.462839h119.484337a22.46284 22.46284 0 0 1-22.46284-22.462839v217.68738a22.453855 22.453855 0 0 0 13.864065 20.751171 22.44487 22.44487 0 0 0 24.480003-4.869943l217.682888-217.687381a22.46284 22.46284 0 0 1-15.88572 6.581612h470.340417c12.408473 0 22.46284-10.049875 22.46284-22.462839V49.2655a22.453855 22.453855 0 0 0-22.458348-22.46284z m0 522.175667H390.622045a22.435884 22.435884 0 0 0-15.88572 6.586104L157.053437 773.242827a22.453855 22.453855 0 1 1 38.344068 15.876735v-217.68738a22.46284 22.46284 0 0 0-22.46284-22.46284H53.45482a22.46284 22.46284 0 0 1 22.46284 22.46284V49.2655a22.46284 22.46284 0 0 1-22.46284 22.46284h807.507642a22.46284 22.46284 0 0 1-22.462839-22.46284v522.166682a22.458347 22.458347 0 0 1 22.462839-22.453855z" fill="#6E6E96" p-id="59472"></path><path d="M75.91766 496.276012h146.30946v139.269607l88.840532-88.840532v97.825668l-129.534212 135.999017v-209.088605H53.45482z" fill="#6E6E96" opacity=".15" p-id="59473"></path><path d="M792.783251 285.125318h90.646544v64.998473h-90.646544z" fill="#00CCC6" p-id="59474"></path><path d="M311.067652 802.21989h386.971833l179.114192 179.100714v-179.100714h98.306372V372.586631H311.067652z" fill="#F2E891" p-id="59475"></path><path d="M311.067652 824.68273h386.971833a22.426899 22.426899 0 0 1-15.881227-6.57712l179.114192 179.100715a22.453855 22.453855 0 0 0 38.344067-15.885721v-179.100714c0 12.412965-10.054367 22.46284-22.46284 22.46284h98.306372c12.412965 0 22.46284-10.049875 22.46284-22.46284V372.586631a22.46284 22.46284 0 0 0-22.46284-22.46284H311.067652a22.46284 22.46284 0 0 0-22.46284 22.46284v429.633259a22.46284 22.46284 0 0 0 22.46284 22.46284z m0-429.633259h664.392397a22.46284 22.46284 0 0 1-22.462839-22.46284v429.633259a22.46284 22.46284 0 0 1 22.462839-22.46284h-98.306372a22.46284 22.46284 0 0 0-22.462839 22.46284v179.100714a22.46284 22.46284 0 0 1 38.344067-15.88572l-179.114192-179.100714a22.453855 22.453855 0 0 0-15.881228-6.57712H311.067652a22.46284 22.46284 0 0 1 22.46284 22.46284V372.586631a22.46284 22.46284 0 0 1-22.46284 22.46284z" fill="#6E6E96" p-id="59476"></path><path d="M297.589948 739.323939v71.881087h386.971834l179.114192 179.100714v-71.881087l-179.114192-179.100714H297.589948z m566.086026 0v71.881087h98.306372v-71.881087h-98.306372z" fill="#6E6E96" opacity=".15" p-id="59477"></path><path d="M415.407543 469.320604h408.823684v44.92568h-408.823684zM415.407543 562.024744h251.583805v44.92568h-251.583805zM415.407543 649.023323h372.88314v44.925679h-372.88314z" fill="#6E6E96" opacity=".5" p-id="59478"></path></svg>