<svg xmlns="http://www.w3.org/2000/svg" width="32" height="32" class="icon" viewBox="0 0 1024 1024"><path fill="#00CCC6" d="M860.962 49.266H53.455V571.44h119.484V789.13L390.622 571.44h470.34z"/><path fill="#6E6E96" d="M860.962 26.803H53.455a22.463 22.463 0 0 0-22.463 22.463v522.166a22.463 22.463 0 0 0 22.463 22.463h119.484a22.463 22.463 0 0 1-22.463-22.463V789.12a22.45 22.45 0 0 0 13.864 20.75 22.445 22.445 0 0 0 24.48-4.87l217.683-217.687a22.46 22.46 0 0 1-15.885 6.582h470.34c12.408 0 22.463-10.05 22.463-22.463V49.265a22.454 22.454 0 0 0-22.459-22.462m0 522.175h-470.34a22.44 22.44 0 0 0-15.886 6.586L157.053 773.243a22.454 22.454 0 1 1 38.345 15.877V571.432a22.463 22.463 0 0 0-22.463-22.463H53.455a22.463 22.463 0 0 1 22.463 22.463V49.265a22.463 22.463 0 0 1-22.463 22.463h807.507A22.463 22.463 0 0 1 838.5 49.265v522.167a22.46 22.46 0 0 1 22.462-22.454"/><path fill="#6E6E96" d="M75.918 496.276h146.31v139.27l88.84-88.84v97.825L181.533 780.53V571.44H53.455z" opacity=".15"/><path fill="#00CCC6" d="M792.783 285.125h90.647v64.999h-90.647z"/><path fill="#F2E891" d="M311.068 802.22h386.971l179.115 179.1v-179.1h98.306V372.587H311.068z"/><path fill="#6E6E96" d="M311.068 824.683h386.971a22.43 22.43 0 0 1-15.88-6.577l179.113 179.1a22.454 22.454 0 0 0 38.345-15.885V802.22c0 12.413-10.055 22.463-22.463 22.463h98.306c12.413 0 22.463-10.05 22.463-22.463V372.587a22.463 22.463 0 0 0-22.463-22.463H311.068a22.463 22.463 0 0 0-22.463 22.463V802.22a22.463 22.463 0 0 0 22.463 22.463m0-429.634H975.46a22.463 22.463 0 0 1-22.463-22.462V802.22a22.463 22.463 0 0 1 22.463-22.463h-98.306a22.463 22.463 0 0 0-22.463 22.463v179.1a22.463 22.463 0 0 1 38.344-15.885l-179.114-179.1a22.45 22.45 0 0 0-15.882-6.578H311.068a22.463 22.463 0 0 1 22.462 22.463V372.587a22.463 22.463 0 0 1-22.462 22.462"/><path fill="#6E6E96" d="M297.59 739.324v71.881h386.972l179.114 179.1v-71.88L684.562 739.324zm566.086 0v71.881h98.306v-71.881z" opacity=".15"/><path fill="#6E6E96" d="M415.408 469.32H824.23v44.926H415.408zm0 92.705H666.99v44.925H415.408zm0 86.998H788.29v44.926H415.408z" opacity=".5"/></svg>