<?xml version="1.0" standalone="no"?><!DOCTYPE svg PUBLIC "-//W3C//DTD SVG 1.1//EN" "http://www.w3.org/Graphics/SVG/1.1/DTD/svg11.dtd"><svg t="1716011208200" class="icon" viewBox="0 0 1030 1024" version="1.1" xmlns="http://www.w3.org/2000/svg" p-id="4638" xmlns:xlink="http://www.w3.org/1999/xlink" width="32.1875" height="32"><path d="M580.792837 16.594081H224.020094C109.935787 16.594081 16.594081 109.935787 16.594081 224.020094v199.128973c0 107.774408 79.170361 196.996633 184.571815 206.534082-3.891312 12.121976-1.866834 24.969943-1.866834 38.228614v66.376324c0 68.450584 39.589329 84.841388 87.981818 36.428157L427.34737 630.575081H580.792837c114.084307 0 207.426013-93.341706 207.426014-207.426014V224.020094c0-114.084307-93.341706-207.426013-207.426014-207.426013z" fill="#66C7FF" p-id="4639"></path><path d="M236.685527 815.138599c-39.800903 0-53.980546-41.763154-53.980546-80.850512v-66.376324c0-3.194361-0.128604-6.355533-0.25306-9.495963-0.182535-4.588263-0.373367-9.454478-0.199129-14.478336C77.195665 625.937035 0 533.972638 0 423.149067V224.020094C0 100.493755 100.493755 0 224.020094 0h356.772743c123.522191 0 224.020094 100.493755 224.020095 224.020094v199.128973c0 123.526339-100.497903 224.020094-224.020095 224.020095h-146.567221l-135.208572 135.279097c-21.377325 21.385622-42.933036 32.69034-62.331517 32.69034zM224.020094 33.188162C118.797026 33.188162 33.188162 118.797026 33.188162 224.020094v199.128973c0 99.576932 72.856313 181.265445 169.47535 190.006377l20.638888 1.866834-6.33479 19.730362c-1.99129 6.206186-1.696745 13.685968-1.352418 22.348079 0.14105 3.567727 0.277951 7.172792 0.277951 10.806895v66.376325c0 23.04503 5.463601 47.662349 20.792384 47.662349 10.105795 0 24.268844-8.371714 38.859189-22.966208L420.469123 613.980999H580.792837c105.223068 0 190.831932-85.608864 190.831933-190.831932V224.020094c0-105.223068-85.608864-190.831932-190.831933-190.831932H224.020094z" fill="#6E6E96" p-id="4640"></path><path d="M584.941358 535.159114h-153.445468l-84.737675 84.787458-3.733668 18.929698v-66.376325c22.584544-13.262819 1.588883-26.106638 5.480195-38.228614C28.002512 534.267183 20.742601 435.507509 20.742601 327.733101v87.118926c0 107.774408 79.170361 196.996633 184.571816 206.534081-3.891312 12.121976-1.866834 24.969943-1.866835 38.228614v66.376325c0 68.450584 39.589329 84.841388 87.981818 36.428156L431.49589 622.27804H584.941358c114.084307 0 207.426013-93.341706 207.426013-207.426013V327.733101c0 114.084307-93.341706 207.426013-207.426013 207.426013z" fill="#6E6E96" opacity=".15" p-id="4641"></path><path d="M264.812494 646.27723H201.165896a16.594081 16.594081 0 0 1 0-33.188162h63.646598a16.594081 16.594081 0 0 1 0 33.188162z" fill="#6E6E96" p-id="4642"></path><path d="M1014.313205 574.570057c0-153.499398-150.450236-277.950858-336.030141-277.950858-185.584054 0-336.030142 124.443162-336.030142 277.950858 0 115.461616 85.119339 214.449458 206.268576 256.444929 0.008297 0.004149 0.008297 0.012446 0.008297 0.016594l0.11201 0.024891c17.697587 6.135661 36.187542 10.976985 55.266587 14.553009 169.790637 19.796739 110.437758 89.255414 186.384719 135.515563 88.512828 53.930763 47.961043-130.42118 147.500638-229.969072h-0.008297c47.811696-48.014974 76.527753-109.520935 76.527753-176.585914z" fill="#FFE587" p-id="4643"></path><path d="M817.694087 1007.40177h-0.008297c-10.873272 0-22.659218-3.961837-36.029898-12.10953-32.034873-19.514639-43.306403-42.94963-53.250407-63.621707-14.996901-31.17613-27.948581-58.100026-126.422006-69.58313a14.602791 14.602791 0 0 1-1.132546-0.17009c-19.780145-3.704629-38.983645-8.745081-57.100233-14.992752a16.399101 16.399101 0 0 1-1.294338-0.44804C410.736695 800.568995 325.658841 693.902242 325.658841 574.570057c0-162.41042 158.187226-294.544939 352.624223-294.544939s352.624223 132.13037 352.624222 294.544939c0 68.732684-28.894444 135.60683-81.364928 188.297186-42.6136 42.621897-57.979719 103.410165-70.325715 152.254843-12.516086 49.512589-23.327129 92.279685-61.522556 92.279684z m-211.284137-178.212133c107.761962 12.669581 130.939745 44.509474 151.906367 88.093828 9.097705 18.921401 16.959151 35.258274 40.609864 49.666084 9.852736 6.002909 15.64407 7.264059 18.763758 7.264059 12.354293 0.004149 20.995661-34.17551 29.346632-67.226771 13.34579-52.798217 29.956465-118.498333 79.021014-167.56703 46.20207-46.409496 71.657391-104.961711 71.657391-164.853899 0-144.111297-143.298187-261.356777-319.436061-261.356776s-319.436061 117.241331-319.43606 261.356776c0 105.148395 76.548496 199.635092 195.021937 240.738631l0.207426 0.070525c16.565041 5.741552 34.167213 10.387895 52.337732 13.814573z" fill="#6E6E96" p-id="4644"></path><path d="M942.394458 746.488885s-47.641607 60.58499-127.662414 65.065392" fill="#FFFFFF" p-id="4645"></path><path d="M814.71545 828.148358a16.594081 16.594081 0 0 1-0.908526-33.163271c71.707173-4.015768 115.117289-58.203739 115.548735-58.751344a16.594081 16.594081 0 1 1 26.090044 20.514433c-2.136488 2.713132-53.271149 66.52982-139.780242 71.375291a18.514846 18.514846 0 0 1-0.950011 0.024891z" fill="#6E6E96" p-id="4646"></path><path d="M105.787267 272.877218a16.594081 16.594081 0 0 1-16.594081-16.594081c0-109.014816 67.724593-176.739409 176.739409-176.739409a16.594081 16.594081 0 0 1 0 33.188162C176.046606 112.73189 122.381348 166.397148 122.381348 256.283137a16.594081 16.594081 0 0 1-16.594081 16.594081z" fill="#FFFFFF" opacity=".69" p-id="4647"></path><path d="M507.907485 466.866174a16.59823 16.59823 0 0 1-10.242697-29.66192c50.869156-39.825795 118.266016-61.76317 189.786505-61.76317a16.594081 16.594081 0 0 1 0 33.188162c-64.136123 0-124.268925 19.431669-169.321854 54.710686a16.560893 16.560893 0 0 1-10.221954 3.526242z" fill="#FFFFFF" p-id="4648"></path><path d="M433.520368 607.455377a16.594081 16.594081 0 0 1-16.594081-16.594081c0-35.075739 10.782004-69.877675 31.17613-100.643102a16.594081 16.594081 0 0 1 27.662333 18.33646c-17.021379 25.675192-25.650301 53.370713-25.650301 82.306642a16.594081 16.594081 0 0 1-16.594081 16.594081z" fill="#FFFFFF" opacity=".54" p-id="4649"></path><path d="M548.558835 567.235473m-44.671266 0a44.671266 44.671266 0 1 0 89.342532 0 44.671266 44.671266 0 1 0-89.342532 0Z" fill="#6E6E96" p-id="4650"></path><path d="M684.149071 567.235473m-44.671266 0a44.671266 44.671266 0 1 0 89.342532 0 44.671266 44.671266 0 1 0-89.342532 0Z" fill="#6E6E96" p-id="4651"></path><path d="M866.679814 567.231325c0 24.67125-19.995868 44.675415-44.675414 44.675414-24.658804 0-44.671266-19.991719-44.671267-44.675414 0-24.658804 20.000016-44.667118 44.671267-44.667118 24.679547 0 44.675415 20.008313 44.675414 44.667118z" fill="#6E6E96" p-id="4652"></path><path d="M105.787267 389.616578a16.594081 16.594081 0 0 1-16.594081-16.594081v-41.485203a16.594081 16.594081 0 0 1 33.188162 0v41.485203a16.594081 16.594081 0 0 1-16.594081 16.594081z" fill="#FFFFFF" opacity=".47" p-id="4653"></path><path d="M359.884133 485.484733s-21.19479 292.246659 292.24251 292.246658c313.4373 0 351.715697-148.05654 351.715697-272.234197 0 0 12.665432 216.457342-88.230729 272.234197 0 0-40.389993 157.884384-67.919574 185.409817-27.52958 27.525432-70.989479 24.721032-93.769003-18.386242-22.779525-43.107274-22.161395-84.609071-150.027087-99.149635-127.857395-14.548861-306.239618-185.434707-244.011814-360.120598z" fill="#6E6E96" opacity=".15" p-id="4654"></path></svg>