<svg xmlns="http://www.w3.org/2000/svg" width="32.188" height="32" class="icon" viewBox="0 0 1030 1024"><path fill="#66C7FF" d="M580.793 16.594H224.02c-114.084 0-207.426 93.342-207.426 207.426v199.13c0 107.773 79.17 196.996 184.572 206.533-3.891 12.122-1.867 24.97-1.867 38.229v66.376c0 68.45 39.59 84.841 87.982 36.428l140.066-140.14h153.446c114.084 0 207.426-93.343 207.426-207.427V224.02c0-114.084-93.342-207.426-207.426-207.426"/><path fill="#6E6E96" d="M236.686 815.139c-39.801 0-53.981-41.764-53.981-80.85v-66.377c0-3.195-.129-6.356-.253-9.496-.183-4.588-.373-9.455-.2-14.479C77.197 625.937 0 533.973 0 423.15V224.02C0 100.494 100.494 0 224.02 0h356.773c123.522 0 224.02 100.494 224.02 224.02v199.13c0 123.525-100.498 224.02-224.02 224.02H434.226L299.017 782.447c-21.377 21.386-42.933 32.69-62.331 32.69M224.02 33.189c-105.223 0-190.832 85.608-190.832 190.831v199.13c0 99.576 72.856 181.265 169.476 190.005l20.638 1.867-6.334 19.73c-1.992 6.207-1.697 13.687-1.353 22.349.141 3.567.278 7.173.278 10.807v66.376c0 23.045 5.464 47.662 20.793 47.662 10.105 0 24.268-8.371 38.859-22.966l144.924-144.999h160.324c105.223 0 190.832-85.609 190.832-190.832V224.02c0-105.223-85.61-190.832-190.832-190.832z"/><path fill="#6E6E96" d="M584.941 535.16H431.496l-84.738 84.787-3.733 18.93V572.5c22.584-13.263 1.588-26.107 5.48-38.229-320.502-.004-327.762-98.763-327.762-206.538v87.119c0 107.774 79.17 196.997 184.571 206.534-3.89 12.122-1.866 24.97-1.866 38.229v66.376c0 68.45 39.589 84.841 87.981 36.428l140.067-140.141H584.94c114.085 0 207.426-93.342 207.426-207.426v-87.119c0 114.084-93.341 207.426-207.426 207.426" opacity=".15"/><path fill="#6E6E96" d="M264.812 646.277h-63.646a16.594 16.594 0 0 1 0-33.188h63.646a16.594 16.594 0 0 1 0 33.188"/><path fill="#FFE587" d="M1014.313 574.57c0-153.5-150.45-277.95-336.03-277.95-185.584 0-336.03 124.442-336.03 277.95 0 115.462 85.12 214.45 206.268 256.445.009.004.009.012.009.017l.112.024c17.697 6.136 36.187 10.977 55.266 14.553 169.791 19.797 110.438 89.256 186.385 135.516 88.513 53.93 47.961-130.421 147.5-229.969h-.008c47.812-48.015 76.528-109.521 76.528-176.586"/><path fill="#6E6E96" d="M817.694 1007.402h-.008c-10.873 0-22.66-3.962-36.03-12.11-32.035-19.514-43.307-42.95-53.25-63.621-14.997-31.177-27.95-58.1-126.423-69.584a15 15 0 0 1-1.132-.17c-19.78-3.704-38.984-8.745-57.1-14.992a16 16 0 0 1-1.295-.448C410.736 800.569 325.66 693.902 325.66 574.57c0-162.41 158.187-294.545 352.624-294.545s352.624 132.13 352.624 294.545c0 68.733-28.894 135.607-81.365 188.297-42.613 42.622-57.98 103.41-70.325 152.255-12.516 49.513-23.327 92.28-61.523 92.28M606.41 829.19c107.762 12.67 130.94 44.51 151.906 88.093 9.098 18.922 16.96 35.259 40.61 49.667 9.853 6.002 15.644 7.264 18.764 7.264 12.354.004 20.996-34.176 29.347-67.227 13.345-52.798 29.956-118.498 79.02-167.567 46.203-46.41 71.658-104.962 71.658-164.854 0-144.111-143.298-261.357-319.436-261.357S358.843 430.45 358.843 574.566c0 105.148 76.548 199.635 195.022 240.739l.207.07c16.565 5.742 34.167 10.388 52.338 13.815"/><path fill="#FFF" d="M942.394 746.489s-47.641 60.585-127.662 65.065"/><path fill="#6E6E96" d="M814.715 828.148a16.594 16.594 0 0 1-.908-33.163c71.707-4.016 115.117-58.204 115.549-58.751a16.594 16.594 0 1 1 26.09 20.514c-2.137 2.713-53.271 66.53-139.78 71.375a19 19 0 0 1-.95.025"/><path fill="#FFF" d="M105.787 272.877a16.594 16.594 0 0 1-16.594-16.594c0-109.015 67.725-176.74 176.74-176.74a16.594 16.594 0 0 1 0 33.189c-89.886 0-143.552 53.665-143.552 143.551a16.594 16.594 0 0 1-16.594 16.594" opacity=".69"/><path fill="#FFF" d="M507.907 466.866a16.598 16.598 0 0 1-10.242-29.662c50.869-39.826 118.266-61.763 189.786-61.763a16.594 16.594 0 0 1 0 33.188c-64.136 0-124.269 19.432-169.322 54.71a16.56 16.56 0 0 1-10.222 3.527"/><path fill="#FFF" d="M433.52 607.455a16.594 16.594 0 0 1-16.594-16.594c0-35.075 10.782-69.877 31.176-100.643a16.594 16.594 0 0 1 27.663 18.337c-17.022 25.675-25.65 53.37-25.65 82.306a16.594 16.594 0 0 1-16.595 16.594" opacity=".54"/><path fill="#6E6E96" d="M503.888 567.235a44.671 44.671 0 1 0 89.342 0 44.671 44.671 0 1 0-89.342 0M639.478 567.235a44.671 44.671 0 1 0 89.342 0 44.671 44.671 0 1 0-89.342 0M866.68 567.231c0 24.672-19.996 44.676-44.676 44.676-24.658 0-44.67-19.992-44.67-44.676 0-24.658 20-44.667 44.67-44.667 24.68 0 44.676 20.009 44.676 44.667"/><path fill="#FFF" d="M105.787 389.617a16.594 16.594 0 0 1-16.594-16.595v-41.485a16.594 16.594 0 0 1 33.188 0v41.485a16.594 16.594 0 0 1-16.594 16.595" opacity=".47"/><path fill="#6E6E96" d="M359.884 485.485S338.69 777.73 652.127 777.73s351.715-148.056 351.715-272.234c0 0 12.666 216.458-88.23 272.234 0 0-40.39 157.885-67.92 185.41s-70.99 24.721-93.769-18.386-22.161-84.61-150.027-99.15c-127.857-14.549-306.24-185.434-244.012-360.12" opacity=".15"/></svg>