<svg xmlns="http://www.w3.org/2000/svg" width="32" height="32" class="icon" viewBox="0 0 1024 1024"><path fill="#FF5E5E" d="M661.178 702.624 853.152 247.11C733.619-29.803 360.522 23.715 321.01 22.837L129.037 478.352c44.81 2.46 391.625-40.768 524.862 223.708"/><path fill="#FFD500" d="m802.97 366.168 50.182-119.062C733.615-29.803 360.522 19.393 321.01 18.52l-51.94 127.553z"/><path fill="#FFB700" d="m269.07 146.073-70.385 167.01c129.839-5.672 400.655 10.435 532.677 222.988l71.082-168.646c-132.94-211.981-404.502-227.21-533.373-221.352"/><path fill="#CF4C4C" d="M309.378 483.752c61.504 8.029 130.304 25.132 193.106 60.442L695.001 77.771c-63.667-33.419-134.06-48.446-196.645-54.65z" opacity=".2"/><path d="M791.738 160.589 594.294 622.423c16.213 19.978 46.844 54.324 59.601 79.637l7.287.556L853.156 247.11c-14.455-33.47-40.6-62.028-61.418-86.521" opacity=".16"/><path fill="#CF4C4C" d="m666.994 64.425-.004.017.569.243c-.19-.083-.375-.173-.565-.26m27.999 13.383-192.509 466.39c-1.363-.774-2.74-1.479-4.115-2.228 61.31 33.563 117.238 84.102 155.522 160.09l7.287.556L853.152 247.11c-35.492-82.216-93.339-135.277-158.159-169.302" opacity=".48"/><path fill="#6E6E96" d="M654.299 721.647c-1.615 0-3.246-.239-4.853-.737a16.5 16.5 0 0 1-17.144-8.885C518.08 485.268 238.675 494.104 146.861 497.016c-11.662.367-20.085.635-25.601.334a16.477 16.477 0 0 1-14.282-22.854l191.974-455.51a16.45 16.45 0 0 1 15.55-10.076c3.143.05 10.537-.383 19.089-.906 44.315-2.719 148.095-9.083 253.836 17.268 133.79 33.345 225.974 106.639 273.984 217.85a16.47 16.47 0 0 1 .053 12.93l-191.97 455.52a16.49 16.49 0 0 1-15.195 10.075M195.06 463.135c119.792 0 342.47 20.102 454.316 211.314l178.957-424.633C783.845 152.099 700.15 87.324 579.46 57.246c-100.818-25.124-201.048-18.974-243.85-16.35-3.947.243-7.39.453-10.39.618L147.15 464.038c12.888-.408 29.143-.903 47.91-.903"/><path fill="#DCDCF2" d="m818.715 217.554-305.9 725.84c-9.276 21.997 1.046 47.335 23.039 56.599 21.993 9.277 47.326-1.046 56.594-23.035l305.904-725.84c9.272-21.993-1.046-47.335-23.039-56.603s-47.33 1.046-56.598 23.039"/><path fill="#6E6E96" d="M552.62 1019.877c-7.984 0-15.773-1.582-23.171-4.705a59.3 59.3 0 0 1-32.102-32.496 59.28 59.28 0 0 1 .285-45.691l305.903-725.832a59.585 59.585 0 0 1 55.017-36.517c7.975 0 15.768 1.581 23.162 4.696a59.32 59.32 0 0 1 32.106 32.5 59.3 59.3 0 0 1-.284 45.687l-305.908 725.84a59.57 59.57 0 0 1-55.009 36.518M858.551 207.59a26.69 26.69 0 0 0-24.65 16.361L527.994 949.796a26.54 26.54 0 0 0-.127 20.46 26.57 26.57 0 0 0 14.38 14.553 26.697 26.697 0 0 0 35.018-14.248l305.908-725.845a26.54 26.54 0 0 0 .123-20.46 26.55 26.55 0 0 0-14.38-14.557 26.5 26.5 0 0 0-10.364-2.11"/><path fill="#6E6E96" d="M875.264 192.287a42.87 42.87 0 0 1-2.933 22.779L566.427 940.911c-9.264 21.988-34.602 32.303-56.598 23.034a43 43 0 0 1-10.076-6.01c2.055 14.554 11.443 27.702 25.968 33.824 21.996 9.272 47.334-1.047 56.602-23.035l305.904-725.845c7.707-18.277 1.85-38.836-12.963-50.592" opacity=".2"/></svg>