<?xml version="1.0" standalone="no"?><!DOCTYPE svg PUBLIC "-//W3C//DTD SVG 1.1//EN" "http://www.w3.org/Graphics/SVG/1.1/DTD/svg11.dtd"><svg t="1719624659624" class="icon" viewBox="0 0 1024 1024" version="1.1" xmlns="http://www.w3.org/2000/svg" p-id="12504" xmlns:xlink="http://www.w3.org/1999/xlink" width="32" height="32"><path d="M661.178048 702.624428l191.973482-455.514797C733.619162-29.802767 360.522299 23.714517 321.010462 22.837117L129.03698 478.351914c44.809191 2.459192 391.625245-40.768208 524.862355 223.708177" fill="#FF5E5E" p-id="12505"></path><path d="M802.970838 366.168286l50.180692-119.062774C733.615042-29.802767 360.522299 19.393424 321.010462 18.520144L269.070851 146.07269l533.899987 220.095596z" fill="#FFD500" p-id="12506"></path><path d="M269.070851 146.07269L198.685243 313.083523c129.83873-5.672206 400.654639 10.434058 532.67657 222.987309l71.081762-168.646175C669.50305 155.443982 397.941557 140.215118 269.070851 146.07269z" fill="#FFB700" p-id="12507"></path><path d="M309.377703 483.75225c61.504507 8.028416 130.304205 25.131538 193.106276 60.441741l192.517223-466.422569c-63.667113-33.419467-134.06096-48.446488-196.644711-54.650077L309.377703 483.75225z" fill="#CF4C4C" opacity=".2" p-id="12508"></path><path d="M791.737646 160.588924l-197.443845 461.833725c16.213364 19.978358 46.8441 54.324656 59.601415 79.637442l7.286951 0.556099 191.973483-455.506559c-14.454445-33.468898-40.599319-62.027652-61.418004-86.520707z" opacity=".16" p-id="12509"></path><path d="M666.994428 64.425055l-0.00412 0.016477 0.568457 0.243036c-0.189485-0.082385-0.374852-0.173008-0.564337-0.259513z m27.998535 13.38344L502.483979 544.19811c-1.363471-0.774419-2.739301-1.47881-4.11513-2.228514 61.310903 33.563641 117.237947 84.102708 155.522247 160.090495l7.286952 0.556099 191.973482-455.506559c-35.49145-82.216092-93.338064-135.276139-158.158567-169.301136z" fill="#CF4C4C" opacity=".48" p-id="12510"></path><path d="M654.298902 721.64712c-1.614746 0-3.245968-0.238916-4.852475-0.737345a16.497592 16.497592 0 0 1-17.144315-8.88522C518.079455 485.268133 238.674912 494.103923 146.86097 497.016232c-11.661594 0.366613-20.085458 0.634364-25.601132 0.333659a16.476996 16.476996 0 0 1-14.281437-22.853594L298.951883 18.985619a16.448161 16.448161 0 0 1 15.550166-10.075683c3.142987 0.049431 10.537039-0.38309 19.0886-0.906235 44.314881-2.718704 148.095242-9.082944 253.836364 17.267892 133.78909 33.345321 225.973764 106.639119 273.983612 217.850605a16.464638 16.464638 0 0 1 0.05355 12.930322l-191.969363 455.518917a16.493473 16.493473 0 0 1-15.19591 10.075683zM195.060303 463.135408c119.791881 0 342.470246 20.101935 454.316096 211.313357l178.956656-424.632788c-44.48789-97.716826-128.182792-162.492017-248.87267-192.570773C478.641765 32.121904 378.412197 38.271943 335.609081 40.895904c-3.946241 0.243036-7.389933 0.453117-10.388746 0.617888L147.149318 464.037524c12.88913-0.407806 29.143687-0.902116 47.910985-0.902116z" fill="#6E6E96" p-id="12511"></path><path d="M818.714608 217.554019L512.815055 943.394535c-9.276549 21.99679 1.046289 47.334291 23.03896 56.598482 21.992671 9.276549 47.326052-1.046289 56.594363-23.034841L898.35205 251.11766c9.27243-21.992671-1.046289-47.334291-23.03896-56.602601s-47.330171 1.046289-56.598482 23.03896z" fill="#DCDCF2" p-id="12512"></path><path d="M552.619359 1019.876632c-7.983105 0-15.772605-1.581792-23.170776-4.704183a59.300709 59.300709 0 0 1-32.101308-32.496755 59.284232 59.284232 0 0 1 0.284228-45.690711L803.535176 211.152706a59.584937 59.584937 0 0 1 55.01669-36.517143c7.974866 0 15.768485 1.581792 23.162537 4.695944a59.317186 59.317186 0 0 1 32.105427 32.500875 59.292471 59.292471 0 0 1-0.284228 45.686591l-305.907792 725.840516a59.57258 59.57258 0 0 1-55.008451 36.517143z m305.932507-812.287077a26.688615 26.688615 0 0 0-24.649586 16.361658L527.994488 949.795848a26.536202 26.536202 0 0 0-0.127697 20.46031 26.569156 26.569156 0 0 0 14.380299 14.553307 26.696853 26.696853 0 0 0 35.017736-14.248483l305.907791-725.844635a26.536202 26.536202 0 0 0 0.123578-20.46031 26.552679 26.552679 0 0 0-14.380299-14.557426 26.523845 26.523845 0 0 0-10.36403-2.109056z" fill="#6E6E96" p-id="12513"></path><path d="M875.263659 192.286545a42.873144 42.873144 0 0 1-2.932905 22.779447l-305.903673 725.844636c-9.264191 21.988551-34.601692 32.303151-56.598481 23.03484a43.079106 43.079106 0 0 1-10.075683-6.009984c2.055505 14.553307 11.443274 27.70195 25.967745 33.823154 21.99679 9.27243 47.334291-1.046289 56.602602-23.034841l305.903672-725.844635c7.707115-18.277108 1.849543-38.83628-12.963277-50.592617z" fill="#6E6E96" opacity=".2" p-id="12514"></path></svg>