<svg xmlns="http://www.w3.org/2000/svg" width="213.281" height="200" class="icon" viewBox="0 0 1092 1024"><path fill="#FF87BB" d="M541.089 221.62C564.879 89.26 707.45 20.858 802.96 23.773c145.28 6.99 273.936 141.295 267.493 299.404a321 321 0 0 1-.775 12.278c-.066 4.85-.014 9.707-.3 14.745-13.485 213.111-150.014 326.77-275.09 391.532-209.292 142.955-256.252 260.243-256.252 260.243S475.473 891.765 303.64 745.71C179.848 624.893 29.29 543.577 22.042 316.739c-.163-5.048.546-9.888.885-14.723.01-4.1.053-8.183.225-12.305 6.421-158.132 148.2-274.39 293.48-267.391 84.791 4.087 193.228 70.442 224.457 199.3"/><path fill="#FFF" d="M164.06 327.775a22.02 22.02 0 0 1-22.021-22.02c0-184.402 145.13-189.559 146.597-189.559a22.02 22.02 0 0 1 .749 44.027c-1.026.053-27.059 1.603-52.166 19.54-33.938 24.25-51.144 66.638-51.144 125.992a22.016 22.016 0 0 1-22.016 22.02" opacity=".66"/><path fill="#EB71A7" d="m529.585 197.169-.105-.295c.03.114.066.237.092.36zM804.613 24.23c114.09 25.596 207.382 136.367 202.154 264.546a295 295 0 0 1-.696 11.072c-.061 4.369-.009 8.746-.273 13.291-12.15 192.1-135.23 294.573-247.982 352.953-188.674 128.87-230.996 200.44-230.996 200.44s-56.399-65.197-211.297-196.86C203.924 560.766 68.205 487.465 61.67 282.986c-.15-4.554.493-8.914.797-13.27.009-3.695.048-7.38.202-11.098 4.598-113.24 86.223-202.594 185.239-231.414C127.678 50.99 24.209 155.167 18.744 289.715a311 311 0 0 0-.225 12.305c-.34 4.836-1.048 9.667-.885 14.723 7.249 226.838 157.805 308.154 281.603 428.962C471.069 891.76 533.633 1001.97 533.633 1001.97s46.955-117.288 256.248-260.243c125.075-64.762 261.609-178.43 275.09-391.532.29-5.038.246-9.896.3-14.745.316-4.065.611-8.165.783-12.278C1072.4 167.27 947.392 34.603 804.613 24.23"/><path fill="#6E6E96" d="M538.037 1019.592a17.63 17.63 0 0 1-15.309-8.901c-.616-1.079-63.568-109.67-230.494-251.559a18 18 0 0 1-.898-.819c-22.994-22.443-47.405-43.921-71.01-64.686C117.2 602.873 10.56 509.032 4.434 317.302c-.15-4.664.242-8.91.59-12.662.101-1.1.207-2.197.29-3.294.014-4.122.067-8.231.238-12.37 3.145-77.441 37.135-149.782 95.709-203.674C157.14 33.889 231.093 4.404 304.152 4.404c4.43 0 8.913.106 13.326.317 81.876 3.95 177.17 59.736 222.77 160.408C589.034 56.935 714.74 6.064 797.037 6.064c2.18 0 4.32.036 6.46.097 75.16 3.612 149.086 39.606 203.115 98.76 55.781 61.076 84.707 138.842 81.444 218.974a327 327 0 0 1-.771 12.331l-.026 3.083a234 234 0 0 1-.295 11.9c-11.213 177.266-106.644 313.717-283.616 405.673-201.77 138.053-248.507 250.524-248.951 251.642a17.63 17.63 0 0 1-16.361 11.068M315.514 732.677c124.757 106.12 192.342 193.065 221.02 234.515 26.667-44.234 94.758-135.455 247.825-240.002.59-.405 1.198-.77 1.836-1.097 165.847-85.878 255.21-212.719 265.608-377.003.193-3.342.211-6.703.233-10.032l.035-3.832a20 20 0 0 1 .058-1.14c.295-3.84.577-7.712.73-11.6 2.885-70.809-22.773-139.626-72.252-193.796-47.801-52.333-112.858-84.156-178.482-87.314-1.471-.044-3.26-.07-5.074-.07-47.105 0-101.363 17.69-145.126 47.325-35.853 24.27-81.17 67.589-93.489 136.111a17.62 17.62 0 0 1-16.81 14.494c-8.192.326-15.687-5.364-17.647-13.459C495.665 108.982 397.817 43.873 315.783 39.914c-67.827-3.268-138.239 23.081-190.669 71.319-51.637 47.51-81.598 111.149-84.363 179.196a294 294 0 0 0-.207 11.626q0 .603-.044 1.198c-.11 1.546-.252 3.092-.392 4.642-.278 2.986-.538 5.804-.458 8.275 5.641 176.492 101.97 261.26 203.96 351.006 23.79 20.933 48.386 42.578 71.904 65.501"/><path fill="#FFF" d="M233.084 463.22a21.97 21.97 0 0 1-15.934-6.817c-28.706-30.08-45.177-58.454-45.868-59.648a22.02 22.02 0 0 1 38.156-21.998c.317.546 14.864 25.35 39.57 51.245a22.02 22.02 0 0 1-15.924 37.219" opacity=".49"/></svg>