<?xml version="1.0" standalone="no"?><!DOCTYPE svg PUBLIC "-//W3C//DTD SVG 1.1//EN" "http://www.w3.org/Graphics/SVG/1.1/DTD/svg11.dtd"><svg t="1718434637830" class="icon" viewBox="0 0 1092 1024" version="1.1" xmlns="http://www.w3.org/2000/svg" p-id="3080" xmlns:xlink="http://www.w3.org/1999/xlink" width="213.28125" height="200"><path d="M541.088657 221.619894c23.790602-132.358895 166.362456-200.76238 261.872782-197.846908 145.280336 6.989205 273.935436 141.294683 267.492332 299.403975a321.054216 321.054216 0 0 1-0.775111 12.278452c-0.066061 4.848844-0.013212 9.706495-0.299474 14.744713-13.485158 213.111297-150.014674 326.770655-275.089294 391.532002-209.292997 142.955005-256.253232 260.243289-256.253232 260.243289s-62.563734-110.210998-234.396002-256.266445C179.847613 624.893056 29.291243 543.576937 22.0422 316.738261c-0.162949-5.047025 0.5461-9.887061 0.885211-14.722692 0.008808-4.100157 0.052848-8.182699 0.224606-12.304876C29.573101 131.57938 171.352228 15.321641 316.632564 22.319654c84.790903 4.086945 193.227074 70.442554 224.456093 199.30024z" fill="#FF87BB" p-id="3081"></path><path d="M164.059145 327.774775a22.020179 22.020179 0 0 1-22.02018-22.02018c0-184.401387 145.130599-189.558513 146.597143-189.558512a22.020179 22.020179 0 0 1 0.748686 44.027147c-1.02614 0.052848-27.058396 1.603069-52.165805 19.540707-33.937501 24.248622-51.144069 66.637467-51.144069 125.990658a22.015775 22.015775 0 0 1-22.015775 22.02018z" fill="#FFFFFF" opacity=".66" p-id="3082"></path><path d="M529.585315 197.168687l-0.105697-0.295071c0.030828 0.114505 0.066061 0.237818 0.092485 0.361131l0.013212-0.06606z m275.027637-172.937682c114.090954 25.596257 207.381646 136.366567 202.154056 264.546032a294.524304 294.524304 0 0 1-0.695838 11.071746c-0.061657 4.368804-0.008808 8.746415-0.27305 13.291381-12.150735 192.099641-135.230326 294.572748-247.982453 352.952648-188.673301 128.870898-230.996086 200.440885-230.996086 200.440885s-56.398084-65.197347-211.296834-196.860404c-111.598269-108.907403-247.317443-182.208177-253.853032-386.687563-0.149737-4.553773 0.493252-8.913769 0.79713-13.26936 0.008808-3.694986 0.048444-7.381164 0.202586-11.098171C67.267244 145.377225 148.891645 56.023741 247.907584 27.20373c-120.23018 23.786198-223.698599 127.963667-229.164007 262.511367a310.678308 310.678308 0 0 0-0.224606 12.304876c-0.339111 4.835631-1.048161 9.666859-0.885211 14.722692 7.249043 226.838676 157.805414 308.154795 281.602862 428.961903 171.832268 146.055446 234.396002 256.266444 234.396002 256.266444s46.955831-117.288284 256.248828-260.243288c125.074619-64.761348 261.60854-178.429514 275.089294-391.532002 0.290666-5.038217 0.246626-9.895869 0.299474-14.744713 0.317091-4.064925 0.612161-8.165083 0.783919-12.278452 6.346216-155.90287-118.662343-288.570047-261.441187-298.941552z" fill="#EB71A7" p-id="3083"></path><path d="M538.03666 1019.59156a17.629356 17.629356 0 0 1-15.308429-8.900556c-0.616565-1.078989-63.567854-109.669302-230.494026-251.55853a17.514851 17.514851 0 0 1-0.898423-0.819151c-22.993471-22.442967-47.405042-43.92145-71.010675-64.686479-103.124904-90.753968-209.764229-184.595164-215.890243-376.324866-0.149737-4.663874 0.242222-8.909365 0.590141-12.661604 0.101293-1.101009 0.20699-2.197614 0.290666-3.294218 0.013212-4.122178 0.066061-8.231143 0.237818-12.370937 3.144482-77.440567 37.134831-149.78126 95.708508-203.673448C157.140404 33.889056 231.092975 4.404036 304.151526 4.404036c4.43046 0 8.913769 0.105697 13.326613 0.31709 81.875431 3.95042 177.16996 59.736343 222.769347 160.4082 48.78791-108.19395 174.492306-159.064968 256.790525-159.064969 2.179998 0 4.320359 0.035232 6.46072 0.096889 75.159276 3.611309 149.085423 39.605495 203.114135 98.760505 55.781519 61.07517 84.707226 138.841635 81.443836 218.973068a326.708998 326.708998 0 0 1-0.770706 12.331301l-0.026425 3.082825a234.277093 234.277093 0 0 1-0.29507 11.899705c-11.212675 177.266848-106.643729 313.717092-283.615507 405.673361-201.770904 138.053313-248.506533 250.523581-248.951341 251.642207a17.629356 17.629356 0 0 1-16.360993 11.067342z m-222.522721-286.91413c124.757529 106.119649 192.341863 193.064125 221.020945 234.514911 26.666437-44.234136 94.757236-135.454932 247.823907-240.00234 0.590141-0.405171 1.197898-0.770706 1.836483-1.096604 165.847183-85.8787 255.209476-212.719337 265.607405-377.003088 0.193778-3.342663 0.211394-6.702943 0.233413-10.032394l0.035233-3.831511a19.774121 19.774121 0 0 1 0.057252-1.140646c0.29507-3.840319 0.576929-7.711467 0.73107-11.60023 2.884644-70.808089-22.77327-139.625554-72.252613-193.795195-47.801406-52.333158-112.857824-84.156722-178.482362-87.314416-1.470948-0.04404-3.258987-0.070465-5.073449-0.070464-47.105568 0-101.36329 17.691012-145.126195 47.325769-35.853256 24.270642-81.170785 67.588739-93.488874 136.111133a17.620548 17.620548 0 0 1-16.810205 14.493682c-8.191507 0.325899-15.687176-5.364116-17.646971-13.458733-28.313547-116.795032-126.162416-181.904298-208.196393-185.863527-67.826557-3.267795-138.238282 23.081552-190.66833 71.318957C73.476935 158.743474 43.516279 222.381792 40.750544 290.428551a293.837274 293.837274 0 0 0-0.20699 11.626654c0 0.400767-0.013212 0.801535-0.04404 1.197898-0.110101 1.545817-0.25103 3.091633-0.391959 4.641854-0.277454 2.985936-0.537292 5.804519-0.45802 8.275183 5.64157 176.491738 101.971047 261.260621 203.95971 351.006064 23.790602 20.932383 48.387142 42.578219 71.904694 65.501226z" fill="#6E6E96" p-id="3084"></path><path d="M233.083599 463.220899a21.967331 21.967331 0 0 1-15.933802-6.817448c-28.705506-30.079565-45.1766-58.454768-45.868033-59.648262a22.020179 22.020179 0 0 1 38.156567-21.998159c0.317091 0.5461 14.863621 25.349631 39.570262 51.245361a22.020179 22.020179 0 0 1-15.924994 37.218508z" fill="#FFFFFF" opacity=".49" p-id="3085"></path></svg>