<svg xmlns="http://www.w3.org/2000/svg" width="32" height="32" class="icon" viewBox="0 0 1024 1024"><path fill="#FFD24A" d="M532.278 976 63.683 507.414V161.777h345.632l468.596 468.595z"/><path fill="#FFF" d="M86.548 221.82h305.531l20.252-49.47L85.5 183.595z" opacity=".24"/><path fill="#6E6E96" d="m547.703 960.575-468.59-468.59a21.8 21.8 0 0 1 6.388 15.429V161.777a21.82 21.82 0 0 1-21.818 21.818h345.632a21.84 21.84 0 0 1-15.43-6.389l468.6 468.595a21.814 21.814 0 0 1 0-30.85L516.848 960.579a21.81 21.81 0 0 1 30.855-.004M893.34 614.946l-468.6-468.595a21.8 21.8 0 0 0-15.429-6.388H63.683a21.82 21.82 0 0 0-21.819 21.818v345.633a21.82 21.82 0 0 0 6.389 15.425L516.848 991.43a21.81 21.81 0 0 0 30.85 0l345.638-345.629a21.814 21.814 0 0 0 .004-30.855"/><path fill="#FFF" d="M181.509 327.149a59.376 59.376 0 1 0 118.751 0 59.376 59.376 0 1 0-118.751 0"/><path fill="#6E6E96" d="M240.884 289.591c20.71 0 37.558 16.848 37.558 37.558s-16.848 37.557-37.558 37.557-37.557-16.848-37.557-37.557 16.848-37.558 37.557-37.558m-81.193 37.558c0 44.77 36.423 81.193 81.193 81.193s81.194-36.423 81.194-81.193-36.423-81.194-81.194-81.194-81.193 36.423-81.193 81.194"/><path fill="#6E6E96" d="M412.33 172.35a297.1 297.1 0 0 0-33.42 137.187c0 143.009 100.599 262.458 234.876 291.612l-.127.017h.205a300.3 300.3 0 0 0 61.449 6.79c40.193 9.146 76.66 30.624 26.207 81.071L814.564 574.58zm391.286 414.578L701.52 689.023 522.91 867.634 121.457 466.182V183.595H63.683L85.5 507.409l462.202 453.166L862.49 645.797z" opacity=".15"/><path fill="#00CCC6" d="M447.741 306.12a231.756 231.756 0 1 0 463.512 0 231.756 231.756 0 1 0-463.512 0"/><path fill="#FFF" d="M688.224 56.91c-127.997 0-231.755 103.763-231.755 231.756 0 128.002 103.758 231.764 231.755 231.764.367 0 .725-.03 1.091-.03-107.008-.598-193.574-87.495-193.574-194.643 0-107.511 87.155-194.665 194.665-194.665 107.515 0 194.661 87.154 194.661 194.665 0 100.328-75.9 182.896-173.406 193.491 116.993-11.756 208.315-110.5 208.315-230.582 0-127.998-103.758-231.756-231.752-231.756" opacity=".24"/><path fill="#6E6E96" d="M679.497 96.183c115.758 0 209.934 94.18 209.934 209.937 0 115.763-94.176 209.947-209.934 209.947-115.753 0-209.937-94.18-209.937-209.947-.005-115.762 94.17-209.937 209.937-209.937M425.92 306.116c0 139.823 113.75 253.578 253.574 253.578 139.819 0 253.57-113.755 253.57-253.578 0-139.819-113.751-253.574-253.57-253.574-139.819.005-253.574 113.755-253.574 253.574"/><path fill="#F5F5F5" d="M815.677 276.61H714.856v-98.291H649.4v98.29H558.67v65.459H649.4v93.255h65.455v-93.255h100.82z"/><path fill="#6E6E96" d="M773.782 86.858c63.578 35.52 106.603 103.452 106.603 181.456 0 114.741-93.015 207.76-207.747 207.76-108.637 0-197.729-83.375-206.923-189.625a235 235 0 0 0-.833 18.956c0 128.002 103.753 231.76 231.755 231.76 127.994 0 231.748-103.758 231.748-231.76 0-100.935-64.551-186.754-154.603-218.547" opacity=".15"/></svg>