<?xml version="1.0" standalone="no"?><!DOCTYPE svg PUBLIC "-//W3C//DTD SVG 1.1//EN" "http://www.w3.org/Graphics/SVG/1.1/DTD/svg11.dtd"><svg t="1716047182715" class="icon" viewBox="0 0 1024 1024" version="1.1" xmlns="http://www.w3.org/2000/svg" p-id="59647" xmlns:xlink="http://www.w3.org/1999/xlink" width="32" height="32"><path d="M532.277703 976.000273L63.682547 507.413844V161.776535h345.632946L877.910648 630.371691z" fill="#FFD24A" p-id="59648"></path><path d="M86.547872 221.819831h305.531355l20.251521-49.470265-326.830143 11.245027z" fill="#FFFFFF" opacity=".24" p-id="59649"></path><path d="M547.70307 960.574906L79.112278 491.984114a21.809331 21.809331 0 0 1 6.388327 15.42973V161.776535a21.818058 21.818058 0 0 1-21.818058 21.818058h345.632946a21.835512 21.835512 0 0 1-15.429731-6.388327l468.599519 468.595156a21.813694 21.813694 0 0 1 0-30.850734l-345.637309 345.628581a21.809331 21.809331 0 0 1 30.855098-0.004363z m345.637309-345.628582L424.740859 146.351168a21.809331 21.809331 0 0 0-15.42973-6.388327H63.682547a21.818058 21.818058 0 0 0-21.818058 21.818058v345.632945a21.818058 21.818058 0 0 0 6.388328 15.425367l468.595155 468.590792a21.809331 21.809331 0 0 0 30.850734 0l345.637309-345.628581a21.813694 21.813694 0 0 0 0.004364-30.855098z" fill="#6E6E96" p-id="59650"></path><path d="M240.88445 327.148687m-59.375663 0a59.375663 59.375663 0 1 0 118.751325 0 59.375663 59.375663 0 1 0-118.751325 0Z" fill="#FFFFFF" p-id="59651"></path><path d="M240.88445 289.591082c20.709701 0 37.557605 16.847904 37.557604 37.557605 0 20.709701-16.847904 37.557605-37.557604 37.557604-20.709701 0-37.557605-16.847904-37.557605-37.557604 0-20.709701 16.847904-37.557605 37.557605-37.557605z m-81.193721 37.557605c0 44.770655 36.423066 81.19372 81.193721 81.19372s81.19372-36.423066 81.19372-81.19372-36.423066-81.19372-81.19372-81.193721-81.19372 36.423066-81.193721 81.193721z" fill="#6E6E96" p-id="59652"></path><path d="M412.330748 172.349566a297.109585 297.109585 0 0 0-33.420901 137.187584c0 143.008642 100.598701 262.458145 234.875756 291.611434l-0.126544 0.017455h0.205089a300.286294 300.286294 0 0 0 61.448379 6.789779c40.193226 9.14613 76.659928 30.623826 26.207851 81.07154l113.043721-114.448804-402.233351-402.228988z m391.28505 414.578008l-102.09542 102.09542-178.611349 178.611349-401.452265-401.452264v-282.587486H63.682547l21.818058 323.814888 462.202465 453.165425 314.786575-314.777848-58.873847-58.869484z" fill="#6E6E96" opacity=".15" p-id="59653"></path><path d="M679.49723 306.120442m-231.755774 0a231.755774 231.755774 0 1 0 463.511548 0 231.755774 231.755774 0 1 0-463.511548 0Z" fill="#00CCC6" p-id="59654"></path><path d="M688.224453 56.910222c-127.997818 0-231.755774 103.76232-231.755774 231.755774 0 128.002182 103.757956 231.764501 231.755774 231.764502 0.366543 0 0.72436-0.030545 1.090903-0.030546-107.008847-0.597815-193.574173-87.494776-193.574173-194.643257 0-107.510662 87.154414-194.665076 194.665076-194.665076 107.515025 0 194.660712 87.154414 194.660712 194.665076 0 100.328157-75.90066 182.896415-173.40556 193.491264 116.99279-11.75557 208.314453-110.499736 208.314453-230.581963 0-127.997818-103.757956-231.755774-231.751411-231.755774z" fill="#FFFFFF" opacity=".24" p-id="59655"></path><path d="M679.49723 96.182726c115.757888 0 209.933353 94.179829 209.933353 209.937716 0 115.762251-94.175465 209.946443-209.933353 209.946444-115.753524 0-209.937716-94.179829-209.937716-209.946444-0.004364-115.762251 94.171101-209.937716 209.937716-209.937716z m-253.578195 209.933353c0 139.823206 113.750626 253.578196 253.573832 253.578195 139.818842 0 253.569468-113.75499 253.569468-253.578195 0-139.818842-113.750626-253.573832-253.569468-253.573832-139.818842 0.004364-253.573832 113.75499-253.573832 253.573832z" fill="#6E6E96" p-id="59656"></path><path d="M815.67682 276.609337h-100.821245V178.318987h-65.454174V276.609337H558.668826v65.458538h90.732575v93.254742h65.454174V342.067875h100.821245z" fill="#F5F5F5" p-id="59657"></path><path d="M773.781785 86.857688c63.577821 35.519798 106.603031 103.452503 106.603031 181.456424 0 114.741166-93.014744 207.760274-207.747183 207.760274-108.636474 0-197.728331-83.375526-206.922461-189.625104a234.727394 234.727394 0 0 0-0.83345 18.955528c0 128.002182 103.753592 231.760138 231.755774 231.760138 127.993455 0 231.747047-103.757956 231.747047-231.760138 0-100.934699-64.550906-186.753848-154.602758-218.547122z" fill="#6E6E96" opacity=".15" p-id="59658"></path></svg>