<?xml version="1.0" standalone="no"?><!DOCTYPE svg PUBLIC "-//W3C//DTD SVG 1.1//EN" "http://www.w3.org/Graphics/SVG/1.1/DTD/svg11.dtd"><svg t="1716011203608" class="icon" viewBox="0 0 1033 1024" version="1.1" xmlns="http://www.w3.org/2000/svg" p-id="4463" xmlns:xlink="http://www.w3.org/1999/xlink" width="32.28125" height="32"><path d="M504.93095 16.812309c-11.757299 0.574242-33.76294 6.781929-49.020184 41.923889L378.50121 236.99027c-15.852444 36.491639-62.223568 73.767099-101.267863 81.395721l-190.728126 37.283843c-37.598209 7.347788-48.38726 27.509147-51.484816 38.864057-3.089173 11.354911-3.986165 34.203053 24.717574 59.5787l145.601893 128.714135c29.810308 26.348087 50.92734 81.969963 46.119631 121.466945l-23.485258 192.899349c-4.627472 38.025747 11.199823 54.52369 21.049967 60.974486 9.850144 6.442413 31.3025 14.360252 64.302577-5.1095l167.402148-98.698441c34.270118-20.211657 93.697922-23.11221 129.770406-6.337625l176.225361 81.96158c34.73538 16.154236 55.315893 6.195112 64.499581-1.186208 9.171113-7.377129 23.325979-25.337923 15.018326-62.730747l-42.146042-189.726345c-8.630403-38.838908 6.97474-96.258959 34.08569-125.377662l132.390125-142.252843c26.100786-28.041473 22.97808-50.696804 18.803296-61.699625-4.183167-11.007012-16.879374-30.015694-55.014101-33.674917l-193.448443-18.539229c-39.597578-3.797545-89.389008-36.391042-108.720439-71.164146l-94.397911-169.866779c-18.589527-33.490489-41.106537-37.522761-52.863836-36.95271z" fill="#FFD84A" p-id="4464"></path><path d="M274.211239 982.130601c-15.860827 0-27.442082-5.398717-34.362331-9.925592-13.11117-8.588487-34.236585-30.003119-28.515119-77.032316l23.485258-192.89935c4.158018-34.152754-14.804557-84.095079-40.578401-106.880348l-145.606085-128.714136c-35.498242-31.382139-33.901261-61.427174-29.78935-76.541905 4.128677-15.127306 17.985944-41.840058 64.449282-50.918957l190.723935-37.283842c33.76294-6.593309 75.397612-40.062841 89.103982-71.621025L440.531967 52.059058C459.398136 8.605253 488.466539 0.829927 504.109406 0.067065c0.901183-0.046107 1.840091-0.067065 2.816722-0.067065 15.014134 0 43.487337 5.926853 65.52651 45.633411l94.397911 169.858396c16.715904 30.070184 61.418791 59.331399 95.663759 62.617574l193.448443 18.539229c47.142369 4.526875 63.518758 29.768392 69.085137 44.409478 5.557996 14.653661 10.063913 44.405287-22.206835 79.077794l-132.390126 142.252843c-23.439151 25.182836-37.455696 76.730525-29.986353 110.321612l42.146042 189.726346c10.27349 46.241186-8.672318 69.613272-20.878114 79.429883-7.708262 6.195112-20.94937 13.576432-40.293376 13.576433h-0.004191c-13.098596-0.004192-27.157056-3.449646-41.777185-10.252533l-176.225361-81.96158c-12.972849-6.031641-30.615085-9.351349-49.674066-9.35135-24.54572 0-48.663902 5.578954-64.512155 14.930304l-167.402148 98.698441c-16.447645 9.70344-32.471942 14.62432-47.632781 14.62432zM506.926128 33.532405c-0.414964 0-0.808969 0.008383-1.186209 0.025149-7.863349 0.385623-22.806227 5.038244-34.450354 31.855784L393.880009 243.66741c-18.061391 41.580182-68.946816 82.481332-113.431742 91.170417L89.724332 372.125861c-28.682781 5.604103-36.449724 19.209876-38.528733 26.821732-2.066434 7.590898-2.263437 23.233765 19.649989 42.602921l145.601893 128.714135c33.959943 30.019885 57.135026 91.057245 51.656669 136.057732l-23.485258 192.89935c-3.533477 29.026488 6.999889 40.607742 13.593199 44.920847 3.101747 2.02871 8.399867 4.451427 15.999148 4.451427 9.08309 0 19.38173-3.357432 30.59832-9.97589l167.402147-98.698442c21.096074-12.444714 50.818359-19.578733 81.546617-19.578733 24.189438 0 46.249569 4.313106 63.812166 12.482438l176.225361 81.96158c10.16451 4.728069 19.465561 7.121444 27.639085 7.125636h0.004191c9.586076 0 15.776996-3.361624 19.285325-6.178346 6.140622-4.941838 15.496163-17.487149 9.158538-46.023225l-42.150233-189.730537c-9.833378-44.262774 7.293298-107.26178 38.180834-140.437903l132.390125-142.252844c19.914057-21.397866 18.199713-36.956902 15.399757-44.329839-2.795764-7.360363-11.836939-20.140401-40.938874-22.931973l-193.448443-18.539228c-45.122042-4.329872-99.746329-40.083798-121.772928-79.710718L543.141125 61.913394C532.976615 43.608892 520.121129 33.532405 506.926128 33.532405z" fill="#6E6E96" p-id="4465"></path><path d="M397.132652 296.816272c-9.724397 22.391263-3.558626 54.833865 13.702179 72.09467l85.26033 85.26033c17.256614 17.264997 30.527063 11.43455 29.487559-12.956083l-15.19018-356.503952c-1.039505-24.38225-9.841761-26.021146-19.566158-3.629882L397.132652 296.816272z" fill="#FFFF66" p-id="4466"></path><path d="M958.129783 386.96395c16.627881-17.86858 11.019586-27.027118-12.46148-20.345786l-375.512634 106.796517c-23.489449 6.67714-24.419974 20.211657-2.087393 30.074376l158.998089 70.22943c22.324198 9.86691 54.200941 3.315517 70.82463-14.565639l160.238788-172.188898z" fill="#8F0000" opacity=".05" p-id="4467"></path><path d="M530.059296 529.862293c-1.43351-24.369675 9.233986-28.213327 23.690644-8.54238l257.868383 350.824401c14.456658 19.662564 8.177715 27.333101-13.945289 17.042844l-213.287051-99.188853c-22.135579-10.29864-41.408328-38.658671-42.837647-63.019963l-11.48904-197.116049z" fill="#8F0000" opacity=".12" p-id="4468"></path><path d="M505.123761 523.901908c12.298009-21.091883 5.046627-28.372606-16.103937-16.179385l-146.347989 84.371721c-21.146373 12.193221-40.867618 41.986762-43.814278 66.218117l-28.414522 233.47775c-2.955043 24.231354 4.690345 26.800774 16.97578 5.713084l217.704946-373.601287zM105.136663 407.716317c-24.009202-4.426277-24.042734-11.874663-0.088022-16.560816l230.841265-45.117851c23.954712-4.681962 57.679928 5.612486 74.940733 22.873292l85.260331 85.26033c17.256614 17.264997 11.740533 27.769023-12.264477 23.338554L105.136663 407.716317zM570.155669 473.414681c-23.485258 6.681332-29.718094-3.047257-13.86565-21.59906l80.750222-94.506891c15.856636-18.564378 48.710009-31.84321 73.008428-29.512708l234.131633 22.441562c24.30261 2.330502 24.964875 9.699248 1.483809 16.38058l-375.508442 106.796517z" fill="#FFFF66" p-id="4469"></path></svg>