<svg xmlns="http://www.w3.org/2000/svg" width="32.281" height="32" class="icon" viewBox="0 0 1033 1024"><path fill="#FFD84A" d="M504.93 16.812c-11.756.575-33.762 6.782-49.02 41.924L378.502 236.99c-15.852 36.492-62.223 73.767-101.268 81.396L86.505 355.67c-37.598 7.348-48.387 27.509-51.485 38.864-3.089 11.355-3.986 34.203 24.718 59.579L205.34 582.827c29.81 26.348 50.927 81.97 46.12 121.467l-23.486 192.899c-4.627 38.026 11.2 54.524 21.05 60.975 9.85 6.442 31.303 14.36 64.303-5.11l167.402-98.698c34.27-20.212 93.698-23.113 129.77-6.338l176.226 81.962c34.735 16.154 55.316 6.195 64.5-1.187 9.17-7.377 23.325-25.338 15.018-62.73L824.097 676.34c-8.63-38.839 6.974-96.259 34.085-125.377l132.39-142.253c26.101-28.042 22.978-50.697 18.804-61.7-4.183-11.007-16.88-30.016-55.014-33.675l-193.449-18.54c-39.597-3.797-89.389-36.39-108.72-71.163L557.795 53.765c-18.59-33.49-41.107-37.523-52.864-36.953"/><path fill="#6E6E96" d="M274.211 982.13c-15.86 0-27.442-5.398-34.362-9.925-13.111-8.588-34.237-30.003-28.515-77.032l23.485-192.9c4.158-34.152-14.805-84.095-40.578-106.88L48.635 466.679c-35.499-31.382-33.902-61.427-29.79-76.542 4.129-15.127 17.986-41.84 64.45-50.919l190.723-37.284c33.763-6.593 75.398-40.063 89.104-71.62l77.41-178.255C459.398 8.605 488.467.83 504.109.067Q505.461 0 506.926 0c15.014 0 43.487 5.927 65.527 45.633l94.398 169.859c16.715 30.07 61.418 59.331 95.663 62.617l193.449 18.54c47.142 4.526 63.519 29.768 69.085 44.41 5.558 14.653 10.064 44.404-22.207 79.077l-132.39 142.253c-23.44 25.183-37.456 76.73-29.986 110.321l42.146 189.727c10.273 46.24-8.673 69.613-20.878 79.43-7.709 6.195-20.95 13.576-40.294 13.576h-.004c-13.099-.004-27.157-3.45-41.777-10.253L603.432 863.23c-12.972-6.032-30.615-9.351-49.674-9.351-24.545 0-48.664 5.578-64.512 14.93l-167.402 98.698c-16.448 9.704-32.472 14.625-47.633 14.625M506.926 33.533q-.622 0-1.186.026c-7.863.385-22.806 5.038-34.45 31.855l-77.41 178.254c-18.061 41.58-68.947 82.482-113.432 91.17L89.724 372.127c-28.682 5.604-36.45 19.21-38.528 26.822-2.067 7.59-2.264 23.233 19.65 42.603l145.601 128.714c33.96 30.02 57.136 91.057 51.657 136.057l-23.485 192.9c-3.534 29.026 7 40.607 13.593 44.92 3.102 2.03 8.4 4.452 16 4.452 9.082 0 19.381-3.357 30.598-9.976l167.402-98.698c21.096-12.445 50.818-19.58 81.546-19.58 24.19 0 46.25 4.314 63.812 12.483l176.226 81.962c10.164 4.728 19.465 7.121 27.639 7.126h.004c9.586 0 15.777-3.362 19.285-6.179 6.141-4.942 15.497-17.487 9.159-46.023l-42.15-189.73c-9.834-44.263 7.293-107.262 38.18-140.438l132.39-142.253c19.915-21.398 18.2-36.957 15.4-44.33-2.795-7.36-11.836-20.14-40.938-22.932l-193.449-18.54c-45.122-4.33-99.746-40.083-121.773-79.71L543.141 61.913c-10.164-18.304-23.02-28.38-36.215-28.38"/><path fill="#FF6" d="M397.133 296.816c-9.725 22.392-3.559 54.834 13.702 72.095l85.26 85.26c17.257 17.265 30.527 11.435 29.488-12.956l-15.19-356.504c-1.04-24.382-9.842-26.02-19.567-3.63z"/><path fill="#8F0000" d="M958.13 386.964c16.628-17.869 11.02-27.027-12.462-20.346L570.156 473.415c-23.49 6.677-24.42 20.211-2.088 30.074l158.998 70.23c22.325 9.866 54.201 3.315 70.825-14.566z" opacity=".05"/><path fill="#8F0000" d="M530.06 529.862c-1.434-24.37 9.233-28.213 23.69-8.542l257.868 350.824c14.457 19.663 8.178 27.333-13.945 17.043l-213.287-99.189c-22.136-10.298-41.408-38.658-42.838-63.02z" opacity=".12"/><path fill="#FF6" d="M505.124 523.902c12.298-21.092 5.046-28.373-16.104-16.18l-146.348 84.372c-21.147 12.193-40.868 41.987-43.814 66.218L270.443 891.79c-2.955 24.231 4.69 26.8 16.976 5.713zM105.137 407.716c-24.01-4.426-24.043-11.874-.088-16.56l230.84-45.118c23.956-4.682 57.68 5.612 74.942 22.873l85.26 85.26c17.257 17.265 11.74 27.77-12.265 23.339zm465.019 65.699c-23.486 6.681-29.718-3.048-13.866-21.6l80.75-94.506c15.857-18.565 48.71-31.843 73.009-29.513l234.131 22.442c24.303 2.33 24.965 9.699 1.484 16.38z"/></svg>