<svg xmlns="http://www.w3.org/2000/svg" width="32" height="32" class="icon" viewBox="0 0 1024 1024"><path fill="#FFD95F" d="M466.035 113.77c26.923-54.566 70.996-54.562 97.935 0l62.17 125.99c26.926 54.574 98.23 106.377 158.457 115.117l139.03 20.202c60.208 8.753 73.83 50.667 30.262 93.147l-100.606 98.05c-43.561 42.472-70.808 126.308-60.523 186.282l23.761 138.47c10.285 59.969-25.37 85.876-79.233 57.552l-124.354-65.368c-53.871-28.324-142.005-28.324-195.867 0L292.721 948.58c-53.867 28.324-89.523 2.417-79.237-57.553l23.76-138.469c10.281-59.982-16.957-143.806-60.534-186.282L76.112 468.218c-43.582-42.467-29.962-84.386 30.261-93.14l139.03-20.2c60.216-8.746 131.52-60.544 158.454-115.119z"/><path fill="#6E6E96" d="M777.04 978.498c-14.914 0-31.167-4.576-48.337-13.6l-124.346-65.367c-23.118-12.153-55.69-19.129-89.355-19.129-33.669 0-66.24 6.976-89.354 19.129l-124.35 65.364c-17.158 9.023-33.424 13.598-48.333 13.598-18.182 0-33.489-6.75-44.262-19.533-9.69-11.502-19.881-33.158-13.385-71.054l23.76-138.465c9.245-53.944-16.047-131.78-55.234-169.968L63.246 481.411c-35.578-34.668-33.104-63.816-28.459-78.102 4.641-14.291 19.772-39.33 68.94-46.474l139.03-20.201C296.904 328.77 363.11 280.67 387.33 231.6l62.181-125.989c21.98-44.544 50.467-51.196 65.487-51.196 15.024 0 43.512 6.652 65.495 51.196l62.17 125.993c24.223 49.074 90.43 97.174 144.58 105.034l139.035 20.201c49.152 7.144 64.278 32.183 68.927 46.47 4.64 14.286 7.115 43.434-28.447 78.114l-100.606 98.05c-39.174 38.2-64.47 116.04-55.222 169.968l23.765 138.465c6.496 37.896-3.69 59.552-13.39 71.054-10.78 12.775-26.083 19.538-44.265 19.538M514.99 843.534c40.034 0 77.87 8.29 106.52 23.36l124.343 65.368c11.657 6.128 22.442 9.367 31.175 9.367 7.172 0 12.427-2.109 16.076-6.43 6.484-7.697 8.397-22.655 5.235-41.054l-23.76-138.466c-11.212-65.392 18.32-156.279 65.822-202.6l100.606-98.054c15.319-14.938 22.462-30.016 19.12-40.325-3.35-10.31-18.002-18.306-39.166-21.382l-139.03-20.201c-66.77-9.687-142.468-64.684-172.332-125.198l-62.173-125.993c-9.47-19.19-21.598-30.647-32.44-30.647s-22.962 11.457-32.428 30.647l-62.181 125.993c-29.86 60.51-105.558 115.507-172.323 125.198l-139.03 20.201c-21.181 3.076-35.828 11.072-39.179 21.382-3.346 10.31 3.801 25.378 19.128 40.316l100.602 98.063c48.317 47.096 77.234 136.09 65.835 202.6l-23.76 138.466c-3.159 18.403-1.25 33.366 5.234 41.054 3.65 4.33 8.905 6.43 16.077 6.43 8.745 0 19.53-3.24 31.179-9.367l124.346-65.368c28.647-15.061 66.474-23.36 106.504-23.36"/><path fill="#6E6E96" d="M229.425 770.159 209.388 886.93c-4.064 23.684-.934 42.03 7.63 53.846l16.13-94.007c3.978-23.22 2.315-50.016-3.723-76.611M82.133 473.989c5.992-2.027 12.71-3.617 20.14-4.698l139.03-20.201c60.216-8.745 131.519-15.487 158.454-70.063l62.178-125.988c26.923-54.567 71-54.563 97.93 0l62.17 125.988c26.935 54.576 98.23 61.322 158.462 70.063l139.03 20.201c7.435 1.081 14.152 2.67 20.149 4.702l10.117-9.859c43.573-42.475 29.95-84.394-30.261-93.147L780.5 350.786c-60.223-8.741-131.527-60.543-158.458-115.119L559.874 109.68c-26.927-54.563-71.004-54.567-97.935 0L399.76 235.667c-26.935 54.576-98.238 106.374-158.453 115.119l-139.03 20.197c-60.224 8.753-73.844 50.667-30.262 93.139zm710.25 296.17c-6.041 26.59-7.704 53.391-3.723 76.607l16.13 94.007c8.56-11.82 11.69-30.158 7.631-53.846z" opacity=".1"/></svg>