<?xml version="1.0" standalone="no"?><!DOCTYPE svg PUBLIC "-//W3C//DTD SVG 1.1//EN" "http://www.w3.org/Graphics/SVG/1.1/DTD/svg11.dtd"><svg t="1716046921575" class="icon" viewBox="0 0 1024 1024" version="1.1" xmlns="http://www.w3.org/2000/svg" p-id="38829" xmlns:xlink="http://www.w3.org/1999/xlink" width="32" height="32"><path d="M466.034688 113.770496c26.923008-54.566912 70.995968-54.562816 97.93536 0l62.169088 125.988864c26.927104 54.575104 98.230272 106.377216 158.457856 115.11808l139.030528 20.201472c60.207104 8.753152 73.8304 50.66752 30.261248 93.147136l-100.605952 98.050048c-43.56096 42.471424-70.807552 126.308352-60.522496 186.281984l23.760896 138.469376c10.285056 59.969536-25.370624 85.876736-79.233024 57.552896l-124.35456-65.368064c-53.870592-28.32384-142.004224-28.32384-195.866624 0l-124.346368 65.368064c-53.866496 28.32384-89.522176 2.41664-79.23712-57.552896l23.760896-138.469376c10.28096-59.981824-16.95744-143.806464-60.534784-186.281984l-100.59776-98.05824c-43.58144-42.467328-29.96224-84.385792 30.261248-93.138944l139.030528-20.201472c60.215296-8.74496 131.518464-60.542976 158.45376-115.11808l62.17728-125.988864z" fill="#FFD95F" p-id="38830"></path><path d="M777.039872 978.497536c-14.913536 0-31.166464-4.575232-48.336896-13.59872l-124.346368-65.368064c-23.117824-12.152832-55.689216-19.12832-89.35424-19.12832-33.66912 0-66.240512 6.975488-89.35424 19.12832L301.297664 964.89472c-17.158144 9.023488-33.42336 13.59872-48.3328 13.59872-18.182144 0-33.488896-6.750208-44.261376-19.533824-9.691136-11.501568-19.881984-33.15712-13.385728-71.053312l23.760896-138.46528c9.244672-53.94432-16.048128-131.780608-55.23456-169.967616l-100.59776-98.062336c-35.577856-34.668544-33.103872-63.81568-28.459008-78.102528 4.640768-14.290944 19.771392-39.329792 68.939776-46.473216l139.030528-20.201472c54.145024-7.86432 120.352768-55.963648 144.572416-105.033728l62.181376-125.988864c21.979136-44.544 50.466816-51.195904 65.486848-51.195904 15.024128 0 43.511808 6.651904 65.49504 51.195904l62.169088 125.99296c24.223744 49.074176 90.431488 97.173504 144.580608 105.033728l139.034624 20.201472c49.152 7.143424 64.278528 32.182272 68.927488 46.46912 4.640768 14.286848 7.114752 43.433984-28.44672 78.114816l-100.605952 98.050048c-39.174144 38.199296-64.47104 116.03968-55.222272 169.967616l23.764992 138.46528c6.496256 37.896192-3.690496 59.551744-13.389824 71.053312-10.780672 12.775424-26.083328 19.53792-44.265472 19.53792z m-262.049792-134.9632c40.034304 0 77.869056 8.290304 106.520576 23.359488l124.342272 65.368064c11.657216 6.127616 22.441984 9.367552 31.174656 9.367552 7.172096 0 12.427264-2.10944 16.0768-6.43072 6.483968-7.696384 8.3968-22.654976 5.234688-41.054208l-23.760896-138.46528c-11.210752-65.39264 18.321408-156.278784 65.82272-202.600448l100.605952-98.054144c15.31904-14.938112 22.462464-30.015488 19.120128-40.32512-3.350528-10.309632-18.00192-18.305024-39.165952-21.38112l-139.030528-20.201472c-66.768896-9.68704-142.467072-64.684032-172.331008-125.198336l-62.173184-125.99296c-9.469952-19.18976-21.598208-30.646272-32.44032-30.646272s-22.962176 11.456512-32.428032 30.646272l-62.181376 125.99296C390.516736 308.4288 314.81856 363.425792 248.05376 373.116928l-139.030528 20.201472c-21.180416 3.076096-35.827712 11.071488-39.17824 21.38112-3.346432 10.309632 3.801088 25.378816 19.12832 40.316928l100.601856 98.062336c48.316416 47.095808 77.234176 136.0896 65.835008 202.600448l-23.760896 138.46528c-3.158016 18.403328-1.24928 33.366016 5.234688 41.054208 3.649536 4.329472 8.904704 6.43072 16.0768 6.43072 8.74496 0 19.529728-3.239936 31.178752-9.367552l124.346368-65.368064c28.647424-15.060992 66.473984-23.359488 106.504192-23.359488z" fill="#6E6E96" p-id="38831"></path><path d="M229.425152 770.158592l-20.037632 116.772864c-4.063232 23.683072-0.933888 42.029056 7.630848 53.846016l16.130048-94.007296c3.977216-23.220224 2.31424-50.016256-3.723264-76.611584zM82.132992 473.98912c5.992448-2.02752 12.709888-3.616768 20.140032-4.698112l139.030528-20.201472c60.215296-8.74496 131.518464-15.486976 158.45376-70.06208l62.17728-125.988864c26.923008-54.566912 71.000064-54.562816 97.931264 0l62.169088 125.988864c26.935296 54.575104 98.230272 61.321216 158.461952 70.06208l139.030528 20.201472c7.43424 1.081344 14.15168 2.670592 20.148224 4.702208l10.11712-9.859072c43.573248-42.47552 29.949952-84.393984-30.261248-93.147136l-139.030528-20.201472c-60.223488-8.740864-131.526656-60.542976-158.457856-115.11808l-62.169088-125.988864c-26.927104-54.562816-71.00416-54.566912-97.93536 0l-62.17728 125.988864c-26.935296 54.575104-98.238464 106.37312-158.45376 115.11808L102.27712 370.982912c-60.223488 8.753152-73.842688 50.66752-30.261248 93.138944l10.11712 9.867264zM792.383488 770.158592c-6.0416 26.591232-7.704576 53.39136-3.723264 76.607488l16.130048 94.007296c8.56064-11.821056 11.689984-30.158848 7.630848-53.846016l-20.037632-116.768768z" fill="#6E6E96" opacity=".1" p-id="38832"></path></svg>