<svg xmlns="http://www.w3.org/2000/svg" width="33.563" height="32" class="icon" viewBox="0 0 1074 1024"><path fill="#FFBF00" d="M193.896 726.182a17.234 17.234 0 0 0 12.198 19.951c6.167 1.746 151.739 44.975 216.046 237 .288.86.645 1.703 1.066 2.507 6.667 12.714 24.907 27.943 47.955 17.806l38.674-17.044c19.263-8.512 21.534-22.847 21.534-29.1v-.447c-.142-8.116-4.331-17.23-9.772-22.842.387.421.826.73 1.166 1.165-45.58-61.197-167.02-205.41-309.964-222.712a17.216 17.216 0 0 0-18.903 13.716m321.47 203.332c2.158.856 4.004 2.267 5.642 3.897-1.793-1.72-3.694-3.123-5.643-3.897"/><path fill="#6E6E96" d="M456.198 1023.957c-23.857 0-40.888-16.339-48.221-30.33a35 35 0 0 1-2.138-5.006c-61.455-183.514-198.623-224.29-204.433-225.938-17.19-4.89-27.887-22.412-24.373-39.895 3.492-17.341 19.848-29.53 37.809-27.396 149.584 18.106 274.821 166.542 321.727 229.516l-.052.043c7.402 9.057 11.87 20.76 12.06 31.607l.004.748c0 7.226-2.292 31.805-31.788 44.837l-38.686 17.049c-7.204 3.16-14.571 4.765-21.909 4.765M210.734 729.549c6.576 1.88 160.574 47.606 227.723 248.118 2.499 4.765 9.294 11.883 17.741 11.883 2.542 0 5.247-.628 8.043-1.854l38.66-17.04c9.312-4.111 11.269-9.535 11.269-13.354v-.447c-.056-3.075-2.241-8.06-4.864-10.804l-.267-.284c-.456-.434-.697-.593-.701-.598q.002.009.185.108l-.1-.078s.194.138.56.284l.03.013.03-.073-.013.013.017-.052-.086.07c-44.243-59.413-161.893-199.398-298.227-215.905"/><path fill="#FFF" d="M212.803 18.88c-1.815.861-44.85 21.746-73.3 65.542-36.054 55.503-42.067 104.511-16.937 137.98a15.3 15.3 0 0 0 1.858 2.09c2.848 2.732 71.322 65.258 208.696-69.217a17.19 17.19 0 0 0 4.59-16.662 17.15 17.15 0 0 0-12.19-12.258c-2.417-.645-47.378-12.339-90.159-8.43 4.06-12.954 7.415-28.923 7.415-46.973 0-12.985-1.708-26.971-6.086-41.508a17.26 17.26 0 0 0-9.526-10.778 17.17 17.17 0 0 0-14.36.215"/><path fill="#6E6E96" d="M175.76 258.573c-38.708 0-59.477-18.046-63.25-21.668a32.6 32.6 0 0 1-3.758-4.24c-29.74-39.603-23.965-95.605 16.317-157.61 31.238-48.08 78.38-70.78 80.371-71.722a34.78 34.78 0 0 1 28.7-.391 34.45 34.45 0 0 1 19.01 21.504 161 161 0 0 1 6.83 46.51c0 9.6-.856 19.294-2.555 29 37.594.568 71.08 9.398 72.534 9.78a34.429 34.429 0 1 1 15.212 57.813c-61.705 60.402-118.695 91.024-169.411 91.024m44.458-224.166c-.452.215-40.394 19.526-66.29 59.39-31.83 49.005-38.084 91.012-17.603 118.28.503.464 13.311 12.093 39.435 12.093 28.463 0 76.779-14.085 145.326-81.183-.327-.09-32.79-8.65-67.407-8.65-5.837 0-11.47.246-16.748.728l-25.706 2.348 7.72-24.631c4.395-14.021 6.627-28.093 6.627-41.826 0-12.451-1.797-24.747-5.354-36.549"/><path fill="#FFF6C7" d="M199.866 125.814c-.58.24-1.036.64-1.578.937-46.566 18.283-74.6 49.396-74.969 83.833l.19-2.086c-.082.37-.822 6.137-.822 6.137-.809 6.318 2.077 10.52 7.273 14.197 17.431 12.322 83.579 43.452 203.096-73.545a17.204 17.204 0 1 0-7.579-28.914c-3.118-.839-76.92-20.24-125.611-.56"/><path fill="#6E6E96" d="M175.738 259.17h-.008c-28.412 0-47.09-10.21-55.701-16.29-13.866-9.815-15.488-21.961-14.408-30.425l.546-4.155c1.471-40.2 32.863-76.297 84.297-96.955.723-.438 1.66-.946 2.783-1.415 16.657-6.73 36.871-10.111 60.26-10.111 39.026 0 74.925 9.53 76.435 9.94a34.48 34.48 0 0 1 24.356 24.501 34.43 34.43 0 0 1-9.217 33.324c-62.075 60.771-119.057 91.587-169.343 91.587m-35.732-44.303c5.316 3.73 16.95 9.897 35.724 9.897h.004c28.17 0 76.241-14.184 145.283-81.773-1.337-.365-32.974-8.765-67.51-8.765-18.365 0-33.844 2.383-46.046 7.08a18 18 0 0 1-.886.515l-2.008.942c-39.409 15.475-63.343 40.622-64.04 67.279l.103.017-.18 1.991-.082-.004z"/><path fill="#FFDF6B" d="M88.607 165.73a17.2 17.2 0 0 0-12.62 6.881c-1.203 1.613-29.546 40.15-34.316 92.164-6.012 65.91 11.484 112.072 49.336 129.972.825.405 1.703.736 2.602.985 3.789 1.084 93.505 24.48 152.405-158.504 1.884-5.88.474-12.322-3.685-16.885s-10.473-6.534-16.494-5.162c-2.443.56-47.723 11.131-83.756 34.536-4.49-24.183-15.633-54.07-40.036-78.886a17.2 17.2 0 0 0-13.436-5.101m55.88 116.73c.074.632.229 1.269.229 1.91 0 2.959-.766 5.952-2.357 8.679.95-1.63 1.75-5.372 2.129-10.589"/><path fill="#6E6E96" d="M107.019 414.458c-9.746 0-16.348-1.673-18.141-2.185a32 32 0 0 1-5.41-2.06c-44.657-21.117-65.65-73.355-58.931-147 5.216-56.904 36.346-99.13 37.67-100.898A34.4 34.4 0 0 1 87.45 148.57a34.75 34.75 0 0 1 26.867 10.21c20.541 20.89 32.214 44.39 38.837 64.785 32.472-16.52 64.612-24.18 68.849-25.147 11.943-2.731 24.816 1.324 33.039 10.335a34.55 34.55 0 0 1 7.359 33.723c-48.17 149.64-118.03 171.983-155.382 171.983m-8.662-35.263c-.005 0 3.238.856 8.657.856 22.537 0 79.597-14.43 122.618-148.092-1.78.409-44.57 10.352-78.19 32.188l-21.59 14.025-4.696-25.315c-3.544-19.1-12.56-46.746-35.388-69.962-.271.37-26.635 36.14-30.975 83.45-5.303 58.195 8.748 98.275 39.564 112.85m58.862-77.476-29.72-17.315c.01.516.035 1.04.112 1.557a28 28 0 0 1-.202-1.428c-.546.968-.744 1.622-.748 1.634.004-.017.413-1.432.666-4.954l31.887-.632 2.336-.297c.141.903.365 2.314.365 4.086a34.4 34.4 0 0 1-4.696 17.35"/><path fill="#FFF0A3" d="M225.775 215.207c-3.149.714-77.507 17.94-111.397 58.04-.263.302-.349.689-.585 1.007-22.533 25.921-35.01 53.67-35.01 78.392 0 11.243 2.473 21.775 7.35 31.272a156 156 0 0 0-.8-1.923c.1.366 2.676 6.77 2.676 6.77 2.318 5.763 6.352 7.393 12.511 8.197 21.16 2.779 94.176-.537 145.413-159.717a17.24 17.24 0 0 0-3.673-16.89 17.2 17.2 0 0 0-16.485-5.148"/><path fill="#6E6E96" d="M108.494 414.669c-.004 0 0 0 0 0-3.501 0-6.937-.22-10.206-.65-4.86-.632-19.69-2.571-26.235-18.829l-1.91-4.778c-5.681-11.586-8.563-24.287-8.563-37.762 0-28.295 13.513-59.614 38.084-88.353a18 18 0 0 1 1.712-2.313c36.794-43.534 112.124-61.628 120.592-63.546 11.862-2.697 24.73 1.325 32.962 10.288a34.56 34.56 0 0 1 7.376 33.8C214.106 392.292 145.25 414.67 108.494 414.67m-5.48-34.734c1.73.215 3.566.323 5.476.323 22.05 0 77.992-14.447 121.07-148.286-.689.172-70.389 16.296-101.106 51.292a22 22 0 0 1-.808 1.196l-.87 1.08c-19.852 22.837-30.785 46.668-30.785 67.106 0 8.215 1.716 15.853 5.101 22.717l.108-.034c.585 1.39 1.019 2.426 1.346 3.432z"/><path fill="#EDBE74" d="M179.592 340.04c-2.116 1.346-41.173 26.472-67.262 60.587-11.69-20.189-31.598-44.983-64.242-60.81a17.204 17.204 0 0 0-23.956 10.42c-.602 1.919-14.365 47.727-1.372 98.319 16.442 64.108 48.432 101.707 90.06 105.887.951.09 1.884.103 2.805.056 3.935-.258 96.318-8.335 90.344-200.464a17.19 17.19 0 0 0-26.377-13.995"/><path fill="#6E6E96" d="M114.601 571.733c-1.114 0-2.236-.056-3.367-.16C61.76 566.61 24.468 524.446 6.099 452.832c-14.31-55.718.963-105.638 1.621-107.733a34.4 34.4 0 0 1 19.122-21.34 34.73 34.73 0 0 1 28.764.588c22.666 10.989 42.531 27.345 58.389 47.925 25.052-26.463 52.707-44.415 56.363-46.742 10.283-6.52 23.857-7.036 34.557-1.342a34.45 34.45 0 0 1 18.249 29.328c2.628 84.503-12.752 146.432-45.71 184.043-26.67 30.442-55.253 33.758-60.711 34.11-.826.043-1.48.065-2.142.065M40.587 355.295c-.163.5-12.993 42.897-1.16 88.981 14.515 56.6 41.193 89.643 75.114 93.045l.146-.004c3.045-.24 79.515-8.227 74.091-182.748-1.514.98-38.398 24.622-62.78 56.504l-15.646 20.464-12.907-22.291c-14.094-24.34-33.224-42.493-56.858-53.95"/><path fill="#FFE76E" d="M179.553 340.083c-2.744 1.73-66.965 42.919-85.454 92.065-.164.434-.112.881-.241 1.324-7.617 19.436-11.56 37.895-11.56 54.845 0 23.909 7.732 43.813 22.368 57.567l-1.398-1.54c.215.31 4.843 5.519 4.843 5.519 4.12 4.623 8.421 4.774 14.481 3.492 20.868-4.481 88.555-32.102 83.373-199.255a17.19 17.19 0 0 0-9.14-14.67 17.19 17.19 0 0 0-17.272.653"/><path fill="#6E6E96" d="m121.87 585.659-19.655-18.472a30.9 30.9 0 0 1-6.946-5.88c-.013-.017-2.03-2.283-3.493-3.952-17.461-17.023-26.682-40.871-26.682-69.038 0-18.463 4.064-38.45 12.09-59.416.176-.843.434-1.794.817-2.817 20.64-54.862 89.462-98.714 92.383-100.555 10.193-6.456 23.796-6.989 34.514-1.295a34.45 34.45 0 0 1 18.262 29.337c2.33 75.084-9.376 132.518-34.795 170.693-22.011 33.056-48.393 42.953-62.16 45.912-1.548.327-2.98.576-4.335.752zm-34.407-39.775h12zm30.497-10.855 1.273 1.445c7.08-1.565 24.812-7.733 40.493-31.284 21.07-31.646 31.112-83.713 29.04-150.561-.654.395-60.66 38.592-78.027 82.172-.09.43-.198.89-.335 1.377l-.534 1.57c-6.886 17.573-10.378 33.916-10.378 48.57 0 18.725 5.673 34.11 16.408 44.518l.086-.07c.628.68 1.308 1.429 1.974 2.263"/><path fill="#E6BC25" d="M181.17 464.946c-1.355 2.108-26.274 41.306-35.594 83.218-19.087-13.389-47.555-27.478-83.777-28.093a17.23 17.23 0 0 0-13.169 5.784 17.26 17.26 0 0 0-4.18 13.746c.266 2.004 7.057 49.34 40.105 89.776 41.886 51.232 86.745 71.898 126.252 58.153a16 16 0 0 0 2.585-1.145c3.467-1.883 83.867-48.07-2.4-219.869a17.2 17.2 0 0 0-14.446-9.462 17.23 17.23 0 0 0-15.376 7.892m-38.858 118.24c.026.434.017.856.047 1.295a19 19 0 0 1-.047-1.295"/><path fill="#6E6E96" d="M186.288 708.883h-.004c-38.562-.004-78.345-23.732-115.044-68.616-36.373-44.505-43.555-96.236-43.843-98.417a34.35 34.35 0 0 1 8.339-27.388 34.5 34.5 0 0 1 25.762-11.6l.607.005c25.173.43 50.062 6.899 73.08 18.88 12.03-35.589 30.58-64.65 31.521-66.112a34.18 34.18 0 0 1 30.734-15.759 34.48 34.48 0 0 1 28.937 18.924c37.942 75.567 50.049 138.222 35.98 186.211-11.405 38.901-35.942 53.881-40.75 56.496a33.3 33.3 0 0 1-5.234 2.306 91.5 91.5 0 0 1-30.085 5.07M61.507 537.27c.056.507 6.266 44.38 36.372 81.222 29.517 36.101 60.914 55.984 88.41 55.989h.003c6.43 0 12.778-1.076 18.873-3.196 2.83-1.587 68.814-41-9.54-197.04-.98 1.565-24.54 38.471-33.25 77.656l-5.59 25.143-21.084-14.79c-22.992-16.133-47.95-24.537-74.194-24.984m63.687 48.363a36 36 0 0 1-.086-2.447l34.377-.998c.026.413.039.822.047 1.23z"/><path fill="#FFE042" d="M181.153 465.006c-1.682 2.598-39.056 61.37-39.056 112.253q-.002 3.634.266 7.222c.039.511.297.946.379 1.436 3.148 50.092 24.283 86.422 57.064 97.299-.013-.017-1.901-.809-1.901-.809.327.194 6.666 2.96 6.666 2.96 5.686 2.468 9.686.808 14.64-2.934 17.045-12.834 66.836-66.375-8.197-215.844a17.2 17.2 0 0 0-14.455-9.457 17.2 17.2 0 0 0-15.406 7.874"/><path fill="#6E6E96" d="m246.66 716.892-40.2-13.342a31 31 0 0 1-8.744-2.408c-.022-.009-2.774-1.209-4.787-2.099-38.218-13.492-63.245-54.535-67.232-110.188a19 19 0 0 1-.49-3.114 113 113 0 0 1-.31-8.486c0-56.29 40.106-118.954 41.814-121.594a34.3 34.3 0 0 1 30.764-15.711 34.44 34.44 0 0 1 28.91 18.91c33.71 67.159 47.258 124.188 40.256 169.511-5.892 38.162-24.734 58.19-36.114 67.064zm-52.669-29.307-7.935 5.97zm13.685-19.642 1.368.607c5.828-4.456 19.277-17.51 23.586-45.426 5.802-37.577-6.993-89.037-37-148.819-.396.606-36.334 56.707-36.334 102.954q0 2.216.116 4.404c.112.456.215.955.301 1.493l.19 1.681c2.666 42.403 19.319 72.948 44.57 81.799l.05-.095c1.076.439 2.126.878 3.153 1.402"/><path fill="#E3B50D" d="M259.068 574.455a17.15 17.15 0 0 0-12.843 11.552c-.727 2.241-13.324 41.766-13.324 82.25 0 2.473.125 4.933.24 7.424-21.882-8.125-52.956-14.572-88.257-5.888a17.19 17.19 0 0 0-11.247 8.954 17.31 17.31 0 0 0-.533 14.356c.79 1.876 19.44 45.917 61.726 76.573 53.593 38.829 102.223 47.374 136.935 23.99.779-.52 1.51-1.113 2.194-1.75 2.868-2.705 68.805-67.898-58.45-211.977a17.25 17.25 0 0 0-16.441-5.484"/><path fill="#6E6E96" d="M288.008 823.79h-.004c-31.723 0-66.47-13.522-103.273-40.187-45.004-32.627-65.317-78.676-67.485-83.82a34.398 34.398 0 0 1 23.517-46.695c24.567-6.047 50.213-6.15 75.464-.387 2.421-36.467 12.356-68.07 13.629-71.992a34.4 34.4 0 0 1 25.693-23.092 34.78 34.78 0 0 1 32.838 10.92c55.984 63.386 83.682 120.872 82.331 170.87-1.096 40.518-20.988 61.274-24.966 65.025a35 35 0 0 1-4.417 3.522c-15.59 10.503-33.547 15.836-53.327 15.836M178.994 682.854a125.7 125.7 0 0 0-30.012 3.639c.676 1.617 17.853 41.645 55.933 69.253 30.373 22.003 59.103 33.637 83.085 33.637h.004c12.812 0 24.296-3.36 34.14-9.987 2.31-2.24 56.04-57.21-59.541-188.073-.53 1.557-12.503 38.962-12.503 76.934 0 1.966.095 3.923.185 5.897l1.217 26.695-24.356-9.044c-15.994-5.936-32.196-8.95-48.152-8.95"/><path fill="#FFDC2B" d="M259.068 574.524a17.17 17.17 0 0 0-12.847 11.552c-.727 2.24-13.32 41.723-13.32 82.186 0 14.872 1.703 29.882 6.331 43.228.198.572.58 1.015.813 1.552 15.866 47.482 45.52 77.098 79.914 79.231l-2.064-.292c.361.094 7.247 1.165 7.247 1.165 6.133.942 9.552-1.699 13.389-6.559 13.182-16.769 47.662-81.26-63.047-206.592a17.21 17.21 0 0 0-16.416-5.471"/><path fill="#6E6E96" d="M327.477 810.539c-1.608 0-3.273-.13-4.95-.387l-5.161-.817c-40.355-3.269-75.042-36.55-93.123-89.308a20.3 20.3 0 0 1-1.277-2.92c-4.826-13.922-7.273-30.365-7.273-48.845 0-42.562 12.71-83.02 14.159-87.489a34.42 34.42 0 0 1 25.697-23.091c12.009-2.486 24.73 1.755 32.825 10.92 49.735 56.307 77.39 107.982 82.198 153.597 4.163 39.482-9.819 63.95-18.52 75.016-2.89 3.664-10.515 13.324-24.575 13.324m-5.1-35.246 2.795.443c4.464-5.754 14.146-21.831 11.182-49.929-3.987-37.813-29.495-84.297-73.768-134.42-.512 1.566-12.481 38.958-12.481 76.879 0 14.085 1.677 26.326 4.98 36.411q.394.728.718 1.475l.555 1.445c13.436 40.2 37.314 65.387 63.933 67.464l.021-.103 2.065.292z"/><path fill="#FFBF00" d="M268.211 859.474c-4.649 1.342-17.345 6.077-22.528 19.143a28.1 28.1 0 0 0-2.004 10.49c0 5.772 1.703 12.735 6.869 20.589l23.181 35.331c14.124 21.522 38.368 18.12 50.333 10.92.641-.4 1.26-.813 1.846-1.294C484.33 828.49 630.005 871.4 636.12 873.27a17.204 17.204 0 0 0 12.662-31.878c-128.988-63.007-308.6-8.571-380.572 18.081"/><path fill="#6E6E96" d="M303.534 978.656c-18.261 0-33.955-8.589-44.191-24.188l-23.182-35.332c-6.425-9.767-9.685-19.874-9.685-30.024 0-5.871 1.092-11.561 3.247-16.92 7.66-19.307 25.173-26.653 33.048-29.048 48.974-18.098 145.206-48.2 243.313-48.2 57.597 0 108.15 10.43 150.251 30.996 16.047 7.815 23.462 26.967 16.864 43.585-5.183 13.174-17.75 21.724-31.99 21.724-3.44 0-6.856-.516-10.15-1.531-1.006-.305-25.767-7.754-64.767-7.754-55.421 0-140.251 14.95-229.667 86.15a32 32 0 0 1-3.488 2.452c-8.623 5.187-19.336 8.09-29.603 8.09M506.08 829.35c-93.097 0-185.252 28.98-231.895 46.256l-1.195.396c-2.056.593-8.95 2.997-11.316 8.958a11 11 0 0 0-.791 4.15c0 3.317 1.359 7.067 4.034 11.136l23.19 35.348c3.824 5.824 8.869 8.658 15.427 8.658 4.869 0 9.213-1.57 11.656-3.04 97.187-77.408 190.189-93.652 251.094-93.652 43.348 0 71.773 8.326 74.87 9.273-37.285-18.232-82.754-27.483-135.074-27.483"/><path fill="#FFF" d="M1000.23 255.253c-27.66 23.465-40.76 52.436-47.031 74.908-33.78-26.536-77.863-41.13-80.241-41.903a17.204 17.204 0 0 0-22.09 20.14c40.583 180.607 126.786 173.201 136.463 171.77a20.5 20.5 0 0 0 3.698-.913c39.289-14.425 60.892-58.814 60.84-124.996-.068-52.239-24.82-93.161-25.878-94.882a17.15 17.15 0 0 0-11.935-7.982 17.14 17.14 0 0 0-13.827 3.858"/><path fill="#6E6E96" d="M980.591 497.81c-31.512 0-108.864-18.099-146.505-185.64a34.44 34.44 0 0 1 10.4-32.979c8.98-8.197 22.132-11.061 33.766-7.302 4.159 1.354 35.43 11.87 66.255 31.22 10.21-23.87 25.37-44.665 44.591-60.974a34.61 34.61 0 0 1 27.724-7.72 34.25 34.25 0 0 1 23.852 15.99c1.132 1.841 28.33 46.691 28.403 103.832.065 73.941-25.547 124.072-72.112 141.168a38 38 0 0 1-7.118 1.78c-1.923.284-5.088.624-9.256.624M867.63 304.613c33.13 147.33 94.838 158.784 112.967 158.788 2.326 0 3.823-.193 4.223-.254a3 3 0 0 0 .473-.107c31.822-11.69 49.421-50.342 49.374-108.77-.064-47.511-23.091-85.5-23.323-85.88-20.03 16.985-34.025 39.332-41.577 66.394l-6.924 24.824-20.27-15.922c-31.509-24.747-73.189-38.501-74.943-39.073"/><path fill="#FFF6C7" d="M856.12 291.948a17.22 17.22 0 0 0-5.192 16.485C887.593 471.6 960.024 481.466 981.353 480.606c6.193-.254 10.322-1.48 13.156-6.99l3.187-6.197c.086-.18-.16.228-.383.641 6.589-10.748 10-23.109 10-36.785 0-22.915-9.755-48.153-27.69-73.24-.318-.624-.49-1.316-.916-1.884-30.157-43-102.623-66.857-105.71-67.846a17.14 17.14 0 0 0-16.877 3.643"/><path fill="#6E6E96" d="M979.09 497.852c-31.04 0-107.29-18.09-144.944-185.651a34.51 34.51 0 0 1 10.374-32.962c9.045-8.245 22.227-11.088 33.827-7.286 3.182 1.02 80.64 26.261 114.356 74.19a20.6 20.6 0 0 1 1.97 3.372c19.534 27.792 29.843 56.028 29.843 81.755 0 16.296-3.97 31.28-11.797 44.549l-2.916 5.66c-7.965 15.5-22.85 16.11-27.745 16.309a64 64 0 0 1-2.968.064m18.623-29.005v15.733zm-129.968-164.16c33.074 147.31 93.587 158.758 111.345 158.758.46 0 .903-.004 1.316-.021l1.798-3.493-.039-.021c.276-.512.564-.998.856-1.458 4.705-7.93 7.088-17.075 7.088-27.177 0-18.971-8.468-40.833-24.48-63.232l-1.32-2.167a28 28 0 0 1-.427-.878c-27.59-38.002-95.449-60.087-96.137-60.311"/><path fill="#FFDF6B" d="M891.688 412.372a17.15 17.15 0 0 0-12.275 12.163c-11.019 40.859-15.35 74.13-15.35 101.191 0 78.203 36.02 104.52 50.144 111.789 4.563 2.344 8.692 3.492 12.391 3.544-.929.025-1.845.09-2.778-.052 41.486 5.552 81.29-23.655 112.076-82.246 24.283-46.204 21.47-93.978 21.337-95.982a17.06 17.06 0 0 0-6.847-12.636 17.2 17.2 0 0 0-14.055-3.032c-35.41 7.87-60.505 27.4-76.526 44.354-17.504-39.21-49.727-72.667-51.464-74.46a17.22 17.22 0 0 0-16.653-4.633"/><path fill="#6E6E96" d="M933.785 658.881a92 92 0 0 1-11.853-.77l-.641-.085.026-.185c-4.873-.732-9.888-2.418-14.972-5.028-17.891-9.213-59.485-40.02-59.485-127.091 0-30.898 5.363-66.449 15.943-105.673a34.45 34.45 0 0 1 24.575-24.338c11.686-3.037 24.8.589 33.272 9.268 3.08 3.183 25.883 27.186 44.067 58.5 20.162-16.364 43.275-27.697 67.88-33.168a34.81 34.81 0 0 1 28.12 6.073 34.18 34.18 0 0 1 13.685 25.328c.142 2.116 3.312 54.462-23.276 105.053-31.208 59.404-72.883 92.116-117.341 92.116m-6.955-34.828c33.603 4.09 67.008-22.231 93.833-73.287 22.093-42.033 19.43-86.387 19.4-86.83-25.658 5.677-48.457 18.923-67.755 39.348l-17.703 18.74-10.507-23.54c-16.201-36.286-46.828-68.177-48.118-69.515-9.75 36.351-14.713 68.892-14.713 96.762 0 70.04 31.241 91.565 40.815 96.494 2.994 1.54 4.482 1.639 4.748 1.639z"/><path fill="#FFF0A3" d="M891.718 412.428a17.15 17.15 0 0 0-12.275 12.163c-43.593 161.403 15.88 203.93 35.147 213.117 5.63 2.671 9.9 3.492 14.963-.09l5.643-3.974c.28-.267-1.489.972-1.489.972 24.83-14.27 38.472-43.28 38.472-81.708 0-7.544-.684-15.668-1.82-24.038 0-.09.052-.198.052-.288 0-.731-.047-1.48-.142-2.228-6.64-52.096-59.653-106.984-61.907-109.298a17.2 17.2 0 0 0-16.644-4.628"/><path fill="#6E6E96" d="M922.697 657.221c-6.314 0-11.59-2.12-15.487-3.97-12.74-6.072-36.12-21.805-49.908-59.046-15.917-43.009-14.06-101.583 5.527-174.095a34.44 34.44 0 0 1 24.575-24.335c11.625-3.04 24.795.585 33.267 9.277 6.073 6.237 59.43 62.462 66.655 119.135a33 33 0 0 1 .276 3.909c1.191 9.178 1.772 17.307 1.772 24.82 0 44.097-16.215 78.079-45.68 95.785l-4.24 2.99c-5.183 3.664-10.835 5.53-16.757 5.53m12.524-18.807v12.399zm-39.185-209.35c-17.423 64.565-19.66 117.534-6.46 153.197 9.802 26.485 25.59 36.605 32.18 39.81l2.132-1.506-.034-.052c.98-.684 2.172-1.518 3.63-2.25 17.75-11.59 27.491-34.686 27.491-65.35 0-6.272-.559-13.583-1.664-21.729l-.155-2.985c-4.92-37.069-39.473-81.015-57.12-99.135"/><path fill="#EDBE74" d="M849.445 544.319c-109.772 158.375-36.334 215.07-33.156 217.405.731.538 1.51 1.015 2.314 1.436 37.185 19.144 84.495 4.99 133.181-39.86 38.411-35.405 51.77-81.321 52.32-83.26a17.212 17.212 0 0 0-14.446-21.78c-35.947-4.465-66.174 5.479-86.951 16.063-3.32-42.802-22.468-85.118-23.509-87.39a17.17 17.17 0 0 0-14.124-9.947 17.16 17.16 0 0 0-15.63 7.333"/><path fill="#6E6E96" d="M853.393 788.678c-15.13 0-29.483-3.441-42.665-10.224a35 35 0 0 1-4.632-2.877c-3.72-2.731-89.996-69.08 29.212-241.06a34.36 34.36 0 0 1 31.293-14.67 34.42 34.42 0 0 1 28.235 19.917c1.81 3.944 15.264 34.033 21.896 69.82 24.373-8.644 49.847-11.534 75.046-8.399a34.45 34.45 0 0 1 24.446 15.13 34.4 34.4 0 0 1 4.426 28.425c-.603 2.116-15.251 52.531-57.21 91.209-37.448 34.497-75.503 52.729-110.047 52.729m10.171-234.575c-99.66 143.826-39.658 191.81-37.052 193.785 30.317 15.586 71.09 1.94 113.617-37.241 34.893-32.167 47.3-74.874 47.421-75.3-26.029-3.312-52.2 1.656-77.033 14.309l-22.967 11.698-1.995-25.697c-3.097-39.96-21.22-79.872-21.99-81.554"/><path fill="#FFE76E" d="M849.449 544.375c-95.26 137.46-53.494 197.444-38.411 212.562 4.378 4.391 8.03 6.589 14.025 4.942l6.76-1.871c.332-.13-1.685.408-1.685.408 33.947-6.167 59.946-39.116 70.1-88.215.168-.512.486-.946.624-1.484 1.694-7.737 2.417-15.861 2.417-24.136 0-46.6-22.907-97.105-24.055-99.587a17.17 17.17 0 0 0-14.124-9.952 17.22 17.22 0 0 0-15.651 7.333"/><path fill="#6E6E96" d="M821.343 779.628c-11.97 0-19.612-7.66-22.485-10.545-9.944-9.961-26.709-32.618-27.199-72.337-.563-45.851 20.855-100.412 63.649-162.169a34.49 34.49 0 0 1 31.297-14.67 34.45 34.45 0 0 1 28.257 19.926c1.023 2.22 25.616 56.04 25.616 106.752 0 9.927-.946 19.281-2.813 27.814l-.112.499a21 21 0 0 1-.847 2.602c-11.754 54.458-42.269 91.548-81.953 99.548l-5.11 1.41a31.1 31.1 0 0 1-8.3 1.17m10.511-8.36v5.926zm31.753-217.057c-38.118 54.94-58.01 104.094-57.541 142.11.348 28.235 11.823 43.051 16.958 48.273l2.697-.744-.013-.056c1.454-.387 2.697-.719 4.099-.886 25.28-6.194 45.215-33.698 53.584-74.186l.5-1.88c.141-.438.296-.86.468-1.281 1.136-5.742 1.708-12.116 1.708-18.98.008-43.233-22.236-91.884-22.46-92.37"/><path fill="#E6BC25" d="M784.058 635.992c-108.102 63.395-127.964 120.214-127.964 153.352 0 11.2 2.263 19.685 4.164 24.825a24.8 24.8 0 0 0 5.165 8.511c-.43-.447-1.028-.65-1.415-1.161 25.715 33.022 74.569 40.071 137.594 19.866 49.726-15.965 81.17-52.002 82.486-53.525a17.13 17.13 0 0 0 3.97-13.81 17.23 17.23 0 0 0-7.9-12.003c-29.311-18.305-61.069-22.722-85.709-21.883 15.028-40.27 15.505-86.796 15.514-89.3v-.081a17.23 17.23 0 0 0-8.64-14.911 17.3 17.3 0 0 0-17.265.12M761.053 745.2c-2.494.787-4.585 1.557-6.116 2.31a16.8 16.8 0 0 1 6.116-2.31m-91.316 80.994q.407.212.808.379c-.275-.125-.537-.237-.808-.379"/><path fill="#6E6E96" d="M737.312 869.895c-37.516 0-67.52-13.027-86.783-37.68l-.22-.28.254-.188a42.3 42.3 0 0 1-6.438-11.596c-2.391-6.477-5.234-17.057-5.234-30.803 0-40.221 23.676-102.05 136.462-168.19 10.447-6.124 23.99-6.193 34.485-.223a34.56 34.56 0 0 1 17.328 29.856c-.004 1.85-.25 36.347-9.612 72.913 20.906 2.004 46.707 8.142 71.712 23.754a34.35 34.35 0 0 1 15.798 23.999 34.23 34.23 0 0 1-7.953 27.646c-3.621 4.198-36.94 41.55-90.25 58.668-25.095 8.047-48.496 12.124-69.549 12.124m-59.49-58.634c12.692 16.073 32.704 24.227 59.49 24.227 17.483 0 37.353-3.526 59.043-10.481 45.099-14.481 74.418-48.04 74.706-48.38-25.65-15.995-52.729-19.354-70.93-19.354-1.73 0-3.432.03-5.092.09l-25.694.873 8.985-24.085c14.115-37.826 14.43-82.886 14.43-83.342-103.945 60.982-119.462 112.97-119.462 138.535 0 8.662 1.686 15.04 3.097 18.868.567 1.523 1.118 2.202 1.681 2.813zm-1.359 1.278-1.716 4.081 2.83-5.414-.714.55zm.46-.925-.051.125.839-.792-.065-.034-.18-.09h.004a2 2 0 0 0-.142-.07l-.039-.016-.06-.026-.19.447.104-.086-.125.297.56-.43-.59.499.542-.426zm85.605-48.664-16.61-30.09a34.1 34.1 0 0 1 12.296-4.627l8.004 33.38c-2.559.803-3.522 1.25-3.69 1.337"/><path fill="#FFE042" d="M784.041 636.057c-144.225 84.598-131.59 156.599-124.278 176.645 2.12 5.824 4.546 9.393 10.662 10.408l6.899 1.162c.051 0 .064 0 .064-.009s-.305-.073-.516-.095c33.246 7.961 70.328-11.096 99.884-51.176.24-.266.584-.37.808-.653 31.762-41.818 32.407-118.124 32.429-121.35v-.077A17.23 17.23 0 0 0 801.357 636a17.22 17.22 0 0 0-17.316.056"/><path fill="#6E6E96" d="M692.028 843.144c-6.103 0-12.184-.671-18.08-2l-6.375-1.071c-17.186-2.856-22.295-16.877-23.973-21.483-4.817-13.22-10.48-40.824 5.79-77.05 18.781-41.839 61.162-82.319 125.955-120.326 10.472-6.133 24.05-6.184 34.579-.137a34.52 34.52 0 0 1 17.272 29.83c-.06 8.895-1.544 86.56-35.93 131.827a21 21 0 0 1-1.853 2.056c-28.295 37.654-62.814 58.354-97.385 58.354m-31.852-18.885c0 8.67 6.159 14.907 12.683 16.61l2.972-16.602zm17.143-17.195.005 8.916zm4.508.589c25.934 5.6 56.367-11.376 81.071-44.88l.998-1.23a19 19 0 0 1 1.07-1.105c21.557-29.633 27.651-84.452 27.815-109.573-57.718 33.86-96.439 70.078-112.012 104.76-11.574 25.775-7.39 44.054-4.93 50.944l3.076.516v-.008q1.53.194 2.912.576"/><path fill="#E3B50D" d="M668.305 696.084c-185.157 51.697-165.287 142.251-164.35 146.088q.335 1.374.89 2.67c16.426 38.476 61.869 57.796 127.96 54.342 52.161-2.722 91.764-29.53 93.424-30.686a17.19 17.19 0 0 0 7.462-14.18 17.2 17.2 0 0 0-4.67-11.785c-24.89-26.455-54.484-37.977-77.253-43.082 24.799-35.082 37.13-79.927 37.779-82.344a17.2 17.2 0 0 0-21.242-21.023"/><path fill="#6E6E96" d="M618.049 916.78c-65.262 0-111.083-23.152-129.026-65.185a34.4 34.4 0 0 1-1.785-5.359c-1.093-4.473-24.55-110.61 176.439-166.723a34.2 34.2 0 0 1 9.255-1.273c9.123 0 17.716 3.535 24.193 9.952a34.18 34.18 0 0 1 10.21 24.455 34.6 34.6 0 0 1-1.17 8.898c-1.14 4.224-10.025 36.016-27.81 67.83 24.391 8.967 45.943 23.026 63.19 41.365a34.31 34.31 0 0 1 9.121 27.461 34.34 34.34 0 0 1-14.709 24.472c-1.703 1.187-44.677 30.678-102.262 33.68a294 294 0 0 1-15.646.426m54.888-204.15C504.75 759.607 519.95 834.945 520.677 838.132c12.184 28.51 46.768 44.24 97.368 44.24a268 268 0 0 0 13.861-.37c47.379-2.474 83.867-27.2 84.495-27.634-17.964-19.203-40.978-31.99-68.397-38.131l-25.177-5.643 14.894-21.07c23.156-32.769 34.738-75.11 35.216-76.896"/><path fill="#FFDC2B" d="M668.27 696.14C507.18 741.106 501.048 813.962 503 835.204c.568 6.172 1.953 10.19 7.591 12.744l6.443 2.92.047.013c0-.013-.227-.107-.352-.176 30.054 16.145 70.633 7.225 109.436-23.948.322-.21.692-.283.985-.537 41.395-32.317 61.528-105.926 62.345-109.045.413-1.479.606-2.963.606-4.455a17.17 17.17 0 0 0-5.109-12.228 17.16 17.16 0 0 0-16.722-4.352"/><path fill="#6E6E96" d="M549.278 875.805q-.006 0 0 0c-14.36 0-27.75-3.187-39.8-9.47l-5.987-2.715c-15.815-7.165-17.126-21.457-17.621-26.837-1.286-14.025.275-42.157 25.25-73.029 28.842-35.654 80.156-63.976 152.527-84.177a34.3 34.3 0 0 1 9.25-1.269c9.145 0 17.746 3.549 24.223 9.996a34.54 34.54 0 0 1 10.18 24.42c0 3.075-.417 6.129-1.234 9.07-.808 3.084-21.852 81.554-68.164 117.853a18 18 0 0 1-2.288 1.574c-28.614 22.627-58.44 34.584-86.336 34.584m-49.4-24.924H515.8zm29.788-13.096c23.121 9.243 55.322-.022 85.73-24.442l1.401-1.015q.399-.259.796-.486c30.433-24.64 50.183-79.69 55.27-99.036-64.384 17.891-111.074 43.021-134.987 72.586-17.758 21.951-18.377 40.69-17.758 47.985l4.026 1.823-1.544 3.406 1.638-3.38z"/><path fill="#FFC93F" d="M650.89 146.527c22.287-15.63 39.581-6.168 38.437 21.035l-3.595 85.003c-1.149 27.198 15.707 62.844 37.469 79.209l67.988 51.15c21.763 16.365 18.103 35.74-8.133 43.052l-81.953 22.855c-26.227 7.311-54.918 34.355-63.76 60.105l-27.638 80.46c-8.847 25.75-28.403 28.253-43.456 5.579L519.198 524.1c-15.058-22.675-49.646-41.603-76.866-42.059l-85.071-1.419c-27.22-.456-35.65-18.279-18.726-39.607l52.866-66.663c16.92-21.328 24.231-60.07 16.249-86.104l-24.945-81.338c-7.974-26.029 6.37-39.551 31.878-30.055l79.734 29.685c25.521 9.496 64.616 4.482 86.912-11.152z"/><path fill="#FFDB80" d="m786.845 381.698-53.025-39.894c6.172 10.416 13.797 19.573 22.154 25.87l44.858 33.744c-.89-6.434-5.454-13.307-13.987-19.72M646.56 145.305l-69.657 48.854c-22.291 15.63-61.395 20.648-86.907 11.152l-79.734-29.689c-25.513-9.496-39.86 4.026-31.878 30.055l24.936 81.342c7.978 26.029.667 64.775-16.24 86.104l-52.87 66.663c-16.929 21.328-8.5 39.151 18.725 39.603l16.395.27c.632-.911 1.265-1.823 2.004-2.756l52.862-66.66c16.92-21.323 24.232-60.07 16.25-86.103l-24.937-81.343c-7.974-26.029 6.365-39.55 31.878-30.054l79.734 29.689c25.521 9.496 64.62 4.481 86.912-11.152l69.653-48.854c.223-.155.43-.271.649-.417l.654-15.673c1.152-27.198-16.141-36.66-38.429-21.03M521.202 532.41l40.716 61.339c7.1 10.696 15.204 15.724 22.713 15.419l-32.644-49.181c-6.963-10.486-18.128-20.145-30.785-27.577"/><path fill="#ED913B" d="M391.68 292.438c2.181 7.092 3.175 15.14 3.196 23.509 10.318-19.974 13.806-47.013 7.514-66.389l-23.117-71.132c-12.64 2.237-18.15 14.322-12.529 32.67zm383.527 94.68-12.894-9.703-74.375 19.565c-25.526 6.709-53.447 31.538-62.053 55.171l-26.893 73.863c-8.606 23.642-27.638 25.943-42.29 5.123l-45.788-65.068c-14.653-20.82-48.312-38.196-74.805-38.618l-82.78-1.303c-5.461-.086-10.089-.877-13.93-2.206l-16.855 21.255c-16.928 21.332-8.498 39.146 18.726 39.602l85.072 1.42c27.22.455 61.807 19.383 76.865 42.062l47.043 70.878c15.062 22.67 34.626 20.163 43.46-5.586l27.638-80.461c8.847-25.745 37.542-52.793 63.76-60.1l81.953-22.856c26.244-7.298 29.909-26.67 8.146-43.038" opacity=".52"/><path fill="#6E6E96" d="M588.321 627.674c-13.548 0-26.476-8.236-36.407-23.19l-47.051-70.874c-11.918-17.948-41.276-34.012-62.819-34.373l-85.071-1.415c-19.771-.331-34.781-8.288-41.185-21.827-6.4-13.539-3.02-30.188 9.272-45.675l52.862-66.66c13.393-16.88 19.6-49.765 13.281-70.37l-24.945-81.339c-5.019-16.386-3.544-31.134 4.15-41.533 10.086-13.642 29.049-17.552 50.179-9.686l79.734 29.685c6.55 2.434 14.786 3.725 23.827 3.725 17.823 0 35.912-4.92 47.206-12.839l69.657-48.858c10.086-7.074 20.072-10.657 29.676-10.657 9.44 0 18.146 3.647 24.494 10.275 5.621 5.858 12.141 16.902 11.328 36.23l-3.595 85.007c-.908 21.53 13.401 51.783 30.622 64.733l67.993 51.154c15.797 11.88 23.267 27.139 20.493 41.852-2.778 14.718-15.298 26.205-34.347 31.517l-81.953 22.855c-20.756 5.789-45.107 28.743-52.11 49.124l-27.637 80.461c-7.032 20.46-21.104 32.678-37.654 32.678m-241.313-166.44c1.045.723 4.257 2.078 10.541 2.181l85.071 1.42c32.82.55 72.754 22.398 90.908 49.743l47.052 70.879c3.479 5.234 6.352 7.212 7.518 7.698 1.006-.77 3.294-3.406 5.333-9.354l27.637-80.46c10.662-31.049 43.792-62.273 75.412-71.09l81.953-22.855c6.06-1.69 8.83-3.81 9.655-4.774-.421-1.195-2.223-4.18-7.247-7.956L712.85 345.51c-26.231-19.728-45.697-60.879-44.312-93.682l3.595-85.007c.263-6.223-.877-9.509-1.54-10.623-1.255.069-4.472.641-9.827 4.396l-69.657 48.858c-17.036 11.943-42.067 19.078-66.96 19.078h-.004c-13.088 0-25.475-2.034-35.827-5.888l-79.734-29.667c-6.503-2.417-9.647-2.017-10.61-1.798-.361 1.222-.654 4.693 1.183 10.692l24.94 81.334c9.622 31.392 1.179 76.121-19.22 101.84l-52.866 66.664c-3.906 4.92-4.9 8.262-5.002 9.527"/><path fill="#6E6E96" d="M263.222 929.037s92.916-69.679 253.494-87.226l15.935 24.648s-142.235 36.725-219.332 93.793c.013 0-50.097 3.088-50.097-31.215" opacity=".15"/></svg>