<?xml version="1.0" standalone="no"?><!DOCTYPE svg PUBLIC "-//W3C//DTD SVG 1.1//EN" "http://www.w3.org/Graphics/SVG/1.1/DTD/svg11.dtd"><svg t="1719624686602" class="icon" viewBox="0 0 1074 1024" version="1.1" xmlns="http://www.w3.org/2000/svg" p-id="12681" xmlns:xlink="http://www.w3.org/1999/xlink" width="33.5625" height="32"><path d="M193.896418 726.181502a17.233612 17.233612 0 0 0 12.197286 19.951766c6.167457 1.746156 151.739226 44.974266 216.045932 236.999803 0.288159 0.860175 0.645131 1.703147 1.066617 2.507411 6.666359 12.713391 24.906376 27.942795 47.954774 17.805629l38.673482-17.044374c19.263626-8.511435 21.534489-22.846256 21.534489-29.099731v-0.447291c-0.141929-8.115754-4.330983-17.229311-9.771592-22.841955 0.387079 0.421486 0.825768 0.731149 1.165538 1.165537-45.58069-61.197173-167.02024-205.409864-309.964174-222.71229a17.216409 17.216409 0 0 0-18.902352 13.715495z m321.469018 203.332541c2.15904 0.855874 4.004116 2.266562 5.64275 3.896594-1.793466-1.720351-3.694453-3.122436-5.64275-3.896594z" fill="#FFBF00" p-id="12682"></path><path d="M456.198277 1023.956991c-23.856962 0-40.888433-16.33903-48.221428-30.329781a35.03494 35.03494 0 0 1-2.137535-5.006221c-61.455225-183.514102-198.623081-224.290712-204.433566-225.937948-17.190604-4.890097-27.886884-22.411868-24.373067-39.894931 3.492312-17.341134 19.848545-29.529818 37.809006-27.396583 149.584487 18.10669 274.821711 166.542843 321.72707 229.516277l-0.05161 0.043009c7.401809 9.057646 11.870419 20.760331 12.059658 31.607142l0.004301 0.748352c0 7.225473-2.292367 31.804982-31.787779 44.836638l-38.686385 17.048675c-7.203968 3.161144-14.57137 4.765371-21.908665 4.765371z m-245.463928-294.407903c6.57604 1.879483 160.573226 47.606403 227.722812 248.117569 2.498809 4.765371 9.294194 11.883322 17.741116 11.883322 2.541818 0 5.247069-0.627928 8.042639-1.853678l38.66058-17.040073c9.311398-4.111638 11.268297-9.535043 11.268296-13.354222v-0.447291c-0.055911-3.075127-2.240757-8.059843-4.864291-10.803802l-0.266655-0.283858c-0.455893-0.434389-0.696742-0.593521-0.701042-0.597821 0 0.004301 0.064513 0.043009 0.184937 0.107522l-0.09892-0.077416s0.193539 0.137628 0.559114 0.283858l0.030106 0.012902 0.030106-0.073115-0.012902 0.012903 0.017203-0.051611-0.086017 0.068814c-44.243117-59.412309-161.893595-199.397239-298.227082-215.904003z" fill="#6E6E96" p-id="12683"></path><path d="M212.803071 18.880848c-1.81497 0.860175-44.849541 21.745232-73.299839 65.541058-36.054248 55.502812-42.066874 104.5113-16.936852 137.980722 0.559114 0.752653 1.165538 1.445095 1.857979 2.090226 2.84718 2.731057 71.321436 65.2572 208.695734-69.218308a17.186303 17.186303 0 0 0 4.589035-16.661595 17.151896 17.151896 0 0 0-12.188684-12.257499c-2.417093-0.645131-47.378456-12.339215-90.159275-8.429718 4.060027-12.95424 7.414711-28.923395 7.414711-46.974173 0-12.984346-1.707448-26.970797-6.085741-41.50776a17.259418 17.259418 0 0 0-9.526441-10.777997 17.164798 17.164798 0 0 0-14.360627 0.215044z" fill="#FFFFFF" p-id="12684"></path><path d="M175.759621 258.572999c-38.707889 0-59.476822-18.046478-63.24869-21.667816a32.600644 32.600644 0 0 1-3.758966-4.240664c-29.740561-39.602471-23.964484-95.604185 16.317525-157.609922C156.306757 26.975098 203.448665 4.275071 205.43997 3.333179A34.781189 34.781189 0 0 1 234.13972 2.9418a34.450021 34.450021 0 0 1 19.009874 21.504382 161.085031 161.085031 0 0 1 6.829792 46.509679c0 9.599556-0.855874 19.293732-2.554721 29.000811 37.593962 0.567716 71.080587 9.397415 72.534283 9.780193a34.428517 34.428517 0 1 1 15.212201 57.812383c-61.704676 60.40151-118.695591 91.023751-169.411528 91.023751zM220.217782 34.407012c-0.451592 0.215044-40.393833 19.52598-66.28941 59.390805-31.830787 49.004187-38.084262 91.010849-17.603488 118.278406 0.503203 0.464495 13.311213 12.094065 39.434737 12.094065 28.463201 0 76.779248-14.085371 145.326619-81.183346-0.326867-0.090318-32.789883-8.649063-67.407638-8.649063-5.836289 0-11.470438 0.24515-16.747613 0.726848l-25.70634 2.348279 7.720074-24.63112c4.395496-14.020858 6.627651-28.093326 6.627651-41.826025 0-12.451038-1.797766-24.747244-5.354592-36.548849z" fill="#6E6E96" p-id="12685"></path><path d="M199.866034 125.813542c-0.580618 0.240849-1.036511 0.640831-1.578421 0.937591-46.56559 18.283026-74.598704 49.395567-74.96858 83.832686l0.189239-2.085925c-0.081717 0.369875-0.821467 6.137351-0.821467 6.137351-0.808565 6.317988 2.077323 10.519944 7.272782 14.197193 17.431453 12.322011 83.578934 43.451756 203.095993-73.544989a17.203506 17.203506 0 1 0-7.578145-28.914793c-3.118136-0.838671-76.921177-20.239925-125.611401-0.559114z" fill="#FFF6C7" p-id="12686"></path><path d="M175.738117 259.170821h-0.008602c-28.411591 0-47.090297-10.210281-55.700652-16.29172-13.866026-9.8146-15.487456-21.960276-14.407937-30.424401l0.546212-4.154647c1.4709-40.200293 32.862998-76.29755 84.29718-96.95466 0.722547-0.438689 1.660138-0.946193 2.782667-1.414988 16.657295-6.730872 36.871415-10.111361 60.259582-10.111361 39.026154 0 74.92557 9.530742 76.435178 9.939326a34.480127 34.480127 0 0 1 24.355864 24.502093 34.428517 34.428517 0 0 1-9.216779 33.323192C283.006279 228.355041 226.023966 259.170821 175.738117 259.170821z m-35.731682-44.303329c5.315883 3.72886 16.949755 9.896317 35.72308 9.896317h0.004301c28.170741 0 76.241639-14.184291 145.28361-81.772566-1.337573-0.365575-32.974821-8.765186-67.510859-8.765187-18.364743 0-33.843598 2.382686-46.045185 7.079243a18.261522 18.261522 0 0 1-0.88598 0.516105l-2.00851 0.941892c-39.408932 15.474554-63.34331 40.621779-64.040051 67.278612l0.103221 0.017204-0.180637 1.991306-0.081717-0.004301-0.361273 2.821375z" fill="#6E6E96" p-id="12687"></path><path d="M88.606659 165.729977a17.207807 17.207807 0 0 0-12.618772 6.881403c-1.204245 1.612829-29.547022 40.148683-34.316694 92.163483-6.012625 65.910933 11.48334 112.072241 49.335355 129.97249 0.825768 0.404282 1.703147 0.73545 2.60203 0.984901 3.789072 1.083821 93.505357 24.480589 152.405862-158.504505 1.883784-5.879298 0.473096-12.322011-3.685851-16.885241s-10.472634-6.533031-16.493862-5.161052c-2.442898 0.559114-47.722526 11.130669-83.75527 34.536039-4.490115-24.183829-15.633686-54.07062-40.03686-78.886678a17.203506 17.203506 0 0 0-13.435938-5.10084z m55.881289 116.730091c0.073115 0.632229 0.227946 1.268759 0.227946 1.909589 0 2.959003-0.765556 5.952413-2.35688 8.679169 0.950494-1.630032 1.750457-5.371795 2.128934-10.588758z" fill="#FFDF6B" p-id="12688"></path><path d="M107.018711 414.45827c-9.745786 0-16.347632-1.673041-18.141097-2.184845a32.183459 32.183459 0 0 1-5.410503-2.06012C38.81111 389.096001 17.818532 336.857554 24.536501 263.213645c5.216963-56.904898 36.346708-99.130904 37.671378-100.898564a34.39411 34.39411 0 0 1 25.241844-13.745601 34.751083 34.751083 0 0 1 26.867576 10.210281c20.540986 20.889357 32.213565 44.389347 38.836915 64.784103 32.471618-16.519667 64.612068-24.179528 68.848432-25.147225 11.943534-2.731057 24.816058 1.32467 33.039334 10.335006a34.54464 34.54464 0 0 1 7.3588 33.723173c-48.169817 149.640398-118.028955 171.983452-155.382069 171.983452z m-8.661965-35.262887c-0.004301 0 3.23856 0.855874 8.657664 0.855875 22.536593 0 79.596322-14.429441 122.617991-148.092083-1.780563 0.408583-44.569984 10.35221-78.189936 32.18776l-21.5904 14.025159-4.696557-25.31496c-3.543922-19.100193-12.55856-46.746227-35.387613-69.962358-0.270955 0.369875-26.635329 36.140266-30.974912 83.449907-5.302981 58.195161 8.747983 98.275029 39.563763 112.8507z m58.861796-77.47599l-29.719057-17.315329c0.008602 0.516105 0.034407 1.040812 0.111823 1.556917a28.166441 28.166441 0 0 1-0.202141-1.427891c-0.546211 0.967697-0.744052 1.62143-0.748352 1.634333 0.004301-0.017204 0.412884-1.432192 0.666635-4.954609l31.886699-0.632229 2.335376-0.296761c0.141929 0.903184 0.365575 2.313872 0.365575 4.085833a34.407012 34.407012 0 0 1-4.696558 17.349736z" fill="#6E6E96" p-id="12689"></path><path d="M225.774515 215.207261c-3.148242 0.713946-77.506096 17.938956-111.397004 58.040329-0.262353 0.301061-0.348371 0.68814-0.584919 1.006405-22.532292 25.921383-35.009135 53.670639-35.009135 78.392077 0 11.242491 2.473004 21.775338 7.350198 31.271674a156.27235 156.27235 0 0 0-0.799963-1.922492c0.09892 0.365575 2.675145 6.76958 2.675145 6.76958 2.318172 5.763175 6.352395 7.393207 12.51125 8.19747 21.160313 2.778366 94.176294-0.53761 145.412636-159.717351a17.242214 17.242214 0 0 0-3.672948-16.889543 17.203506 17.203506 0 0 0-16.48526-5.148149z" fill="#FFF0A3" p-id="12690"></path><path d="M108.493912 414.669013c-0.004301 0 0 0 0 0-3.500914 0-6.937314-0.219345-10.20598-0.649432-4.859991-0.632229-19.689413-2.571924-26.235347-18.829238l-1.909589-4.778274c-5.681458-11.586561-8.563045-24.28705-8.563045-37.761696 0-28.295467 13.513354-59.61445 38.084261-88.352907 0.447291-0.718246 1.006405-1.505307 1.711749-2.313871 36.793999-43.533472 112.123852-61.62726 120.592278-63.545452 11.861818-2.69665 24.73004 1.32467 32.961918 10.287697a34.557543 34.557543 0 0 1 7.376003 33.800589C214.106237 392.291552 145.249203 414.669013 108.493912 414.669013z m-5.479317-34.733879c1.728952 0.215044 3.565427 0.322566 5.475016 0.322566 22.050594 0 77.992095-14.446644 121.069675-148.285622-0.68814 0.172035-70.388146 16.296021-101.105006 51.292254a21.848453 21.848453 0 0 1-0.808565 1.195643l-0.868777 1.07952c-19.852846 22.837655-30.785674 46.668812-30.785674 67.106577 0 8.214674 1.71605 15.853031 5.100839 22.71723l0.107522-0.034407c0.584919 1.389183 1.019308 2.425694 1.346175 3.4321l0.468795 1.174139z" fill="#6E6E96" p-id="12691"></path><path d="M179.591702 340.040203c-2.116031 1.346174-41.172291 26.471895-67.261408 60.586448-11.689782-20.188315-31.59854-44.982868-64.242193-60.810093a17.203506 17.203506 0 0 0-23.955883 10.421023c-0.602123 1.918191-14.364928 47.726827-1.371979 98.318038 16.442251 64.108866 48.432171 101.707129 90.060355 105.887581 0.950494 0.090318 1.883784 0.103221 2.804171 0.055912 3.935302-0.258053 96.31813-8.335099 90.344213-200.463857a17.190604 17.190604 0 0 0-26.377276-13.995052z" fill="#EDBE74" p-id="12692"></path><path d="M114.601157 571.732724c-1.113927 0-2.236456-0.055911-3.367587-0.159132-49.472983-4.963212-86.765884-47.129005-105.134927-118.742901-14.309016-55.717856 0.963396-105.63813 1.62143-107.732657a34.407012 34.407012 0 0 1 19.121698-21.34095 34.733879 34.733879 0 0 1 28.764262 0.589221c22.665619 10.98874 42.531368 27.344973 58.3887 47.924667C139.047339 345.807679 166.701975 327.85582 170.35772 325.529046c10.283396-6.520129 23.856962-7.036234 34.557543-1.341874a34.450021 34.450021 0 0 1 18.24862 29.327677c2.627836 84.503623-12.752099 146.431944-45.709716 184.04311-26.669736 30.441604-55.253361 33.75758-60.711174 34.110252-0.825768 0.043009-1.479502 0.064513-2.141836 0.064513zM40.587372 355.295412c-0.163433 0.498902-12.992948 42.896943-1.161237 88.980835 14.515458 56.599535 41.193796 89.64317 75.114809 93.045164l0.14623-0.004301c3.045021-0.240849 79.514606-8.227577 74.091201-182.748546-1.513909 0.9806-38.398226 24.622518-62.779895 56.504916l-15.646589 20.463571-12.906931-22.291443c-14.093972-24.33866-33.224271-42.49266-56.857588-53.950196z" fill="#6E6E96" p-id="12693"></path><path d="M179.552994 340.083212c-2.743959 1.728952-66.964648 42.918447-85.454116 92.064563-0.163433 0.434389-0.111823 0.88168-0.240849 1.32467-7.616852 19.435661-11.560756 37.895023-11.560756 54.844778 0 23.908573 7.732976 43.813029 22.368859 57.567233l-1.397785-1.539714c0.215044 0.309663 4.842787 5.518025 4.842787 5.518025 4.12024 4.623442 8.421116 4.773973 14.481051 3.492312 20.867853-4.481513 88.555048-32.101743 83.372492-199.25531a17.186303 17.186303 0 0 0-9.139362-14.67029 17.186303 17.186303 0 0 0-17.272321 0.653733z" fill="#FFE76E" p-id="12694"></path><path d="M121.869638 585.658962l-19.655006-18.472264a30.901798 30.901798 0 0 1-6.945915-5.879299c-0.012903-0.017204-2.030014-2.283765-3.492312-3.952505-17.461559-17.022869-26.682638-40.87123-26.682638-69.037671 0-18.463663 4.064328-38.449836 12.089764-59.416609 0.176336-0.842972 0.434389-1.793466 0.817166-2.817075 20.639907-54.861981 89.462533-98.713719 92.382829-100.554493 10.193077-6.455616 23.79675-6.988924 34.514534-1.294564a34.450021 34.450021 0 0 1 18.261522 29.336279c2.331075 75.084703-9.375911 132.518608-34.794091 170.693188-22.011886 33.056537-48.393463 42.952854-62.160569 45.911858-1.548316 0.326867-2.980507 0.576317-4.335284 0.752653v14.730502z m-34.407012-39.774506h11.999445-11.999445z m30.497515-10.855412l1.27306 1.445094c7.079243-1.565519 24.811757-7.732976 40.492753-31.284576 21.069994-31.64585 31.112541-83.712261 29.039518-150.560786-0.653733 0.395681-60.659563 38.591765-78.026502 82.172548-0.090318 0.430088-0.19784 0.890281-0.335469 1.37628l-0.533309 1.56982c-6.885703 17.573382-10.378015 33.916713-10.378015 48.569799 0 18.726017 5.672856 34.110252 16.407844 44.518373l0.086018-0.068814c0.627928 0.679538 1.307466 1.427891 1.974102 2.262262z" fill="#6E6E96" p-id="12695"></path><path d="M181.170124 464.94626c-1.354776 2.10743-26.274055 41.305618-35.594054 83.217661-19.08729-13.388629-47.554792-27.4783-83.776775-28.093326a17.225011 17.225011 0 0 0-13.169284 5.784679 17.259418 17.259418 0 0 0-4.180452 13.745601c0.266654 2.004208 7.057738 49.339656 40.105674 89.776498 41.886237 51.232042 86.744379 71.897753 126.252231 58.152151 0.885981-0.301061 1.746156-0.683839 2.584827-1.144033 3.466507-1.883784 83.867093-48.070897-2.399889-219.869411a17.203506 17.203506 0 0 0-14.446644-9.461928 17.233612 17.233612 0 0 0-15.375634 7.892108z m-38.85842 118.239698c0.025805 0.434389 0.017204 0.855874 0.04731 1.294564a18.794831 18.794831 0 0 1-0.04731-1.294564z" fill="#E6BC25" p-id="12696"></path><path d="M186.288167 708.883377h-0.004301c-38.561659-0.004301-78.344767-23.732237-115.044147-68.616185-36.372513-44.505471-43.554977-96.236414-43.843135-98.416958a34.355402 34.355402 0 0 1 8.339399-27.387982 34.510233 34.510233 0 0 1 25.762251-11.599464l0.606423 0.004301c25.17303 0.430088 50.062203 6.898606 73.080495 18.880848 12.029552-35.589753 30.579232-64.650776 31.521124-66.113075a34.179066 34.179066 0 0 1 30.734064-15.758411 34.480127 34.480127 0 0 1 28.936298 18.923856c37.942333 75.566401 50.0493 138.221571 35.981133 186.210752-11.405925 38.901428-35.942425 53.881381-40.750806 56.496314-1.647236 0.903184-3.427799 1.690244-5.234166 2.30527a91.488246 91.488246 0 0 1-30.084632 5.070734z m-124.781331-171.613577c0.055911 0.507503 6.266377 44.380745 36.372513 81.222054 29.516916 36.101558 60.913315 55.98451 88.408818 55.988811h0.004301c6.42981 0 12.777904-1.075219 18.872246-3.195551 2.829977-1.587023 68.814025-41.000256-9.539344-197.040359-0.9806 1.565519-24.540802 38.471341-33.250077 77.656627l-5.591139 25.142925-21.082897-14.790715c-22.992486-16.132588-47.950473-24.536501-74.194421-24.983792z m63.68738 48.363357a35.976832 35.976832 0 0 1-0.086018-2.447199l34.376906-0.997803c0.025805 0.412884 0.038708 0.821467 0.04731 1.230051l-34.338198 2.214951z" fill="#6E6E96" p-id="12697"></path><path d="M181.152921 465.006472c-1.681643 2.597729-39.05626 61.369208-39.05626 112.252878 0 2.421394 0.086018 4.829884 0.266654 7.221172 0.038708 0.511804 0.29676 0.946193 0.378477 1.436493 3.148242 50.092309 24.282749 86.421814 57.06403 97.29873-0.012903-0.017204-1.900987-0.808565-1.900987-0.808565 0.326867 0.193539 6.666359 2.959003 6.666358 2.959004 5.685759 2.468703 9.685574 0.808565 14.640184-2.933198 17.044374-12.833816 66.835622-66.375428-8.197471-215.843791a17.199205 17.199205 0 0 0-14.455246-9.457628 17.203506 17.203506 0 0 0-15.405739 7.874905z" fill="#FFE042" p-id="12698"></path><path d="M246.659571 716.891609l-40.200293-13.341319a31.000718 31.000718 0 0 1-8.743682-2.408491c-0.021504-0.008602-2.774065-1.208546-4.786875-2.098828-38.217589-13.49185-63.24439-54.535115-67.231303-110.188457a19.28083 19.28083 0 0 1-0.4903-3.113835 112.992629 112.992629 0 0 1-0.309663-8.485629c0-56.289872 40.105674-118.953644 41.813122-121.594382a34.299491 34.299491 0 0 1 30.76417-15.711102 34.437119 34.437119 0 0 1 28.910492 18.910954c33.71027 67.158187 47.258032 124.187811 40.256205 169.510447-5.892201 38.161678-24.734341 58.19086-36.114461 67.063569l16.132588 21.457073z m-52.668534-29.306173l-7.935117 5.969616 7.935117-5.969616z m13.685389-19.642103l1.367679 0.606423c5.827688-4.455708 19.276529-17.508868 23.586007-45.425858 5.801882-37.576758-6.993225-89.036746-37.000441-148.818931-0.395681 0.606424-36.333805 56.707057-36.333805 102.954383 0 1.475201 0.038708 2.9461 0.116124 4.404098 0.111823 0.455893 0.215044 0.954795 0.301061 1.492404l0.189238 1.681643c2.666543 42.402342 19.319537 72.947167 44.569984 81.798371l0.051611-0.094619c1.075219 0.438689 2.124633 0.877379 3.152542 1.402086z" fill="#6E6E96" p-id="12699"></path><path d="M259.0676 574.455179a17.151896 17.151896 0 0 0-12.842417 11.552154c-0.726848 2.240757-13.324116 41.765812-13.324116 82.249964 0 2.473004 0.124725 4.933105 0.240849 7.423313-21.88286-8.124356-52.956693-14.57137-88.258287-5.8879a17.190604 17.190604 0 0 0-11.246793 8.954424 17.311028 17.311028 0 0 0-0.533308 14.356326c0.791361 1.875182 19.439962 45.916158 61.72618 76.572807 53.593223 38.828314 102.223234 47.374155 136.935609 23.990289 0.778459-0.520406 1.509608-1.113927 2.193447-1.750457 2.868685-2.705251 68.805423-67.897938-58.448913-211.977302a17.246515 17.246515 0 0 0-16.442251-5.483618z" fill="#E3B50D" p-id="12700"></path><path d="M288.008199 823.789895h-0.004301c-31.723265 0-66.470047-13.521956-103.272648-40.18739-45.004372-32.62645-65.317412-78.675935-67.485054-83.819783a34.398411 34.398411 0 0 1 23.517193-46.694617c24.566607-6.047032 50.212734-6.150253 75.46318-0.387079 2.421394-36.467132 12.356418-68.069973 13.629478-71.992373a34.398411 34.398411 0 0 1 25.693436-23.091406 34.776888 34.776888 0 0 1 32.837193 10.919926c55.98451 63.386319 83.682155 120.871835 82.33168 170.869524-1.096724 40.518558-20.988278 61.274588-24.966589 65.024953a34.893011 34.893011 0 0 1-4.417 3.522418c-15.590678 10.502741-33.546837 15.835827-53.326568 15.835827z m-109.014319-140.935423c-10.089856 0-20.188315 1.221449-30.011516 3.638541 0.675238 1.61713 17.852939 41.645388 55.932899 69.252714 30.37279 22.003284 59.102646 33.637156 83.084334 33.637156h0.004301c12.812311 0 24.295652-3.358985 34.140358-9.986635 2.309571-2.240757 56.040422-57.21026-59.541335-188.073031-0.529008 1.556917-12.502648 38.961641-12.502648 76.93408 0 1.965501 0.094619 3.922399 0.184937 5.896501l1.217148 26.695541-24.355864-9.044743c-15.99496-5.93521-32.196362-8.950124-48.152614-8.950124z" fill="#6E6E96" p-id="12701"></path><path d="M259.0676 574.523993a17.169099 17.169099 0 0 0-12.846718 11.552154c-0.726848 2.240757-13.319815 41.722803-13.319815 82.18545 0 14.872431 1.703147 29.88249 6.330891 43.228111 0.19784 0.572017 0.580618 1.015007 0.812865 1.552616 15.865934 47.481677 45.520477 77.097513 79.914587 79.230748l-2.06442-0.29246c0.361274 0.094619 7.246977 1.165538 7.246977 1.165538 6.13305 0.941892 9.552247-1.698846 13.388628-6.558837 13.182187-16.769118 47.662314-81.260762-63.046549-206.592605a17.212108 17.212108 0 0 0-16.416446-5.470715z" fill="#FFDC2B" p-id="12702"></path><path d="M327.477343 810.538895c-1.608528 0-3.272967-0.129026-4.950309-0.387079l-5.161052-0.817167c-40.355125-3.268666-75.041694-36.548849-93.122579-89.307701a20.338845 20.338845 0 0 1-1.277361-2.920296c-4.825583-13.921937-7.272782-30.364188-7.272782-48.845055 0-42.561474 12.70909-83.01982 14.158486-87.48843a34.415614 34.415614 0 0 1 25.697737-23.091407c12.008047-2.485907 24.73004 1.754758 32.82429 10.919926 49.735336 56.307076 77.389973 107.982108 82.198353 153.597204 4.163249 39.482047-9.818901 63.949734-18.519575 75.015889-2.890189 3.664347-10.515643 13.324116-24.575208 13.324116z m-5.10084-35.245684l2.79557 0.442991c4.46431-5.754573 14.145583-21.831249 11.182279-49.928876-3.986913-37.813307-29.495411-84.29718-73.768635-134.419596-0.511804 1.565519-12.481144 38.95734-12.481144 76.878168 0 14.085371 1.677342 26.325665 4.980416 36.411221 0.262353 0.485999 0.503203 0.976299 0.718246 1.475201l0.554813 1.445094c13.435938 40.200293 37.314405 65.386226 63.93253 67.46355l0.021504-0.103221 2.064421 0.29246v0.043008z" fill="#6E6E96" p-id="12703"></path><path d="M268.211264 859.474268c-4.649248 1.341873-17.345435 6.077139-22.527992 19.143202a28.054618 28.054618 0 0 0-2.004208 10.489838c0 5.771776 1.703147 12.734895 6.8685 20.588296l23.181724 35.331701c14.124079 21.521586 38.36812 18.119593 50.333159 10.919925 0.640831-0.399982 1.260157-0.812866 1.845076-1.294564 158.422788-126.161913 304.097778-83.252067 310.213624-81.381186a17.203506 17.203506 0 0 0 12.661781-31.878097c-128.987589-63.007842-308.600795-8.571647-380.571664 18.080885z" fill="#FFBF00" p-id="12704"></path><path d="M303.534363 978.655858c-18.261522 0-33.95542-8.58885-44.191507-24.188129l-23.181724-35.331701c-6.42551-9.767291-9.685574-19.874351-9.685574-30.024419 0-5.870696 1.092423-11.560756 3.247161-16.919649 7.659861-19.306635 25.17303-26.652532 33.047936-29.04812 48.974081-18.098089 145.206194-48.199924 243.313489-48.199924 57.597339 0 108.149842 10.429626 150.251123 30.996418 16.04657 7.814693 23.461282 26.966496 16.863737 43.585083-5.182556 13.173585-17.749718 21.723727-31.98992 21.723727-3.440701 0-6.855597-0.516105-10.150069-1.531112-1.006405-0.305362-25.766551-7.75448-64.7669-7.75448-55.421095 0-140.251584 14.949847-229.666808 86.150858a32.402804 32.402804 0 0 1-3.488011 2.4515c-8.623257 5.186857-19.336741 8.089949-29.602933 8.089948z m202.54548-149.304929c-93.096774 0-185.251656 28.979306-231.894662 46.255927l-1.195643 0.395681c-2.055819 0.593521-8.950124 2.997711-11.315607 8.958726a11.04035 11.04035 0 0 0-0.791361 4.150346c0 3.315976 1.359077 7.06634 4.034222 11.134969l23.190327 35.348904c3.823479 5.823387 8.868407 8.657665 15.427244 8.657665 4.868592 0 9.212478-1.56982 11.655375-3.04072 97.186908-77.407176 190.189062-93.651587 251.093775-93.651587 43.348535 0 71.773028 8.326497 74.86966 9.27269-37.284299-18.231416-82.753166-27.482601-135.07333-27.482601z" fill="#6E6E96" p-id="12705"></path><path d="M1000.229055 255.252723c-27.658937 23.465582-40.759407 52.436287-47.030085 74.908367-33.779084-26.536408-77.863069-41.129283-80.241454-41.903441a17.203506 17.203506 0 0 0-22.089302 20.141005c40.583071 180.606709 126.78554 173.2006 136.462512 171.768408a20.472172 20.472172 0 0 0 3.698754-0.911786c39.288507-14.42514 60.89181-58.814487 60.8402-124.996375-0.068814-52.238447-24.820359-93.161287-25.878374-94.881638a17.147595 17.147595 0 0 0-11.934933-7.982427 17.134692 17.134692 0 0 0-13.827318 3.857887z" fill="#FFFFFF" p-id="12706"></path><path d="M980.591253 497.809258c-31.512523 0-108.863787-18.098089-146.505059-185.638735a34.437119 34.437119 0 0 1 10.399519-32.979121c8.98023-8.197471 22.132311-11.061855 33.766182-7.302889 4.158948 1.354776 35.430621 11.870419 66.255004 31.220063 10.210281-23.869865 25.370871-44.664603 44.591488-60.973527a34.613455 34.613455 0 0 1 27.72345-7.720073 34.24788 34.24788 0 0 1 23.852661 15.990659c1.131131 1.840775 28.329874 46.690316 28.402989 103.831762 0.064513 73.94067-25.547207 124.071687-72.112797 141.167671a37.97674 37.97674 0 0 1-7.117951 1.780563c-1.922492 0.283858-5.087937 0.623627-9.255486 0.623627z m-112.962523-193.195375c33.129652 147.330827 94.838629 158.784062 112.966824 158.788362 2.326774 0 3.823479-0.193539 4.223461-0.253751a3.122436 3.122436 0 0 0 0.473096-0.107522c31.822186-11.689782 49.421373-50.34176 49.374063-108.769168-0.064513-47.511783-23.091406-85.501426-23.323654-85.879903-20.029182 16.984162-34.024234 39.331516-41.576573 66.392631l-6.924412 24.824659-20.270031-15.921845c-31.508222-24.747244-73.188016-38.501447-74.942774-39.073463z" fill="#6E6E96" p-id="12707"></path><path d="M856.119585 291.947801a17.216409 17.216409 0 0 0-5.191158 16.48526c36.664973 163.166655 109.096035 173.032866 130.424081 172.172691 6.193262-0.253752 10.322104-1.479502 13.156381-6.988925l3.18695-6.197563c0.086018-0.180637-0.159132 0.227946-0.382778 0.640831 6.588943-10.747891 9.999538-23.10861 9.999538-36.785398 0-22.91507-9.754388-48.152614-27.689043-73.239626-0.318265-0.623627-0.4903-1.316068-0.916087-1.883784-30.157746-43.000164-102.623215-66.857126-105.711245-67.846328a17.143294 17.143294 0 0 0-16.876639 3.642842z" fill="#FFF6C7" p-id="12708"></path><path d="M979.090247 497.852267c-31.039426 0-107.289667-18.089487-144.943841-185.651638a34.510233 34.510233 0 0 1 10.373714-32.961918c9.044743-8.24478 22.22693-11.08766 33.826395-7.285685 3.182649 1.019308 80.641435 26.261152 114.356006 74.190121 0.911786 1.264458 1.539714 2.447199 1.969802 3.371887 19.534581 27.792264 29.843782 56.027519 29.843782 81.755363 0 16.296021-3.969709 31.280275-11.797304 44.548479l-2.915995 5.659954c-7.965223 15.500359-22.850557 16.111084-27.744954 16.308923-0.928989 0.043009-1.91389 0.064513-2.967605 0.064514z m18.622795-29.005112v15.732607-15.732607zM867.744854 304.686998c33.073741 147.309323 93.587074 158.758256 111.345393 158.758256 0.460194 0 0.903184-0.004301 1.316068-0.021504l1.797767-3.492312-0.038708-0.021504c0.275256-0.511804 0.563415-0.997803 0.855874-1.457998 4.705159-7.930816 7.087845-17.07448 7.087845-27.177239 0-18.971166-8.468426-40.832522-24.48059-63.231487l-1.320369-2.167641a27.585822 27.585822 0 0 1-0.425786-0.877379c-27.590123-38.002545-95.449353-60.087546-96.137494-60.311192z" fill="#6E6E96" p-id="12709"></path><path d="M891.687834 412.372345a17.147595 17.147595 0 0 0-12.274702 12.162879c-11.018846 40.858327-15.349828 74.129908-15.349828 101.191024 0 78.202838 36.019841 104.519902 50.143919 111.788383 4.56323 2.343978 8.692072 3.492312 12.390826 3.543922-0.928989 0.025805-1.845076 0.090318-2.778367-0.05161 41.486255 5.552432 81.290868-23.654821 112.076543-82.245663 24.282749-46.204317 21.469976-93.978454 21.336648-95.982662a17.057276 17.057276 0 0 0-6.846995-12.635975 17.203506 17.203506 0 0 0-14.055265-3.032118c-35.409117 7.870604-60.504731 27.400885-76.525496 44.35494-17.504568-39.211092-49.726735-72.66761-51.464289-74.461076a17.22071 17.22071 0 0 0-16.652994-4.632044z" fill="#FFDF6B" p-id="12710"></path><path d="M933.784813 658.881386c-3.931001 0-7.917914-0.258053-11.853215-0.769857l-0.640831-0.086018 0.025805-0.184937c-4.872893-0.731149-9.887715-2.417093-14.971351-5.027725-17.891646-9.212478-59.485424-40.019656-59.485424-127.090902 0-30.897497 5.363193-66.448543 15.94335-105.672537a34.450021 34.450021 0 0 1 24.575208-24.338661c11.685482-3.036419 24.798854 0.58922 33.271581 9.268389 3.079428 3.182649 25.882675 27.185841 44.066782 58.500523 20.162509-16.364835 43.27542-27.697645 67.880734-33.16836a34.811295 34.811295 0 0 1 28.119131 6.072838 34.179066 34.179066 0 0 1 13.685389 25.327862c0.141929 2.116031 3.311675 54.462-23.276344 105.053211-31.20716 59.403707-72.882654 92.116174-117.340815 92.116174z m-6.954517-34.828499c33.602749 4.090134 67.007657-22.231231 93.832224-73.286936 22.093603-42.032467 19.43136-86.387406 19.401254-86.830397-25.65903 5.677157-48.457976 18.923857-67.756009 39.34872l-17.702408 18.738919-10.507042-23.538698c-16.201402-36.286495-46.827944-68.177495-48.118207-69.515067-9.750087 36.351009-14.713299 68.891441-14.713298 96.76112 0 70.039775 31.241567 91.565662 40.815318 96.494467 2.99341 1.539714 4.481513 1.638634 4.748168 1.638634v0.189238z" fill="#6E6E96" p-id="12711"></path><path d="M891.71794 412.428256a17.147595 17.147595 0 0 0-12.274702 12.162879c-43.593685 161.403295 15.878836 203.930363 35.146763 213.117035 5.629847 2.670844 9.900618 3.492312 14.96275-0.090318l5.64275-3.97401c0.279557-0.266654-1.488103 0.971998-1.488103 0.971998 24.82896-14.270308 38.471341-43.279721 38.47134-81.708053 0-7.543737-0.683839-15.668093-1.81927-24.037599 0-0.090318 0.051611-0.19784 0.05161-0.288158 0-0.731149-0.04731-1.479502-0.141929-2.227854-6.640553-52.096518-59.653158-106.984304-61.906817-109.298176a17.199205 17.199205 0 0 0-16.644392-4.627744z" fill="#FFF0A3" p-id="12712"></path><path d="M922.697154 657.221247c-6.313687 0-11.590862-2.120332-15.487457-3.969709-12.739196-6.072838-36.118761-21.805444-49.907371-59.046734-15.917544-43.008766-14.059565-101.582403 5.526626-174.095182a34.437119 34.437119 0 0 1 24.575209-24.33436c11.625269-3.04072 24.794553 0.584919 33.26728 9.276991 6.072838 6.236271 59.429512 62.46163 66.654985 119.134281a33.116749 33.116749 0 0 1 0.275256 3.909497c1.191343 9.178071 1.771961 17.306727 1.771961 24.820358 0 44.096887-16.214305 78.078113-45.67961 95.784822l-4.240664 2.989109c-5.182556 3.664347-10.833908 5.530927-16.756215 5.530927z m12.524152-18.807733v12.399427-12.399427z m-39.185286-209.349467c-17.422851 64.564759-19.659307 117.534355-6.459917 153.197223 9.801698 26.484798 25.590216 36.60476 32.179159 39.808913l2.133234-1.505307-0.034407-0.05161c0.9806-0.683839 2.171943-1.518209 3.62994-2.249359 17.749718-11.590862 27.491203-34.686569 27.491203-65.351819 0-6.270678-0.559114-13.582168-1.664439-21.728028l-0.154832-2.984808c-4.920203-37.069255-39.473445-81.015612-57.119941-99.135205z" fill="#6E6E96" p-id="12713"></path><path d="M849.444624 544.318937c-109.771272 158.375478-36.333805 215.069633-33.155457 217.405009 0.731149 0.53761 1.509608 1.015007 2.313871 1.436493 37.185379 19.143202 84.495021 4.989017 133.180944-39.860524 38.411129-35.404816 51.769651-81.320974 52.320163-83.26067a17.212108 17.212108 0 0 0-14.446644-21.779638c-35.946726-4.46431-66.173287 5.479317-86.950822 16.063774-3.320277-42.802323-22.467779-85.118648-23.508591-87.389511a17.1734 17.1734 0 0 0-14.124078-9.947928 17.160497 17.160497 0 0 0-15.629386 7.332995z" fill="#EDBE74" p-id="12714"></path><path d="M853.392829 788.677539c-15.130484 0-29.482509-3.440701-42.664696-10.223183a34.98333 34.98333 0 0 1-4.632044-2.877287c-3.720258-2.731057-89.995842-69.080679 29.211554-241.05983a34.364004 34.364004 0 0 1 31.293178-14.67029 34.424216 34.424216 0 0 1 28.235254 19.91736c1.810669 3.943904 15.263811 34.032836 21.895763 69.82043 24.373067-8.644762 49.847159-11.534951 75.045995-8.399612a34.450021 34.450021 0 0 1 24.446182 15.130483 34.39411 34.39411 0 0 1 4.425602 28.424494c-0.602123 2.116031-15.250908 52.530906-57.21026 91.208689-37.447732 34.497331-75.501888 52.728747-110.046528 52.728746z m10.171573-234.574108c-99.659912 143.825613-39.658383 191.810493-37.052052 193.784595 30.316879 15.586377 71.089189 1.939695 113.616256-37.24129 34.893011-32.166256 47.30104-74.87396 47.421465-75.299747-26.028905-3.311675-52.199739 1.655837-77.033 14.309016l-22.966681 11.698385-1.995606-25.697738c-3.096631-39.959444-21.220525-79.871579-21.990382-81.553221z" fill="#6E6E96" p-id="12715"></path><path d="M849.448925 544.374848c-95.260115 137.460316-53.494303 197.444641-38.411129 212.562222 4.378292 4.391195 8.029737 6.588943 14.025159 4.941707l6.760978-1.870881c0.331167-0.129026-1.685944 0.408583-1.685944 0.408583 33.946819-6.167457 59.945617-39.116472 70.099987-88.215279 0.167734-0.511804 0.485999-0.946193 0.623627-1.483802 1.694545-7.737277 2.417093-15.861633 2.417093-24.136519 0-46.599997-22.906469-97.105191-24.054803-99.586797a17.169099 17.169099 0 0 0-14.124078-9.952228 17.22071 17.22071 0 0 0-15.65089 7.332994z" fill="#FFE76E" p-id="12716"></path><path d="M821.342697 779.628495c-11.969339 0-19.611997-7.659861-22.484983-10.545749-9.943627-9.96083-26.708443-32.617848-27.198743-72.336443-0.563415-45.851645 20.85495-100.412565 63.648672-162.168852a34.488729 34.488729 0 0 1 31.297479-14.670289 34.450021 34.450021 0 0 1 28.256759 19.925961c1.023609 2.219252 25.616021 56.040422 25.61602 106.752057 0 9.926423-0.946193 19.28083-2.812773 27.813768l-0.111823 0.498902a20.85495 20.85495 0 0 1-0.847272 2.60203c-11.754296 54.457699-42.269015 91.548458-81.953203 99.548089l-5.109442 1.410688a31.112541 31.112541 0 0 1-8.300691 1.169838z m10.511342-8.360904v5.926608-5.926608z m31.753372-217.056638c-38.118669 54.939397-58.010223 104.094115-57.541428 142.109563 0.348371 28.235255 11.82311 43.051774 16.958356 48.273039l2.69665-0.744052-0.012903-0.055911c1.453696-0.387079 2.69665-0.718246 4.098736-0.885981 25.280552-6.193262 45.215115-33.697368 53.584621-74.18582l0.498901-1.879483c0.141929-0.438689 0.29676-0.860175 0.468796-1.281661 1.135431-5.74167 1.707448-12.115569 1.707448-18.979768 0.008602-43.232411-22.235532-91.883927-22.459177-92.369926z" fill="#6E6E96" p-id="12717"></path><path d="M784.058398 635.992121c-108.102532 63.39492-127.96398 120.213801-127.96398 153.352054 0 11.199483 2.262261 19.685112 4.163248 24.82466a24.760146 24.760146 0 0 0 5.165353 8.511434c-0.430088-0.447291-1.027909-0.649432-1.414988-1.161236 25.714941 33.02213 74.568598 40.071267 137.593642 19.865748 49.726735-15.964854 81.170443-52.001898 82.486512-53.524408a17.12609 17.12609 0 0 0 3.969709-13.810115 17.225011 17.225011 0 0 0-7.90071-12.003746c-29.310474-18.304531-61.068146-22.721531-85.707868-21.88286 15.027263-40.269107 15.50466-86.79599 15.513261-89.2991v-0.081717a17.229311 17.229311 0 0 0-8.640461-14.911139 17.298126 17.298126 0 0 0-17.263718 0.120425z m-23.005389 109.207857c-2.494508 0.78706-4.584734 1.556917-6.115846 2.309571 1.926793-1.187042 3.956806-1.948297 6.115846-2.309571z m-91.316211 80.994107c0.270955 0.141929 0.54191 0.266654 0.808565 0.378478-0.275256-0.124725-0.53761-0.236548-0.808565-0.378478z" fill="#E6BC25" p-id="12718"></path><path d="M737.312171 869.895292c-37.516546 0-67.519461-13.027355-86.783088-37.679979l-0.219344-0.279557 0.253751-0.189239a42.320625 42.320625 0 0 1-6.438412-11.595163c-2.391287-6.47712-5.234167-17.057276-5.234167-30.802878 0-40.221798 23.676325-102.051199 136.462513-168.190079 10.446829-6.124448 23.990289-6.193262 34.484428-0.223645a34.557543 34.557543 0 0 1 17.328232 29.856685c-0.004301 1.849377-0.249451 36.346708-9.61246 72.91276 20.906561 2.004208 46.707519 8.141559 71.712816 23.753741a34.355402 34.355402 0 0 1 15.79712 23.998892 34.226376 34.226376 0 0 1-7.952321 27.646034c-3.621338 4.197656-36.940229 41.550768-90.249594 58.668257-25.095615 8.04694-48.496684 12.124171-69.549474 12.124171z m-59.489725-58.63385c12.691887 16.072376 32.703865 24.226838 59.489725 24.226838 17.483063 0 37.353113-3.526719 59.042433-10.481236 45.098992-14.481051 74.418067-48.040791 74.706226-48.380561-25.650428-15.99496-52.728747-19.353945-70.930056-19.353944-1.728952 0-3.432099 0.030106-5.092238 0.090318l-25.693437 0.873078 8.984531-24.084909c14.115477-37.826209 14.429441-82.886493 14.429441-83.342386-103.943585 60.982129-119.461147 112.971124-119.461147 138.535535 0 8.661965 1.685944 15.040165 3.096631 18.867946 0.567716 1.52251 1.118228 2.202049 1.681643 2.812773l-0.253752 0.236548z m-1.359077 1.27736l-1.71605 4.081532 2.829977-5.414803-0.713945 0.550512-0.399982 0.782759z m0.460194-0.924688l-0.051611 0.124725 0.838671-0.791361-0.064513-0.034407-0.180637-0.090318h0.004301a2.141837 2.141837 0 0 0-0.141929-0.068814l-0.038708-0.017204a0.842972 0.842972 0 0 0-0.060212-0.025805l-0.189238 0.447291 0.103221-0.086018-0.124726 0.296761 0.559114-0.430088-0.58922 0.498902 0.54191-0.425787-0.606423 0.602123z m85.604647-48.664418l-16.609985-30.088933a34.127455 34.127455 0 0 1 12.296206-4.627743l8.003931 33.379103c-2.559022 0.804264-3.522418 1.251555-3.690152 1.337573z" fill="#6E6E96" p-id="12719"></path><path d="M784.041194 636.056634c-144.225594 84.598242-131.589619 156.599216-124.278129 176.645602 2.120332 5.823387 4.546027 9.393114 10.661873 10.408121l6.898606 1.161237c0.051611 0 0.064513 0 0.064514-0.008602s-0.305362-0.073115-0.516106-0.094619c33.245776 7.960923 70.327933-11.096262 99.883557-51.176131 0.240849-0.266654 0.584919-0.369875 0.808565-0.653733 31.761973-41.817423 32.407105-118.123575 32.428609-121.349232v-0.077416a17.229311 17.229311 0 0 0-8.63616-14.911139 17.216409 17.216409 0 0 0-17.315329 0.055912z" fill="#FFE042" p-id="12720"></path><path d="M692.028241 843.14384c-6.102944 0-12.184383-0.670937-18.080885-1.999908l-6.373899-1.070918c-17.186303-2.855782-22.295744-16.87664-23.973086-21.482878-4.816982-13.220895-10.481236-40.82392 5.78898-77.050204 18.781928-41.838927 61.162765-82.318777 125.955471-120.325623 10.472634-6.13305 24.050502-6.18466 34.579047-0.137628a34.518835 34.518835 0 0 1 17.272321 29.83088c-0.060212 8.894213-1.544015 86.559442-35.929523 131.826167a20.730225 20.730225 0 0 1-1.853678 2.055819c-28.295467 37.654174-62.814302 58.354293-97.384748 58.354293z m-31.852291-18.885149c0 8.670567 6.158855 14.906838 12.683284 16.609985l2.971906-16.601383-15.65519-0.008602z m17.143293-17.194904l0.004301 8.915717-0.004301-8.915717z m4.507319 0.58922c25.934286 5.599741 56.367288-11.375818 81.071523-44.879647l0.997804-1.230051a18.966866 18.966866 0 0 1 1.070918-1.105325c21.555993-29.633039 27.650335-84.452012 27.813768-109.573432-57.717763 33.860801-96.438555 70.078483-112.012029 104.760751-11.573659 25.775153-7.388906 44.053879-4.928804 50.943883l3.075127 0.516105v-0.008602c1.019308 0.129026 1.991306 0.322566 2.911693 0.576318z" fill="#6E6E96" p-id="12721"></path><path d="M668.304606 696.083968c-185.157037 51.696536-165.286987 142.251492-164.349396 146.087874 0.223646 0.916087 0.520406 1.806368 0.890282 2.670844 16.425048 38.475642 61.868109 57.795179 127.959679 54.341575 52.161031-2.722455 91.763502-29.529818 93.423641-30.686754a17.186303 17.186303 0 0 0 7.46202-14.17999 17.203506 17.203506 0 0 0-4.670751-11.784402c-24.889173-26.454692-54.483504-37.97674-77.252345-43.08188 24.798854-35.08225 37.129467-79.92749 37.7789-82.344583a17.199205 17.199205 0 0 0-21.24203-21.022684z" fill="#E3B50D" p-id="12722"></path><path d="M618.048864 916.779147c-65.261501 0-111.08304-23.151618-129.026297-65.184085a34.351101 34.351101 0 0 1-1.784864-5.358892c-1.092423-4.472912-24.549403-110.609943 176.43916-166.723479a34.234977 34.234977 0 0 1 9.255486-1.27306c9.122159 0 17.715311 3.535321 24.192431 9.952228a34.179066 34.179066 0 0 1 10.210281 24.454785 34.622056 34.622056 0 0 1-1.169838 8.898513c-1.139732 4.223461-10.025343 36.01554-27.809468 67.829124 24.390271 8.967328 45.941963 23.026893 63.188478 41.365831a34.312393 34.312393 0 0 1 9.122159 27.461097 34.342499 34.342499 0 0 1-14.708998 24.471987c-1.703147 1.187042-44.677506 30.678152-102.261941 33.680165a293.758471 293.758471 0 0 1-15.646589 0.425786z m54.887786-204.149707c-168.185778 46.978475-152.98648 122.316929-152.259632 125.503879 12.184383 28.510511 46.767732 44.238816 97.367545 44.238816a267.944609 267.944609 0 0 0 13.861725-0.369875c47.378456-2.473004 83.867093-27.198743 84.495021-27.633132-17.964761-19.203414-40.978752-31.98992-68.39684-38.131572l-25.177331-5.64275 14.893935-21.069994c23.155919-32.768378 34.73818-75.110508 35.215577-76.895372z" fill="#6E6E96" p-id="12723"></path><path d="M668.270199 696.139879c-161.089331 44.965664-167.222381 117.822513-165.269783 139.064543 0.567716 6.171758 1.952598 10.188777 7.591047 12.743497l6.442713 2.920295 0.04731 0.012903c0-0.012903-0.227946-0.107522-0.352672-0.176336 30.054525 16.145491 70.633296 7.225473 109.435804-23.947281 0.322566-0.210743 0.692441-0.283858 0.9849-0.537609 41.395937-32.316786 61.52834-105.926289 62.345507-109.044424 0.412884-1.479502 0.606424-2.963304 0.606424-4.455709a17.1734 17.1734 0 0 0-5.109442-12.227392 17.160497 17.160497 0 0 0-16.721808-4.352487z" fill="#FFDC2B" p-id="12724"></path><path d="M549.277848 875.804697c-0.004301 0-0.004301 0 0 0-14.360627 0-27.749256-3.18695-39.800312-9.470531l-5.98682-2.713853c-15.814323-7.16526-17.12609-21.457073-17.620692-26.837469-1.285962-14.025158 0.275256-42.157192 25.250447-73.028884 28.841678-35.654267 80.155436-63.975539 152.526286-84.176756a34.316694 34.316694 0 0 1 9.251185-1.268759c9.143664 0 17.745417 3.548223 24.222537 9.995237a34.536039 34.536039 0 0 1 10.180175 24.420377c0 3.075127-0.417185 6.128749-1.234352 9.070549-0.808565 3.083728-21.852754 81.553221-68.164592 117.852619a18.334637 18.334637 0 0 1-2.288066 1.574121c-28.613732 22.626912-58.440311 34.583348-86.335796 34.583349z m-49.399869-24.92358h15.921845-15.921845z m29.787871-13.096169c23.121512 9.242584 55.322175-0.021504 85.729373-24.441882l1.402086-1.015007c0.266654-0.172035 0.529008-0.335468 0.795662-0.485999 30.433003-24.639722 50.182628-79.690942 55.270564-99.036284-64.384122 17.891646-111.074438 43.021668-134.987311 72.585894-17.758319 21.951674-18.377646 40.690593-17.75832 47.984879l4.025621 1.823572-1.544015 3.406294 1.638634-3.380489 5.427706 2.559022z" fill="#6E6E96" p-id="12725"></path><path d="M650.890357 146.526563c22.287142-15.629385 39.580967-6.167457 38.436934 21.035588l-3.595533 85.002524c-1.148334 27.198743 15.706801 62.844408 37.469237 79.209243l67.988256 51.150325c21.762435 16.364835 18.102389 35.740284-8.132957 43.051775l-81.953203 22.854858c-26.226745 7.31149-54.917893 34.355402-63.760495 60.104749l-27.637433 80.460799c-8.846903 25.749348-28.402989 28.252458-43.456057 5.578237l-47.051589-70.874145c-15.057369-22.674221-49.645018-41.602379-76.865266-42.058272l-85.071338-1.419289c-27.220248-0.455893-35.649966-18.278725-18.726017-39.606772l52.866375-66.663587c16.919648-21.328047 24.231139-60.070343 16.248712-86.103548l-24.945084-81.338178c-7.973825-26.028905 6.369598-39.550861 31.878097-30.054525l79.73395 29.68465c25.521401 9.496335 64.616369 4.481513 86.912113-11.152173l69.661298-48.862259z" fill="#FFC93F" p-id="12726"></path><path d="M786.845366 381.698493l-53.025507-39.89493c6.171758 10.416723 13.797212 19.573289 22.153815 25.869772l44.858142 33.744677c-0.890281-6.434111-5.453511-13.306912-13.98645-19.719519z m-140.285992-236.393379l-69.656996 48.853657c-22.291443 15.629385-61.395013 20.648508-86.907813 11.152173L410.260615 175.621993c-25.5128-9.496335-39.860524 4.02562-31.878097 30.054526l24.936482 81.342478c7.978126 26.028905 0.666636 64.775502-16.24011 86.103549l-52.870675 66.663586c-16.92825 21.328047-8.498532 39.150879 18.726016 39.602472l16.394941 0.270955c0.632229-0.911786 1.264458-1.823572 2.004209-2.756862L424.195455 410.243411c16.919648-21.323746 24.231139-60.070343 16.248711-86.103549L415.507684 242.797384c-7.973825-26.028905 6.365297-39.550861 31.878097-30.054525l79.733951 29.688951c25.521401 9.496335 64.62067 4.481513 86.912113-11.152173l69.652696-48.853657c0.223646-0.154832 0.430088-0.270955 0.649432-0.417185l0.653733-15.672394c1.152635-27.198743-16.14119-36.660672-38.428332-21.031287z m-125.357649 387.104696l40.716399 61.339101c7.100747 10.69628 15.203599 15.724005 22.712929 15.418643l-32.643653-49.180524c-6.963119-10.485537-18.128195-20.145306-30.785675-27.57722z" fill="#FFDB80" p-id="12727"></path><path d="M391.680828 292.438101c2.180544 7.092145 3.174047 15.139085 3.195551 23.508592 10.317803-19.973271 13.805814-47.012882 7.513632-66.388331l-23.117212-71.132197c-12.640276 2.236456-18.149699 14.321919-12.528453 32.669458l24.936482 81.342478z m383.526366 94.679497l-12.894028-9.702778-74.375058 19.564688c-25.525702 6.709367-53.446993 31.538328-62.053047 55.171644l-26.893381 73.863254c-8.606054 23.641918-27.637433 25.942887-42.29052 5.122344l-45.787131-65.067961c-14.653086-20.820543-48.311746-38.196085-74.805146-38.617571l-82.778971-1.303165c-5.462113-0.086018-10.089856-0.877379-13.930539-2.20635l-16.855136 21.254932c-16.92825 21.332348-8.498532 39.146578 18.726017 39.602471l85.071338 1.419289c27.220248 0.455893 61.807897 19.384051 76.865266 42.062573l47.042988 70.878446c15.06167 22.66992 34.626357 20.162509 43.460357-5.586839l27.637433-80.460798c8.846903-25.745047 37.542351-52.79326 63.760495-60.100449l81.953203-22.854858c26.243949-7.298588 29.908296-26.669736 8.14586-43.038872z" fill="#ED913B" opacity=".52" p-id="12728"></path><path d="M588.321205 627.674225c-13.547761 0-26.476196-8.236179-36.40692-23.190326l-47.05159-70.874145c-11.917729-17.947558-41.275512-34.011332-62.818603-34.372605L356.972754 497.82216c-19.77113-0.331167-34.781189-8.287789-41.185194-21.826948-6.399704-13.539159-3.019215-30.187853 9.27269-45.675309l52.862074-66.659286c13.39293-16.88094 19.599094-49.765443 13.281107-70.370942l-24.945084-81.338177c-5.019123-16.38634-3.543922-31.134045 4.150345-41.533565 10.085556-13.64238 29.04812-17.551877 50.178327-9.685574l79.733951 29.68465c6.550235 2.434296 14.786414 3.724559 23.826856 3.724559 17.822832 0 35.912319-4.920203 47.206421-12.838117l69.656997-48.857957c10.085556-7.074942 20.072191-10.657572 29.676048-10.657573 9.440424 0 18.145398 3.647143 24.493492 10.274795 5.621246 5.857794 12.141375 16.902445 11.328509 36.230584l-3.595533 85.006825c-0.907485 21.530188 13.401531 51.782554 30.622241 64.732493l67.992557 51.154626c15.79712 11.879021 23.267742 27.138531 20.493677 41.851829-2.778366 14.7176-15.298218 26.205241-34.3468 31.516824l-81.953203 22.854858c-20.75603 5.78898-45.107593 28.742758-52.10942 49.124612l-27.637433 80.460798c-7.031933 20.45927-21.104401 32.67806-37.654174 32.67806z m-241.313582-166.439621c1.045113 0.722547 4.257868 2.077323 10.541449 2.180544l85.071338 1.419289c32.819989 0.550512 72.753628 22.398965 90.907628 49.743938l47.051589 70.878446c3.479409 5.234167 6.352395 7.21257 7.517932 7.698569 1.006405-0.769857 3.294471-3.406294 5.333087-9.354406l27.637433-80.460799c10.661873-31.048028 43.791525-62.272392 75.41157-71.089189l81.953202-22.854858c6.059935-1.690244 8.8297-3.810577 9.655468-4.773973-0.421486-1.195644-2.223553-4.180452-7.246977-7.956621l-67.992557-51.154626c-26.231046-19.728121-45.696813-60.878908-44.311931-93.681693l3.595532-85.006825c0.262353-6.223368-0.877379-9.509238-1.539713-10.623165-1.255856 0.068814-4.472912 0.640831-9.827503 4.395496L591.108173 209.452688c-17.035772 11.943534-42.066874 19.078688-66.960347 19.078689h-0.004301c-13.087567 0-25.474092-2.034315-35.826302-5.8879L408.583273 192.97603c-6.502925-2.417093-9.646866-2.017111-10.610263-1.797766-0.361274 1.221449-0.653733 4.692256 1.182741 10.691979l24.940784 81.333876c9.621061 31.392098 1.17844 76.121214-19.220618 101.840456l-52.866374 66.663587c-3.905196 4.920203-4.898698 8.261984-5.00192 9.526442z" fill="#6E6E96" p-id="12729"></path><path d="M263.222247 929.036646s92.916137-69.678501 253.493664-87.226078l15.934748 24.648324S390.41637 903.184077 313.318857 960.252408c0.012903 0-50.09661 3.088029-50.09661-31.215762z" fill="#6E6E96" opacity=".15" p-id="12730"></path></svg>