<svg xmlns="http://www.w3.org/2000/svg" xml:space="preserve" id="图层_1" x="0" y="0" version="1.1" viewBox="0 0 32.9 32"><style>.st0{fill:#dbeaff}.st2{fill:#6e6e96}.st3{fill:#ff9fb0}.st6{fill:#f28c8c}</style><path d="m17.2 18.8.2.1s1.3 1.2 1.7 2.5c.3 1.5-1 5.3-5.5 6.1-1.5.3-.3-2.8-.4-4.4-.1 0 4-4.3 4-4.3" class="st0"/><path d="M6 22.2c-1.3 1.3-2.6 5.2-2 5.8.9.9 4.2-.6 5.6-1.9s1.9-3.3.8-4.4c-1.5-1.6-2.9-1-4.4.5" style="fill:#fabe78"/><path d="M13.4 27.9c-.3 0-.7-.2-.8-.3-.4-.6-.3-1.4-.1-2.5.1-.7.2-1.3.2-1.9 0-.1 0-.3.1-.3l4-4.3c.1-.1.3-.2.3-.1l.2.1c.1 0 .1.1.2.1.1.1 1.4 1.3 1.9 2.9.3.9-.1 2.4-.9 3.4-1.2 1.6-2.9 2.5-5.1 2.9.2 0 .1 0 0 0m.1-4.7c0 .6-.1 1.3-.2 1.9-.1.7-.3 1.7-.1 1.9h.2c2.4-.3 3.6-1.7 4.3-2.6.8-1.1.9-2.3.8-2.9-.3-1-1-1.9-1.3-2.2.1 0-3.7 3.9-3.7 3.9" class="st2"/><path d="m13 14.6.2-.2s-1.4-3.4-4.7-.8c-1.2.9-5.5 5.2-2.5 5.1s3.6.2 3.6.2z" class="st0"/><path d="M9.4 19.1c-.1 0-.7-.2-2.4-.2H5.8c-.9 0-1.3-.3-1.3-.7-.6-1.7 3.5-5.1 3.6-5.2.9-.7 1.8-1 2.5-1 1.9 0 2.9 2 2.9 2.1.1.2 0 .3-.1.4l-.2.2-3.4 4.2c-.1.2-.2.2-.4.2m-2.4-1c1.3 0 1.9.1 2.3.1l3.4-4c-.3-.4-.9-1.3-2-1.3-.7 0-1.3.3-2.1.9-1.9 1.5-3.5 3.7-3.4 4.2h.5c.5.1 1 .1 1.3.1" class="st2"/><path d="M25.8 17.5c4.4-4.5 3.5-10 2.2-12-1.1-1.5-2.8-1.8-2.8-1.8C10.3 2.2 9.4 18.8 9.4 18.8s3.2.8 3.6 4.4c.1-.1 9-1.6 12.8-5.7" class="st3"/><path d="M13.2 17.1S19.4 3.8 26 4.3c0 0-11.1-3.7-15.2 9.5z" style="opacity:.31;fill:#fff"/><path d="M7.2 22.8c-.8.8-1.3 2.6-1 3 .4.4 2.2-.3 2.9-1 .8-.8.9-1.8.4-2.2-.8-.8-1.6-.5-2.3.2" style="opacity:.52;fill:#fff"/><path d="M16.3 10.4c0 3 2.4 5.4 5.4 5.4s5.4-2.4 5.4-5.4c0-2.9-2.4-5.4-5.4-5.4s-5.4 2.5-5.4 5.4" class="st3"/><path d="M17.4 11.3c0 2.6 2.1 4.7 4.7 4.7s4.7-2.1 4.7-4.7-2.1-4.7-4.7-4.7c-2.5-.1-4.7 2-4.7 4.7" class="st6"/><path d="M13.4 21.7c.7.8 0 0 .2 1.4 0 0 8.7-2.3 12.6-6.2 3.9-4 3.4-8.5 2-10.5.3 7.2-7 12-14.8 15.3" class="st6"/><path d="M17.8 10.4c0 2.2 1.8 4 3.9 4s3.9-1.8 3.9-4-1.8-4-3.9-4-3.9 1.8-3.9 4" style="fill:#bed3eb"/><path d="M21.6 14.7c-2.4 0-4.2-1.9-4.2-4.3s1.9-4.3 4.2-4.3 4.2 1.9 4.2 4.3-1.8 4.3-4.2 4.3m0-7.8c-1.9 0-3.4 1.5-3.4 3.4s1.5 3.4 3.4 3.4 3.4-1.5 3.4-3.4-1.5-3.4-3.4-3.4" class="st2"/><path d="M19.7 21.2c-1.8-7.5-8.8-8.8-8.8-8.8-1.3 3.3-1.5 6.2-1.5 6.2s3.2.8 3.6 4.4c.1.1 3.3-.5 6.7-1.8" class="st0"/><path d="M13.1 23.5c-.2 0-.3-.2-.4-.3-.4-3.3-3.3-4-3.4-4-.2 0-.3-.2-.3-.4 0-.1.2-3.1 1.4-6.4 0-.1.1-.1.1-.2.1-.1.3-.2.3-.1.1 0 1.9.3 4 1.7 1.9 1.2 4.3 3.4 5.2 7.5.1.2-.1.3-.3.4-3.3 1.2-6.5 1.8-6.6 1.8m-3.2-5.1c.8.3 3 1.3 3.5 4.2.9-.2 3.3-.8 5.7-1.7-.8-2.9-2.4-5-4.7-6.6-1.3-.9-2.8-1.3-3.3-1.4-.9 2.4-1.2 4.6-1.2 5.5" class="st2"/><path d="M23.9 11c-.3 0-.4-.2-.4-.4 0-.3-.1-.8-.3-1-.1-.2-.1-.4.1-.6.2-.1.4-.1.6.1.3.4.4.9.4 1.4 0 .3-.1.5-.4.5m-4.6-.3c-.3 0-.4-.2-.4-.4 0-1.4 1.2-2.6 2.6-2.6q.6 0 1.2.3c.2.1.3.3.2.5s-.3.3-.6.2-.5-.2-.8-.2c-1 0-1.9.8-1.9 1.9.1.1-.1.3-.3.3" style="opacity:.83;fill:#fff"/><path d="M11 12.8c-1.2 3.1-1.3 6.1-1.3 6.1s.4-.4 1.4.7c.3-1.1 1.9-3.7 3.2-5.2-1.8-1.3-3.3-1.6-3.3-1.6" style="opacity:.63;fill:#fff"/><path d="M12.1 20.7c2.1-.7 3.6-2.4 5.2-4 0 0 1.9 2.5 2.1 4.4 0 0-2.9 1.3-6.3 1.9 0-.1 0-1.6-1-2.3" style="opacity:.31;fill:#6e6e96"/><path d="M13.1 23.5c-.2 0-.3-.2-.4-.3-.4-3.3-3.2-4-3.4-4s-.3-.3-.3-.5.2-3.9 2.1-7.7c1.8-3.5 5.2-7.7 12.2-7.7.7 0 1.3 0 2.1.1.1 0 1.9.3 3 1.9.7 1 1.3 2.9 1.1 5.4-.2 1.9-.8 4.6-3.4 7.2-1.7 1.8-4.4 3.2-8 4.4-2.7.8-4.9 1.2-5 1.2m-3.2-5.1c.8.3 3 1.3 3.5 4.2.8-.2 2.4-.6 4.5-1.2 3.4-1.1 6.1-2.5 7.7-4.1C29.7 13 29 7.7 27.7 5.7c-.9-1.3-2.4-1.5-2.4-1.5-.8-.1-1.3-.1-2-.1-2.9 0-5.4.8-7.5 2.3-1.7 1.2-3 2.9-4 5-1.4 3-1.9 6-1.9 7" class="st2"/><path d="M13.1 23.6s-.3 3.5 2.1 2.1 3.7-3.1 3.7-4.1c0 0 0 5.5-5.8 5.8 0-.1-.8-3 0-3.8" style="opacity:.15;fill:#6e6e96"/><path d="M4.9 28.7c-.6 0-.9-.2-1.2-.4-.2-.3-.3-.6-.3-1.1 0-1.4 1.1-4.3 2.3-5.5 1.1-1 1.9-1.5 2.9-1.5.8 0 1.4.3 2.2 1.1.4.4.7 1.1.7 1.8 0 1.1-.6 2.3-1.5 3.2-1.2 1.2-3.5 2.4-5.1 2.4m3.6-7.5c-.7 0-1.3.3-2.2 1.3-.6.6-1.2 1.7-1.7 2.9-.4 1.4-.4 2.2-.3 2.3.2.2.4.2.7.2 1.3 0 3.4-1.1 4.4-2.1.8-.8 1.3-1.8 1.3-2.5 0-.4-.2-.9-.4-1.2q-1.05-.9-1.8-.9" style="opacity:.81;fill:#6e6e96"/></svg>