<?xml version="1.0" encoding="utf-8"?>
<!-- Generator: Adobe Illustrator 28.0.0, SVG Export Plug-In . SVG Version: 6.00 Build 0)  -->
<svg version="1.1" id="图层_1" xmlns="http://www.w3.org/2000/svg" xmlns:xlink="http://www.w3.org/1999/xlink" x="0px" y="0px"
	 viewBox="0 0 32.9 32" style="enable-background:new 0 0 32.9 32;" xml:space="preserve">
<style type="text/css">
	.st0{fill:#DBEAFF;}
	.st1{fill:#FABE78;}
	.st2{fill:#6E6E96;}
	.st3{fill:#FF9FB0;}
	.st4{opacity:0.31;fill:#FFFFFF;enable-background:new    ;}
	.st5{opacity:0.52;fill:#FFFFFF;enable-background:new    ;}
	.st6{fill:#F28C8C;}
	.st7{fill:#BED3EB;}
	.st8{opacity:0.83;fill:#FFFFFF;enable-background:new    ;}
	.st9{opacity:0.63;fill:#FFFFFF;enable-background:new    ;}
	.st10{opacity:0.31;fill:#6E6E96;enable-background:new    ;}
	.st11{opacity:0.15;fill:#6E6E96;enable-background:new    ;}
	.st12{opacity:0.81;fill:#6E6E96;enable-background:new    ;}
</style>
<path class="st0" d="M17.2,18.8l0.2,0.1c0,0,1.3,1.2,1.7,2.5c0.3,1.5-1,5.3-5.5,6.1c-1.5,0.3-0.3-2.8-0.4-4.4
	C13.1,23.1,17.2,18.8,17.2,18.8z"/>
<path class="st1" d="M6,22.2c-1.3,1.3-2.6,5.2-2,5.8c0.9,0.9,4.2-0.6,5.6-1.9s1.9-3.3,0.8-4.4C8.9,20.1,7.5,20.7,6,22.2z"/>
<path class="st2" d="M13.4,27.9c-0.3,0-0.7-0.2-0.8-0.3c-0.4-0.6-0.3-1.4-0.1-2.5c0.1-0.7,0.2-1.3,0.2-1.9c0-0.1,0-0.3,0.1-0.3
	l4-4.3c0.1-0.1,0.3-0.2,0.3-0.1l0.2,0.1c0.1,0,0.1,0.1,0.2,0.1c0.1,0.1,1.4,1.3,1.9,2.9c0.3,0.9-0.1,2.4-0.9,3.4
	C17.3,26.6,15.6,27.5,13.4,27.9C13.6,27.9,13.5,27.9,13.4,27.9z M13.5,23.2c0,0.6-0.1,1.3-0.2,1.9c-0.1,0.7-0.3,1.7-0.1,1.9
	c0,0,0,0,0.1,0h0.1c2.4-0.3,3.6-1.7,4.3-2.6c0.8-1.1,0.9-2.3,0.8-2.9c-0.3-1-1-1.9-1.3-2.2C17.3,19.3,13.5,23.2,13.5,23.2z"/>
<path class="st0" d="M13,14.6l0.2-0.2c0,0-1.4-3.4-4.7-0.8c-1.2,0.9-5.5,5.2-2.5,5.1s3.6,0.2,3.6,0.2L13,14.6z"/>
<path class="st2" d="M9.4,19.1L9.4,19.1c-0.1,0-0.7-0.2-2.4-0.2c-0.3,0-0.8,0-1.2,0c-0.9,0-1.3-0.3-1.3-0.7
	c-0.6-1.7,3.5-5.1,3.6-5.2C9,12.3,9.9,12,10.6,12c1.9,0,2.9,2,2.9,2.1c0.1,0.2,0,0.3-0.1,0.4l-0.2,0.2l0,0l-3.4,4.2
	C9.7,19.1,9.6,19.1,9.4,19.1z M7,18.1c1.3,0,1.9,0.1,2.3,0.1l3.4-4c-0.3-0.4-0.9-1.3-2-1.3c-0.7,0-1.3,0.3-2.1,0.9
	c-1.9,1.5-3.5,3.7-3.4,4.2C5.2,18,5.3,18,5.6,18h0.1C6.2,18.1,6.7,18.1,7,18.1z"/>
<path class="st3" d="M25.8,17.5c4.4-4.5,3.5-10,2.2-12c-1.1-1.5-2.8-1.8-2.8-1.8C10.3,2.2,9.4,18.8,9.4,18.8s3.2,0.8,3.6,4.4
	C13.1,23.1,22,21.6,25.8,17.5z"/>
<path class="st4" d="M13.2,17.1c0,0,6.2-13.3,12.8-12.8c0,0-11.1-3.7-15.2,9.5C10.8,13.8,13.2,17.1,13.2,17.1z"/>
<path class="st5" d="M7.2,22.8c-0.8,0.8-1.3,2.6-1,3c0.4,0.4,2.2-0.3,2.9-1c0.8-0.8,0.9-1.8,0.4-2.2C8.7,21.8,7.9,22.1,7.2,22.8z"/>
<path class="st3" d="M16.3,10.4c0,3,2.4,5.4,5.4,5.4s5.4-2.4,5.4-5.4l0,0c0-2.9-2.4-5.4-5.4-5.4S16.3,7.5,16.3,10.4L16.3,10.4z"/>
<path class="st6" d="M17.4,11.3c0,2.6,2.1,4.7,4.7,4.7s4.7-2.1,4.7-4.7l0,0c0-2.6-2.1-4.7-4.7-4.7C19.6,6.5,17.4,8.6,17.4,11.3
	L17.4,11.3z"/>
<path class="st6" d="M13.4,21.7c0.7,0.8,0,0,0.2,1.4c0,0,8.7-2.3,12.6-6.2c3.9-4,3.4-8.5,2-10.5C28.5,13.6,21.2,18.4,13.4,21.7z"/>
<path class="st7" d="M17.8,10.4c0,2.2,1.8,4,3.9,4s3.9-1.8,3.9-4s-1.8-4-3.9-4S17.8,8.2,17.8,10.4z"/>
<path class="st2" d="M21.6,14.7c-2.4,0-4.2-1.9-4.2-4.3s1.9-4.3,4.2-4.3s4.2,1.9,4.2,4.3S24,14.7,21.6,14.7z M21.6,6.9
	c-1.9,0-3.4,1.5-3.4,3.4s1.5,3.4,3.4,3.4c1.9,0,3.4-1.5,3.4-3.4S23.5,6.9,21.6,6.9z"/>
<path class="st0" d="M19.7,21.2c-1.8-7.5-8.8-8.8-8.8-8.8l0,0c-1.3,3.3-1.5,6.2-1.5,6.2s3.2,0.8,3.6,4.4
	C13.1,23.1,16.3,22.5,19.7,21.2z"/>
<path class="st2" d="M13.1,23.5c-0.2,0-0.3-0.2-0.4-0.3c-0.4-3.3-3.3-4-3.4-4c-0.2,0-0.3-0.2-0.3-0.4c0-0.1,0.2-3.1,1.4-6.4
	c0-0.1,0.1-0.1,0.1-0.2c0.1-0.1,0.3-0.2,0.3-0.1c0.1,0,1.9,0.3,4,1.7c1.9,1.2,4.3,3.4,5.2,7.5c0.1,0.2-0.1,0.3-0.3,0.4
	C16.4,22.9,13.2,23.5,13.1,23.5z M9.9,18.4c0.8,0.3,3,1.3,3.5,4.2c0.9-0.2,3.3-0.8,5.7-1.7c-0.8-2.9-2.4-5-4.7-6.6
	c-1.3-0.9-2.8-1.3-3.3-1.4C10.2,15.3,9.9,17.5,9.9,18.4z"/>
<path class="st8" d="M23.9,11c-0.3,0-0.4-0.2-0.4-0.4l0,0c0-0.3-0.1-0.8-0.3-1c-0.1-0.2-0.1-0.4,0.1-0.6c0.2-0.1,0.4-0.1,0.6,0.1
	c0.3,0.4,0.4,0.9,0.4,1.4C24.3,10.8,24.2,11,23.9,11z M19.3,10.7c-0.3,0-0.4-0.2-0.4-0.4l0,0c0-1.4,1.2-2.6,2.6-2.6
	c0.4,0,0.8,0.1,1.2,0.3c0.2,0.1,0.3,0.3,0.2,0.5c-0.1,0.2-0.3,0.3-0.6,0.2c-0.3-0.1-0.5-0.2-0.8-0.2c-1,0-1.9,0.8-1.9,1.9
	C19.7,10.5,19.5,10.7,19.3,10.7z"/>
<path class="st9" d="M11,12.8L11,12.8c-1.2,3.1-1.3,6.1-1.3,6.1s0.4-0.4,1.4,0.7c0.3-1.1,1.9-3.7,3.2-5.2C12.5,13.1,11,12.8,11,12.8
	z"/>
<path class="st10" d="M12.1,20.7c2.1-0.7,3.6-2.4,5.2-4c0,0,1.9,2.5,2.1,4.4c0,0-2.9,1.3-6.3,1.9C13.1,22.9,13.1,21.4,12.1,20.7z"/>
<path class="st2" d="M13.1,23.5c-0.2,0-0.3-0.2-0.4-0.3c-0.4-3.3-3.2-4-3.4-4S9,18.9,9,18.7c0-0.2,0.2-3.9,2.1-7.7
	c1.8-3.5,5.2-7.7,12.2-7.7c0.7,0,1.3,0,2.1,0.1c0.1,0,1.9,0.3,3,1.9c0.7,1,1.3,2.9,1.1,5.4c-0.2,1.9-0.8,4.6-3.4,7.2
	c-1.7,1.8-4.4,3.2-8,4.4C15.4,23.1,13.2,23.5,13.1,23.5L13.1,23.5z M9.9,18.4c0.8,0.3,3,1.3,3.5,4.2c0.8-0.2,2.4-0.6,4.5-1.2
	c3.4-1.1,6.1-2.5,7.7-4.1C29.7,13,29,7.7,27.7,5.7c-0.9-1.3-2.4-1.5-2.4-1.5c-0.8-0.1-1.3-0.1-2-0.1c-2.9,0-5.4,0.8-7.5,2.3
	c-1.7,1.2-3,2.9-4,5C10.4,14.4,9.9,17.4,9.9,18.4z"/>
<path class="st11" d="M13.1,23.6c0,0-0.3,3.5,2.1,2.1c2.4-1.4,3.7-3.1,3.7-4.1c0,0,0,5.5-5.8,5.8C13.1,27.3,12.3,24.4,13.1,23.6z"/>
<path class="st12" d="M4.9,28.7L4.9,28.7c-0.6,0-0.9-0.2-1.2-0.4c-0.2-0.3-0.3-0.6-0.3-1.1c0-1.4,1.1-4.3,2.3-5.5
	c1.1-1,1.9-1.5,2.9-1.5c0.8,0,1.4,0.3,2.2,1.1c0.4,0.4,0.7,1.1,0.7,1.8c0,1.1-0.6,2.3-1.5,3.2C8.8,27.5,6.5,28.7,4.9,28.7z
	 M8.5,21.2c-0.7,0-1.3,0.3-2.2,1.3c-0.6,0.6-1.2,1.7-1.7,2.9c-0.4,1.4-0.4,2.2-0.3,2.3c0.2,0.2,0.4,0.2,0.7,0.2
	c1.3,0,3.4-1.1,4.4-2.1c0.8-0.8,1.3-1.8,1.3-2.5c0-0.4-0.2-0.9-0.4-1.2C9.6,21.5,9,21.2,8.5,21.2z"/>
</svg>
